<?xml version="1.0" encoding="UTF-8"?>
<svg width="20px" height="88px" viewBox="0 0 20 88" version="1.1" xmlns="http://www.w3.org/2000/svg" xmlns:xlink="http://www.w3.org/1999/xlink">
    <!-- Generator: Sketch 52 (66869) - http://www.bohemiancoding.com/sketch -->
    <title>Oval</title>
    <desc>Created with Sketch.</desc>
    <g id="Design" stroke="none" stroke-width="1" fill="none" fill-rule="evenodd">
        <g id="4a-Techniciens" transform="translate(-676.000000, -3076.000000)" fill="#FFFFFF" fill-rule="nonzero">
            <g id="Section-3" transform="translate(0.000000, 2308.000000)">
                <g id="2" transform="translate(201.000000, 743.000000)">
                    <g id="Illustration2-section3" transform="translate(475.000000, 0.000000)">
                        <path d="M-32.1780711,78.6056004 C-33.0089608,78.6056004 -33.6825299,77.9340276 -33.6825299,77.1056004 C-33.6825299,76.2771733 -33.0089608,75.6056004 -32.1780711,75.6056004 C-31.3471815,75.6056004 -30.6736124,76.2771733 -30.6736124,77.1056004 C-30.6736124,77.9340276 -31.3471815,78.6056004 -32.1780711,78.6056004 Z M-15.3515029,78.6056004 C-16.1823925,78.6056004 -16.8559617,77.9340276 -16.8559617,77.1056004 C-16.8559617,76.2771733 -16.1823925,75.6056004 -15.3515029,75.6056004 C-14.5206132,75.6056004 -13.8470441,76.2771733 -13.8470441,77.1056004 C-13.8470441,77.9340276 -14.5206132,78.6056004 -15.3515029,78.6056004 Z M1.47506538,78.6056004 C0.644175733,78.6056004 -0.0293934129,77.9340276 -0.0293934129,77.1056004 C-0.0293934129,76.2771733 0.644175733,75.6056004 1.47506538,75.6056004 C2.30595503,75.6056004 2.97952418,76.2771733 2.97952418,77.1056004 C2.97952418,77.9340276 2.30595503,78.6056004 1.47506538,78.6056004 Z M18.3016336,78.6056004 C17.470744,78.6056004 16.7971749,77.9340276 16.7971749,77.1056004 C16.7971749,76.2771733 17.470744,75.6056004 18.3016336,75.6056004 C19.1325233,75.6056004 19.8060924,76.2771733 19.8060924,77.1056004 C19.8060924,77.9340276 19.1325233,78.6056004 18.3016336,78.6056004 Z M35.1282019,78.6056004 C34.2973123,78.6056004 33.6237431,77.9340276 33.6237431,77.1056004 C33.6237431,76.2771733 34.2973123,75.6056004 35.1282019,75.6056004 C35.9590916,75.6056004 36.6326607,76.2771733 36.6326607,77.1056004 C36.6326607,77.9340276 35.9590916,78.6056004 35.1282019,78.6056004 Z M51.9547702,78.6056004 C51.1238805,78.6056004 50.4503114,77.9340276 50.4503114,77.1056004 C50.4503114,76.2771733 51.1238805,75.6056004 51.9547702,75.6056004 C52.7856598,75.6056004 53.459229,76.2771733 53.459229,77.1056004 C53.459229,77.9340276 52.7856598,78.6056004 51.9547702,78.6056004 Z M-32.1780711,61.8289014 C-33.0089608,61.8289014 -33.6825299,61.1573285 -33.6825299,60.3289014 C-33.6825299,59.5004743 -33.0089608,58.8289014 -32.1780711,58.8289014 C-31.3471815,58.8289014 -30.6736124,59.5004743 -30.6736124,60.3289014 C-30.6736124,61.1573285 -31.3471815,61.8289014 -32.1780711,61.8289014 Z M-15.3515029,61.8289014 C-16.1823925,61.8289014 -16.8559617,61.1573285 -16.8559617,60.3289014 C-16.8559617,59.5004743 -16.1823925,58.8289014 -15.3515029,58.8289014 C-14.5206132,58.8289014 -13.8470441,59.5004743 -13.8470441,60.3289014 C-13.8470441,61.1573285 -14.5206132,61.8289014 -15.3515029,61.8289014 Z M1.47506538,61.8289014 C0.644175733,61.8289014 -0.0293934129,61.1573285 -0.0293934129,60.3289014 C-0.0293934129,59.5004743 0.644175733,58.8289014 1.47506538,58.8289014 C2.30595503,58.8289014 2.97952418,59.5004743 2.97952418,60.3289014 C2.97952418,61.1573285 2.30595503,61.8289014 1.47506538,61.8289014 Z M18.3016336,61.8289014 C17.470744,61.8289014 16.7971749,61.1573285 16.7971749,60.3289014 C16.7971749,59.5004743 17.470744,58.8289014 18.3016336,58.8289014 C19.1325233,58.8289014 19.8060924,59.5004743 19.8060924,60.3289014 C19.8060924,61.1573285 19.1325233,61.8289014 18.3016336,61.8289014 Z M35.1282019,61.8289014 C34.2973123,61.8289014 33.6237431,61.1573285 33.6237431,60.3289014 C33.6237431,59.5004743 34.2973123,58.8289014 35.1282019,58.8289014 C35.9590916,58.8289014 36.6326607,59.5004743 36.6326607,60.3289014 C36.6326607,61.1573285 35.9590916,61.8289014 35.1282019,61.8289014 Z M51.9547702,61.8289014 C51.1238805,61.8289014 50.4503114,61.1573285 50.4503114,60.3289014 C50.4503114,59.5004743 51.1238805,58.8289014 51.9547702,58.8289014 C52.7856598,58.8289014 53.459229,59.5004743 53.459229,60.3289014 C53.459229,61.1573285 52.7856598,61.8289014 51.9547702,61.8289014 Z" id="Oval" transform="translate(9.888350, 68.717251) rotate(-270.000000) translate(-9.888350, -68.717251) "></path>
                    </g>
                </g>
            </g>
        </g>
    </g>
</svg>