<?xml version="1.0" encoding="UTF-8"?>
<svg width="389px" height="71px" viewBox="0 0 389 71" version="1.1" xmlns="http://www.w3.org/2000/svg" xmlns:xlink="http://www.w3.org/1999/xlink">
    <!-- Generator: Sketch 52 (66869) - http://www.bohemiancoding.com/sketch -->
    <title>Oval</title>
    <desc>Created with Sketch.</desc>
    <g id="Design" stroke="none" stroke-width="1" fill="none" fill-rule="evenodd">
        <g id="4b-Techniciens" transform="translate(-613.000000, -3129.000000)" fill="#272C6C" fill-rule="nonzero">
            <g id="Section-2" transform="translate(210.000000, 2984.000000)">
                <g id="illu-section2" transform="translate(210.000000, 145.000000)">
                    <path d="M194.504459,70.1067961 C193.673569,70.1067961 193,69.4352232 193,68.6067961 C193,67.778369 193.673569,67.1067961 194.504459,67.1067961 C195.335348,67.1067961 196.008918,67.778369 196.008918,68.6067961 C196.008918,69.4352232 195.335348,70.1067961 194.504459,70.1067961 Z M211.331027,70.1067961 C210.500137,70.1067961 209.826568,69.4352232 209.826568,68.6067961 C209.826568,67.778369 210.500137,67.1067961 211.331027,67.1067961 C212.161917,67.1067961 212.835486,67.778369 212.835486,68.6067961 C212.835486,69.4352232 212.161917,70.1067961 211.331027,70.1067961 Z M228.157595,70.1067961 C227.326706,70.1067961 226.653137,69.4352232 226.653137,68.6067961 C226.653137,67.778369 227.326706,67.1067961 228.157595,67.1067961 C228.988485,67.1067961 229.662054,67.778369 229.662054,68.6067961 C229.662054,69.4352232 228.988485,70.1067961 228.157595,70.1067961 Z M244.984164,70.1067961 C244.153274,70.1067961 243.479705,69.4352232 243.479705,68.6067961 C243.479705,67.778369 244.153274,67.1067961 244.984164,67.1067961 C245.815053,67.1067961 246.488622,67.778369 246.488622,68.6067961 C246.488622,69.4352232 245.815053,70.1067961 244.984164,70.1067961 Z M261.810732,70.1067961 C260.979842,70.1067961 260.306273,69.4352232 260.306273,68.6067961 C260.306273,67.778369 260.979842,67.1067961 261.810732,67.1067961 C262.641622,67.1067961 263.315191,67.778369 263.315191,68.6067961 C263.315191,69.4352232 262.641622,70.1067961 261.810732,70.1067961 Z M278.6373,70.1067961 C277.80641,70.1067961 277.132841,69.4352232 277.132841,68.6067961 C277.132841,67.778369 277.80641,67.1067961 278.6373,67.1067961 C279.46819,67.1067961 280.141759,67.778369 280.141759,68.6067961 C280.141759,69.4352232 279.46819,70.1067961 278.6373,70.1067961 Z M295.463868,70.1067961 C294.632979,70.1067961 293.95941,69.4352232 293.95941,68.6067961 C293.95941,67.778369 294.632979,67.1067961 295.463868,67.1067961 C296.294758,67.1067961 296.968327,67.778369 296.968327,68.6067961 C296.968327,69.4352232 296.294758,70.1067961 295.463868,70.1067961 Z M312.290437,70.1067961 C311.459547,70.1067961 310.785978,69.4352232 310.785978,68.6067961 C310.785978,67.778369 311.459547,67.1067961 312.290437,67.1067961 C313.121326,67.1067961 313.794895,67.778369 313.794895,68.6067961 C313.794895,69.4352232 313.121326,70.1067961 312.290437,70.1067961 Z M329.117005,70.1067961 C328.286115,70.1067961 327.612546,69.4352232 327.612546,68.6067961 C327.612546,67.778369 328.286115,67.1067961 329.117005,67.1067961 C329.947895,67.1067961 330.621464,67.778369 330.621464,68.6067961 C330.621464,69.4352232 329.947895,70.1067961 329.117005,70.1067961 Z M345.943573,70.1067961 C345.112684,70.1067961 344.439114,69.4352232 344.439114,68.6067961 C344.439114,67.778369 345.112684,67.1067961 345.943573,67.1067961 C346.774463,67.1067961 347.448032,67.778369 347.448032,68.6067961 C347.448032,69.4352232 346.774463,70.1067961 345.943573,70.1067961 Z M362.770141,70.1067961 C361.939252,70.1067961 361.265683,69.4352232 361.265683,68.6067961 C361.265683,67.778369 361.939252,67.1067961 362.770141,67.1067961 C363.601031,67.1067961 364.2746,67.778369 364.2746,68.6067961 C364.2746,69.4352232 363.601031,70.1067961 362.770141,70.1067961 Z M379.59671,70.1067961 C378.76582,70.1067961 378.092251,69.4352232 378.092251,68.6067961 C378.092251,67.778369 378.76582,67.1067961 379.59671,67.1067961 C380.427599,67.1067961 381.101169,67.778369 381.101169,68.6067961 C381.101169,69.4352232 380.427599,70.1067961 379.59671,70.1067961 Z M194.504459,53.3300971 C193.673569,53.3300971 193,52.6585242 193,51.8300971 C193,51.00167 193.673569,50.3300971 194.504459,50.3300971 C195.335348,50.3300971 196.008918,51.00167 196.008918,51.8300971 C196.008918,52.6585242 195.335348,53.3300971 194.504459,53.3300971 Z M211.331027,53.3300971 C210.500137,53.3300971 209.826568,52.6585242 209.826568,51.8300971 C209.826568,51.00167 210.500137,50.3300971 211.331027,50.3300971 C212.161917,50.3300971 212.835486,51.00167 212.835486,51.8300971 C212.835486,52.6585242 212.161917,53.3300971 211.331027,53.3300971 Z M228.157595,53.3300971 C227.326706,53.3300971 226.653137,52.6585242 226.653137,51.8300971 C226.653137,51.00167 227.326706,50.3300971 228.157595,50.3300971 C228.988485,50.3300971 229.662054,51.00167 229.662054,51.8300971 C229.662054,52.6585242 228.988485,53.3300971 228.157595,53.3300971 Z M244.984164,53.3300971 C244.153274,53.3300971 243.479705,52.6585242 243.479705,51.8300971 C243.479705,51.00167 244.153274,50.3300971 244.984164,50.3300971 C245.815053,50.3300971 246.488622,51.00167 246.488622,51.8300971 C246.488622,52.6585242 245.815053,53.3300971 244.984164,53.3300971 Z M261.810732,53.3300971 C260.979842,53.3300971 260.306273,52.6585242 260.306273,51.8300971 C260.306273,51.00167 260.979842,50.3300971 261.810732,50.3300971 C262.641622,50.3300971 263.315191,51.00167 263.315191,51.8300971 C263.315191,52.6585242 262.641622,53.3300971 261.810732,53.3300971 Z M278.6373,53.3300971 C277.80641,53.3300971 277.132841,52.6585242 277.132841,51.8300971 C277.132841,51.00167 277.80641,50.3300971 278.6373,50.3300971 C279.46819,50.3300971 280.141759,51.00167 280.141759,51.8300971 C280.141759,52.6585242 279.46819,53.3300971 278.6373,53.3300971 Z M295.463868,53.3300971 C294.632979,53.3300971 293.95941,52.6585242 293.95941,51.8300971 C293.95941,51.00167 294.632979,50.3300971 295.463868,50.3300971 C296.294758,50.3300971 296.968327,51.00167 296.968327,51.8300971 C296.968327,52.6585242 296.294758,53.3300971 295.463868,53.3300971 Z M312.290437,53.3300971 C311.459547,53.3300971 310.785978,52.6585242 310.785978,51.8300971 C310.785978,51.00167 311.459547,50.3300971 312.290437,50.3300971 C313.121326,50.3300971 313.794895,51.00167 313.794895,51.8300971 C313.794895,52.6585242 313.121326,53.3300971 312.290437,53.3300971 Z M329.117005,53.3300971 C328.286115,53.3300971 327.612546,52.6585242 327.612546,51.8300971 C327.612546,51.00167 328.286115,50.3300971 329.117005,50.3300971 C329.947895,50.3300971 330.621464,51.00167 330.621464,51.8300971 C330.621464,52.6585242 329.947895,53.3300971 329.117005,53.3300971 Z M345.943573,53.3300971 C345.112684,53.3300971 344.439114,52.6585242 344.439114,51.8300971 C344.439114,51.00167 345.112684,50.3300971 345.943573,50.3300971 C346.774463,50.3300971 347.448032,51.00167 347.448032,51.8300971 C347.448032,52.6585242 346.774463,53.3300971 345.943573,53.3300971 Z M362.770141,53.3300971 C361.939252,53.3300971 361.265683,52.6585242 361.265683,51.8300971 C361.265683,51.00167 361.939252,50.3300971 362.770141,50.3300971 C363.601031,50.3300971 364.2746,51.00167 364.2746,51.8300971 C364.2746,52.6585242 363.601031,53.3300971 362.770141,53.3300971 Z M379.59671,53.3300971 C378.76582,53.3300971 378.092251,52.6585242 378.092251,51.8300971 C378.092251,51.00167 378.76582,50.3300971 379.59671,50.3300971 C380.427599,50.3300971 381.101169,51.00167 381.101169,51.8300971 C381.101169,52.6585242 380.427599,53.3300971 379.59671,53.3300971 Z M194.504459,36.5533981 C193.673569,36.5533981 193,35.8818252 193,35.0533981 C193,34.2249709 193.673569,33.5533981 194.504459,33.5533981 C195.335348,33.5533981 196.008918,34.2249709 196.008918,35.0533981 C196.008918,35.8818252 195.335348,36.5533981 194.504459,36.5533981 Z M211.331027,36.5533981 C210.500137,36.5533981 209.826568,35.8818252 209.826568,35.0533981 C209.826568,34.2249709 210.500137,33.5533981 211.331027,33.5533981 C212.161917,33.5533981 212.835486,34.2249709 212.835486,35.0533981 C212.835486,35.8818252 212.161917,36.5533981 211.331027,36.5533981 Z M228.157595,36.5533981 C227.326706,36.5533981 226.653137,35.8818252 226.653137,35.0533981 C226.653137,34.2249709 227.326706,33.5533981 228.157595,33.5533981 C228.988485,33.5533981 229.662054,34.2249709 229.662054,35.0533981 C229.662054,35.8818252 228.988485,36.5533981 228.157595,36.5533981 Z M244.984164,36.5533981 C244.153274,36.5533981 243.479705,35.8818252 243.479705,35.0533981 C243.479705,34.2249709 244.153274,33.5533981 244.984164,33.5533981 C245.815053,33.5533981 246.488622,34.2249709 246.488622,35.0533981 C246.488622,35.8818252 245.815053,36.5533981 244.984164,36.5533981 Z M261.810732,36.5533981 C260.979842,36.5533981 260.306273,35.8818252 260.306273,35.0533981 C260.306273,34.2249709 260.979842,33.5533981 261.810732,33.5533981 C262.641622,33.5533981 263.315191,34.2249709 263.315191,35.0533981 C263.315191,35.8818252 262.641622,36.5533981 261.810732,36.5533981 Z M278.6373,36.5533981 C277.80641,36.5533981 277.132841,35.8818252 277.132841,35.0533981 C277.132841,34.2249709 277.80641,33.5533981 278.6373,33.5533981 C279.46819,33.5533981 280.141759,34.2249709 280.141759,35.0533981 C280.141759,35.8818252 279.46819,36.5533981 278.6373,36.5533981 Z M295.463868,36.5533981 C294.632979,36.5533981 293.95941,35.8818252 293.95941,35.0533981 C293.95941,34.2249709 294.632979,33.5533981 295.463868,33.5533981 C296.294758,33.5533981 296.968327,34.2249709 296.968327,35.0533981 C296.968327,35.8818252 296.294758,36.5533981 295.463868,36.5533981 Z M312.290437,36.5533981 C311.459547,36.5533981 310.785978,35.8818252 310.785978,35.0533981 C310.785978,34.2249709 311.459547,33.5533981 312.290437,33.5533981 C313.121326,33.5533981 313.794895,34.2249709 313.794895,35.0533981 C313.794895,35.8818252 313.121326,36.5533981 312.290437,36.5533981 Z M329.117005,36.5533981 C328.286115,36.5533981 327.612546,35.8818252 327.612546,35.0533981 C327.612546,34.2249709 328.286115,33.5533981 329.117005,33.5533981 C329.947895,33.5533981 330.621464,34.2249709 330.621464,35.0533981 C330.621464,35.8818252 329.947895,36.5533981 329.117005,36.5533981 Z M345.943573,36.5533981 C345.112684,36.5533981 344.439114,35.8818252 344.439114,35.0533981 C344.439114,34.2249709 345.112684,33.5533981 345.943573,33.5533981 C346.774463,33.5533981 347.448032,34.2249709 347.448032,35.0533981 C347.448032,35.8818252 346.774463,36.5533981 345.943573,36.5533981 Z M362.770141,36.5533981 C361.939252,36.5533981 361.265683,35.8818252 361.265683,35.0533981 C361.265683,34.2249709 361.939252,33.5533981 362.770141,33.5533981 C363.601031,33.5533981 364.2746,34.2249709 364.2746,35.0533981 C364.2746,35.8818252 363.601031,36.5533981 362.770141,36.5533981 Z M379.59671,36.5533981 C378.76582,36.5533981 378.092251,35.8818252 378.092251,35.0533981 C378.092251,34.2249709 378.76582,33.5533981 379.59671,33.5533981 C380.427599,33.5533981 381.101169,34.2249709 381.101169,35.0533981 C381.101169,35.8818252 380.427599,36.5533981 379.59671,36.5533981 Z M194.504459,19.776699 C193.673569,19.776699 193,19.1051262 193,18.276699 C193,17.4482719 193.673569,16.776699 194.504459,16.776699 C195.335348,16.776699 196.008918,17.4482719 196.008918,18.276699 C196.008918,19.1051262 195.335348,19.776699 194.504459,19.776699 Z M211.331027,19.776699 C210.500137,19.776699 209.826568,19.1051262 209.826568,18.276699 C209.826568,17.4482719 210.500137,16.776699 211.331027,16.776699 C212.161917,16.776699 212.835486,17.4482719 212.835486,18.276699 C212.835486,19.1051262 212.161917,19.776699 211.331027,19.776699 Z M228.157595,19.776699 C227.326706,19.776699 226.653137,19.1051262 226.653137,18.276699 C226.653137,17.4482719 227.326706,16.776699 228.157595,16.776699 C228.988485,16.776699 229.662054,17.4482719 229.662054,18.276699 C229.662054,19.1051262 228.988485,19.776699 228.157595,19.776699 Z M244.984164,19.776699 C244.153274,19.776699 243.479705,19.1051262 243.479705,18.276699 C243.479705,17.4482719 244.153274,16.776699 244.984164,16.776699 C245.815053,16.776699 246.488622,17.4482719 246.488622,18.276699 C246.488622,19.1051262 245.815053,19.776699 244.984164,19.776699 Z M261.810732,19.776699 C260.979842,19.776699 260.306273,19.1051262 260.306273,18.276699 C260.306273,17.4482719 260.979842,16.776699 261.810732,16.776699 C262.641622,16.776699 263.315191,17.4482719 263.315191,18.276699 C263.315191,19.1051262 262.641622,19.776699 261.810732,19.776699 Z M278.6373,19.776699 C277.80641,19.776699 277.132841,19.1051262 277.132841,18.276699 C277.132841,17.4482719 277.80641,16.776699 278.6373,16.776699 C279.46819,16.776699 280.141759,17.4482719 280.141759,18.276699 C280.141759,19.1051262 279.46819,19.776699 278.6373,19.776699 Z M295.463868,19.776699 C294.632979,19.776699 293.95941,19.1051262 293.95941,18.276699 C293.95941,17.4482719 294.632979,16.776699 295.463868,16.776699 C296.294758,16.776699 296.968327,17.4482719 296.968327,18.276699 C296.968327,19.1051262 296.294758,19.776699 295.463868,19.776699 Z M312.290437,19.776699 C311.459547,19.776699 310.785978,19.1051262 310.785978,18.276699 C310.785978,17.4482719 311.459547,16.776699 312.290437,16.776699 C313.121326,16.776699 313.794895,17.4482719 313.794895,18.276699 C313.794895,19.1051262 313.121326,19.776699 312.290437,19.776699 Z M329.117005,19.776699 C328.286115,19.776699 327.612546,19.1051262 327.612546,18.276699 C327.612546,17.4482719 328.286115,16.776699 329.117005,16.776699 C329.947895,16.776699 330.621464,17.4482719 330.621464,18.276699 C330.621464,19.1051262 329.947895,19.776699 329.117005,19.776699 Z M345.943573,19.776699 C345.112684,19.776699 344.439114,19.1051262 344.439114,18.276699 C344.439114,17.4482719 345.112684,16.776699 345.943573,16.776699 C346.774463,16.776699 347.448032,17.4482719 347.448032,18.276699 C347.448032,19.1051262 346.774463,19.776699 345.943573,19.776699 Z M362.770141,19.776699 C361.939252,19.776699 361.265683,19.1051262 361.265683,18.276699 C361.265683,17.4482719 361.939252,16.776699 362.770141,16.776699 C363.601031,16.776699 364.2746,17.4482719 364.2746,18.276699 C364.2746,19.1051262 363.601031,19.776699 362.770141,19.776699 Z M379.59671,19.776699 C378.76582,19.776699 378.092251,19.1051262 378.092251,18.276699 C378.092251,17.4482719 378.76582,16.776699 379.59671,16.776699 C380.427599,16.776699 381.101169,17.4482719 381.101169,18.276699 C381.101169,19.1051262 380.427599,19.776699 379.59671,19.776699 Z M194.504459,3 C193.673569,3 193,2.32842712 193,1.5 C193,0.671572875 193.673569,0 194.504459,0 C195.335348,0 196.008918,0.671572875 196.008918,1.5 C196.008918,2.32842712 195.335348,3 194.504459,3 Z M211.331027,3 C210.500137,3 209.826568,2.32842712 209.826568,1.5 C209.826568,0.671572875 210.500137,0 211.331027,0 C212.161917,0 212.835486,0.671572875 212.835486,1.5 C212.835486,2.32842712 212.161917,3 211.331027,3 Z M228.157595,3 C227.326706,3 226.653137,2.32842712 226.653137,1.5 C226.653137,0.671572875 227.326706,0 228.157595,0 C228.988485,0 229.662054,0.671572875 229.662054,1.5 C229.662054,2.32842712 228.988485,3 228.157595,3 Z M244.984164,3 C244.153274,3 243.479705,2.32842712 243.479705,1.5 C243.479705,0.671572875 244.153274,0 244.984164,0 C245.815053,0 246.488622,0.671572875 246.488622,1.5 C246.488622,2.32842712 245.815053,3 244.984164,3 Z M261.810732,3 C260.979842,3 260.306273,2.32842712 260.306273,1.5 C260.306273,0.671572875 260.979842,0 261.810732,0 C262.641622,0 263.315191,0.671572875 263.315191,1.5 C263.315191,2.32842712 262.641622,3 261.810732,3 Z M278.6373,3 C277.80641,3 277.132841,2.32842712 277.132841,1.5 C277.132841,0.671572875 277.80641,0 278.6373,0 C279.46819,0 280.141759,0.671572875 280.141759,1.5 C280.141759,2.32842712 279.46819,3 278.6373,3 Z M295.463868,3 C294.632979,3 293.95941,2.32842712 293.95941,1.5 C293.95941,0.671572875 294.632979,0 295.463868,0 C296.294758,0 296.968327,0.671572875 296.968327,1.5 C296.968327,2.32842712 296.294758,3 295.463868,3 Z M312.290437,3 C311.459547,3 310.785978,2.32842712 310.785978,1.5 C310.785978,0.671572875 311.459547,0 312.290437,0 C313.121326,0 313.794895,0.671572875 313.794895,1.5 C313.794895,2.32842712 313.121326,3 312.290437,3 Z M329.117005,3 C328.286115,3 327.612546,2.32842712 327.612546,1.5 C327.612546,0.671572875 328.286115,0 329.117005,0 C329.947895,0 330.621464,0.671572875 330.621464,1.5 C330.621464,2.32842712 329.947895,3 329.117005,3 Z M345.943573,3 C345.112684,3 344.439114,2.32842712 344.439114,1.5 C344.439114,0.671572875 345.112684,0 345.943573,0 C346.774463,0 347.448032,0.671572875 347.448032,1.5 C347.448032,2.32842712 346.774463,3 345.943573,3 Z M362.770141,3 C361.939252,3 361.265683,2.32842712 361.265683,1.5 C361.265683,0.671572875 361.939252,0 362.770141,0 C363.601031,0 364.2746,0.671572875 364.2746,1.5 C364.2746,2.32842712 363.601031,3 362.770141,3 Z M379.59671,3 C378.76582,3 378.092251,2.32842712 378.092251,1.5 C378.092251,0.671572875 378.76582,0 379.59671,0 C380.427599,0 381.101169,0.671572875 381.101169,1.5 C381.101169,2.32842712 380.427599,3 379.59671,3 Z M394.504459,70.1067961 C393.673569,70.1067961 393,69.4352232 393,68.6067961 C393,67.778369 393.673569,67.1067961 394.504459,67.1067961 C395.335348,67.1067961 396.008918,67.778369 396.008918,68.6067961 C396.008918,69.4352232 395.335348,70.1067961 394.504459,70.1067961 Z M411.331027,70.1067961 C410.500137,70.1067961 409.826568,69.4352232 409.826568,68.6067961 C409.826568,67.778369 410.500137,67.1067961 411.331027,67.1067961 C412.161917,67.1067961 412.835486,67.778369 412.835486,68.6067961 C412.835486,69.4352232 412.161917,70.1067961 411.331027,70.1067961 Z M428.157595,70.1067961 C427.326706,70.1067961 426.653137,69.4352232 426.653137,68.6067961 C426.653137,67.778369 427.326706,67.1067961 428.157595,67.1067961 C428.988485,67.1067961 429.662054,67.778369 429.662054,68.6067961 C429.662054,69.4352232 428.988485,70.1067961 428.157595,70.1067961 Z M444.984164,70.1067961 C444.153274,70.1067961 443.479705,69.4352232 443.479705,68.6067961 C443.479705,67.778369 444.153274,67.1067961 444.984164,67.1067961 C445.815053,67.1067961 446.488622,67.778369 446.488622,68.6067961 C446.488622,69.4352232 445.815053,70.1067961 444.984164,70.1067961 Z M461.810732,70.1067961 C460.979842,70.1067961 460.306273,69.4352232 460.306273,68.6067961 C460.306273,67.778369 460.979842,67.1067961 461.810732,67.1067961 C462.641622,67.1067961 463.315191,67.778369 463.315191,68.6067961 C463.315191,69.4352232 462.641622,70.1067961 461.810732,70.1067961 Z M478.6373,70.1067961 C477.80641,70.1067961 477.132841,69.4352232 477.132841,68.6067961 C477.132841,67.778369 477.80641,67.1067961 478.6373,67.1067961 C479.46819,67.1067961 480.141759,67.778369 480.141759,68.6067961 C480.141759,69.4352232 479.46819,70.1067961 478.6373,70.1067961 Z M495.463868,70.1067961 C494.632979,70.1067961 493.95941,69.4352232 493.95941,68.6067961 C493.95941,67.778369 494.632979,67.1067961 495.463868,67.1067961 C496.294758,67.1067961 496.968327,67.778369 496.968327,68.6067961 C496.968327,69.4352232 496.294758,70.1067961 495.463868,70.1067961 Z M512.290437,70.1067961 C511.459547,70.1067961 510.785978,69.4352232 510.785978,68.6067961 C510.785978,67.778369 511.459547,67.1067961 512.290437,67.1067961 C513.121326,67.1067961 513.794895,67.778369 513.794895,68.6067961 C513.794895,69.4352232 513.121326,70.1067961 512.290437,70.1067961 Z M529.117005,70.1067961 C528.286115,70.1067961 527.612546,69.4352232 527.612546,68.6067961 C527.612546,67.778369 528.286115,67.1067961 529.117005,67.1067961 C529.947895,67.1067961 530.621464,67.778369 530.621464,68.6067961 C530.621464,69.4352232 529.947895,70.1067961 529.117005,70.1067961 Z M545.943573,70.1067961 C545.112684,70.1067961 544.439114,69.4352232 544.439114,68.6067961 C544.439114,67.778369 545.112684,67.1067961 545.943573,67.1067961 C546.774463,67.1067961 547.448032,67.778369 547.448032,68.6067961 C547.448032,69.4352232 546.774463,70.1067961 545.943573,70.1067961 Z M562.770141,70.1067961 C561.939252,70.1067961 561.265683,69.4352232 561.265683,68.6067961 C561.265683,67.778369 561.939252,67.1067961 562.770141,67.1067961 C563.601031,67.1067961 564.2746,67.778369 564.2746,68.6067961 C564.2746,69.4352232 563.601031,70.1067961 562.770141,70.1067961 Z M579.59671,70.1067961 C578.76582,70.1067961 578.092251,69.4352232 578.092251,68.6067961 C578.092251,67.778369 578.76582,67.1067961 579.59671,67.1067961 C580.427599,67.1067961 581.101169,67.778369 581.101169,68.6067961 C581.101169,69.4352232 580.427599,70.1067961 579.59671,70.1067961 Z M394.504459,53.3300971 C393.673569,53.3300971 393,52.6585242 393,51.8300971 C393,51.00167 393.673569,50.3300971 394.504459,50.3300971 C395.335348,50.3300971 396.008918,51.00167 396.008918,51.8300971 C396.008918,52.6585242 395.335348,53.3300971 394.504459,53.3300971 Z M411.331027,53.3300971 C410.500137,53.3300971 409.826568,52.6585242 409.826568,51.8300971 C409.826568,51.00167 410.500137,50.3300971 411.331027,50.3300971 C412.161917,50.3300971 412.835486,51.00167 412.835486,51.8300971 C412.835486,52.6585242 412.161917,53.3300971 411.331027,53.3300971 Z M428.157595,53.3300971 C427.326706,53.3300971 426.653137,52.6585242 426.653137,51.8300971 C426.653137,51.00167 427.326706,50.3300971 428.157595,50.3300971 C428.988485,50.3300971 429.662054,51.00167 429.662054,51.8300971 C429.662054,52.6585242 428.988485,53.3300971 428.157595,53.3300971 Z M444.984164,53.3300971 C444.153274,53.3300971 443.479705,52.6585242 443.479705,51.8300971 C443.479705,51.00167 444.153274,50.3300971 444.984164,50.3300971 C445.815053,50.3300971 446.488622,51.00167 446.488622,51.8300971 C446.488622,52.6585242 445.815053,53.3300971 444.984164,53.3300971 Z M461.810732,53.3300971 C460.979842,53.3300971 460.306273,52.6585242 460.306273,51.8300971 C460.306273,51.00167 460.979842,50.3300971 461.810732,50.3300971 C462.641622,50.3300971 463.315191,51.00167 463.315191,51.8300971 C463.315191,52.6585242 462.641622,53.3300971 461.810732,53.3300971 Z M478.6373,53.3300971 C477.80641,53.3300971 477.132841,52.6585242 477.132841,51.8300971 C477.132841,51.00167 477.80641,50.3300971 478.6373,50.3300971 C479.46819,50.3300971 480.141759,51.00167 480.141759,51.8300971 C480.141759,52.6585242 479.46819,53.3300971 478.6373,53.3300971 Z M495.463868,53.3300971 C494.632979,53.3300971 493.95941,52.6585242 493.95941,51.8300971 C493.95941,51.00167 494.632979,50.3300971 495.463868,50.3300971 C496.294758,50.3300971 496.968327,51.00167 496.968327,51.8300971 C496.968327,52.6585242 496.294758,53.3300971 495.463868,53.3300971 Z M512.290437,53.3300971 C511.459547,53.3300971 510.785978,52.6585242 510.785978,51.8300971 C510.785978,51.00167 511.459547,50.3300971 512.290437,50.3300971 C513.121326,50.3300971 513.794895,51.00167 513.794895,51.8300971 C513.794895,52.6585242 513.121326,53.3300971 512.290437,53.3300971 Z M529.117005,53.3300971 C528.286115,53.3300971 527.612546,52.6585242 527.612546,51.8300971 C527.612546,51.00167 528.286115,50.3300971 529.117005,50.3300971 C529.947895,50.3300971 530.621464,51.00167 530.621464,51.8300971 C530.621464,52.6585242 529.947895,53.3300971 529.117005,53.3300971 Z M545.943573,53.3300971 C545.112684,53.3300971 544.439114,52.6585242 544.439114,51.8300971 C544.439114,51.00167 545.112684,50.3300971 545.943573,50.3300971 C546.774463,50.3300971 547.448032,51.00167 547.448032,51.8300971 C547.448032,52.6585242 546.774463,53.3300971 545.943573,53.3300971 Z M562.770141,53.3300971 C561.939252,53.3300971 561.265683,52.6585242 561.265683,51.8300971 C561.265683,51.00167 561.939252,50.3300971 562.770141,50.3300971 C563.601031,50.3300971 564.2746,51.00167 564.2746,51.8300971 C564.2746,52.6585242 563.601031,53.3300971 562.770141,53.3300971 Z M579.59671,53.3300971 C578.76582,53.3300971 578.092251,52.6585242 578.092251,51.8300971 C578.092251,51.00167 578.76582,50.3300971 579.59671,50.3300971 C580.427599,50.3300971 581.101169,51.00167 581.101169,51.8300971 C581.101169,52.6585242 580.427599,53.3300971 579.59671,53.3300971 Z M394.504459,36.5533981 C393.673569,36.5533981 393,35.8818252 393,35.0533981 C393,34.2249709 393.673569,33.5533981 394.504459,33.5533981 C395.335348,33.5533981 396.008918,34.2249709 396.008918,35.0533981 C396.008918,35.8818252 395.335348,36.5533981 394.504459,36.5533981 Z M411.331027,36.5533981 C410.500137,36.5533981 409.826568,35.8818252 409.826568,35.0533981 C409.826568,34.2249709 410.500137,33.5533981 411.331027,33.5533981 C412.161917,33.5533981 412.835486,34.2249709 412.835486,35.0533981 C412.835486,35.8818252 412.161917,36.5533981 411.331027,36.5533981 Z M428.157595,36.5533981 C427.326706,36.5533981 426.653137,35.8818252 426.653137,35.0533981 C426.653137,34.2249709 427.326706,33.5533981 428.157595,33.5533981 C428.988485,33.5533981 429.662054,34.2249709 429.662054,35.0533981 C429.662054,35.8818252 428.988485,36.5533981 428.157595,36.5533981 Z M444.984164,36.5533981 C444.153274,36.5533981 443.479705,35.8818252 443.479705,35.0533981 C443.479705,34.2249709 444.153274,33.5533981 444.984164,33.5533981 C445.815053,33.5533981 446.488622,34.2249709 446.488622,35.0533981 C446.488622,35.8818252 445.815053,36.5533981 444.984164,36.5533981 Z M461.810732,36.5533981 C460.979842,36.5533981 460.306273,35.8818252 460.306273,35.0533981 C460.306273,34.2249709 460.979842,33.5533981 461.810732,33.5533981 C462.641622,33.5533981 463.315191,34.2249709 463.315191,35.0533981 C463.315191,35.8818252 462.641622,36.5533981 461.810732,36.5533981 Z M478.6373,36.5533981 C477.80641,36.5533981 477.132841,35.8818252 477.132841,35.0533981 C477.132841,34.2249709 477.80641,33.5533981 478.6373,33.5533981 C479.46819,33.5533981 480.141759,34.2249709 480.141759,35.0533981 C480.141759,35.8818252 479.46819,36.5533981 478.6373,36.5533981 Z M495.463868,36.5533981 C494.632979,36.5533981 493.95941,35.8818252 493.95941,35.0533981 C493.95941,34.2249709 494.632979,33.5533981 495.463868,33.5533981 C496.294758,33.5533981 496.968327,34.2249709 496.968327,35.0533981 C496.968327,35.8818252 496.294758,36.5533981 495.463868,36.5533981 Z M512.290437,36.5533981 C511.459547,36.5533981 510.785978,35.8818252 510.785978,35.0533981 C510.785978,34.2249709 511.459547,33.5533981 512.290437,33.5533981 C513.121326,33.5533981 513.794895,34.2249709 513.794895,35.0533981 C513.794895,35.8818252 513.121326,36.5533981 512.290437,36.5533981 Z M529.117005,36.5533981 C528.286115,36.5533981 527.612546,35.8818252 527.612546,35.0533981 C527.612546,34.2249709 528.286115,33.5533981 529.117005,33.5533981 C529.947895,33.5533981 530.621464,34.2249709 530.621464,35.0533981 C530.621464,35.8818252 529.947895,36.5533981 529.117005,36.5533981 Z M545.943573,36.5533981 C545.112684,36.5533981 544.439114,35.8818252 544.439114,35.0533981 C544.439114,34.2249709 545.112684,33.5533981 545.943573,33.5533981 C546.774463,33.5533981 547.448032,34.2249709 547.448032,35.0533981 C547.448032,35.8818252 546.774463,36.5533981 545.943573,36.5533981 Z M562.770141,36.5533981 C561.939252,36.5533981 561.265683,35.8818252 561.265683,35.0533981 C561.265683,34.2249709 561.939252,33.5533981 562.770141,33.5533981 C563.601031,33.5533981 564.2746,34.2249709 564.2746,35.0533981 C564.2746,35.8818252 563.601031,36.5533981 562.770141,36.5533981 Z M579.59671,36.5533981 C578.76582,36.5533981 578.092251,35.8818252 578.092251,35.0533981 C578.092251,34.2249709 578.76582,33.5533981 579.59671,33.5533981 C580.427599,33.5533981 581.101169,34.2249709 581.101169,35.0533981 C581.101169,35.8818252 580.427599,36.5533981 579.59671,36.5533981 Z M394.504459,19.776699 C393.673569,19.776699 393,19.1051262 393,18.276699 C393,17.4482719 393.673569,16.776699 394.504459,16.776699 C395.335348,16.776699 396.008918,17.4482719 396.008918,18.276699 C396.008918,19.1051262 395.335348,19.776699 394.504459,19.776699 Z M411.331027,19.776699 C410.500137,19.776699 409.826568,19.1051262 409.826568,18.276699 C409.826568,17.4482719 410.500137,16.776699 411.331027,16.776699 C412.161917,16.776699 412.835486,17.4482719 412.835486,18.276699 C412.835486,19.1051262 412.161917,19.776699 411.331027,19.776699 Z M428.157595,19.776699 C427.326706,19.776699 426.653137,19.1051262 426.653137,18.276699 C426.653137,17.4482719 427.326706,16.776699 428.157595,16.776699 C428.988485,16.776699 429.662054,17.4482719 429.662054,18.276699 C429.662054,19.1051262 428.988485,19.776699 428.157595,19.776699 Z M444.984164,19.776699 C444.153274,19.776699 443.479705,19.1051262 443.479705,18.276699 C443.479705,17.4482719 444.153274,16.776699 444.984164,16.776699 C445.815053,16.776699 446.488622,17.4482719 446.488622,18.276699 C446.488622,19.1051262 445.815053,19.776699 444.984164,19.776699 Z M461.810732,19.776699 C460.979842,19.776699 460.306273,19.1051262 460.306273,18.276699 C460.306273,17.4482719 460.979842,16.776699 461.810732,16.776699 C462.641622,16.776699 463.315191,17.4482719 463.315191,18.276699 C463.315191,19.1051262 462.641622,19.776699 461.810732,19.776699 Z M478.6373,19.776699 C477.80641,19.776699 477.132841,19.1051262 477.132841,18.276699 C477.132841,17.4482719 477.80641,16.776699 478.6373,16.776699 C479.46819,16.776699 480.141759,17.4482719 480.141759,18.276699 C480.141759,19.1051262 479.46819,19.776699 478.6373,19.776699 Z M495.463868,19.776699 C494.632979,19.776699 493.95941,19.1051262 493.95941,18.276699 C493.95941,17.4482719 494.632979,16.776699 495.463868,16.776699 C496.294758,16.776699 496.968327,17.4482719 496.968327,18.276699 C496.968327,19.1051262 496.294758,19.776699 495.463868,19.776699 Z M512.290437,19.776699 C511.459547,19.776699 510.785978,19.1051262 510.785978,18.276699 C510.785978,17.4482719 511.459547,16.776699 512.290437,16.776699 C513.121326,16.776699 513.794895,17.4482719 513.794895,18.276699 C513.794895,19.1051262 513.121326,19.776699 512.290437,19.776699 Z M529.117005,19.776699 C528.286115,19.776699 527.612546,19.1051262 527.612546,18.276699 C527.612546,17.4482719 528.286115,16.776699 529.117005,16.776699 C529.947895,16.776699 530.621464,17.4482719 530.621464,18.276699 C530.621464,19.1051262 529.947895,19.776699 529.117005,19.776699 Z M545.943573,19.776699 C545.112684,19.776699 544.439114,19.1051262 544.439114,18.276699 C544.439114,17.4482719 545.112684,16.776699 545.943573,16.776699 C546.774463,16.776699 547.448032,17.4482719 547.448032,18.276699 C547.448032,19.1051262 546.774463,19.776699 545.943573,19.776699 Z M562.770141,19.776699 C561.939252,19.776699 561.265683,19.1051262 561.265683,18.276699 C561.265683,17.4482719 561.939252,16.776699 562.770141,16.776699 C563.601031,16.776699 564.2746,17.4482719 564.2746,18.276699 C564.2746,19.1051262 563.601031,19.776699 562.770141,19.776699 Z M579.59671,19.776699 C578.76582,19.776699 578.092251,19.1051262 578.092251,18.276699 C578.092251,17.4482719 578.76582,16.776699 579.59671,16.776699 C580.427599,16.776699 581.101169,17.4482719 581.101169,18.276699 C581.101169,19.1051262 580.427599,19.776699 579.59671,19.776699 Z M394.504459,3 C393.673569,3 393,2.32842712 393,1.5 C393,0.671572875 393.673569,0 394.504459,0 C395.335348,0 396.008918,0.671572875 396.008918,1.5 C396.008918,2.32842712 395.335348,3 394.504459,3 Z M411.331027,3 C410.500137,3 409.826568,2.32842712 409.826568,1.5 C409.826568,0.671572875 410.500137,0 411.331027,0 C412.161917,0 412.835486,0.671572875 412.835486,1.5 C412.835486,2.32842712 412.161917,3 411.331027,3 Z M428.157595,3 C427.326706,3 426.653137,2.32842712 426.653137,1.5 C426.653137,0.671572875 427.326706,0 428.157595,0 C428.988485,0 429.662054,0.671572875 429.662054,1.5 C429.662054,2.32842712 428.988485,3 428.157595,3 Z M444.984164,3 C444.153274,3 443.479705,2.32842712 443.479705,1.5 C443.479705,0.671572875 444.153274,0 444.984164,0 C445.815053,0 446.488622,0.671572875 446.488622,1.5 C446.488622,2.32842712 445.815053,3 444.984164,3 Z M461.810732,3 C460.979842,3 460.306273,2.32842712 460.306273,1.5 C460.306273,0.671572875 460.979842,0 461.810732,0 C462.641622,0 463.315191,0.671572875 463.315191,1.5 C463.315191,2.32842712 462.641622,3 461.810732,3 Z M478.6373,3 C477.80641,3 477.132841,2.32842712 477.132841,1.5 C477.132841,0.671572875 477.80641,0 478.6373,0 C479.46819,0 480.141759,0.671572875 480.141759,1.5 C480.141759,2.32842712 479.46819,3 478.6373,3 Z M495.463868,3 C494.632979,3 493.95941,2.32842712 493.95941,1.5 C493.95941,0.671572875 494.632979,0 495.463868,0 C496.294758,0 496.968327,0.671572875 496.968327,1.5 C496.968327,2.32842712 496.294758,3 495.463868,3 Z M512.290437,3 C511.459547,3 510.785978,2.32842712 510.785978,1.5 C510.785978,0.671572875 511.459547,0 512.290437,0 C513.121326,0 513.794895,0.671572875 513.794895,1.5 C513.794895,2.32842712 513.121326,3 512.290437,3 Z M529.117005,3 C528.286115,3 527.612546,2.32842712 527.612546,1.5 C527.612546,0.671572875 528.286115,0 529.117005,0 C529.947895,0 530.621464,0.671572875 530.621464,1.5 C530.621464,2.32842712 529.947895,3 529.117005,3 Z M545.943573,3 C545.112684,3 544.439114,2.32842712 544.439114,1.5 C544.439114,0.671572875 545.112684,0 545.943573,0 C546.774463,0 547.448032,0.671572875 547.448032,1.5 C547.448032,2.32842712 546.774463,3 545.943573,3 Z M562.770141,3 C561.939252,3 561.265683,2.32842712 561.265683,1.5 C561.265683,0.671572875 561.939252,0 562.770141,0 C563.601031,0 564.2746,0.671572875 564.2746,1.5 C564.2746,2.32842712 563.601031,3 562.770141,3 Z M579.59671,3 C578.76582,3 578.092251,2.32842712 578.092251,1.5 C578.092251,0.671572875 578.76582,0 579.59671,0 C580.427599,0 581.101169,0.671572875 581.101169,1.5 C581.101169,2.32842712 580.427599,3 579.59671,3 Z" id="Oval"></path>
                </g>
            </g>
        </g>
    </g>
</svg>