<?xml version="1.0" encoding="UTF-8"?>
<svg width="71px" height="46px" viewBox="0 0 71 46" version="1.1" xmlns="http://www.w3.org/2000/svg" xmlns:xlink="http://www.w3.org/1999/xlink">
    <!-- Generator: sketchtool 51.3 (57544) - http://www.bohemiancoding.com/sketch -->
    <title>3127F363-BC11-4C9F-A8D4-62EA9606DFFB</title>
    <desc>Created with sketchtool.</desc>
    <defs></defs>
    <g id="Design" stroke="none" stroke-width="1" fill="none" fill-rule="evenodd">
        <g id="1a-Home" transform="translate(-120.000000, -743.000000)" fill="#FFFFFF" fill-rule="nonzero">
            <g id="Cover" transform="translate(-195.000000, -187.000000)">
                <g id="Logo" transform="translate(195.000000, 848.000000)">
                    <path d="M189.11855,115.035909 C188.722455,114.585419 188.375872,114.235038 188.078801,114.03482 C187.781729,113.834603 187.385635,113.734494 186.98954,113.734494 C186.692469,113.734494 186.395397,113.834603 186.147838,114.084875 C185.850767,114.335147 185.702232,114.685528 185.702232,115.085963 C185.702232,115.686616 185.999303,116.137106 186.593445,116.437432 C187.237099,116.787813 187.831241,117.138194 188.524407,117.43852 C189.168061,117.788901 189.762204,118.289445 190.257322,119.040261 C190.752441,119.791077 191,120.84222 191,122.293798 C191,124.095756 190.554393,125.49728 189.712692,126.498368 C188.87099,127.499456 187.781729,128 186.494421,128 C185.751743,128 185.009066,127.849837 184.266388,127.499456 C183.573222,127.149075 182.929568,126.648531 182.384937,125.997824 L184.117852,122.794342 C184.662483,123.695321 185.40516,124.145811 186.345886,124.145811 C186.692469,124.145811 187.088563,123.995647 187.385635,123.745375 C187.732218,123.495103 187.880753,123.094668 187.880753,122.594124 C187.880753,121.993471 187.583682,121.542982 186.940028,121.192601 C186.642957,121.042437 186.345886,120.84222 185.999303,120.692057 L185.504184,120.441785 L185.009066,120.191513 C184.365411,119.841132 183.771269,119.290533 183.325662,118.589771 C182.830544,117.88901 182.632497,116.837867 182.632497,115.436344 C182.632497,114.385201 182.830544,113.434168 183.226639,112.633297 C183.622734,111.832427 184.167364,111.231774 184.811018,110.781284 C185.454672,110.380849 186.147838,110.180631 186.890516,110.180631 C187.583682,110.180631 188.227336,110.330794 188.920502,110.681175 C189.613668,111.031556 190.158298,111.5321 190.702929,112.132753 L189.11855,115.035909 Z M127.872385,101.471164 L127.872385,96.7159956 L132.774059,96.7159956 C134.605997,96.7159956 135.497211,97.5168662 135.497211,99.0184984 C135.447699,101.020675 134.061367,101.471164 132.427476,101.471164 L127.872385,101.471164 Z M131.932357,88.1066376 C133.516736,88.1066376 134.605997,88.5571273 134.605997,89.8585419 C134.605997,91.5103373 133.566248,91.960827 131.932357,91.960827 L127.822873,91.960827 L127.822873,88.1066376 L131.932357,88.1066376 Z M179.859833,82 L176.245467,97.0163221 L172.58159,82 L142.775453,82 L142.775453,97.0163221 C142.032775,95.0642002 140.497908,93.9630033 138.864017,93.4124048 C140.745467,92.3612622 141.983264,90.9597388 141.983264,88.4069641 C141.983264,85.8041349 140.54742,82 133.912831,82 L120.049512,82 L120.049512,107.527748 L134.40795,107.527748 C138.022315,107.527748 141.537657,105.775843 142.775453,102.422198 L142.775453,107.527748 L150.548815,107.527748 L150.548815,97.8171926 L157.678522,97.8171926 L157.678522,91.960827 L150.548815,91.960827 L150.548815,88.1066376 L161.490934,88.1066376 L161.490934,107.577802 L168.868201,107.577802 L168.868201,91.1599565 L173.324268,107.527748 L179.117155,107.527748 L183.52371,91.1599565 L183.622734,107.527748 L191,107.527748 L191,82 L179.859833,82 Z M120,110.531012 L123.911437,110.531012 C124.901674,110.531012 125.792887,110.681175 126.585077,110.931447 C127.377266,111.231774 128.020921,111.682263 128.516039,112.332971 C129.011158,112.983678 129.258717,113.884657 129.258717,114.985854 C129.258717,115.836779 129.110181,116.537541 128.763598,117.138194 C128.417015,117.788901 128.020921,118.239391 127.426778,118.539717 C127.723849,118.739935 128.020921,118.990207 128.317992,119.240479 C128.565551,119.490751 128.81311,119.841132 129.011158,120.191513 C129.209205,120.541893 129.357741,120.942329 129.456764,121.392818 C129.555788,121.843308 129.6053,122.293798 129.6053,122.794342 C129.6053,124.195865 129.209205,125.347116 128.367503,126.248096 C127.525802,127.099021 126.288006,127.54951 124.604603,127.54951 L120,127.54951 L120,110.531012 Z M123.416318,117.338411 L124.25802,117.338411 C124.80265,117.338411 125.198745,117.188248 125.446304,116.887922 C125.693863,116.587595 125.842399,116.137106 125.842399,115.586507 C125.842399,114.985854 125.693863,114.535365 125.34728,114.285092 C125.000697,114.03482 124.604603,113.884657 124.158996,113.884657 L123.416318,113.884657 L123.416318,117.338411 Z M123.416318,124.195865 L124.307531,124.195865 C125.59484,124.195865 126.238494,123.595212 126.238494,122.443961 C126.238494,121.693145 126.040446,121.242655 125.693863,120.992383 C125.34728,120.742111 124.852162,120.642002 124.208508,120.642002 L123.416318,120.642002 L123.416318,124.195865 Z M140.993026,110.531012 L140.993026,121.64309 C140.993026,122.944505 140.745467,124.045702 140.250349,124.996736 C139.75523,125.947769 139.111576,126.698585 138.220363,127.199129 C137.378661,127.699674 136.388424,127.949946 135.249651,127.949946 C134.209902,127.949946 133.318689,127.749728 132.526499,127.299238 C131.73431,126.848749 131.140167,126.198041 130.694561,125.297062 C130.248954,124.396083 130.050907,123.294886 130.050907,121.943417 L130.050907,110.531012 L133.318689,110.531012 L133.318689,120.742111 C133.318689,121.392818 133.368201,121.993471 133.516736,122.443961 C133.665272,122.944505 133.863319,123.34494 134.160391,123.645267 C134.457462,123.945593 134.853556,124.095756 135.398187,124.095756 C136.338912,124.095756 136.982566,123.745375 137.279637,122.994559 C137.576709,122.243743 137.725244,121.192601 137.725244,119.841132 L137.725244,110.531012 L140.993026,110.531012 Z M148.221757,115.035909 C147.825662,114.585419 147.479079,114.235038 147.182008,114.03482 C146.884937,113.834603 146.488842,113.734494 146.092748,113.734494 C145.795676,113.734494 145.498605,113.834603 145.251046,114.084875 C144.953975,114.335147 144.854951,114.685528 144.854951,115.085963 C144.854951,115.686616 145.152022,116.137106 145.746165,116.437432 C146.389819,116.787813 146.983961,117.138194 147.677127,117.43852 C148.320781,117.788901 148.914923,118.289445 149.410042,119.040261 C149.90516,119.791077 150.15272,120.84222 150.15272,122.293798 C150.15272,124.095756 149.707113,125.49728 148.865411,126.498368 C148.02371,127.499456 146.934449,128 145.647141,128 C144.904463,128 144.161785,127.849837 143.468619,127.499456 C142.775453,127.149075 142.131799,126.648531 141.587169,125.997824 L143.320084,122.794342 C143.864714,123.695321 144.607392,124.145811 145.548117,124.145811 C145.8947,124.145811 146.241283,123.995647 146.587866,123.745375 C146.934449,123.495103 147.082985,123.094668 147.082985,122.594124 C147.082985,121.993471 146.785914,121.542982 146.142259,121.192601 C145.845188,121.042437 145.548117,120.84222 145.201534,120.692057 L144.706416,120.441785 L144.211297,120.191513 C143.567643,119.841132 142.973501,119.290533 142.527894,118.589771 C142.032775,117.88901 141.834728,116.837867 141.834728,115.436344 C141.834728,114.385201 142.032775,113.434168 142.42887,112.633297 C142.824965,111.832427 143.369596,111.231774 144.01325,110.781284 C144.656904,110.380849 145.35007,110.180631 146.092748,110.180631 C146.785914,110.180631 147.429568,110.330794 148.122734,110.681175 C148.8159,111.031556 149.36053,111.5321 149.90516,112.132753 L148.221757,115.035909 Z M150.548815,111.98259 L153.816597,110.180631 L153.816597,127.599565 L150.548815,127.54951 L150.548815,111.98259 Z M165.501395,127.599565 L158.074616,119.440696 L158.074616,127.54951 L154.806834,127.54951 L154.806834,110.28074 L162.283124,118.389554 L162.283124,110.531012 L165.501395,110.531012 L165.501395,127.599565 Z M173.027197,127.599565 L166.44212,127.599565 L166.44212,110.531012 L173.670851,110.531012 L173.670851,114.134929 L169.660391,114.134929 L169.660391,117.088139 L173.027197,117.088139 L173.027197,120.692057 L169.660391,120.692057 L169.660391,123.995647 L173.027197,123.995647 L173.027197,127.599565 Z M180.60251,115.035909 C180.206416,114.585419 179.859833,114.235038 179.562762,114.03482 C179.26569,113.834603 178.869596,113.734494 178.473501,113.734494 C178.17643,113.734494 177.879358,113.834603 177.631799,114.084875 C177.334728,114.335147 177.235704,114.685528 177.235704,115.085963 C177.235704,115.686616 177.532775,116.137106 178.126918,116.437432 C178.770572,116.787813 179.364714,117.138194 180.05788,117.43852 C180.701534,117.788901 181.295676,118.289445 181.790795,119.040261 C182.285914,119.791077 182.533473,120.84222 182.533473,122.293798 C182.533473,124.095756 182.087866,125.49728 181.246165,126.498368 C180.404463,127.499456 179.315202,128 178.027894,128 C177.285216,128 176.542538,127.849837 175.849372,127.499456 C175.156206,127.149075 174.512552,126.648531 173.967922,125.997824 L175.750349,122.794342 C176.294979,123.695321 177.037657,124.145811 177.978382,124.145811 C178.324965,124.145811 178.671548,123.995647 179.018131,123.745375 C179.364714,123.495103 179.51325,123.094668 179.51325,122.594124 C179.51325,121.993471 179.216179,121.542982 178.572524,121.192601 C178.275453,121.042437 177.978382,120.84222 177.631799,120.692057 L177.136681,120.441785 L176.641562,120.191513 C175.997908,119.841132 175.403766,119.290533 174.958159,118.589771 C174.46304,117.88901 174.264993,116.837867 174.264993,115.436344 C174.264993,114.385201 174.46304,113.434168 174.859135,112.633297 C175.25523,111.832427 175.799861,111.231774 176.443515,110.781284 C177.087169,110.380849 177.780335,110.180631 178.523013,110.180631 C179.216179,110.180631 179.859833,110.330794 180.552999,110.681175 C181.246165,111.031556 181.840307,111.5321 182.335425,112.132753 L180.60251,115.035909 Z" id="BFM"></path>
                </g>
            </g>
        </g>
    </g>
</svg>