<?xml version="1.0" encoding="UTF-8"?>
<svg width="36px" height="36px" viewBox="0 0 36 36" version="1.1" xmlns="http://www.w3.org/2000/svg" xmlns:xlink="http://www.w3.org/1999/xlink">
    <!-- Generator: sketchtool 51.3 (57544) - http://www.bohemiancoding.com/sketch -->
    <title>5D4FC965-0F4F-4D40-B060-D9792A1FE51E</title>
    <desc>Created with sketchtool.</desc>
    <defs></defs>
    <g id="Design" stroke="none" stroke-width="1" fill="none" fill-rule="evenodd">
        <g id="2a-Résidentiel" transform="translate(-894.000000, -1882.000000)" fill-rule="nonzero">
            <g id="Section-2" transform="translate(-2.000000, 1572.000000)">
                <g id="1-copy" transform="translate(889.000000, 303.000000)">
                    <g id="picto2-section2" transform="translate(7.000000, 8.000000)">
                        <circle id="Oval-2" fill="#0081C5" cx="26" cy="13" r="10"></circle>
                        <circle id="Oval-2-Copy-3" fill="#0081C5" cx="3" cy="32" r="3"></circle>
                        <path d="M2.33189712,10.4396061 L5.87565406,10.4396061 C6.13474881,11.5450247 6.61534645,12.5976532 7.3107961,13.5392206 C8.66063351,15.366969 10.6454844,16.5621019 12.8998401,16.9048048 C13.3228933,16.9682683 13.7488381,17 14.1747829,17 C14.6007278,17 15.0269618,16.9682683 15.4500149,16.9048048 C15.5922857,16.883458 15.5136319,16.3748846 15.372807,16.3913274 C14.5778835,16.5107542 13.7716824,16.5107542 12.9779155,16.3916159 C10.8614931,16.0696829 8.99780369,14.9472446 7.73037924,13.2314226 C7.10201662,12.3807234 6.65814335,11.4345405 6.40888032,10.4396061 L13.8075392,10.4396061 C13.951545,10.4396061 13.951545,9.9206478 13.8075392,9.9206478 L6.30420141,9.9206478 C6.19518498,9.31514842 6.1494964,8.69695635 6.18477492,8.07299486 L13.8069609,8.07299486 C13.9509667,8.07299486 13.9509667,7.55374813 13.8069609,7.55374813 L6.23827105,7.55374813 C6.24839194,7.47009172 6.25128362,7.38701224 6.26400702,7.30335582 C6.58642963,5.19492564 7.71187247,3.3374647 9.43242358,2.07338739 C11.153553,0.809021606 13.2644813,0.292082641 15.3725178,0.61199632 C15.5130536,0.634785482 15.592864,0.120442751 15.4505933,0.0990959406 C13.2052018,-0.2436069 10.9560511,0.309102395 9.12301354,1.65568224 C7.29113266,3.00226209 6.09281942,4.98001518 5.7495767,7.22546881 C5.73251577,7.33537604 5.72817825,7.44470632 5.71545485,7.55432507 L2.33189712,7.55432507 C2.18789133,7.55432507 2.18789133,8.0735718 2.33189712,8.0735718 L5.66282622,8.0735718 C5.62986104,8.69724482 5.67236878,9.31514842 5.77473434,9.92122474 L2.33189712,9.92122474 C2.18789133,9.9206478 2.18789133,10.4396061 2.33189712,10.4396061 Z" id="Shape" stroke="#FFFFFF"></path>
                    </g>
                </g>
            </g>
        </g>
    </g>
</svg>