<?xml version="1.0" encoding="UTF-8"?>
<svg width="45px" height="42px" viewBox="0 0 45 42" version="1.1" xmlns="http://www.w3.org/2000/svg" xmlns:xlink="http://www.w3.org/1999/xlink">
    <!-- Generator: sketchtool 51.3 (57544) - http://www.bohemiancoding.com/sketch -->
    <title>22131DB4-EF9A-4E82-941E-6B5D3951139E</title>
    <desc>Created with sketchtool.</desc>
    <defs></defs>
    <g id="Design" stroke="none" stroke-width="1" fill="none" fill-rule="evenodd">
        <g id="2a-Résidentiel" transform="translate(-502.000000, -1876.000000)" fill-rule="nonzero">
            <g id="Section-2" transform="translate(-2.000000, 1572.000000)">
                <g id="1" transform="translate(504.000000, 305.000000)">
                    <g id="picto1-section2">
                        <circle id="Oval-2" fill="#F1653C" cx="35" cy="25" r="10"></circle>
                        <circle id="Oval-2-Copy-3" fill="#F1653C" cx="3" cy="38" r="3"></circle>
                        <path d="M2.38272269,21.3523619 L7.59412996,21.3523619 C7.97515166,22.9779774 8.68191289,24.5259605 9.70463296,25.9106185 C11.689688,28.5984839 14.6085863,30.3560322 17.9238153,30.860007 C18.5459523,30.9533357 19.1723418,31 19.7987312,31 C20.4251207,31 21.0519354,30.9533357 21.6740724,30.860007 C21.8832941,30.8286146 21.7676268,30.0807127 21.5605313,30.1048933 C20.3915262,30.2805209 19.2059363,30.2805209 18.0386321,30.1053175 C14.9262462,29.6318867 12.1855265,27.9812421 10.321667,25.4579745 C9.39760432,24.2069462 8.74484951,22.8155007 8.37828622,21.3523619 L19.258667,21.3523619 C19.4704402,21.3523619 19.4704402,20.5891879 19.258667,20.5891879 L8.22434665,20.5891879 C8.06402837,19.6987477 7.99683928,18.7896417 8.04871946,17.8720513 L19.2578165,17.8720513 C19.4695897,17.8720513 19.4695897,17.1084531 19.2578165,17.1084531 L8.12739024,17.1084531 C8.1422739,16.985429 8.14652637,16.8632533 8.16523726,16.7402292 C8.63938815,13.6395965 10.2944511,10.9080363 12.8246734,9.0490991 C15.3557461,7.18973766 18.4600523,6.4295333 21.5601061,6.89999459 C21.7667764,6.93350806 21.8841446,6.17712169 21.6749229,6.14572932 C18.3728766,5.64175456 15.0653021,6.45456235 12.3696586,8.43482683 C9.67571614,10.4150913 7.91349078,13.3235517 7.40872208,16.6256894 C7.38363248,16.7873177 7.37725377,16.9480975 7.35854288,17.1093016 L2.38272269,17.1093016 C2.17094947,17.1093016 2.17094947,17.8728997 2.38272269,17.8728997 L7.28114785,17.8728997 C7.23266964,18.7900659 7.29518101,19.6987477 7.44571861,20.5900364 L2.38272269,20.5900364 C2.17094947,20.5891879 2.17094947,21.3523619 2.38272269,21.3523619 Z" id="Shape" stroke="#FFFFFF"></path>
                        <path d="M3.5,37.5 L27.5,0.5" id="Line" stroke="#FFFFFF" stroke-width="2" stroke-linecap="round" stroke-linejoin="round"></path>
                    </g>
                </g>
            </g>
        </g>
    </g>
</svg>