<?xml version="1.0" encoding="UTF-8"?>
<svg width="38px" height="35px" viewBox="0 0 38 35" version="1.1" xmlns="http://www.w3.org/2000/svg" xmlns:xlink="http://www.w3.org/1999/xlink">
    <!-- Generator: sketchtool 51.3 (57544) - http://www.bohemiancoding.com/sketch -->
    <title>C6301BFA-6356-44E7-BB4B-A9BD58C029FD</title>
    <desc>Created with sketchtool.</desc>
    <defs></defs>
    <g id="Design" stroke="none" stroke-width="1" fill="none" fill-rule="evenodd">
        <g id="2a-Résidentiel" transform="translate(-892.000000, -2099.000000)">
            <g id="Section-2" transform="translate(-2.000000, 1572.000000)">
                <g id="2-copy" transform="translate(889.000000, 519.000000)">
                    <g id="picto4-section2" transform="translate(5.000000, 9.000000)">
                        <circle id="Oval-2" fill="#F5A623" fill-rule="nonzero" cx="28" cy="24" r="10"></circle>
                        <circle id="Oval-2-Copy-3" fill="#F5A623" fill-rule="nonzero" cx="15" cy="12" r="3"></circle>
                        <g id="Group" stroke="#FFFFFF" stroke-linecap="round" stroke-linejoin="round" stroke-width="1.875">
                            <g id="Regular">
                                <path d="M21.375,24.435 L8.625,24.435 C7.93531655,24.4353455 7.3011197,24.0570358 6.97375,23.45 L1.41625,13.1375 C1.11711331,12.5823132 1.11711331,11.9139368 1.41625,11.35875 L6.96875,1.04625 C7.29663524,0.437148331 7.93325597,0.0580587026 8.625,0.06 L21.375,0.06 C22.0649512,0.0599021527 22.6992131,0.438730793 23.02625,1.04625 L28.57875,11.35875 C28.8778867,11.9139368 28.8778867,12.5823132 28.57875,13.1375 L23.02625,23.45 C22.6988803,24.0570358 22.0646835,24.4353455 21.375,24.435 Z" id="Shape"></path>
                                <circle id="Oval" cx="15" cy="12.2475" r="6.5625"></circle>
                            </g>
                        </g>
                    </g>
                </g>
            </g>
        </g>
    </g>
</svg>