<?xml version="1.0" encoding="UTF-8"?>
<svg width="284px" height="295px" viewBox="0 0 284 295" version="1.1" xmlns="http://www.w3.org/2000/svg" xmlns:xlink="http://www.w3.org/1999/xlink">
    <!-- Generator: Sketch 52 (66869) - http://www.bohemiancoding.com/sketch -->
    <title>Illustration</title>
    <desc>Created with Sketch.</desc>
    <defs>
        <radialGradient cx="11.1758462%" cy="50%" fx="11.1758462%" fy="50%" r="125.950252%" gradientTransform="translate(0.111758,0.500000),scale(0.500042,1.000000),rotate(3.530868),translate(-0.111758,-0.500000)" id="radialGradient-1">
            <stop stop-color="#DEEBF3" offset="0%"></stop>
            <stop stop-color="#FFFFFF" offset="100%"></stop>
        </radialGradient>
        <path d="M13.2218751,50.0327895 L86.844089,13.2185805 C99.3311275,6.97453515 114.029361,6.97453515 126.5164,13.2185805 L200.138614,50.0327895 C203.790041,51.8586572 205.26995,56.2988824 203.444082,59.95031 C202.728833,61.3806881 201.568992,62.5405295 200.138614,63.2557788 L126.5164,100.069988 C114.029361,106.314033 99.3311275,106.314033 86.844089,100.069988 L13.2218751,63.2557788 C9.57044745,61.4299111 8.09053868,56.9896859 9.91640637,53.3382582 C10.6316557,51.9078802 11.7914971,50.7480388 13.2218751,50.0327895 Z" id="path-2"></path>
        <filter x="-21.3%" y="-40.6%" width="142.5%" height="272.0%" filterUnits="objectBoundingBox" id="filter-3">
            <feOffset dx="0" dy="91" in="SourceAlpha" result="shadowOffsetOuter1"></feOffset>
            <feGaussianBlur stdDeviation="3" in="shadowOffsetOuter1" result="shadowBlurOuter1"></feGaussianBlur>
            <feColorMatrix values="0 0 0 0 0   0 0 0 0 0   0 0 0 0 0  0 0 0 0.2 0" type="matrix" in="shadowBlurOuter1"></feColorMatrix>
        </filter>
        <linearGradient x1="-0.157592418%" y1="50.0457084%" x2="100.03206%" y2="50.0457084%" id="linearGradient-4">
            <stop stop-color="#0094CD" offset="0%"></stop>
            <stop stop-color="#2A306A" offset="100%"></stop>
        </linearGradient>
        <linearGradient x1="0.0130187943%" y1="49.9453173%" x2="100.044319%" y2="49.9453173%" id="linearGradient-5">
            <stop stop-color="#CEB051" offset="0%"></stop>
            <stop stop-color="#A1632A" offset="100%"></stop>
        </linearGradient>
        <linearGradient x1="-0.0238673179%" y1="49.9843966%" x2="100.006007%" y2="49.9843966%" id="linearGradient-6">
            <stop stop-color="#CEB051" offset="0%"></stop>
            <stop stop-color="#A1632A" offset="100%"></stop>
        </linearGradient>
        <linearGradient x1="50%" y1="0.354609929%" x2="50%" y2="100.35461%" id="linearGradient-7">
            <stop stop-color="#1571C4" offset="0%"></stop>
            <stop stop-color="#8CF5A7" offset="100%"></stop>
        </linearGradient>
        <linearGradient x1="99.6086%" y1="49.8620688%" x2="-0.0627313112%" y2="49.8620688%" id="linearGradient-8">
            <stop stop-color="#CEB051" offset="0%"></stop>
            <stop stop-color="#A1632A" offset="100%"></stop>
        </linearGradient>
        <linearGradient x1="70.0728909%" y1="13.3586658%" x2="15.2914502%" y2="62.1381571%" id="linearGradient-9">
            <stop stop-color="#4A5992" stop-opacity="0" offset="0%"></stop>
            <stop stop-color="#000000" stop-opacity="0.6" offset="100%"></stop>
        </linearGradient>
        <linearGradient x1="67.0719162%" y1="65.1391318%" x2="18.2924249%" y2="10.3576911%" id="linearGradient-10">
            <stop stop-color="#4A5992" stop-opacity="0" offset="0%"></stop>
            <stop stop-color="#000000" stop-opacity="0.6" offset="100%"></stop>
        </linearGradient>
        <linearGradient x1="99.7535143%" y1="50%" x2="0.0279091375%" y2="50%" id="linearGradient-11">
            <stop stop-color="#CEB051" offset="0%"></stop>
            <stop stop-color="#A1632A" offset="100%"></stop>
        </linearGradient>
        <linearGradient x1="100%" y1="49.9040307%" x2="0%" y2="49.9040307%" id="linearGradient-12">
            <stop stop-color="#CEB051" offset="0%"></stop>
            <stop stop-color="#A1632A" offset="100%"></stop>
        </linearGradient>
        <linearGradient x1="100%" y1="50.0959693%" x2="-4.59340758e-12%" y2="50.0959693%" id="linearGradient-13">
            <stop stop-color="#CEB051" offset="0%"></stop>
            <stop stop-color="#A1632A" offset="100%"></stop>
        </linearGradient>
        <linearGradient x1="100%" y1="50%" x2="-8.48409237e-12%" y2="50%" id="linearGradient-14">
            <stop stop-color="#CEB051" offset="0%"></stop>
            <stop stop-color="#A1632A" offset="100%"></stop>
        </linearGradient>
        <linearGradient x1="-11295.2903%" y1="47.1315576%" x2="-11196.0386%" y2="47.1315576%" id="linearGradient-15">
            <stop stop-color="#45242F" offset="0%"></stop>
            <stop stop-color="#6B3C71" offset="100%"></stop>
        </linearGradient>
        <linearGradient x1="-0.0356218193%" y1="50.3579914%" x2="100.265677%" y2="50.3579914%" id="linearGradient-16">
            <stop stop-color="#57C7F2" offset="0%"></stop>
            <stop stop-color="#2A306A" offset="100%"></stop>
        </linearGradient>
        <radialGradient cx="-143.356643%" cy="-287.97791%" fx="-143.356643%" fy="-287.97791%" r="71.7750472%" gradientTransform="translate(-1.433566,-2.879779),scale(0.566435,1.000000),translate(1.433566,2.879779)" id="radialGradient-17">
            <stop stop-color="#242D59" offset="0%"></stop>
            <stop stop-color="#242D59" stop-opacity="0.47" offset="39%"></stop>
            <stop stop-color="#242D59" stop-opacity="0.13" offset="70%"></stop>
            <stop stop-color="#242D59" stop-opacity="0" offset="87%"></stop>
            <stop stop-color="#242D59" stop-opacity="0" offset="100%"></stop>
            <stop stop-color="#242D59" stop-opacity="0" offset="100%"></stop>
        </radialGradient>
        <linearGradient x1="-0.132335311%" y1="50.0260402%" x2="100.14989%" y2="50.0260402%" id="linearGradient-18">
            <stop stop-color="#CEB051" offset="0%"></stop>
            <stop stop-color="#A1632A" offset="100%"></stop>
        </linearGradient>
        <linearGradient x1="-0.0224853384%" y1="50.075431%" x2="100.316796%" y2="50.075431%" id="linearGradient-19">
            <stop stop-color="#CEB051" offset="0%"></stop>
            <stop stop-color="#A1632A" offset="100%"></stop>
        </linearGradient>
        <linearGradient x1="50%" y1="5.92118946e-12%" x2="50%" y2="98.9583333%" id="linearGradient-20">
            <stop stop-color="#1571C4" offset="0%"></stop>
            <stop stop-color="#8CF5A7" offset="100%"></stop>
        </linearGradient>
    </defs>
    <g id="Design" stroke="none" stroke-width="1" fill="none" fill-rule="evenodd">
        <g id="4a-Techniciens" transform="translate(-150.000000, -3803.000000)" fill-rule="nonzero">
            <g id="Section-4" transform="translate(146.000000, 3591.000000)">
                <g id="Illustration" transform="translate(0.000000, 212.000000)">
                    <g id="Group-6" transform="translate(107.000000, 102.000000) scale(-1, 1) translate(-107.000000, -102.000000) ">
                        <g id="plateforme2" transform="translate(0.000000, 93.445245)">
                            <g id="Rectangle-18_Top_Isometric">
                                <use fill="black" fill-opacity="1" filter="url(#filter-3)" xlink:href="#path-2"></use>
                                <use fill="url(#radialGradient-1)" xlink:href="#path-2"></use>
                            </g>
                        </g>
                        <g id="tablette" transform="translate(58.660055, 8.832624)">
                            <path d="M26.9860282,20.4738864 L15.8790128,1.20735243 C15.7757055,1.02904253 15.6227348,0.884749226 15.4388152,0.792125401 L15.304842,0.747408644 L14.6094574,0.485496213 C14.40575,0.398135072 14.1751971,0.398135072 13.9714898,0.485496213 L0.574170813,8.24065941 C0.574170813,8.24065941 -0.446577299,8.97529184 0.465716326,10.5339902 L11.4834163,29.378909 C11.914711,29.6758803 12.4356318,29.8136212 12.9571214,29.7685836 C13.1435035,29.7674126 13.3262333,29.7167098 13.4866344,29.6216571 L26.616007,21.8920464 C27.1070098,21.6010261 27.2721243,20.9682008 26.9860282,20.4738864 Z" id="Shape" fill="#D9D9DB"></path>
                            <path d="M15.8790128,1.20735243 C15.7757055,1.02904253 15.6227348,0.884749226 15.4388152,0.792125401 L15.304842,0.747408644 L14.9412005,0.606870267 L1.54388152,8.35564536 C1.54388152,8.35564536 0.529513083,9.09027779 1.43542703,10.6489762 C2.34134098,12.2076745 12.4276083,29.5130593 12.4276083,29.5130593 C12.5823872,29.6322821 12.7607045,29.7172036 12.9507417,29.7621955 C13.1351291,29.7611265 13.3158292,29.7103753 13.4738751,29.615269 L26.6032477,21.8856583 C27.0942504,21.594638 27.2593649,20.9618127 26.9732689,20.4674983 L15.8790128,1.20735243 Z" id="Shape" fill="#FFFFFF"></path>
                            <path d="M25.0274678,19.6881491 L15.5919274,3.31542809 C15.4735611,3.11155886 15.2780392,2.96414774 15.049655,2.90658917 C14.8334883,2.8519616 14.6045614,2.88405373 14.4116874,2.99602269 L3.26001429,9.56299778 C2.84125083,9.80993495 2.6989963,10.3483678 2.9410305,10.7703502 L12.3765709,27.1366831 C12.4949371,27.3405523 12.6904591,27.4879634 12.9188433,27.545522 C12.9926941,27.5586658 13.0682811,27.5586658 13.142132,27.545522 C13.2993037,27.5469416 13.453824,27.5049449 13.5887093,27.424148 L24.7467621,20.8571729 C25.1323678,20.601752 25.2549668,20.0911779 25.0274678,19.6881491 Z" id="Shape" fill="url(#linearGradient-4)"></path>
                            <ellipse id="Oval" fill="#D9D9DB" cx="8.79119312" cy="5.16159132" rx="1" ry="1"></ellipse>
                        </g>
                        <g id="technicien" transform="translate(74.075520, 0.000000)">
                            <path d="M29.2827115,33.4149157 L18.6186432,28.8229019 C15.504205,31.5870068 14.4044087,34.1534145 15.3192542,36.5221249 C15.3192542,36.5221249 19.2368874,38.2249705 27.0721539,41.6306615 L29.2827115,33.4149157 Z" id="Shape" fill="#F1653C"></path>
                            <path d="M50.5127369,31.0226799 C48.4859139,27.5098593 42.3393558,23.9113273 33.8818197,28.8097286 C28.7774412,31.7591181 27.1007014,34.4426526 25.2174212,37.622014 C23.7857198,39.1004166 24.2345712,46.4035211 25.2174212,47.5210151 L27.0951207,68.9858179 C40.1689901,76.8911016 48.2533152,65.2717718 48.2533152,65.2717718 C48.4829835,50.9502724 49.4129405,42.0273193 49.4129405,42.02157 C50.9115263,37.2266561 50.7014763,31.3834458 50.5127369,31.0226799 Z" id="Shape" fill="#F1653C"></path>
                            <path d="M46.1135515,26.6231238 C40.6187368,26.9048394 31.0281908,31.2301827 26.9917699,39.4401792 C23.8338305,45.8621443 26.2797981,61.0690355 28.0080523,69.5032546 C40.5536846,76.3621663 48.2647986,65.2775211 48.2647986,65.2775211 C48.4944669,50.9560217 50.9691431,41.601915 50.9691431,41.5961657 C52.7123295,26.9048394 48.2609504,27.4452733 46.1135515,26.6231238 Z" id="Shape" fill="#DE5D37"></path>
                            <path d="M35.0875784,25.026691 L35.0875784,29.4593992 C35.1402703,31.1811503 36.5482007,32.5502256 38.2684847,32.5525211 C38.6736446,32.5506294 39.0748518,32.4726221 39.4512766,32.3225492 C40.6618409,31.8397333 41.4558956,30.666442 41.4551327,29.3616611 L41.4551333,25.0209417 L35.0875784,25.026691 Z" id="Shape" fill="#FFC4B6"></path>
                            <path d="M36.2153845,27.7230128 C42.0501309,27.7230128 48.8332277,21.4288034 48.8332277,15.5863449 C48.8332277,9.74388635 44.1032311,5.00763792 38.2684847,5.00763792 C32.4337383,5.00763792 28.5168102,9.74388635 28.5168102,15.5863449 C28.5168102,21.4288034 30.3806381,27.7230128 36.2153845,27.7230128 Z" id="Oval" fill="#FFC4B6"></path>
                            <path d="M42.9811469,146.468527 L89.3325407,174.654171 C86.8233387,176.244541 84.1728104,177.599464 81.4147252,178.701676 L25.5206124,144.996707 L33.7197717,141.115931 L42.9811469,146.468527 Z M51.5239125,138.947361 L100.802147,168.573159 C97.9427644,170.216581 93.3563406,172.804613 93.1379658,172.678366 C84.9542444,167.947175 65.2646291,156.2129 34.0691198,137.475541 L42.268279,133.594766 L51.5239125,138.947361 Z" id="Shape" fill="#0081C5" opacity="0.3" transform="translate(63.161380, 156.148221) rotate(1.000000) translate(-63.161380, -156.148221) "></path>
                            <path d="M43.8723919,127.496416 L43.298221,133.866638 C43.298221,133.866638 40.8752202,136.476818 38.262743,133.866638 L37.8608234,127.496416 L43.8723919,127.496416 Z" id="Shape" fill="#FFC4B6"></path>
                            <path d="M43.4187969,132.394817 L43.2809959,133.866638 C43.2809959,133.866638 40.8579951,136.476818 38.2455179,133.866638 L37.9067571,128.514042 C34.2607724,126.519036 30.7468471,126.139582 29.6731476,127.772382 C28.4616472,129.606408 30.8214893,133.291708 34.9210689,135.999627 C39.0206485,138.707546 43.338413,139.449205 44.5441717,137.580684 C44.658359,137.404406 44.7418421,137.210003 44.7910652,137.005754 C44.7910652,137.005754 45.1929847,135.499438 43.4187969,132.394817 Z" id="Shape" fill="url(#linearGradient-5)"></path>
                            <path d="M38.2340345,133.837891 L38.0215913,130.434307 C36.4196547,129.439679 34.9268106,129.077473 34.5306327,129.629405 C34.1344549,130.181338 35.2024126,131.80264 37.0167923,133.078984 C37.4100935,133.362198 37.8225763,133.617699 38.2512596,133.84364 L38.2340345,133.837891 Z" id="Shape" fill="#D3AF4A"></path>
                            <path d="M39.8187459,134.884263 C38.1306837,135.148731 37.3612948,136.764283 37.1545933,137.275971 C40.4905258,138.880025 43.5565979,139.086999 44.5441717,137.580684 C44.658359,137.404406 44.7418421,137.210003 44.7910652,137.005754 C44.7910652,137.005754 45.1815013,135.528184 43.4073135,132.406316 L43.2695125,133.878136 C43.2695125,133.878136 41.7537016,135.510937 39.8187459,134.884263 Z" id="Shape" fill="#A1632A"></path>
                            <path d="M34.249289,135.142982 L33.6751182,141.513203 C33.6751182,141.513203 31.2521174,144.123384 28.6396402,141.513203 L28.2377206,135.142982 L34.249289,135.142982 Z" id="Shape" fill="#FFC4B6"></path>
                            <path d="M44.7853234,136.108863 C44.7391961,136.324883 44.6556355,136.531141 44.53843,136.718289 C43.3269296,138.552315 39.0206485,137.868148 34.9095855,135.137232 C31.7803545,133.067485 29.6788893,130.440056 29.3860622,128.491045 C29.035818,130.463054 31.2865676,133.607919 34.9095855,135.999627 C39.0206485,138.713295 43.3269296,139.449205 44.53843,137.580684 C44.6526173,137.404406 44.7361004,137.210003 44.7853234,137.005754 C44.8362073,136.708961 44.8362073,136.405656 44.7853234,136.108863 Z" id="Shape" fill="#FFFFFF"></path>
                            <path d="M47.2133478,31.1554419 C43.4812376,25.8143447 41.4436493,26.3547787 41.4436493,26.3547787 L41.4436493,28.4705201 C44.2283778,29.5858837 45.5087787,32.8744818 45.5087787,32.8744818 C43.0455859,37.1462096 37.9526908,36.611525 37.9526908,36.611525 C36.0314672,34.5117013 33.8399922,32.6769359 31.435852,31.1554419 C30.6607214,30.6207572 29.4779296,31.1554419 29.4779296,31.1554419 C29.4779296,31.1554419 28.111403,32.1040759 26.9860282,33.05271 C25.8606534,34.001344 25.8836203,34.8637386 25.8836203,34.8637386 C30.3678943,33.8116172 32.9401796,39.7103962 33.6349263,41.8376362 C34.3296729,43.9648762 33.5430589,55.2162509 29.449221,55.8601722 C27.1357847,56.2907033 24.7958483,55.2539242 23.5582285,53.2499913 L26.2166393,77.1613186 C25.7787369,82.8638707 25.7787369,88.5916723 26.2166393,94.2942244 C25.8836203,106.915022 26.164964,133.464187 26.2166393,135.033745 C26.2683147,136.603303 28.2204955,135.079739 28.2204955,135.142982 C28.2204955,136.200852 29.5697969,137.057497 31.2348923,137.057497 C32.8999876,137.057497 36.4253964,136.091616 36.4253964,135.033745 C36.4253964,133.975874 34.252407,135.07009 34.249289,135.033745 C34.249289,135.033745 35.4952397,118.935713 36.4253964,107.58085 C37.2522024,118.015825 37.8608234,127.513664 37.8608234,127.513664 C37.987141,128.496794 39.2790253,129.272949 40.8637368,129.272949 C42.4484482,129.272949 43.8781336,128.416304 43.8781336,127.358433 C43.9757426,124.874737 45.3709777,92.9028945 45.6465797,89.1888485 C45.8705063,86.2452083 49.4016568,76.3851635 49.2810809,69.7217279 C49.3499814,67.6002372 49.2810809,56.0728962 49.2810809,56.0728962 C49.2810809,56.0728962 50.9454581,36.496539 47.2133478,31.1554419 Z" id="Shape" fill="#67A5EC"></path>
                            <path d="M29.8568823,142.410093 C31.9411224,143.341479 33.640668,141.513203 33.640668,141.513203 L34.2148388,135.142982 L29.6214723,135.142982 L29.8568823,142.410093 Z" id="Shape" fill="#DCA092"></path>
                            <path d="M33.7956941,140.041383 L33.6578931,141.513203 C33.6578931,141.513203 31.2348923,144.123384 28.622415,141.513203 L28.2836543,136.160607 C24.6319279,134.165601 21.1180025,133.786147 20.0500448,135.418948 C18.8385444,137.252974 21.1983864,140.938273 25.2922243,143.651941 C29.3860622,146.36561 33.7095685,147.067024 34.9210689,145.227249 C35.0392935,145.042705 35.1229569,144.838141 35.1679623,144.623573 C35.1679623,144.623573 35.5985904,143.151753 33.7956941,140.041383 Z" id="Shape" fill="url(#linearGradient-6)"></path>
                            <path d="M49.2695975,31.0226799 C45.8268655,26.5549477 47.44591,28.3327627 45.6867716,27.4069001 C43.0455859,27.2804155 42.1154292,28.7924807 42.1154292,28.7924807 C44.440821,30.1090698 45.5260038,32.8744818 45.5260038,32.8744818 C43.062811,37.1462096 37.9699159,36.611525 37.9699159,36.611525 C36.5609704,35.0427225 34.9861813,33.6316354 33.2731986,32.4030394 C30.7411054,32.5927662 29.7075979,35.490412 29.7075979,35.490412 C31.8664801,37.2956914 33.1526228,40.4118105 33.640668,41.8376362 C34.3009644,43.8326423 33.640668,53.8479182 30.1956431,55.6359496 C30.3219607,64.4553716 30.3162189,73.7117402 29.8511406,77.730499 C28.8406,86.4694309 29.4836713,96.4444616 29.3688371,105.626089 C29.2654864,113.732598 29.6157306,132.498305 29.6961145,136.79303 C30.192016,136.977891 30.7172289,137.071386 31.2463757,137.068996 C32.7162529,137.068996 33.9392368,136.396328 34.2033554,135.510937 C34.2033554,135.510937 34.4674739,132.159096 34.8119764,127.841374 C35.213896,122.707252 35.7651,115.675861 36.2588869,109.593104 C36.3163039,108.857194 36.3679793,108.213273 36.4196547,107.592349 C36.787124,103.700075 37.3670365,98.289986 37.3670365,98.289986 C37.3670365,98.289986 36.9076999,90.4249474 37.3670365,89.2003471 C37.8263732,87.9757467 46.3298429,77.3690847 43.8666501,82.234213 C41.4034574,87.0993412 39.6464947,101.371609 39.1067741,105.70658 C38.6129872,109.731088 39.6063027,126.938734 39.7326203,129.146464 C39.990861,129.210431 40.2539761,129.252739 40.5192343,129.272949 L42.4541899,128.985484 C43.298221,128.646276 43.8666501,128.048349 43.8666501,127.369932 C43.9642592,124.886235 45.3594943,92.9143931 45.6350963,89.2003471 C45.8590229,86.2567069 49.3901734,76.3966621 49.2695975,69.7332265 C49.338498,67.6117358 49.2695975,56.0843948 49.2695975,56.0843948 C49.2695975,56.0843948 52.7123295,35.490412 49.2695975,31.0226799 Z" id="Shape" fill="#4A8AD2"></path>
                            <path d="M34.0157918,44.221348 C34.0157918,59.6197942 31.4496004,69.885425 26.3172175,75.0182404 C26.3172175,75.0182404 26.3172175,73.9183514 26.3172175,71.7185733 C29.9832053,65.1192393 32.182798,58.8865349 32.9159955,53.0204601 C33.6491931,47.1543854 34.0157918,44.221348 34.0157918,44.221348 Z" id="Path-14" fill-opacity="0.4" fill="#000000"></path>
                            <path d="M45.0137552,67.3190173 C45.0137552,73.9183514 45.0137552,78.3179074 45.0137552,80.5176854" id="Path-3" stroke="#FFFFFF" stroke-width="0.550000012" opacity="0.5"></path>
                            <path d="M30.7164028,62.9194612 L29.6166065,136.612025" id="Path-4" stroke="#FFFFFF" stroke-width="0.550000012" opacity="0.5"></path>
                            <path d="M28.5168102,70.6186843 C38.781576,71.3519437 45.7469527,69.1521656 49.4129405,64.0193502 C49.4129405,64.0193502 49.4129405,62.9194612 49.4129405,60.7196832 C44.2805576,65.944156 37.6817796,68.143934 29.6166065,67.3190173 C29.6166065,67.3190173 29.2500077,68.4189063 28.5168102,70.6186843 Z" id="Path-5" fill="#675954"></path>
                            <path d="M24.8501128,36.0020995 C22.3049721,37.9281623 23.5830401,44.3265891 23.5984204,47.5210151 C23.5984204,51.1545709 23.038291,55.554127 21.9180322,60.7196832 C18.2520444,70.2520547 16.4190505,75.0182404 16.4190505,75.0182404 C16.4190505,75.0182404 20.4232558,78.3571724 23.5984204,77.6097638 C23.5984204,77.6097638 28.1343699,68.4453839 29.6903728,64.71409 C31.2463757,60.9827961 32.8885042,49.0415057 32.8885042,49.0415057 L24.8501128,36.0020995 Z" id="Shape" fill="#F1653C"></path>
                            <path d="M32.8597957,49.0300071 L26.9860282,39.4401792 C26.9860282,39.4401792 25.9238122,45.321237 25.9238122,57.4527276 C26.0442336,60.8150771 24.5387316,62.9840715 23.6156456,66.2191283 C22.2950527,70.4506111 18.9806707,75.8532563 19.7184395,76.1181294 C20.4562083,76.3830024 22.8570997,77.7957151 23.6156456,77.5982652 C23.6156456,77.5982652 28.1573367,68.4338853 29.7133396,64.7025914 C31.2693425,60.9712975 32.8597957,49.0300071 32.8597957,49.0300071 Z" id="Shape" fill="#DE5D37"></path>
                            <path d="M18.9476368,75.3847857 L18.1725062,78.0179639 L16.9954561,79.1678233 C16.5188943,79.645015 13.37818,81.772255 13.5504312,82.9566102 C13.7226824,84.1409655 15.8471145,86.8948789 16.8117214,87.0501099 C17.7763284,87.2053409 21.5371472,85.9002504 21.9275834,85.5552926 C22.3180195,85.2103348 23.3572687,82.3989284 23.5524868,81.6515198 C23.7477048,80.9041111 22.6395552,80.6683899 21.7725572,80.708635 L23.5524868,77.5465215 C21.7546404,77.6344616 20.0300537,76.8248585 18.9476368,75.3847857 Z" id="Shape" fill="#FFC4B6"></path>
                            <path d="M21.8184909,80.7603787 C21.5797867,81.7633539 20.6717028,82.4615114 19.6423835,82.4334242 L23.4835863,82.0942156 C23.4835863,82.0942156 24.3218757,80.6913871 21.8184909,80.7603787 Z" id="Shape" fill="#D8C7C7"></path>
                            <path d="M27.5946493,14.7814433 C26.9652452,14.4235636 26.48913,13.8465596 26.2568313,13.1601414 C25.5333761,10.9236648 26.3774072,9.77380535 27.2903388,8.63544449 C28.2032704,7.49708363 31.5449445,7.09463282 32.0559565,6.18049456 C32.5669685,5.26635629 36.9134416,4.91564916 38.2684847,5.03063511 C39.6235278,5.14562105 44.4178541,4.45570538 48.4657584,11.5675861 C48.4657584,11.5675861 49.0399292,12.3552398 50.4121974,13.9707924 C51.7844657,15.5863449 50.6016738,18.7944528 49.3327563,19.7200896 C47.6504358,20.9734364 47.2255494,21.5943605 46.7202791,22.7212228 C46.0025656,24.3252767 46.3585515,26.1075589 41.4551327,26.3547787 C36.551714,26.6019984 32.2683997,22.5717411 32.578452,21.8818254 C32.8885042,21.1919097 33.2042981,20.501994 33.2042981,20.501994 C33.2042981,20.501994 34.5937915,20.61698 35.0990618,18.2022751 C35.6043321,15.7875703 33.3191323,16.8339424 33.3191323,16.8339424 C33.3191323,16.8339424 32.9229544,14.9539222 31.5966199,14.8964292 C30.2702853,14.8389362 28.4903558,15.7128294 27.5946493,14.7814433 Z" id="Shape" fill="#131749"></path>
                            <path d="M12.8097508,27.9300861 C12.8097508,27.9300861 11.4547077,25.6016207 11.173364,24.969198 C10.8116364,24.1642964 8.19341751,23.0661806 8.19341751,23.0661806 L9.97908874,26.1593026 L11.6384424,32.839986 C11.6384424,32.839986 12.0346202,33.1274508 13.1198031,32.6387606 L16.1801335,34.8637386 C16.1801335,34.8637386 15.1925597,32.2248112 17.862454,30.0400782 L12.8097508,27.9300861 Z" id="Shape" fill="#FFC4B6"></path>
                            <path d="M37.8608234,127.513664 C37.987141,128.496794 39.2790253,129.272949 40.8637368,129.272949 C42.4484482,129.272949 43.8781336,128.416304 43.8781336,127.358433 C43.8837832,127.283799 43.8837832,127.208844 43.8781336,127.13421 C43.9757426,124.874737 45.3709777,92.9028945 45.6465797,89.1888485 C45.8188309,86.9351239 47.9432629,80.6166462 48.8561945,74.8156053 C46.8465967,80.2429419 39.1814163,86.7109013 38.4579611,90.2524685 C37.7345059,93.7940356 36.4368798,107.598098 36.4368798,107.598098 C37.2636858,118.033073 37.8723069,127.530912 37.8723069,127.530912 L37.8608234,127.513664 Z" id="Shape" fill="#67A5EC"></path>
                            <polygon id="Path-15" fill="#3D638D" points="37.3151808 89.3167975 43.9139588 81.6175744 37.3151808 93.7163536"></polygon>
                            <path d="M17.862454,30.0400782 C17.862454,30.0400782 14.0155096,28.7637342 12.8097508,27.9300861 C11.6039921,27.096438 10.3982334,25.6303672 8.38289388,26.1593026 C6.36755432,26.6882379 5.46036444,26.6939872 5.42017248,27.2344211 C5.42017248,27.5563818 6.12066087,27.7576072 8.38863558,27.5851283 C9.53697721,27.4988888 10.4441671,31.4256588 13.5848814,30.5345178 L16.0078823,32.5870169 C16.4343125,31.6134207 17.0671311,30.744352 17.862454,30.0400782 Z" id="Shape" fill="#FFC4B6"></path>
                            <path d="M28.622415,141.501704 L28.4042301,138.10387 C26.8022936,137.109241 25.3094495,136.741286 24.9190133,137.298968 C24.5285771,137.85665 25.5850514,139.472202 27.3994312,140.748546 C27.7955263,141.02884 28.2098486,141.282372 28.6396402,141.507454 L28.622415,141.501704 Z" id="Shape" fill="#D3AF4A"></path>
                            <g id="casquette" transform="translate(21.818491, 0.000000)">
                                <path d="M20.8825925,7.15787509 L11.0011128,1.51206518 C10.800679,1.40265832 10.5584752,1.40265832 10.3580415,1.51206518 L0.476561775,7.15787509 C0.270862496,7.27535377 0.14542097,7.49571751 0.149284411,7.73280482 C0.146652053,7.96957452 0.27176272,8.18935703 0.476561775,8.30773455 L10.3350746,13.924798 C10.5340416,14.0398234 10.779179,14.0398234 10.978146,13.924798 L20.8596257,8.28473736 C21.0662436,8.16818079 21.192027,7.94721663 21.186903,7.70980763 C21.1896409,7.48499975 21.0740409,7.27533429 20.8825925,7.15787509 Z" id="Shape" fill="#B29115"></path>
                                <path d="M13.6021066,1.00612702 C12.9380355,1.29789657 12.3051404,1.65617648 11.7130846,2.07549631 C11.0508493,2.5229455 10.4685455,3.07880888 9.99057215,3.71979533 C8.84223053,5.19161543 7.87188185,6.55994818 8.05561651,9.883042 C8.39437729,13.4763528 14.2279528,18.4782414 19.2462057,18.4782414 C24.4826435,18.4782414 28.7315075,15.3851195 28.7315075,11.5790847 C28.7315075,11.5790847 28.7315075,11.4640987 28.7315075,11.257124 C28.7346773,11.2438968 28.7346773,11.2301063 28.7315075,11.216879 C28.662607,9.90603919 28.2606874,6.0942551 25.1888736,3.26560085 L24.373551,2.62742885 C22.627212,1.38501125 20.6300483,0.54112955 18.5227504,0.155231026 C16.8349492,-0.0407402159 15.1265106,0.254689324 13.6021066,1.00612702 Z" id="Shape" fill="#DFB51A"></path>
                                <path d="M28.7429909,11.5675861 C28.7429909,11.5675861 28.7429909,11.4526002 28.7429909,11.2456254 C28.7461607,11.2323982 28.7461607,11.2186077 28.7429909,11.2053804 C28.6740904,9.89454059 28.2721709,6.08275651 25.200357,3.25410225 L24.3850344,2.61593026 C23.7991909,2.19712261 23.1831391,1.82239086 22.5419461,1.49481729 C20.5897654,1.69604269 17.4777596,2.42045415 15.7495054,4.90989986 C13.6480402,7.92828093 12.8786513,11.9642876 14.026993,16.9489283 C15.6174676,17.8887386 17.4177675,18.4145201 19.2634308,18.4782414 C24.4941269,18.4667428 28.7429909,15.3851195 28.7429909,11.5675861 Z" id="Shape" fill="#B29115"></path>
                                <path d="M24.1955193,70.3928968 L26.395112,68.1931188 C26.395112,73.3259341 26.0285132,76.2589715 25.2953157,76.9922309 C24.5621181,77.7254902 24.1955193,75.5257122 24.1955193,70.3928968 Z" id="Path-27" stroke="#FFFFFF" stroke-width="1.10000002" opacity="0.3"></path>
                                <path d="M15.4966899,1.32567655 C19.1626777,1.32567655 21.7288692,2.05893589 23.1952643,3.52545458 C25.3948569,5.7252326 27.5944496,10.1247887 27.5944496,16.7241227" id="Path-16" stroke="#735D0D" stroke-width="1.10000002" opacity="0.5"></path>
                                <path d="M15.4966899,1.32567655 C19.1626777,1.32567655 21.7288692,2.05893589 23.1952643,3.52545458 C25.3948569,5.7252326 27.5944496,10.1247887 27.5944496,16.7241227" id="Path" stroke="#9D8013" stroke-width="1.10000002"></path>
                                <polygon id="Path-32" fill-opacity="0.5" fill="#D8D8D8" points="18.7960789 39.821792 26.4946533 35.4222359 26.4946533 40.921681 18.7960789 45.321237"></polygon>
                                <polygon id="Path" fill="#D8D8D8" opacity="0.5" points="18.7960789 39.821792 26.4946533 35.4222359 26.4946533 40.921681 18.7960789 45.321237"></polygon>
                                <ellipse id="Oval" fill="url(#linearGradient-7)" opacity="0.3" style="mix-blend-mode: overlay;" transform="translate(20.771594, 4.097130) rotate(-57.580000) translate(-20.771594, -4.097130) " cx="20.7715939" cy="4.0971304" rx="1" ry="1"></ellipse>
                            </g>
                            <path d="M11.5350916,85.2620784 L13.9064171,85.0723516 L14.6011638,85.0148587 L14.3427869,84.635405 C13.9931376,84.1415786 13.7309369,83.5912017 13.5676563,83.0083539 L9.41640134,83.2153286 C8.59076382,82.069785 7.3099662,81.3386099 5.90491467,81.2107091 C4.49986315,81.0828083 3.10838499,81.5707282 2.08998176,82.5484101 L1.65361194,82.991106 C0.847070637,83.7625506 0.328389569,84.7870825 0.18373466,85.8945011 C1.4569933,84.3419653 3.73028588,84.0798834 5.32258939,85.3020561 C6.91489291,86.5242289 7.25269862,88.7904597 6.08621062,90.4249474 L5.51203981,90.9998771 L5.07566999,91.4368237 C7.90963921,91.2132208 10.1535631,88.9467716 10.3522998,86.1072251 C10.3517297,85.8586834 10.3306046,85.6106159 10.289141,85.3655658 L11.5350916,85.2620784 Z" id="Shape" fill="#97979E"></path>
                            <path d="M1.66509536,83.0026046 C2.68185674,82.022479 4.07331962,81.5323496 5.47897473,81.6592023 C6.88462983,81.7860549 8.16615157,82.5174066 8.99151494,83.6637738 L13.6882322,83.4050554 C13.6395067,83.2819801 13.601096,83.1550575 13.573398,83.0256018 L9.42214305,83.2325765 C8.59650553,82.0870329 7.3157079,81.3558577 5.91065638,81.227957 C4.50560486,81.1000562 3.1141267,81.5879761 2.09572347,82.565658 L1.65935365,83.0083539 L1.66509536,83.0026046 Z" id="Shape" fill="#77777F"></path>
                            <path d="M14.6012763,85.0148586 L14.3427869,84.635405 C14.4863922,84.8538783 14.6012763,85.0148586 14.6012763,85.0148586 Z" id="Shape" fill="#77777F"></path>
                            <polygon id="Shape" fill="#77777F" points="5.68455119 90.8503954 5.52371333 91.0056264 5.08715341 91.4425729 5.66157435 90.8676433"></polygon>
                            <path d="M9.82406262,85.4115602 C9.88361637,85.7924164 9.92195372,86.1762966 9.93889678,86.5614196 C9.94115299,87.7688871 9.49267133,88.9336098 8.6814627,89.8270205 L8.71017124,89.798274 C9.82825911,88.840619 10.4391448,87.417583 10.3637832,85.9462448 C10.3637832,85.8255096 10.3178495,85.5035489 10.3063661,85.3713151 L9.82406262,85.4115602 Z" id="Shape" fill="#77777F"></path>
                            <path d="M8.31399338,90.1719783 C8.37143547,90.1259839 8.41738915,90.0742402 8.47483124,90.0224966 C8.41738915,90.0742402 8.37143547,90.1259839 8.31399338,90.1719783 Z" id="Shape" fill="#77777F"></path>
                            <path d="M22.6452969,80.8178716 C22.3631038,80.7672692 22.0761976,80.7479883 21.7897824,80.7603787 L23.5639702,77.5982652 C22.8207055,77.6352909 22.0778341,77.5178404 21.3821211,77.2533073 C21.1639362,77.8282371 20.2797131,80.2601898 19.9065021,80.6683899 C19.5332911,81.07659 18.1265726,82.0309734 17.9830299,82.5484101 C17.8394872,83.0658469 19.4816157,85.2563291 19.4816157,85.2563291 C19.4816157,85.2563291 20.2510046,86.1014758 21.9448085,85.6070363 C22.3836053,84.9474997 22.7276453,84.2294797 22.9668325,83.474047 L22.6452969,80.8178716 Z" id="Shape" fill="#DCA092"></path>
                            <path d="M26.6013338,82.8588722 C26.6616637,82.7170668 26.6929051,82.5645633 26.6932011,82.410427 C26.7069712,82.1665542 26.6154107,81.9285166 26.441824,81.7569007 C26.2682373,81.5852848 26.0293669,81.4966429 25.7860112,81.5135366 C25.7114277,81.5093453 25.6366681,81.5093453 25.5620846,81.5135366 L20.0443031,82.0022269 L19.613675,82.4334242 L20.4519644,84.2214556 L25.2462907,83.8362527 C25.4980438,83.8288913 25.7411024,83.742401 25.9410374,83.5890329 L26.3716655,83.1635849 C26.4569539,83.0873583 26.5270854,82.9956768 26.578367,82.893368 L26.6013338,82.8588722 Z" id="Shape" fill="#97979E"></path>
                            <path d="M39.8187459,127.496416 L39.8187459,134.884263 C41.7537016,135.510937 43.2637708,133.866638 43.2637708,133.866638 L43.8379416,127.496416 L39.8187459,127.496416 Z" id="Shape" fill="#DCA092"></path>
                            <path d="M25.7860112,81.502038 C25.7114277,81.4978467 25.6366681,81.4978467 25.5620846,81.502038 L20.0443031,81.9907283 L19.613675,82.4219256 L25.1314565,81.9332353 C25.2040778,81.9276478 25.2770201,81.9276478 25.3496414,81.9332353 C25.5944452,81.9126384 25.8360628,81.9998635 26.0114216,82.1721411 C26.1867805,82.3444187 26.2784765,82.5846505 26.262573,82.8301257 C26.264095,82.983205 26.2307113,83.1346136 26.164964,83.2728216 C26.1136824,83.3751305 26.043551,83.4668119 25.9582625,83.5430386 L26.3888906,83.1175906 C26.4741791,83.0413639 26.5443105,82.9496825 26.5955921,82.8473736 C26.655922,82.7055682 26.6871634,82.5530647 26.6874594,82.3989284 C26.7010603,82.1561225 26.6102578,81.9190926 26.4379775,81.7476833 C26.2656972,81.5762741 26.0284047,81.486868 25.7860112,81.502038 Z" id="Shape" fill="#77777F"></path>
                            <path d="M48.8332277,74.809856 C47.6332107,78.0467104 44.4235958,81.6515198 41.8742774,84.7906361 C41.5929337,86.8028901 41.2484312,89.0681132 40.8579951,91.1551081 C39.9680303,95.8810305 39.835971,121.586139 39.8187459,129.163712 C40.1614037,129.243351 40.5119703,129.283855 40.8637368,129.284448 C42.5288322,129.284448 43.9139588,129.284448 44.3259868,129.163712 C44.7380147,129.042977 46.1135515,127.812913 46.1135515,127.369932 C46.1135515,126.92695 46.9377459,94.8691542 47.2133478,91.1551081 C47.4889498,87.4410621 47.9088127,80.6223955 48.8332277,74.809856 Z" id="Shape" fill="#4A8AD2"></path>
                            <path d="M33.6578931,141.501704 C33.6578931,141.501704 31.9353806,143.329981 29.8741074,142.398595 C29.3170666,143.375589 29.0971064,144.509174 29.2482612,145.62395 C31.8779636,146.532339 34.1057463,146.457599 34.9210689,145.21575 C35.0392935,145.031207 35.1229569,144.826642 35.1679623,144.612074 C35.1679623,144.612074 35.5641402,143.140254 33.7899524,140.012636 L33.6578931,141.501704 Z" id="Shape" fill="#A1632A"></path>
                            <path d="M35.173704,143.755429 C35.1275766,143.971448 35.0440161,144.177707 34.9268106,144.364854 C33.7153102,146.19888 29.4090291,145.514714 25.297966,142.783798 C22.1687351,140.7198 20.0672699,138.086622 19.7744428,136.13761 C19.4241986,138.109619 21.6749482,141.260234 25.297966,143.651941 C29.4090291,146.35986 33.7153102,147.067024 34.9268106,145.227249 C35.0450352,145.042705 35.1286986,144.838141 35.173704,144.623573 C35.2249261,144.326809 35.2249261,144.023446 35.173704,143.726682 L35.173704,143.755429 Z" id="Shape" fill="#FFFFFF"></path>
                            <polyline id="Path-7" fill="#4A8AD2" points="32.9159955 66.2191283 32.9159955 71.7185733 35.1155882 71.7185733 35.1155882 66.2191283"></polyline>
                            <path d="M42.8141625,64.0193502 C43.5473601,65.4858689 43.9139588,67.3190173 43.9139588,69.5187953 C43.9139588,69.5187953 44.6471564,69.1521656 46.1135515,68.4189063 C46.1135515,66.2191283 45.7469527,64.3859799 45.0137552,62.9194612 C45.0137552,62.9194612 44.2805576,63.2860909 42.8141625,64.0193502 Z" id="Path-8" fill="#4A8AD2"></path>
                            <path d="M35.9561516,76.9922309 L41.4551333,73.6925638 C41.4551333,79.5586385 40.7219357,82.8583056 39.2555406,83.5915649 C37.7891455,84.3248243 36.6893492,82.1250462 35.9561516,76.9922309 Z" id="Path-26" stroke="#FFFFFF" stroke-width="1.10000002" opacity="0.3"></path>
                        </g>
                    </g>
                    <g id="Perso-Petit" transform="translate(195.000000, 61.000000)">
                        <path d="M23.2378394,81.4557588 C23.2073048,81.1645407 23.2073048,80.8708968 23.2378394,80.5796787 C23.2378394,79.231106 24.7537008,77.3706663 26.9932638,76.0319373 C29.7022549,74.4175875 32.4992638,74.1714976 33.2327451,75.4905395 C33.486906,75.9816891 33.5463284,76.5516459 33.3990009,77.0852021 C33.3012034,78.4239311 31.8342407,80.2253093 29.6533562,81.524664 C26.9443651,83.1488573 24.1473563,83.3851036 23.4138749,82.0660617 C23.3788751,82.0043956 23.3525447,81.93814 23.3356369,81.8691898 C23.2824378,81.7371555 23.2494629,81.5977567 23.2378394,81.4557588 Z" id="Shape" fill="url(#linearGradient-8)"></path>
                        <polygon id="Shape" fill="url(#linearGradient-9)" opacity="0.5" points="95.0279697 44.8442581 27.7921803 84.1792686 13.9147133 76.2945481 81.3852168 37.8356176"></polygon>
                        <polygon id="Shape" fill="url(#linearGradient-10)" opacity="0.5" points="35.8457924 114.379307 103.081582 153.714317 116.959049 145.829597 49.4885453 107.370666"></polygon>
                        <path d="M23.2280596,80.5698351 C23.2280596,79.2212624 24.7439211,77.3608228 26.9834841,76.0220937 C27.4168776,75.7672579 27.8641955,75.5372093 28.32331,75.3330419 L32.9393526,76.3174016 C32.945515,77.1876554 32.8369918,78.054889 32.6166208,78.8964238 C31.8198115,79.9554666 30.8226887,80.8453539 29.6826954,81.5148204 C26.9737043,83.1390137 24.1766955,83.37526 23.4432142,82.0562182 C23.4082144,81.994552 23.381884,81.9282964 23.3649762,81.8593462 C23.3160731,81.7299073 23.2864144,81.5939134 23.2769584,81.4557588 C23.2464238,81.1645407 23.2464238,80.8708968 23.2769584,80.5796787 L23.2280596,80.5698351 Z" id="Shape" fill="#A1632A"></path>
                        <path d="M32.6948588,76.4650555 C32.6948588,76.4650555 28.6558216,80.3335888 25.849033,79.5854755 C23.5899104,78.9751725 28.2255125,76.4650555 28.2255125,76.4650555 L32.6948588,76.4650555 Z" id="Shape" fill="#D3AF4A"></path>
                        <path d="M23.2378394,81.0029534 C23.246331,81.1444381 23.2760049,81.2838205 23.3258572,81.4163844 C23.342765,81.4853346 23.3690953,81.5515902 23.4040952,81.6132563 C24.1375765,82.9322982 26.9345853,82.6862083 29.6435764,81.0620149 C31.8244609,79.7626602 33.2914236,77.9612821 33.3892211,76.622553 C33.3892211,76.4945863 33.3892211,76.3764631 33.3892211,76.25834 C33.4208705,76.5297479 33.4208705,76.8039505 33.3892211,77.0753585 C33.2914236,78.4140875 31.8244609,80.2154657 29.6435764,81.5148204 C26.9345853,83.1390137 24.1375765,83.37526 23.4040952,82.0562182 C23.3690953,81.994552 23.342765,81.9282964 23.3258572,81.8593462 C23.2769541,81.7299073 23.2472954,81.5939134 23.2378394,81.4557588 C23.2168323,81.2265615 23.2168323,80.9959043 23.2378394,80.766707 C23.2321762,80.8453527 23.2321762,80.9243077 23.2378394,81.0029534 Z" id="Shape" fill="#FFFEFD"></path>
                        <path d="M14.211129,77.8037846 C14.1812326,77.5125331 14.1812326,77.218956 14.211129,76.9277045 C14.211129,75.5791318 15.7172107,73.7186921 17.9567737,72.3799631 C20.6657648,70.7656133 23.4627737,70.5195234 24.196255,71.8385653 C24.4511773,72.3256587 24.5140457,72.8916523 24.3722905,73.4233843 C24.2647133,74.7621133 22.8075303,76.5634915 20.6266458,77.8726898 C17.9176547,79.4870395 15.1206459,79.7331294 14.3871646,78.4140875 C14.3507429,78.3519101 14.3212261,78.2858892 14.2991468,78.2172156 C14.2492945,78.0846517 14.2196206,77.9452694 14.211129,77.8037846 Z" id="Shape" fill="url(#linearGradient-11)"></path>
                        <path d="M14.211129,76.8981737 C14.211129,75.549601 15.7172107,73.6891614 17.9567737,72.3504323 C18.3284043,72.1338732 18.6902551,71.9468448 19.0521059,71.7795037 L24.0299992,72.7146453 L24.0886777,74.3880567 C23.2809071,75.8448929 22.0808552,77.0425428 20.6266458,77.843159 C17.9176547,79.4575087 15.1206459,79.7035987 14.3871646,78.3845568 C14.3507429,78.3223794 14.3212261,78.2563584 14.2991468,78.1876848 C14.2492945,78.0551209 14.2196206,77.9157386 14.211129,77.7742538 C14.1812326,77.4830023 14.1812326,77.1894252 14.211129,76.8981737 Z" id="Shape" fill="#A1632A"></path>
                        <path d="M24.039779,72.7343325 C24.039779,72.7343325 20.0692,76.4355247 17.3504292,75.6874114 C15.1304257,75.1066392 19.0814451,72.7343325 19.0814451,72.7343325 L24.039779,72.7343325 Z" id="Shape" fill="#D3AF4A"></path>
                        <path d="M14.211129,77.3608228 C14.2216339,77.5020234 14.2512467,77.6411188 14.2991468,77.7742538 C14.3239778,77.8418268 14.3533861,77.9076053 14.3871646,77.9711257 C15.1206459,79.280324 17.9176547,79.0440777 20.6266458,77.4198843 C22.8075303,76.1205296 24.2647133,74.3191515 24.3722905,72.9804224 C24.3722905,72.8426121 24.3722905,72.7244889 24.3722905,72.6162094 C24.399221,72.884585 24.399221,73.1550087 24.3722905,73.4233843 C24.2647133,74.7621133 22.8075303,76.5634915 20.6266458,77.8726898 C17.9176547,79.4870395 15.1206459,79.7331294 14.3871646,78.4140875 C14.3507429,78.3519101 14.3212261,78.2858892 14.2991468,78.2172156 C14.2492945,78.0846517 14.2196206,77.9452694 14.211129,77.8037846 C14.194873,77.5776775 14.194873,77.3506835 14.211129,77.1245764 C14.2013493,77.2033252 14.2013493,77.282074 14.211129,77.3608228 Z" id="Shape" fill="#FFFEFD"></path>
                        <path d="M32.9393526,73.0591712 L32.9393526,76.3174016 C32.9393526,76.3174016 30.5922123,78.5912723 28.3526493,76.3174016 L28.2352923,73.0591712 L32.9393526,73.0591712 Z" id="Shape" fill="#D99788"></path>
                        <path d="M24.0299992,69.4957894 L24.0299992,72.7441761 C24.0299992,72.7441761 21.4970437,75.0278904 19.0814451,72.7441761 L18.9640881,69.0232967 L24.0299992,69.4957894 Z" id="Shape" fill="#D99788"></path>
                        <path d="M19.2281414,15.3166357 C19.2281414,15.3166357 14.5729798,15.3166357 14.3382658,26.4792739 C14.3382658,26.4792739 14.17201,27.3159795 12.4703333,28.4479931 C10.7686566,29.5800067 6.49490535,32.6610523 6.49490535,32.6610523 C7.30888731,33.2713862 7.78190174,34.2382404 7.76627301,35.2597617 C7.76627301,35.2597617 14.5338608,32.936673 16.4017933,31.2238872 C18.2697258,29.5111015 19.2281414,15.3166357 19.2281414,15.3166357 Z" id="Shape" fill="#F1653C"></path>
                        <path d="M17.5460242,29.4520399 C17.7611787,31.3223232 19.2770402,38.8428307 19.0032071,45.5758505 C18.6902551,53.3030736 19.0032071,69.968282 19.0032071,69.968282 C20.4325705,71.2906007 22.6299751,71.2906007 24.0593385,69.968282 L26.0152887,44.8178936 L28.2939708,73.0591712 C29.733169,73.9639171 31.5588329,73.9639171 32.9980311,73.0591712 C32.9980311,73.0591712 33.9760062,46.1369355 33.9760062,42.297933 C33.9760062,40.1717162 34.6703685,35.1514821 35.2669334,31.0959205 C35.7093044,29.1518748 36.0100167,27.1779044 36.1666705,25.1897627 C36.4894023,22.8568304 33.2327451,19.0375151 28.2939708,16.1730286 C22.8173101,12.993547 18.10347,14.6177404 16.8516619,16.8030188 C16.7929834,16.8522367 16.0497223,17.137701 17.5460242,29.4520399 Z" id="Shape" fill="#DE5D37"></path>
                        <path d="M16.7245251,21.380291 L19.5704327,17.0786395 C27.5996084,18.2008094 30.8758251,22.1382479 30.8758251,22.1382479 C29.1937079,33.9505634 33.2131856,33.6650991 33.2131856,33.6650991 L34.2889582,37.8880019 C34.0738037,39.7189108 33.9271074,41.323417 33.9173277,42.297933 C33.9173277,46.1369355 32.9393526,73.0591712 32.9393526,73.0591712 C31.5001543,73.9639171 29.6744905,73.9639171 28.2352923,73.0591712 L25.9566102,44.8178936 L24.00066,69.968282 C22.5712966,71.2906007 20.373892,71.2906007 18.9445286,69.968282 C18.9445286,69.968282 18.6315766,53.3030736 18.9445286,45.5758505 C19.2183617,38.8428307 17.7025002,31.3223232 17.4873457,29.4520399 C17.0863759,25.8099093 16.8418821,23.2308871 16.7245251,21.380291 Z" id="Shape" fill="#F1653C"></path>
                        <path d="M18.9738679,45.5758505 C19.2477009,38.8428307 17.7318395,31.3223232 17.5166849,29.4520399 C17.4091077,28.595647 17.3210899,27.8081593 17.2428519,27.060046 C17.0374771,22.6304277 18.0839105,17.5609757 21.9469122,14.4405557 C22.5096428,14.4290989 23.0723333,14.4653198 23.6290294,14.5488352 C22.7977506,15.6316308 19.4432959,19.6379745 19.5802124,23.2801051 C19.7464682,27.5226951 25.5849797,28.4381495 26.6509726,24.6778957 C27.6289477,21.1243575 29.1056901,18.8307996 30.9638428,18.0236247 C31.4919494,18.4272121 31.941818,18.8307996 32.4405853,19.234387 C31.013877,19.5535111 29.9714118,20.7877107 29.8880702,22.2563711 C29.3012851,26.0461556 30.4748553,33.5076016 32.9393526,33.6650991 C33.7925911,33.6807081 34.5853332,33.2231347 35.0028801,32.474024 C34.4649938,36.2244341 33.9368872,40.4079625 33.9173277,42.3176202 C33.9173277,46.1566227 32.9393526,73.0788584 32.9393526,73.0788584 C31.5001543,73.9836043 29.6744905,73.9836043 28.2352923,73.0788584 L25.9566102,44.8375808 L24.00066,69.9879692 C22.5712966,71.3102879 20.373892,71.3102879 18.9445286,69.9879692 C18.9445286,69.9879692 18.6609158,53.2735428 18.9738679,45.5758505 Z" id="Shape" fill="#4A8AD2"></path>
                        <path d="M27.8832212,15.6021 L27.8832212,18.2992454 C27.7055869,19.2391156 26.8823572,19.9143875 25.9319473,19.8998198 C24.9815374,19.885252 24.179118,19.1850625 24.0299992,18.2401838 L24.0299992,15.5922564 L27.8832212,15.6021 Z" id="Shape" fill="#B3796C"></path>
                        <path d="M26.6509726,20.0514055 C26.4306415,20.1424117 26.1947715,20.1892249 25.9566102,20.1892159 C24.8763687,20.1892159 24.00066,19.3077902 24.00066,18.2204966 L24.00066,15.5725692 L26.6216333,15.5725692 L26.6509726,20.0514055 Z" id="Shape" fill="#D99788"></path>
                        <path d="M25.9566102,16.9327731 C29.8130723,16.9327731 32.9393526,13.0460263 32.9393526,9.16438809 C32.9393526,5.28274988 29.8130723,2.13606038 25.9566102,2.13606038 C22.1001481,2.13606038 19.5,5.28274988 19.5,9.16438809 C19.5,13.0460263 22.1001481,16.9327731 25.9566102,16.9327731 Z" id="Oval" fill="#D99788"></path>
                        <path d="M33.4478996,20.1892159 C36.1892612,22.8072216 38.3144043,26.0090202 39.6678214,29.5603195 C42.239896,35.8897518 42.2105567,44.4044626 42.2105567,44.4044626 C41.6268505,45.2161427 40.6208351,45.6026247 39.6482619,45.3888222 C39.6482619,45.3888222 36.7143365,34.1375917 33.4478996,31.0663897 C30.1814627,27.9951877 29.2817256,19.8053156 33.4478996,20.1892159 Z" id="Shape" fill="#F1653C"></path>
                        <path d="M1.54635125,28.5759598 L1.96688055,28.2904956 C2.09816938,28.2064665 2.26590077,28.2064665 2.3971896,28.2904956 L5.42891247,30.0426557 C5.55500944,30.1204654 5.63256674,30.2580061 5.63428725,30.4068687 L5.63428725,37.5237888 C5.63564248,37.6632298 5.56538528,37.7934958 5.44847197,37.8683147 L5.02794267,38.153779 C4.95846739,38.2001954 4.87660181,38.2242287 4.79322864,38.2226842 C4.71772225,38.221485 4.64373062,38.2011737 4.57807412,38.1636226 L1.556131,36.3130265 C1.43790656,36.2336235 1.36505813,36.1016403 1.36053597,35.958657 L1.36053597,28.9303293 C1.35766495,28.7878689 1.42788039,28.6539606 1.54635125,28.5759598 Z" id="Shape" fill="#D9D9DB"></path>
                        <path d="M4.57807412,38.153779 L1.556131,36.3031829 C1.43790656,36.2237799 1.36505813,36.0917967 1.36053597,35.9488134 L1.36053597,28.9204857 C1.36260386,28.8386679 1.38995084,28.759532 1.43877398,28.694083 C1.53523709,28.6507069 1.64548316,28.6507069 1.74194627,28.694083 L4.76388939,30.4462431 C4.88998636,30.5240529 4.96754366,30.6615935 4.96926416,30.8104562 L4.96926416,37.9273763 C4.96857784,38.0124572 4.94119454,38.0951434 4.89102615,38.1636226 L4.83234765,38.1636226 C4.74841486,38.18504 4.66012456,38.1816221 4.57807412,38.153779 Z" id="Shape" fill="#C6C6C6"></path>
                        <path d="M6.4655661,32.6610523 L5.63428725,33.2221373 L5.63428725,36.0374058 L7.71737425,35.2597617 C7.82756113,34.2239591 7.34177344,33.215481 6.4655661,32.6610523 Z" id="Shape" fill="#D99788"></path>
                        <polygon id="Shape" fill="url(#linearGradient-12)" points="47.6774376 50.4385871 45.2520593 45.3100734 42.8364608 47.5741006"></polygon>
                        <polygon id="Shape" fill="url(#linearGradient-13)" points="47.4818426 50.5665538 45.0564643 45.4380402 42.6408658 47.7119109"></polygon>
                        <polygon id="Shape" fill="url(#linearGradient-14)" points="47.4818426 50.5665538 47.6774376 50.4385871 45.2520593 45.3100734 45.0564643 45.4380402"></polygon>
                        <polygon id="Shape" fill="url(#linearGradient-14)" points="38.0737219 56.0395933 37.7803294 56.1872473 35.3353916 51.04889 35.6483437 50.9110797"></polygon>
                        <path d="M1.36053597,32.6019907 C2.23332242,33.6973713 2.85151221,34.9754561 3.16978995,36.3425573 C3.35560522,38.0454994 0.607495133,36.3425573 0.607495133,36.3425573 C0.344773821,36.0274242 0.196462048,35.6316586 0.186965832,35.2203873 C0.186965832,34.57071 -0.135765958,31.5782567 1.36053597,31.6570055 L1.36053597,32.6019907 Z" id="Shape" fill="#D99788"></path>
                        <path d="M24.4994273,6.70348903 C23.8740187,5.92997616 22.9029791,5.52643721 21.917573,5.63053704 C20.3234735,5.86678335 19.9616227,6.75270701 19.6486707,6.15224764 C19.3964174,6.69131209 19.2124224,7.26012895 19.1010046,7.84534619 C18.7116258,7.28122762 18.6627477,6.54705419 18.9738679,5.93568853 C19.5019744,4.88242373 18.9738679,4.34102594 19.4432959,3.42557149 C19.912724,2.51011704 21.7121982,3.19916877 22.8270898,1.98840644 C24.4985718,0.106522867 27.2659712,-0.30736506 29.4088624,1.00404682 C31.7364432,2.51996063 30.7878073,3.52400745 32.724198,4.07524884 C34.6605888,4.62649023 34.7388268,7.5795691 34.1129227,8.84939301 C33.518186,9.88895219 33.1326992,11.0362379 32.9784716,12.2257465 C32.7339778,13.7810347 30.132564,14.8047687 30.132564,14.8047687 C30.132564,14.8047687 29.3795231,14.2633709 30.328159,13.3085421 C31.2767949,12.3537133 31.6875444,11.2315433 30.7975871,10.6606147 C30.5427208,10.608623 30.2793923,10.6944835 30.1032247,10.8870174 C30.5922407,10.1043306 30.4742452,9.08458316 29.8196119,8.43596197 C28.7145001,7.24488682 26.6118536,9.02657774 24.4994273,6.70348903 Z" id="Shape" fill="#161944"></path>
                        <path d="M21.917573,5.63053704 C20.3234735,5.86678335 19.9616227,6.75270701 19.6486707,6.15224764 C19.3964174,6.69131209 19.2124224,7.26012895 19.1010046,7.84534619 C18.7116258,7.28122762 18.6627477,6.54705419 18.9738679,5.93568853 C19.5019744,4.88242373 18.9738679,4.34102594 19.4432959,3.42557149 C19.912724,2.51011704 21.7121982,3.19916877 22.8270898,1.98840644 C23.0638128,1.73242466 23.3259757,1.50153463 23.6094699,1.2993547 C24.610812,1.09973369 25.6468448,1.17106503 26.6118536,1.50607022 C28.9198748,2.41168108 29.1252496,4.24258997 30.6606705,4.72492619 C32.1960915,5.2072624 33.7608517,6.61489666 33.1740666,8.337526 C32.5872815,10.0601553 33.1740666,11.1724817 32.8611146,12.5899596 C32.3134485,13.9385323 30.132564,14.7949251 30.132564,14.7949251 C30.132564,14.7949251 29.3795231,14.2535273 30.328159,13.2986985 C31.2767949,12.3438697 31.6875444,11.2216997 30.7975871,10.6507711 C30.5427208,10.5987794 30.2793923,10.6846399 30.1032247,10.8771738 C30.5922407,10.094487 30.4742452,9.07473956 29.8196119,8.42611837 C28.7145001,7.24488682 26.6118536,9.02657774 24.4994273,6.70348903 C23.8740187,5.92997616 22.9029791,5.52643721 21.917573,5.63053704 Z" id="Shape" fill="#333A8C"></path>
                        <path d="M30.8758251,22.1382479 C31.9613775,23.6836925 36.9490506,30.8498306 38.0737219,34.4132124 C39.0516971,37.5828504 40.2643862,43.1740131 40.7240345,45.3789786 C40.3712836,45.4710998 40.0010128,45.4710998 39.6482619,45.3789786 C39.6482619,45.3789786 36.7143365,34.1277481 33.4478996,31.0565461 C31.3159139,28.9697037 30.1619032,24.6680521 30.8758251,22.1382479 Z" id="Shape" fill="#DE5D37"></path>
                        <path d="M39.0027983,48.2237779 C39.2101331,47.7593629 39.4982778,47.3359919 39.8536367,46.9736412 L39.6482619,45.3396042 C40.6044783,45.4057579 41.5413081,45.0458549 42.2105567,44.3552446 L42.2105567,46.8259873 C42.6897069,47.4623681 43.0811823,48.1610282 43.3743471,48.9029861 C43.3762587,49.6845172 43.0702987,50.4349421 42.5235087,50.9898285 C42.0247414,51.4721647 40.50888,51.2162312 39.9318747,50.9898285 C39.3548694,50.7634257 38.9538996,49.3557915 38.9538996,49.3557915 C38.9158904,48.9780542 38.9323604,48.5967693 39.0027983,48.2237779 Z" id="Shape" fill="#D99788"></path>
                        <polygon id="Shape" fill="#A1632A" points="47.4818426 50.5665538 45.0564643 45.4380402 42.6408658 47.7119109"></polygon>
                        <path d="M39.0027983,49.3951658 L39.9807734,49.9464072 C40.1947895,49.7454105 40.3153832,49.4633783 40.313285,49.1687631 C40.2448267,48.7553321 39.0027983,49.3951658 39.0027983,49.3951658 Z" id="Shape" fill="url(#linearGradient-15)"></path>
                        <path d="M42.8853595,47.8792521 L44.8413098,46.7275513 C44.8413098,46.7275513 45.2520593,46.7275513 45.2520593,47.4559774 C45.2678477,47.7586003 45.1075404,48.0428905 44.8413098,48.1844035 L43.3645673,49.0604836 C43.2734067,48.6419637 43.1113005,48.2423773 42.8853595,47.8792521 Z" id="Shape" fill="#454645"></path>
                        <path d="M40.3328445,49.3853223 C40.280938,49.9502677 40.1458017,50.5042946 39.9318747,51.0292028 L39.9905532,51.0292028 L36.6360985,52.9979221 L36.107992,51.8757521 L40.3328445,49.3853223 Z" id="Shape" fill="#454645"></path>
                        <path d="M22.5336973,43.8138468 C22.113168,51.0882644 22.42612,66.8084876 22.5336973,70.7951441 C21.2912372,71.1647476 19.9472155,70.8508391 18.9934274,69.968282 C18.9934274,69.968282 18.6804753,53.3030736 18.9934274,45.5758505 C19.2672604,38.8428307 17.751399,31.3223232 17.5362444,29.4520399 C17.4286672,28.595647 17.3406494,27.8081593 17.2624114,27.060046 C17.0961556,23.4474462 17.7611787,19.4115718 20.108319,16.3502133 C20.6657648,16.5372417 21.2525499,16.7636444 21.8588945,16.9998907 C20.7146636,18.7422072 19.5215339,21.0751395 19.5997719,23.2801051 C19.7660277,27.5226951 25.6045392,28.4381495 26.6705321,24.6778957 C27.0727494,23.1026256 27.7126113,21.598761 28.5678038,20.2187467 C29.1056778,20.5884075 29.6216246,20.9893977 30.1130045,21.4196654 C30.0193645,21.6916873 29.9506203,21.971754 29.9076297,22.2563711 C29.4088624,25.4456962 30.1619032,31.2435744 31.8635799,33.0843269 C31.7462229,34.1572789 31.5799672,35.4664772 31.4039316,36.3819317 C31.1203189,37.9962814 31.3354734,66.89708 31.4039316,73.6596306 C30.313935,73.9153929 29.1673226,73.6974364 28.245072,73.0591712 L25.96639,44.8178936 C25.96639,44.8178936 23.0129051,35.44679 22.5336973,43.8138468 Z" id="Shape" fill="#67A5EC"></path>
                        <path d="M22.1,9.11764706 L23.4,10.4201681" id="Path-30" stroke="#333A8C" stroke-width="1.30000007"></path>
                        <path d="M26,10.4201681 L27.3,11.7226891" id="Path-31" stroke="#40418C" stroke-width="1.30000007"></path>
                    </g>
                    <g id="Perso-Petit" transform="translate(198.000000, 91.000000)">
                        <path d="M28.3275091,18.3757847 L22.5180025,8.31683883 C22.4617473,8.22573255 22.3792419,8.15369351 22.2812824,8.11014816 C22.2812824,8.11014816 22.2319657,8.11014816 22.212239,8.11014816 L21.8472955,7.97235438 C21.7400265,7.9275156 21.6192109,7.9275156 21.5119419,7.97235438 L14.5089714,12.0175861 C14.5089714,12.0175861 13.9763511,12.4014402 14.4497914,13.208518 L20.2099812,23.0509308 C20.4376485,23.1994316 20.708136,23.2686402 20.9793216,23.2477791 C21.0768683,23.2472644 21.1724,23.2200276 21.2554951,23.1690398 L28.1598323,19.1336505 C28.2866216,19.05867 28.3766082,18.9346164 28.4083819,18.7910053 C28.4401557,18.6473942 28.4108759,18.4970649 28.3275091,18.3757847 Z" id="Shape" fill="#D9D9DB"></path>
                        <path d="M22.5180025,8.31683883 C22.4617473,8.22573255 22.3792419,8.15369351 22.2812824,8.11014816 C22.2812824,8.11014816 22.2319657,8.11014816 22.212239,8.11014816 L22.0248356,8.04125127 L15.021865,12.0864829 C15.021865,12.0864829 14.4892447,12.470337 14.962685,13.2872573 C15.4361252,14.1041776 20.7228748,23.1296701 20.7228748,23.1296701 C20.8040673,23.1925867 20.898488,23.2363318 20.9990483,23.2576215 C21.0933096,23.2558187 21.1853279,23.2286118 21.2653585,23.1788822 L28.1696956,19.1434929 C28.2941075,19.0717364 28.3841848,18.9528603 28.4194736,18.8138579 C28.4547624,18.6748554 28.4322683,18.5275218 28.3570991,18.405312 L22.5180025,8.31683883 Z" id="Shape" fill="#FFFFFF"></path>
                        <path d="M27.3017218,17.9624034 L22.3700524,9.41918907 C22.306401,9.31682731 22.2086055,9.24015098 22.0938789,9.20265599 C21.9796244,9.15866191 21.8530533,9.15866191 21.7387987,9.20265599 L15.8997022,12.6376581 C15.7927001,12.695456 15.7141673,12.794553 15.6824687,12.9117749 C15.6507701,13.0289968 15.6686856,13.1540643 15.7320254,13.2577301 L20.6636948,21.8107868 C20.7287569,21.9139187 20.8312398,21.987973 20.9497316,22.0174775 L21.0680917,22.0174775 C21.1490945,22.0189234 21.228487,21.9948118 21.2949485,21.9485806 L27.1439084,18.5234209 C27.3227644,18.3971289 27.388589,18.1631262 27.3017218,17.9624034 Z" id="Shape" fill="url(#linearGradient-16)"></path>
                        <ellipse id="Oval" fill="#D9D9DB" cx="19.0954239" cy="10.6790179" rx="1" ry="1"></ellipse>
                        <path d="M21.8867488,9.20265599 C21.8346076,9.19280387 21.7810766,9.19280387 21.7289354,9.20265599 L15.8898388,12.6376581 C15.7828368,12.695456 15.7043039,12.794553 15.6726054,12.9117749 C15.6409068,13.0289968 15.6588222,13.1540643 15.7221621,13.2577301 L20.6538315,21.8107868 C20.7188936,21.9139187 20.8213765,21.987973 20.9398683,22.0174775 L21.0582284,22.0174775 C21.1392312,22.0189234 21.2186236,21.9948118 21.2850852,21.9485806 L21.8768855,21.6040961 L21.8867488,9.20265599 Z" id="Shape" fill="#FFFFFF" opacity="0.2"></path>
                        <path d="M37.9344011,19.7438801 L31.2766474,17.7753976 C30.7623552,18.0050638 30.365356,18.435689 30.1788071,18.9662254 C29.9922582,19.4967619 30.0325809,20.0805078 30.2903135,20.5804852 L36.6324403,24.5174503 L37.9344011,19.7438801 Z" id="Shape" fill="#F1653C"></path>
                        <path d="M51.6049886,19.9604132 C51.5260819,19.3009715 51.4274486,18.9761719 51.4077219,18.7990085 C51.3720267,18.5674759 51.295203,18.3441599 51.1808651,18.1395668 C50.0071278,16.1021874 45.5094453,14.2026017 40.5777759,17.0667438 C38.0342136,18.4195638 35.8578351,20.368407 34.235649,22.745816 C33.4062425,23.6060176 32.9553188,24.7610513 32.983005,25.9544426 C33.0386064,26.8178511 33.3863694,27.6368305 33.9693389,28.277252 L36.681757,40.363735 C40.6886573,43.1094076 46.1605307,42.1512362 48.9912039,38.2082466 C49.0100261,33.5718647 49.5358967,28.9513811 50.5594747,24.4288686 C51.4077219,21.6926779 51.6247153,21.6828354 51.6049886,19.9604132 Z" id="Shape" fill="#F1653C"></path>
                        <path d="M51.6049886,19.9604132 C51.5260819,19.3009715 51.4274486,18.9761719 51.4077219,18.7990085 C51.3720267,18.5674759 51.295203,18.3441599 51.1808651,18.1395668 C50.5454958,17.2148297 49.6239099,16.523378 48.557217,16.1710843 C45.3516318,16.3384053 38.9207349,18.5037361 36.5732603,23.2674639 C34.7288159,26.9977384 36.1590001,35.8066978 37.1650606,40.7082194 C44.4639314,44.6451846 49.0010672,38.2476162 49.0010672,38.2476162 C49.0198895,33.6112343 49.5457601,28.9907507 50.5693381,24.4682383 C51.4077219,21.6926779 51.6247153,21.6828354 51.6049886,19.9604132 Z" id="Shape" fill="#DE5D37"></path>
                        <polygon id="Shape" fill="url(#radialGradient-17)" points="82.4377858 64.2611133 14.6273315 103.591395 0.631253684 95.7076223 68.6784281 57.2533154"></polygon>
                        <polygon id="Shape" fill="url(#radialGradient-17)" points="0.631253684 64.2611133 68.441708 103.591395 82.4377858 95.7076223 14.3906113 57.2533154"></polygon>
                        <path d="M41.2977996,14.8817282 L41.2977996,17.4505979 C41.3296313,18.4510264 42.1490581,19.2469677 43.1521073,19.2517595 C43.3891108,19.2517595 43.6237685,19.2049275 43.842541,19.1139657 C44.5440075,18.8331462 45.0044759,18.155591 45.006415,17.4013859 L45.006415,14.8817282 L41.2977996,14.8817282 Z" id="Shape" fill="#E6A99A"></path>
                        <ellipse id="Oval" fill="#FFC4B6" cx="43.1521073" cy="9.38966183" rx="6.14486008" ry="6.13182319"></ellipse>
                        <path d="M46.4070091,74.3003744 L46.0716556,77.9912792 C45.6971781,78.4149959 45.1583116,78.6577329 44.5921548,78.6577329 C44.025998,78.6577329 43.4871315,78.4149959 43.1126539,77.9912792 L42.8857971,74.3003744 L46.4070091,74.3003744 Z" id="Shape" fill="#FFC4B6"></path>
                        <path d="M46.1505623,77.1349893 L46.0716556,77.9912792 C45.6971781,78.4149959 45.1583116,78.6577329 44.5921548,78.6577329 C44.025998,78.6577329 43.4871315,78.4149959 43.1126539,77.9912792 L42.9153872,74.8909191 C40.7947693,73.7295144 38.7530582,73.5129814 38.1316678,74.457853 C37.5102775,75.4027246 38.7925115,77.6566372 41.1794395,79.2314232 C43.5663675,80.8062093 46.1111089,81.1999058 46.781816,80.1467676 C46.8511627,80.0380158 46.9012116,79.9181532 46.9297661,79.7924407 C46.9297661,79.7924407 47.1763495,78.9361508 46.1505623,77.1349893 Z" id="Shape" fill="url(#linearGradient-18)"></path>
                        <path d="M43.1323806,77.9715944 L43.0041572,76.0031118 C42.0770034,75.4224094 41.2090295,75.2157188 40.9723094,75.5405184 C40.7355893,75.865318 41.366843,76.8003472 42.4222202,77.509001 C42.6485344,77.6777349 42.8894997,77.82596 43.142244,77.9519095 L43.1323806,77.9715944 Z" id="Shape" fill="#D3AF4A"></path>
                        <path d="M44.0496711,78.581824 C43.3320755,78.7543927 42.7499041,79.2761252 42.5011269,79.9696042 C44.4737947,80.9538454 46.229469,81.0227423 46.8015426,80.1467676 C46.8708893,80.0380158 46.9209383,79.9181532 46.9494927,79.7924407 C46.9494927,79.7924407 47.1763495,78.9361508 46.1505623,77.1349893 L46.0716556,77.9912792 C45.5513298,78.5337043 44.7809707,78.7586969 44.0496711,78.581824 Z" id="Shape" fill="#A1632A"></path>
                        <path d="M40.814496,78.7294601 L40.4692791,82.4302074 C40.0948016,82.8539241 39.5559351,83.0966611 38.9897783,83.0966611 C38.4236215,83.0966611 37.884755,82.8539241 37.5102775,82.4302074 L37.2735574,78.7294601 L40.814496,78.7294601 Z" id="Shape" fill="#FFC4B6"></path>
                        <path d="M46.9494927,79.2904777 C46.9209383,79.4161902 46.8708893,79.5360527 46.8015426,79.6448045 C46.1012456,80.7077851 43.5860942,80.3042462 41.1991662,78.7294601 C39.3744485,77.5286858 38.1513945,76.0031118 37.9837178,74.8712343 C37.7765876,76.0129542 39.0884117,77.8239582 41.1991662,79.2314232 C43.5860942,80.8062093 46.1308356,81.1999058 46.8015426,80.1467676 C46.8708893,80.0380158 46.9209383,79.9181532 46.9494927,79.7924407 C46.9801838,79.6232134 46.9801838,79.4498626 46.9494927,79.2806353 L46.9494927,79.2904777 Z" id="Shape" fill="#FFFFFF"></path>
                        <path d="M50.0071278,18.5234209 C48.940466,16.7757636 47.0564384,15.6892765 45.006415,15.639594 L45.006415,16.8502107 C46.0771753,17.3880097 46.9176572,18.2931054 47.3736163,19.3993957 C46.4233815,20.8806437 44.7312429,21.717346 42.9745672,21.5745689 C41.8586691,20.3511837 40.581158,19.2849867 39.1771817,18.405312 C38.8186279,18.2337666 38.4014517,18.2337666 38.0428978,18.405312 C38.0428978,18.405312 37.2439673,18.9564871 36.592987,19.5076622 C36.2351517,19.7436758 36.0004049,20.1256815 35.95187,20.550958 C38.5557914,19.9407284 40.0550189,23.365888 40.4594158,24.6060321 C40.8638127,25.8461761 40.4594158,32.3618534 38.0231711,32.735865 C36.6756051,32.9824002 35.314082,32.3811655 34.5907292,31.2201335 L36.1392734,45.0880931 C35.8823175,48.3934594 35.8823175,51.7137214 36.1392734,55.0190877 C36.7606637,62.1843642 37.2735574,77.7058492 37.3031474,78.6408784 C37.298286,78.6735072 37.298286,78.7066738 37.3031474,78.7393026 C37.3031474,79.3593746 38.0823511,79.8514952 39.0588217,79.8514952 C40.0352922,79.8514952 40.814496,79.3593746 40.814496,78.7393026 C40.814496,78.7393026 40.814496,78.7393026 40.814496,78.6802481 C40.814496,78.6802481 41.5443831,69.3299559 42.0770034,62.7552241 C42.560307,68.808308 42.9153872,74.3200592 42.9153872,74.3200592 C42.9844305,74.8909191 43.7439076,75.3043005 44.6611981,75.3043005 C45.5784886,75.3043005 46.4168724,74.8121798 46.4168724,74.1921078 C46.4209077,74.1495524 46.4209077,74.1067119 46.4168724,74.0641565 C46.4760525,72.7551156 47.2947096,54.2120098 47.4032063,52.0663638 C47.5314297,50.353784 49.5830042,44.6353421 49.5139608,40.7771163 C49.5139608,39.5664995 49.5139608,32.9031861 49.5139608,32.9031861 C49.5139608,32.9031861 52.1869256,21.623781 50.0071278,18.5234209 Z" id="Shape" fill="#67A5EC"></path>
                        <path d="M38.2697546,82.9420128 C39.0393512,83.2284387 39.90602,83.0267743 40.4692791,82.4302074 L40.814496,78.7294601 L38.1513945,78.7294601 L38.2697546,82.9420128 Z" id="Shape" fill="#C89285"></path>
                        <path d="M40.5481858,81.5739175 L40.4692791,82.4302074 C40.0948016,82.8539241 39.5559351,83.0966611 38.9897783,83.0966611 C38.4236215,83.0966611 37.884755,82.8539241 37.5102775,82.4302074 L37.3130107,79.3200049 C35.1825295,78.1684426 33.1408184,77.9420671 32.5194281,78.8869388 C31.8980377,79.8318104 33.1802718,82.0955653 35.5671997,83.6703514 C37.9541277,85.2451374 40.4988692,85.6388339 41.1695762,84.5856958 C41.2389229,84.476944 41.2889718,84.3570814 41.3175263,84.2313689 C41.3175263,84.2313689 41.5838364,83.375079 40.5481858,81.5739175 Z" id="Shape" fill="url(#linearGradient-19)"></path>
                        <path d="M50.0071278,18.5234209 C49.3605624,17.5670378 48.4861597,16.7858033 47.4623863,16.2498236 C46.6774083,16.1335431 45.8893956,16.4405905 45.3910852,17.0569014 C46.2723712,17.6277031 46.9600354,18.4511494 47.363753,19.4190805 C46.4135182,20.9003285 44.7213795,21.7370309 42.9647039,21.5942537 C42.1436324,20.6829902 41.2277667,19.8614497 40.232559,19.1434929 C38.7530582,19.2616019 38.1513945,20.9348121 38.1513945,20.9348121 L38.1513945,21.0627634 C39.2303926,22.0157824 40.0226521,23.2493577 40.4396891,24.6257169 C40.8243593,25.7772792 40.4396891,31.5843027 38.4670214,32.6177561 C38.5360647,37.7358108 38.5360647,43.0999257 38.2598912,45.4128928 C37.6779543,50.4817354 38.0527611,56.2395469 37.9837178,61.583977 C37.9245377,66.2886503 38.1316678,77.1743589 38.1711212,79.6644894 C38.4618708,79.7701679 38.7691158,79.8234885 39.0785484,79.821968 C39.783714,79.9059205 40.4672645,79.5452697 40.7947693,78.916466 C40.7947693,78.916466 40.9525827,76.9479834 41.1498495,74.4676954 C41.3865696,71.5149716 41.7120598,67.4205278 41.9980966,63.8871016 L42.0868667,62.774909 C42.2939968,60.4816268 42.6293503,57.3418971 42.6293503,57.3418971 C42.6293503,57.3418971 43.1225173,52.9718658 43.3888274,52.2632121 C43.843896,51.4161871 44.3754299,50.6123417 44.976825,49.8616633 C44.976825,49.8616633 43.9904911,59.1332162 43.6551376,61.6725587 C43.3691007,64.0248954 43.9411744,73.9854172 44.0200811,75.2649308 C44.1693322,75.3015208 44.3209274,75.3278293 44.4737947,75.3436701 L45.5982153,75.1763491 C46.0540086,75.0542749 46.3849117,74.6611784 46.4267358,74.1921078 C46.4307711,74.1495524 46.4307711,74.1067119 46.4267358,74.0641565 C46.4859158,72.7551156 47.3045729,54.2120098 47.4130697,52.0663638 C47.5412931,50.353784 49.5928675,44.6353421 49.5238242,40.7771163 C49.5238242,39.5664995 49.5238242,32.9031861 49.5238242,32.9031861 C49.5238242,32.9031861 52.1869256,21.623781 50.0071278,18.5234209 Z" id="Shape" fill="#4A8AD2"></path>
                        <path d="M35.340343,21.2399269 C33.8566447,22.3551703 32.983774,24.1008523 32.983005,25.9544426 C32.983005,29.1138571 33.8805688,35.9149644 33.7424821,37.0960539 C33.6043953,38.2771435 31.8980377,44.084167 31.8980377,44.084167 C32.3991399,45.0719346 33.5078275,45.5947085 34.5907292,45.3538383 C34.5907292,45.3538383 37.234104,40.0487778 38.1415312,37.8834469 C39.0489583,35.7181161 40.0057022,28.7890575 40.0057022,28.7890575 L35.340343,21.2399269 Z" id="Shape" fill="#F1653C"></path>
                        <path d="M40.0057022,28.7890575 L36.5732603,23.2280943 C36.5732603,23.2280943 35.1825295,26.417036 35.95187,33.6807367 C36.0225996,35.628022 35.7862857,37.5743053 35.2515729,39.4483906 C34.4822325,41.9089938 33.4958986,44.6747118 33.2789051,45.3046262 C33.7046778,45.4522603 34.1649783,45.4693993 34.6005925,45.3538383 C34.6005925,45.3538383 37.2439673,40.0487778 38.1513945,37.8834469 C39.0588217,35.7181161 40.0057022,28.7890575 40.0057022,28.7890575 Z" id="Shape" fill="#DE5D37"></path>
                        <path d="M31.8980377,44.084167 L31.4541875,45.6195834 L30.7637537,46.2987099 C30.4875803,46.5742975 28.6628626,47.8144415 28.791086,48.493568 C29.1286513,49.4843179 29.8018305,50.3266171 30.6947104,50.8754319 C31.7240545,50.7547719 32.7249585,50.458467 33.653712,49.9994571 C34.0781062,49.2935287 34.4096116,48.5359919 34.6400459,47.7455446 C34.758406,47.302636 34.1172889,47.1746846 33.6043953,47.1943695 L34.6400459,45.3538383 C33.5684772,45.4270207 32.5338966,44.9479641 31.8980377,44.084167 Z" id="Shape" fill="#FFC4B6"></path>
                        <path d="M33.535352,47.1943695 C33.4003211,47.7788418 32.8738278,48.189292 32.2728446,48.1786107 L34.5118225,47.97192 C34.5118225,47.97192 35.0345794,47.1549998 33.535352,47.1943695 Z" id="Shape" fill="#D8C7C7"></path>
                        <path d="M36.9382038,8.97628049 C36.5650128,8.75612282 36.2872595,8.40528228 36.1590001,7.99203921 C35.8154143,7.07478397 36.0519902,6.04147647 36.7606637,5.36411499 C37.293284,4.70467333 39.2363618,4.46845542 39.5322619,3.93696513 C39.8281621,3.40547484 42.3630402,3.20862658 43.1521073,3.25783864 C43.9411744,3.30705071 46.7324993,2.91335419 49.0701106,7.04716758 C49.0701106,7.04716758 49.3956008,7.50976098 50.2043945,8.4447902 C51.0131883,9.37981942 50.3227546,11.2400354 49.5830042,11.7912106 C48.9028531,12.1974703 48.3680039,12.8069377 48.0541867,13.5333176 C47.6399264,14.5175589 47.8470566,15.5018002 44.9965516,15.639594 C42.1460467,15.7773878 41.396433,15.8954967 40.6468192,15.5313274 C39.7523769,15.0520469 39.388741,13.9591338 39.8182988,13.041197 C39.9859755,12.6475005 40.1832423,12.2439615 40.1832423,12.2439615 C40.1832423,12.2439615 40.9920361,12.3128584 41.2879363,10.9250782 C41.5838364,9.53729802 40.3016024,10.1278428 40.3016024,10.1278428 C40.3016024,10.1278428 40.0747456,9.03533497 39.3152685,9.00580773 C38.5557914,8.97628049 37.4806875,9.46840113 36.9382038,8.97628049 Z" id="Shape" fill="#333A8C"></path>
                        <path d="M28.3373724,16.5549384 C28.3373724,16.5549384 27.5483053,15.2065278 27.3510385,14.8325161 C27.1537717,14.4585044 25.6150909,13.7301659 25.6150909,13.7301659 L26.6606048,15.5313274 L27.6469387,19.3993957 C27.6469387,19.3993957 27.8737955,19.5667167 28.5050492,19.2812867 L30.2903135,20.5804852 C29.9821608,19.5311353 30.3789955,18.4025558 31.2766474,17.7753976 L28.3373724,16.5549384 Z" id="Shape" fill="#FFC4B6"></path>
                        <path d="M42.9153872,74.3102168 C42.9844305,74.8810767 43.7439076,75.2944581 44.6611981,75.2944581 C45.5784886,75.2944581 46.4168724,74.8023374 46.4168724,74.1822654 C46.4209077,74.13971 46.4209077,74.0968695 46.4168724,74.0543141 C46.4760525,72.7452732 47.2947096,54.2021674 47.4032063,52.0565214 C47.5018397,50.7474805 48.7248937,47.135315 49.2673774,43.7101553 C48.1035034,46.849885 43.6354109,50.5998443 43.2112873,52.6569086 C42.7871638,54.7139729 42.03755,62.7158545 42.03755,62.7158545 C42.5208536,68.7689384 42.8759338,74.2806896 42.8759338,74.2806896 L42.9153872,74.3102168 Z" id="Shape" fill="#67A5EC"></path>
                        <path d="M50.2142579,8.4447902 C49.4054641,7.46054892 49.0799739,7.04716758 49.0799739,7.04716758 C47.3538896,4.00586202 45.3910852,3.41531725 44.1483045,3.29720829 L41.7317865,10.1868973 L41.3273896,10.5510665 C41.3399812,10.6754205 41.3399812,10.8007243 41.3273896,10.9250782 C41.0314894,12.3128584 40.2226957,12.2439615 40.2226957,12.2439615 C40.2226957,12.2439615 39.4040385,15.1966854 41.8698732,15.7773878 C42.5208536,15.7773878 43.4578708,15.7183333 45.036005,15.639594 C47.8865099,15.4919578 47.6793798,14.4683468 48.09364,13.5333176 C48.4074573,12.8069377 48.9423065,12.1974703 49.6224575,11.7912106 C50.3030279,11.2400354 51.0723684,9.42903148 50.2142579,8.4447902 Z" id="Shape" fill="#333A8C"></path>
                        <path d="M31.2766474,17.7753976 C30.2566063,17.4552652 29.2665149,17.0468956 28.3176457,16.5549384 C27.6074853,16.0726601 26.9071883,15.2262126 25.7433143,15.5706971 C24.5794403,15.9151815 24.0369567,15.8758119 24.01723,16.1907691 C23.9975033,16.5057263 24.4216269,16.4958839 25.7433143,16.3974598 C26.404158,16.3974598 26.9367783,18.6218451 28.7713593,18.1001972 L30.1719534,19.2911291 C30.4234857,18.7106734 30.8007551,18.1930286 31.2766474,17.7753976 Z" id="Shape" fill="#FFC4B6"></path>
                        <path d="M37.5398675,82.4302074 L37.4116441,80.4617248 C36.4253102,79.8908649 35.6066531,79.6743318 35.3797963,79.9991314 C35.1529395,80.323931 35.7743299,81.2589602 36.8297071,81.967614 C37.0606832,82.1293944 37.3011175,82.2772929 37.5497308,82.4105225 L37.5398675,82.4302074 Z" id="Shape" fill="#D3AF4A"></path>
                        <path d="M45.7264387,4.50782507 L39.9761122,1.2303016 C39.8583204,1.17067812 39.7190971,1.17067812 39.6013053,1.2303016 L33.8509788,4.50782507 C33.7341327,4.57439716 33.6620115,4.69836008 33.6620115,4.83262469 C33.6620115,4.96688931 33.7341327,5.09085223 33.8509788,5.15742432 L39.6013053,8.43494779 C39.6630612,8.44825744 39.7269529,8.44825744 39.7887088,8.43494779 C39.8503148,8.44959058 39.9145061,8.44959058 39.9761122,8.43494779 L45.7264387,5.15742432 C45.8490646,5.09537675 45.926337,4.96982259 45.926337,4.83262469 C45.926337,4.6954268 45.8490646,4.56987264 45.7264387,4.50782507 Z" id="Shape" fill="#B29115"></path>
                        <path d="M41.4950664,0.935029218 C41.1076908,1.10964781 40.7378005,1.32056527 40.3903724,1.56494364 C40.0043752,1.83047164 39.6701311,2.1640066 39.4040385,2.54918492 C38.5226644,3.52209614 38.1118514,4.83103204 38.2796179,6.13182319 C38.4768847,8.20857229 41.8698732,11.1120841 44.7894215,11.1120841 C47.7089698,11.1120841 50.3128913,9.32076494 50.3128913,7.10622206 C50.3128913,7.10622206 50.3128913,7.03732517 50.3128913,6.91921621 C50.2429113,5.17686765 49.5049483,3.52790139 48.2514535,2.31296701 L47.7780132,1.93895533 C46.7601423,1.22392424 45.599312,0.737074156 44.3751613,0.511805467 C43.3943139,0.37119432 42.3936561,0.518238828 41.4950664,0.935029218 Z" id="Shape" fill="#DFB51A"></path>
                        <path d="M50.3030279,7.0668524 C50.3030279,7.0668524 50.3030279,6.99795552 50.3030279,6.87984656 C50.233048,5.137498 49.495085,3.48853174 48.2415901,2.27359736 L47.7681499,1.89958567 C47.4256125,1.65797722 47.0663443,1.44090021 46.6930459,1.24998643 C45.1597961,1.32618401 43.728748,2.04019002 42.7477104,3.21846899 C41.4100264,5.29159099 41.0495686,7.8454117 41.7613765,10.2065821 C42.6832371,10.7521132 43.7281061,11.0567843 44.7992849,11.0923992 C47.8273299,11.0727144 50.3030279,9.28139529 50.3030279,7.0668524 Z" id="Shape" fill="#B29115"></path>
                        <ellipse id="Oval" fill="url(#linearGradient-20)" opacity="0.3" style="mix-blend-mode: overlay;" transform="translate(45.772524, 2.537930) rotate(-57.580000) translate(-45.772524, -2.537930) " cx="45.7725237" cy="2.53793023" rx="1" ry="1"></ellipse>
                        <path d="M27.6173487,49.8026089 L28.9982161,49.6943423 L29.3927497,49.6943423 L29.2447996,49.4679668 C29.0390807,49.1677325 28.8856833,48.8349674 28.791086,48.4837256 L26.3844313,48.6116769 C25.9026971,47.9496974 25.1578361,47.5276921 24.3413091,47.4541342 C23.5247821,47.3805764 22.7162242,47.66264 22.1234689,48.2278228 L21.8670221,48.4837256 C21.3985452,48.9318133 21.0960596,49.5250926 21.0089117,50.1667781 C21.5968856,49.4728293 22.5565273,49.2190656 23.411728,49.5313874 C24.2669287,49.8437092 24.8357123,50.6556582 24.8358871,51.5644008 C24.832139,52.003395 24.6982967,52.4314665 24.4512169,52.7947024 L24.1158634,53.119502 L23.8594166,53.3655623 C25.5144513,53.2499619 26.8269621,51.9276018 26.9269149,50.2750447 C26.9370598,50.1341517 26.9370598,49.9927139 26.9269149,49.8518209 L27.6173487,49.8026089 Z" id="Shape" fill="#97979E"></path>
                        <path d="M21.8472955,48.493568 C22.3768869,47.9845905 23.0847007,47.7020656 23.8199632,47.7061749 C24.7324842,47.7068659 25.5899119,48.141983 26.1279845,48.8774221 L28.8601294,48.7297859 C28.8325866,48.6557772 28.8095305,48.5801822 28.791086,48.5034104 L26.3844313,48.6313617 C25.9026971,47.9693822 25.1578361,47.5473769 24.3413091,47.473819 C23.5247821,47.4002612 22.7162242,47.6823248 22.1234689,48.2475076 L21.8670221,48.5034104 L21.8472955,48.493568 Z" id="Shape" fill="#77777F"></path>
                        <polygon id="Shape" fill="#77777F" points="29.3730874 49.6648151 29.2250729 49.4384396 29.2250729 49.4384396"></polygon>
                        <polygon id="Shape" fill="#77777F" points="24.1850572 53.0407627 24.0962484 53.1391868 23.8396899 53.3852471 24.1751895 53.0604475"></polygon>
                        <path d="M26.6313027,49.8911906 C26.6689298,50.109238 26.692005,50.3295361 26.7003761,50.5506322 C26.7014005,51.2492675 26.441013,51.9231405 25.9701711,52.4403755 C26.632749,51.8873725 26.9978503,51.0570695 26.9569347,50.1963054 C26.9569347,50.1274085 26.9569347,49.9404026 26.9569347,49.8813482 L26.6313027,49.8911906 Z" id="Shape" fill="#77777F"></path>
                        <path d="M25.7137243,52.6569086 C25.751405,52.6292525 25.7846737,52.5960689 25.8124006,52.5584845 C25.7846737,52.5960689 25.751405,52.6292525 25.7137243,52.6569086 Z" id="Shape" fill="#77777F"></path>
                        <path d="M34.0581089,47.2238967 C33.891026,47.2039814 33.7221615,47.2039814 33.5550786,47.2238967 L34.5907292,45.3833655 C34.1607265,45.4066199 33.7306198,45.3395583 33.3282218,45.1865173 C33.0993725,45.8660536 32.8122739,46.5246501 32.4701114,47.1549998 C32.2136646,47.4305874 31.4245974,47.9522353 31.3456907,48.2475076 C31.266784,48.54278 32.2136646,49.8222937 32.2136646,49.8222937 C32.6183926,50.1529122 33.1747928,50.2289697 33.653712,50.019142 C33.9058648,49.6376559 34.1049495,49.2237759 34.2455123,48.7888404 L34.0581089,47.2238967 Z" id="Shape" fill="#E6A99A"></path>
                        <path d="M36.3562669,48.4049863 C36.3967448,48.325826 36.4170695,48.2379387 36.4154469,48.1490835 C36.428051,48.0054821 36.3756221,47.8637832 36.272525,47.76281 C36.1694279,47.6618367 36.0264727,47.6121766 35.8828266,47.6274356 L35.7546032,47.6274356 L32.5490181,47.9128656 L32.2925713,48.1687683 L32.7857382,49.1530096 L35.5770631,48.9266341 C35.7226193,48.9219895 35.8634555,48.8740011 35.98146,48.7888404 L36.2280434,48.5329376 C36.2779119,48.493025 36.3183283,48.4426117 36.3464035,48.3853014 L36.3562669,48.4049863 Z" id="Shape" fill="#97979E"></path>
                        <path d="M44.0496711,74.3003744 L44.0496711,78.581824 C44.7653803,78.7401705 45.5121688,78.5166093 46.0223389,77.9912792 L46.3576924,74.3003744 L44.0496711,74.3003744 Z" id="Shape" fill="#C89285"></path>
                        <path d="M35.8828266,47.6274356 L35.7546032,47.6274356 L32.5490181,47.9128656 L32.2925713,48.1687683 L35.5080197,47.8833384 L35.6362431,47.8833384 C35.7773896,47.8746005 35.9155036,47.9267475 36.0155011,48.0265329 C36.1154986,48.1263183 36.1677565,48.2641392 36.1590001,48.4049863 C36.1768311,48.4893593 36.1768311,48.576516 36.1590001,48.660889 C36.1310711,48.7185826 36.0944845,48.7716864 36.0505033,48.8183676 L36.2970868,48.5624649 C36.3469553,48.5225522 36.3873717,48.4721389 36.4154469,48.4148287 C36.4559248,48.3356684 36.4762496,48.2477811 36.4746269,48.1589259 C36.4952302,48.0015561 36.4369257,47.8441446 36.3187089,47.7379751 C36.200492,47.6318056 36.0374969,47.5904702 35.8828266,47.6274356 Z" id="Shape" fill="#77777F"></path>
                        <path d="M49.316694,43.7396826 C48.616397,45.609741 46.752226,47.6766477 45.2727251,49.5270213 C45.1050484,50.688426 44.9077816,52.0073093 44.6809248,53.2179261 C44.1581678,55.9541169 44.0792611,70.8653723 44.0693978,75.2550884 C44.2694646,75.3039671 44.474973,75.3271205 44.6809248,75.3239853 C45.6672587,75.3239853 46.4365991,74.8318647 46.4365991,74.2117927 C46.4406344,74.1692373 46.4406344,74.1263967 46.4365991,74.0838413 C46.4957791,72.7748004 47.3144363,54.2316946 47.422933,52.0860486 C47.5314297,50.7770077 48.7544837,47.1156302 49.316694,43.7396826 Z" id="Shape" fill="#4A8AD2"></path>
                        <path d="M40.4396891,82.4302074 C39.87643,83.0267743 39.0097612,83.2284387 38.2401646,82.9420128 C37.9126221,83.5107946 37.7842192,84.1722247 37.875221,84.8219137 C39.4040385,85.3435616 40.6961359,85.3041919 41.1695762,84.5856958 C41.2389229,84.476944 41.2889718,84.3570814 41.3175263,84.2313689 C41.3175263,84.2313689 41.5542464,83.375079 40.5185958,81.5739175 L40.4396891,82.4302074 Z" id="Shape" fill="#A1632A"></path>
                        <path d="M41.3471163,83.7786179 C41.3185618,83.9043304 41.2685129,84.024193 41.1991662,84.1329448 C40.4988692,85.1959254 37.9935811,84.782544 35.5967898,83.2176004 C33.7819354,82.016826 32.5490181,80.491252 32.3813413,79.3593746 C32.1840745,80.5010945 33.4860353,82.3120984 35.5967898,83.7195634 C37.9935811,85.2845071 40.5284592,85.688046 41.1991662,84.6349078 C41.2685129,84.526156 41.3185618,84.4062935 41.3471163,84.280581 C41.3781449,84.1080767 41.3781449,83.9314374 41.3471163,83.7589331 L41.3471163,83.7786179 Z" id="Shape" fill="#FFFFFF"></path>
                        <polygon id="Path-34" fill-opacity="0.5" fill="#D8D8D8" points="44.09375 24.7 47.984375 22.1 47.984375 24.7 44.09375 27.3"></polygon>
                    </g>
                </g>
            </g>
        </g>
    </g>
</svg>