<?xml version="1.0" encoding="UTF-8"?>
<svg width="36px" height="34px" viewBox="0 0 36 34" version="1.1" xmlns="http://www.w3.org/2000/svg" xmlns:xlink="http://www.w3.org/1999/xlink">
    <!-- Generator: Sketch 52 (66869) - http://www.bohemiancoding.com/sketch -->
    <title>picto3-section4</title>
    <desc>Created with Sketch.</desc>
    <g id="Design" stroke="none" stroke-width="1" fill="none" fill-rule="evenodd">
        <g id="4a-Techniciens" transform="translate(-541.000000, -3949.000000)">
            <g id="Section-4" transform="translate(146.000000, 3591.000000)">
                <g id="2" transform="translate(388.000000, 349.000000)">
                    <g id="picto3-section4" transform="translate(7.000000, 9.000000)">
                        <circle id="Oval-2" fill="#52C2D6" fill-rule="nonzero" cx="26" cy="12" r="10"></circle>
                        <circle id="Oval-2-Copy-3" fill="#52C2D6" fill-rule="nonzero" cx="3" cy="31" r="3"></circle>
                        <g id="Group" transform="translate(4.000000, 0.000000)" stroke="#171A3B" stroke-linecap="round" stroke-linejoin="round" stroke-width="1.5">
                            <g id="shield-search">
                                <path d="M0.25,3.923 L0.25,11.537 C0.250041978,16.463494 3.28397966,20.8812285 7.882,22.65 L8.923,23.05 C9.616243,23.3166498 10.383757,23.3166498 11.077,23.05 L12.118,22.65 C16.7160203,20.8812285 19.749958,16.463494 19.75,11.537 L19.75,3.923 C19.7539148,3.33774252 19.4141569,2.80462005 18.882,2.561 C16.0818378,1.33878919 13.0551439,0.72165986 10,0.75 C6.9448561,0.72165986 3.91816217,1.33878919 1.118,2.561 C0.585843147,2.80462005 0.246085217,3.33774252 0.25,3.923 Z" id="Shape"></path>
                                <circle id="Oval" cx="9.25" cy="9.75" r="4.5"></circle>
                                <path d="M12.432,12.932 L14.875,15.375" id="Shape"></path>
                            </g>
                        </g>
                    </g>
                </g>
            </g>
        </g>
    </g>
</svg>