<?xml version="1.0" encoding="UTF-8"?>
<svg width="110px" height="19px" viewBox="0 0 110 19" version="1.1" xmlns="http://www.w3.org/2000/svg" xmlns:xlink="http://www.w3.org/1999/xlink">
    <!-- Generator: sketchtool 51.3 (57544) - http://www.bohemiancoding.com/sketch -->
    <title>3A28A352-3CD7-4CAE-8479-3CE8F6300E51</title>
    <desc>Created with sketchtool.</desc>
    <defs></defs>
    <g id="Design" stroke="none" stroke-width="1" fill="none" fill-rule="evenodd">
        <g id="2a-Résidentiel" transform="translate(-475.000000, -2796.000000)" fill="#FFFFFF">
            <g id="Section-4" transform="translate(120.000000, 2439.000000)">
                <g id="1" transform="translate(195.000000, 284.000000)">
                    <path d="M243.331018,86.0919099 C242.711643,84.5232728 242.501593,81.8331291 242.871424,80.2184909 C243.400137,77.9165964 244.822907,75.8171067 246.676546,74.5953178 C248.321034,73.5152122 249.620826,73.211605 253.060607,73.1002824 L256.142226,73 L256.142226,76.3065583 L256.142226,79.6121965 L254.958231,79.1190649 C254.179972,78.7933772 253.285018,78.5964925 252.351466,78.5440512 C251.022052,78.4704495 250.87035,78.5035703 250.036436,79.0519033 C248.846157,79.8394419 248.2959,80.9232276 248.284231,82.5111852 C248.277947,83.5397695 248.35694,83.8286564 248.853338,84.5499534 C249.620826,85.6696199 250.667482,86.2602739 251.880202,86.2602739 C253.136907,86.2602739 253.343365,86.1001901 253.267963,85.1764883 L253.205128,84.4193103 L251.735681,84.4303506 L250.265336,84.4423109 L250.265336,82.29314 L250.265336,80.1439691 L254.248193,80.2000905 L258.231947,80.2552918 L258.231947,84.2049453 C258.231947,86.601602 258.315428,88.3938044 258.441996,88.7728534 C258.705904,89.5557919 258.459051,89.8722794 256.917793,90.7140994 C255.063256,91.7242833 252.263497,92.2312153 250.391904,91.8981674 C247.190898,91.3222338 244.532967,89.1399421 243.331018,86.0919099 Z M163.385922,84.5425933 L163.444269,78.2551644 L161.723481,78.321406 L160,78.3922477 L160.050268,75.7692656 L160.105025,73.1444434 L164.51157,73.0929222 L168.918116,73.040481 L168.918116,82.2738195 L168.918116,91.5080782 L165.960371,91.5080782 C163.208188,91.5117582 163.016092,91.4859976 163.165101,91.1704302 C163.251275,90.9855058 163.352709,88.0009551 163.385922,84.5425933 Z M170.059204,73.0487612 L173.945115,73.0487612 L177.830128,73.0487612 L177.830128,75.7352248 L177.830128,78.4226084 L176.78796,78.3324462 L175.743998,78.2432041 L175.743998,79.2386677 L175.743998,80.2332112 L177.355273,80.2332112 L178.966548,80.2332112 L178.966548,76.6359261 L178.966548,73.040481 L181.809394,73.040481 L184.659421,73.040481 L184.659421,82.2701395 L184.659421,91.500718 L181.628069,91.500718 L178.601206,91.500718 L178.786121,91.0029862 C178.886657,90.7288197 178.971036,89.1988235 178.971036,87.6035057 L178.971036,84.700837 L177.348989,84.700837 L175.726045,84.700837 L175.784392,87.7635895 C175.816707,89.4481494 175.914551,90.9772256 176.001622,91.16307 C176.149734,91.4786375 175.950456,91.503478 173.108508,91.503478 L170.055613,91.503478 L170.055613,82.2784197 L170.059204,73.0487612 Z M185.542884,73.8497321 L185.271795,73.0483931 L190.74654,73.0483931 L196.221284,73.0483931 L196.221284,75.7394569 L196.221284,78.4286805 L195.225795,78.1618742 C194.664766,78.0109906 193.570535,77.9162284 192.713283,77.9465891 L191.195363,77.9981103 L191.137016,79.1416974 L191.079567,80.2852845 L192.701613,80.2006425 L194.32366,80.1104803 L194.32366,82.3856942 L194.32366,84.659988 L193.483463,84.4796638 C193.023868,84.3793814 192.318318,84.32234 191.919763,84.3563809 L191.195363,84.4171023 L191.137016,85.4576469 L191.079567,86.5009516 L193.223146,86.4052694 C194.403551,86.3528281 195.558822,86.2451856 195.794005,86.1679037 L196.221284,86.0271404 L196.221284,88.7688053 L196.221284,91.5123103 L190.707043,91.5123103 C185.590459,91.5123103 185.202676,91.4856296 185.44145,91.1884626 C185.835517,90.699931 185.927077,75.0006794 185.542884,73.8497321 Z M206.972215,90.8775872 C204.346599,84.4420349 199.835029,74.0163481 199.49123,73.5968181 L199.038817,73.043885 L205.407617,73.043885 C208.909335,73.043885 211.777315,73.1110466 211.777315,73.1883285 C211.777315,73.2702104 211.403894,74.3392757 210.951481,75.5675048 L210.126544,77.8022377 L208.677743,77.858359 C207.880633,77.8877997 207.228941,77.9466811 207.228941,77.9871621 C207.228941,78.1720864 209.007179,83.0656823 209.122975,83.2018455 C209.195684,83.2874075 210.08974,81.0351942 211.114852,78.1996871 L212.975673,73.043885 L220.344451,73.043885 L227.71323,73.043885 L227.71323,75.8839923 C227.71323,78.5180146 227.688096,78.7112192 227.380203,78.5667758 C227.199776,78.4812138 226.047198,78.3772513 224.820116,78.3358503 L222.593055,78.2622486 L222.593055,79.2761126 L222.593055,80.2881365 L224.20433,80.2034945 L225.816503,80.1188525 L225.816503,82.3931464 L225.816503,84.6683602 L224.976306,84.4861959 C224.515814,84.3859135 223.810264,84.3307122 223.411709,84.363833 L222.687308,84.4227144 L222.628961,85.5396209 L222.571512,86.6574473 L224.262677,86.6574473 C225.283301,86.6574473 226.276098,86.5415246 226.760827,86.3648804 C227.202469,86.2047966 227.598331,86.0704734 227.63693,86.0704734 C227.676426,86.0704734 227.709639,87.2950224 227.709639,88.7909778 L227.709639,91.5114822 L222.188217,91.5114822 C217.664977,91.5114822 216.701803,91.4682412 216.872356,91.2593963 C217.096767,90.9806297 217.285273,77.519791 217.060861,77.519791 C216.991742,77.519791 215.626422,80.6671855 214.02951,84.5156366 L211.125624,91.5114822 L209.174141,91.5114822 L207.228941,91.5114822 L206.972215,90.8775872 Z M228.434129,73.044069 L231.909816,73.0523492 C237.008447,73.0551093 238.696022,73.4415185 240.177138,74.9586344 C241.998463,76.8225985 242.244418,80.4189636 240.698671,82.5672145 L240.235485,83.2057096 L241.04606,83.8442047 C242.270449,84.8010274 243.037937,86.4460263 243.468807,89.0248474 C243.664494,90.1978751 243.867362,91.2365797 243.924812,91.334102 C243.985851,91.4334644 242.686957,91.5079862 240.789333,91.5079862 L237.547932,91.5079862 L237.768753,91.0958164 C238.105371,90.443521 237.873778,88.8988044 237.305568,88.0146635 C236.798398,87.236325 235.75623,86.4129055 234.95912,86.1709398 C234.531841,86.0458168 234.531841,86.0485769 234.531841,88.4010726 C234.531841,89.6973833 234.618912,90.9256124 234.727528,91.1335373 C234.919624,91.4978659 234.825371,91.5079862 231.671042,91.5079862 C228.636998,91.5079862 228.430539,91.4822255 228.583139,91.1657381 C228.79229,90.7333278 228.795881,74.0643732 228.589422,73.4829194 L228.434129,73.044069 Z M235.767002,78.1888308 C235.389991,78.027827 235.125185,77.9211045 234.944758,77.9100642 C234.542612,77.8833836 234.531841,78.3176339 234.531841,79.6507454 L234.531841,81.3987868 L235.11172,81.3987868 C235.502196,81.3987868 235.875617,81.2166225 236.24814,80.8348135 C237.124243,79.9359522 236.896241,78.6700022 235.767002,78.1888308 Z M259.118732,73.4820914 L258.962541,73.040481 L264.427412,73.0929222 L269.891385,73.1444434 L269.945244,75.831827 L270,78.5182906 L269.56913,78.3775273 C268.518884,78.0325191 267.7119,77.9165964 266.339398,77.9101562 L264.869054,77.9055561 L264.869054,79.0979044 L264.869054,80.2884125 L266.480329,80.2037705 L268.091604,80.1182085 L268.091604,82.4375834 C268.091604,84.5637538 268.062879,84.7468381 267.758577,84.6235552 C267.577253,84.5499534 266.860033,84.4423109 266.165255,84.3815894 L264.905857,84.2748669 L264.836739,85.2988512 C264.789163,86.0146281 264.843022,86.3531961 265.017165,86.4194377 C265.33942,86.5464007 269.00451,86.3421559 269.558358,86.1682717 L269.985638,86.0339486 L269.985638,88.7765335 L269.985638,91.5200384 L264.466908,91.5200384 C259.274922,91.5117582 258.959848,91.4896777 259.111551,91.1704302 C259.317112,90.7352599 259.32519,74.0681453 259.118732,73.4820914 Z" id="logo2-section3"></path>
                </g>
            </g>
        </g>
    </g>
</svg>