<?xml version="1.0" encoding="UTF-8"?>
<svg width="79px" height="31px" viewBox="0 0 79 31" version="1.1" xmlns="http://www.w3.org/2000/svg" xmlns:xlink="http://www.w3.org/1999/xlink">
    <!-- Generator: sketchtool 51.3 (57544) - http://www.bohemiancoding.com/sketch -->
    <title>55CB06F8-AE16-4C98-A4D7-16385353A838</title>
    <desc>Created with sketchtool.</desc>
    <defs></defs>
    <g id="Design" stroke="none" stroke-width="1" fill="none" fill-rule="evenodd">
        <g id="2a-Résidentiel" transform="translate(-475.000000, -2865.000000)" fill="#FFFFFF">
            <g id="Section-4" transform="translate(120.000000, 2439.000000)">
                <g id="1" transform="translate(195.000000, 284.000000)">
                    <path d="M228.290894,163.401259 C230.057875,163.359666 231.969099,163.1937 233.448385,162.103813 C234.290069,161.492443 234.884478,160.220034 234.246479,159.254925 C233.551416,158.344735 232.205277,158.422266 231.241542,158.784485 C229.422649,159.503673 228.420871,161.500923 228.290894,163.401259 Z M182.870493,142.544005 C184.615679,143.227254 185.853635,144.878841 186.290724,146.701645 C186.942197,149.390624 186.610913,152.283932 185.57664,154.82875 C184.029591,155.180066 181.993541,154.853786 181.173652,153.332226 C181.613515,151.512249 182.072399,149.495615 181.293327,147.700271 C180.937474,146.856709 179.908749,146.414132 179.078161,146.801387 C178.174263,147.196718 177.823958,148.245416 177.699132,149.166509 C177.441158,151.426237 177.943236,153.902003 179.504155,155.60326 C180.8071,157.044462 182.783313,157.724884 184.683838,157.63645 C187.262385,157.575878 189.78704,156.419363 191.516375,154.463705 C192.851814,154.452398 194.190028,154.455225 195.525864,154.463705 C195.531015,157.869045 195.520316,161.271558 195.531015,164.676495 C195.563509,165.821703 195.612647,167.09169 196.334656,168.034589 C196.967108,168.867247 198.234785,168.775986 198.984137,168.161789 C200.045356,167.326708 200.583098,166.015533 201.030886,164.770583 C202.103201,161.445601 202.466979,157.938097 202.665116,154.460878 C204.035824,154.455225 205.406928,154.455225 206.777636,154.463705 C206.826377,155.62547 206.856494,156.790061 206.899688,157.954653 C207.893144,156.39998 209.315763,155.066595 211.08314,154.50772 C212.852895,153.937943 214.986428,154.043337 216.452242,155.310093 C217.774604,156.458128 218.284607,158.278509 218.369014,159.987842 C218.453023,162.200728 218.336519,164.41644 218.428455,166.626903 C218.499387,167.3683 218.699901,168.291816 219.473822,168.574081 C220.439936,168.88663 221.330361,168.13433 221.802718,167.343264 C223.244359,164.997524 223.333916,162.112293 224.555626,159.669639 C225.58435,157.445851 227.348557,155.459503 229.683397,154.659957 C231.800683,153.952076 234.243705,153.971459 236.238939,155.052865 C237.902889,155.9465 239.00532,157.797166 238.99145,159.714058 C239.100029,161.595011 238.16641,163.459408 236.646308,164.513355 C234.365757,166.156463 231.469399,166.466186 228.752156,166.460936 C229.251856,167.356993 230.057875,168.073355 231.035084,168.369348 C233.489202,169.132955 236.22824,168.574081 238.332052,167.110669 C238.326505,168.588214 238.345526,170.065355 238.326505,171.53967 C236.567449,172.778967 234.287295,173.016812 232.194182,172.983699 C229.107612,172.911821 225.891065,171.362397 224.454972,168.466263 C223.558999,170.90609 221.308962,173.047098 218.637687,172.988949 C216.886557,173.039021 215.154844,172.031916 214.362299,170.433227 C213.241243,168.336236 213.607399,165.882679 213.545184,163.597915 C213.501594,162.245147 213.705278,160.803945 213.132664,159.534362 C212.616716,158.494145 211.229365,158.540987 210.333788,158.986391 C208.824385,159.744344 208.113075,161.459331 207.714028,163.03056 C206.962299,166.184326 207.323303,169.453985 207.228198,172.662669 C205.61299,172.662669 203.997781,172.665496 202.385347,172.659843 C202.371874,171.246503 202.390895,169.829933 202.374648,168.416594 C201.685133,169.807724 200.775687,171.133032 199.483441,172.004457 C197.770749,173.215891 195.384394,173.323708 193.56035,172.317007 C192.040247,171.450832 191.261175,169.722116 190.929891,168.051145 C190.397696,165.193777 190.707185,162.26453 190.628723,159.376472 C188.400085,160.925492 185.652725,161.437525 183.00047,161.514653 C181.27708,165.099689 178.896272,168.349965 176.078376,171.116476 C175.196272,171.921272 174.265031,172.883958 173.00845,172.955836 C171.881846,172.988949 170.950605,172.225745 170.127942,171.534017 C167.552169,169.237946 165.727728,166.206131 164.294409,163.072153 C161.981761,157.95748 160.773525,152.405479 160,146.853882 L160,146.643497 C161.723787,146.64915 163.447574,146.63542 165.168587,146.64915 C165.651644,150.563292 166.371275,154.469358 167.687694,158.189671 C168.920102,161.733115 170.765942,165.052847 173.133276,167.938078 C175.266809,165.755478 176.982274,163.177143 178.347831,160.436073 C174.998136,158.665764 173.043718,154.895379 172.842808,151.13307 C172.641897,148.546659 173.225607,145.714327 175.11464,143.85518 C177.126121,141.85793 180.321269,141.561936 182.870493,142.544005 Z M195.506842,146.220302 C196.83396,147.453946 196.820487,149.841278 195.504069,151.077748 C194.17378,152.352984 191.679243,152.148251 190.721055,150.502317 C189.613472,148.712625 190.435738,145.763996 192.680624,145.468002 C193.666155,145.288306 194.760264,145.509595 195.506842,146.220302 Z" id="logo4-section3"></path>
                </g>
            </g>
        </g>
    </g>
</svg>