<?xml version="1.0" encoding="UTF-8"?>
<svg width="90px" height="33px" viewBox="0 0 90 33" version="1.1" xmlns="http://www.w3.org/2000/svg" xmlns:xlink="http://www.w3.org/1999/xlink">
    <!-- Generator: sketchtool 51.3 (57544) - http://www.bohemiancoding.com/sketch -->
    <title>900BB7F9-F049-408E-A523-4CA56758C47D</title>
    <desc>Created with sketchtool.</desc>
    <defs></defs>
    <g id="Design" stroke="none" stroke-width="1" fill="none" fill-rule="evenodd">
        <g id="2a-Résidentiel" transform="translate(-315.000000, -2863.000000)" fill="#FFFFFF">
            <g id="Section-4" transform="translate(120.000000, 2439.000000)">
                <g id="1" transform="translate(195.000000, 284.000000)">
                    <path d="M13.2141518,140 C13.4302673,140.102302 13.5677132,140.313299 13.7404247,140.480453 C14.0216462,140.727986 14.2305277,141.055899 14.5045151,141.31074 C14.8436085,141.638654 15.059724,142.054254 15.3409454,142.425098 C15.8310483,143.175919 16.2641836,143.976978 16.4875331,144.851109 C16.7181166,145.447564 16.7542865,146.096084 16.7398185,146.736383 C16.7542865,147.319137 16.596043,147.894584 16.3365235,148.41888 C15.8889203,149.212631 15.0814259,149.744235 14.2377617,150.028304 C13.1852159,150.284059 12.0241602,150.327902 11.0077844,149.875765 C10.639755,149.672075 10.221992,149.534151 9.92630259,149.212631 C9.24088188,148.644492 8.84482083,147.720123 8.97503268,146.82407 C9.1766802,145.22926 10.1207161,143.860061 11.1307622,142.679939 C11.2238999,142.854399 11.1443259,143.059003 11.2094319,143.240771 C11.2962398,143.627142 11.4327814,144.034522 11.7212368,144.311285 C12.0747981,143.984285 12.4500615,143.656372 12.7529849,143.277307 C13.026068,142.869927 13.2503218,142.41779 13.3434594,141.937338 C13.3651614,141.325355 13.4230333,140.685056 13.1924499,140.102302 L13.2141518,140 Z M5.07374094,147.290182 C5.07374094,148.987294 5.08820893,150.684405 5.06650695,152.381517 C6.26373258,152.402525 7.46095821,152.388824 8.66451359,152.388824 C8.67898157,152.519442 8.68621556,152.650972 8.68621556,152.78159 C8.67174758,154.180017 8.69344955,155.571137 8.67174758,156.969565 C7.46728796,156.984179 6.27096658,156.969565 5.06650695,156.976872 C5.08820893,159.489657 5.05927296,161.995134 5.08097494,164.507919 C5.12437889,164.726224 5.15331485,164.944528 5.14608086,165.17014 C5.12437889,165.37383 5.2464525,165.541897 5.28985645,165.730972 C5.38389834,166.168495 5.62171582,166.56126 5.89570325,166.903788 C6.29990254,167.312081 6.81894145,167.596151 7.37324606,167.719461 C7.87872124,167.799841 8.38329216,167.843685 8.89509707,167.807148 C8.92403304,167.893922 8.93850102,167.981609 8.93850102,168.07569 C8.93126703,169.387344 8.93126703,170.698084 8.93850102,172.001517 C8.93850102,172.184199 8.90233106,172.365967 8.8733951,172.540428 C8.14547468,172.540428 7.41755426,172.591578 6.6887296,172.540428 C6.25649859,172.446347 5.79533162,172.489277 5.37666435,172.300201 C4.21560868,172.023439 3.10519095,171.440685 2.27599465,170.560159 C1.05797129,169.372729 0.401486541,167.697539 0.135637345,166.036964 C0.0623931786,165.855196 0.105797129,165.643285 0.077765411,165.446902 C-0.0235104731,165.04683 0.0198934772,164.623922 0.00542549379,164.215629 C-0.00180849793,158.571682 -0.00180849793,152.920428 0.00542549379,147.275567 C1.69275406,147.290182 3.38641238,147.260953 5.07374094,147.290182 Z M25.5642938,151.907458 C26.1990765,151.827992 26.8266253,151.92938 27.4541741,151.951302 C27.8936391,151.943995 28.3186361,152.075525 28.7517714,152.163213 C30.359526,152.555978 31.8804728,153.422802 32.9836565,154.689699 C33.1780701,155.017612 33.4737595,155.257838 33.660939,155.593059 C34.1302442,156.342967 34.4404016,157.180562 34.7071551,158.025464 C34.8726326,158.644754 34.9594405,159.285053 35.0390144,159.918958 C35.0742801,161.324693 35.0525782,162.737735 35.0607164,164.14347 C35.0525782,166.947632 35.0679504,169.75088 35.0525782,172.555042 C33.3661538,172.53312 31.6860593,172.547735 30.0059647,172.540428 C29.9914967,172.53312 29.9553268,172.504805 29.9408588,172.489277 C29.9336248,168.564363 29.9408588,164.638537 29.9408588,160.720017 C29.9480928,160.239564 29.8621891,159.773727 29.7609132,159.315196 C29.5809677,158.848444 29.3494799,158.404528 29.0329928,158.025464 C28.844909,157.799852 28.5862938,157.653707 28.3765081,157.457324 C28.0518827,157.23902 27.6693854,157.136718 27.3022603,157.03533 C27.1078468,157.020715 26.9134332,157.03533 26.7325834,156.969565 C25.9612591,156.918414 25.1754667,156.984179 24.453876,157.282863 C23.9276031,157.537704 23.4375002,157.887539 23.0911729,158.375299 C22.5224003,159.059442 22.3352207,159.992031 22.3487845,160.866162 C22.3487845,164.755453 22.3560184,168.651137 22.3487845,172.540428 C20.6469879,172.555042 18.9460956,172.53312 17.244299,172.555042 C17.2153631,168.80459 17.244299,165.04683 17.2298311,161.295464 C17.2370651,160.815011 17.2225971,160.334559 17.258767,159.854106 C17.3528089,159.612967 17.287703,159.350819 17.3600429,159.1179 C17.4893505,158.229154 17.8212099,157.384252 18.1892392,156.576799 C18.5491303,155.869821 18.9822656,155.192073 19.5447084,154.63124 C19.9841734,154.180017 20.4381064,153.706872 20.9933153,153.393573 C22.0684673,152.636358 23.3371286,152.176914 24.6347258,151.995146 C24.9376492,151.915679 25.2613704,151.973224 25.5642938,151.907458 Z M86.9292509,151.914948 C87.2683443,151.958792 87.6146716,151.951485 87.9528607,151.966099 C88.0179666,152.600004 87.968233,153.241216 87.9817967,153.874208 L87.9817967,156.423529 C87.9817967,156.583376 88.0034987,156.750529 87.9383927,156.903982 C87.7729152,156.780672 87.5495657,156.823602 87.3623861,156.772451 C86.5973915,156.707599 85.8115992,156.744135 85.0909127,157.034599 C84.2327805,157.334197 83.4831581,157.967189 83.0644908,158.790169 C82.9424172,158.943621 82.9424172,159.161926 82.8058756,159.307158 C82.5816219,160.122831 82.5671539,160.97504 82.5816219,161.812635 C82.5743879,165.395934 82.6033238,168.971926 82.5671539,172.555225 C80.8879636,172.533303 79.1997307,172.555225 77.5133064,172.54061 C77.4988384,172.525996 77.4771365,172.496767 77.4626685,172.483066 L77.4626685,160.793272 C77.4409665,160.305513 77.5485721,159.831454 77.5413381,159.351001 C77.657082,159.118082 77.628146,158.848627 77.700486,158.608401 C78.0612813,156.766057 79.0197852,155.025102 80.4765303,153.837672 C80.7577517,153.517066 81.1610467,153.364527 81.4938104,153.109686 C82.5671539,152.446552 83.8150175,152.125946 85.0547428,151.951485 C85.6813873,151.93687 86.3026064,151.81356 86.9292509,151.914948 Z M15.4275724,152.39604 C15.4275724,159.060264 15.4203385,165.716266 15.4275724,172.373183 C15.4275724,172.438948 15.4275724,172.570479 15.3262966,172.548557 L10.337555,172.548557 C10.2941511,171.448814 10.330321,170.341764 10.315853,169.241107 C10.323087,163.626389 10.315853,158.003451 10.323087,152.381426 C12.0239793,152.410655 13.7257759,152.374118 15.4275724,152.39604 Z M65.0039262,165.359215 C64.563557,165.512668 64.145794,165.730972 63.7126587,165.899039 C63.5110112,165.956584 63.3527676,166.124651 63.1438861,166.161187 C63.0136743,166.183109 62.9051644,166.262576 62.7903248,166.313727 C62.8337287,166.524724 63.0426102,166.648947 63.1728221,166.808794 C63.684627,167.376933 64.3474415,167.777919 65.0256282,168.127754 C65.4650932,168.272986 65.9190262,168.375288 66.3738634,168.462062 C66.7843924,168.469369 67.1949215,168.483983 67.5991208,168.454754 C67.7582686,168.388989 67.9237461,168.39721 68.0973619,168.375288 C68.7529424,168.177992 69.4166612,167.959687 69.9781998,167.552308 C70.3679311,167.217087 70.7359604,166.859944 71.0235116,166.43795 C71.1247875,166.350263 71.1247875,166.131958 71.283031,166.131958 C72.9712639,166.124651 74.6504542,166.139266 76.3377828,166.131958 C76.4390586,166.131958 76.5538983,166.117344 76.6551741,166.161187 C76.4670904,166.823408 76.2084752,167.46462 75.8910838,168.069296 C75.5592244,168.637436 75.227365,169.21197 74.7661981,169.686028 C74.4922106,170.03495 74.1675852,170.362863 73.8212579,170.639626 C72.6602022,171.739369 71.1537234,172.395196 69.6183087,172.758732 C69.2575134,172.780654 68.911186,172.941414 68.5503907,172.912185 C67.4978449,173.050109 66.4235971,173.021794 65.3782853,172.853726 C64.095156,172.671958 62.8689944,172.184199 61.7667149,171.499143 C60.0866204,170.501701 58.7456191,168.971743 57.8947209,167.20978 C57.5845635,166.495495 57.2454701,165.782123 57.1233965,165.010294 C57.0727586,164.645844 56.9280787,164.296009 56.9497807,163.917858 C56.8774408,163.560715 56.8204731,163.197179 56.8340368,162.824509 C56.8421751,162.242668 56.7915371,161.645299 56.9497807,161.077159 C57.0004186,159.890643 57.4471176,158.768978 57.9164228,157.697551 C58.247378,156.984179 58.6877472,156.321045 59.1706162,155.695361 C59.4807735,155.382062 59.747527,155.024919 60.0721524,154.718928 C61.1608681,153.663028 62.5091033,152.898506 63.9296785,152.395218 C64.7444068,152.155905 65.5663691,151.943995 66.4235971,151.930294 C66.9073703,151.842606 67.4119412,151.871835 67.9020442,151.937601 C68.442785,151.930294 68.95459,152.119369 69.4880968,152.185134 C70.3534631,152.41714 71.2188294,152.687509 71.9901537,153.160654 C73.1656774,153.831095 74.2254572,154.740849 74.9967815,155.869821 C75.6315643,156.714724 76.0999653,157.683849 76.4245907,158.695905 C76.5032603,159.031126 76.5973022,159.365433 76.6904399,159.707961 C76.7555458,159.897037 76.6904399,160.116254 76.8134177,160.290715 C76.741982,160.42864 76.5538983,160.406718 76.4390586,160.487098 C76.0131574,160.720017 75.5375224,160.836933 75.1116212,161.077159 C74.6938581,161.230612 74.2968928,161.419687 73.8863638,161.586841 C73.5762064,161.747601 73.2298791,161.81976 72.9269557,162.002442 C72.5815326,162.162288 72.2279712,162.286511 71.8744099,162.424436 C71.5642525,162.613511 71.2043614,162.693891 70.88697,162.869266 C69.5604368,163.444713 68.2049676,163.954394 66.8919981,164.566377 C66.2581195,164.813911 65.6378048,165.111682 65.0039262,165.359215 Z M61.6148011,161.390458 C61.6292691,161.659914 61.5352272,161.958598 61.6365031,162.213439 C62.4078274,161.841682 63.1936198,161.507375 63.9875504,161.193162 C65.4650932,160.50902 66.9869442,159.933573 68.478955,159.278659 C68.6806025,159.212894 68.8605481,159.081363 69.0703338,159.044827 C69.5387348,158.775372 70.0650077,158.644754 70.5334087,158.382606 C70.6419185,158.309534 70.908672,158.294919 70.8290981,158.105844 C70.0577737,157.151333 68.8605481,156.634344 67.6714607,156.466277 C67.2166234,156.459883 66.7554565,156.401425 66.3087575,156.511034 C65.8186545,156.511034 65.3647216,156.729338 64.8954164,156.867263 C64.6431309,156.984179 64.4053134,157.129411 64.1602619,157.260942 C63.8284026,157.44271 63.5833511,157.734087 63.2948957,157.974313 C62.6745809,158.622833 62.2495839,159.431199 61.9032565,160.254179 C61.7667149,160.625936 61.730545,161.018701 61.6148011,161.390458 Z M56.264993,143.480815 L56.264993,162.170052 C56.250525,162.824965 56.3011629,163.488099 56.1429193,164.121091 C56.0488774,164.842683 55.9258996,165.570669 55.6519122,166.255725 C55.5081366,166.750792 55.2558511,167.194708 55.0325016,167.654152 C54.5125585,168.68813 53.813574,169.635334 52.9482077,170.392549 C52.2636913,171.018233 51.4986967,171.571759 50.6550324,171.965437 C50.0862598,172.299745 49.429775,172.44589 48.8166942,172.671502 C48.3482933,172.737267 47.90069,172.927256 47.4187253,172.919949 C47.2957475,172.927256 47.1809078,172.977493 47.065164,172.977493 C46.3652753,172.999415 45.6590568,172.999415 44.9600724,172.977493 C44.8090628,172.992108 44.6779467,172.889806 44.5341711,172.905334 C44.2601837,172.919949 44.0078982,172.788418 43.7339108,172.766496 C43.4092854,172.759189 43.113596,172.577421 42.7962046,172.518963 C41.9317426,172.183742 41.0446744,171.842127 40.295052,171.26668 C39.6602692,170.916845 39.1629323,170.370627 38.6583613,169.868253 C38.319268,169.547647 38.0452805,169.168583 37.7640591,168.804133 C37.3679981,168.14922 36.9348628,167.493393 36.6681094,166.772714 C36.350718,166.021893 36.1201345,165.236362 35.9908269,164.43439 C35.9835929,164.186856 35.904019,163.953937 35.867849,163.706404 C35.8533811,162.7592 35.7964134,161.798295 35.932955,160.859312 C36.0052949,160.247328 36.1707724,159.657267 36.33625,159.059898 C36.6970453,158.112694 37.0723087,157.151789 37.6564535,156.314194 C38.1537904,155.469292 38.8600089,154.770535 39.5671316,154.100094 C40.8357929,153.02958 42.3784416,152.250443 44.0296002,152.016611 C44.1091741,152.010217 44.181514,151.988295 44.2601837,151.966373 C45.0034763,151.92253 45.7458647,151.944451 46.4810191,151.958152 C47.1302699,152.075069 47.7713824,152.199292 48.3844632,152.439518 C49.2932334,152.752817 50.1079617,153.291728 50.8358822,153.925633 C50.944392,154.005099 51.016732,154.143937 51.1605075,154.164946 C51.2111455,154.048943 51.1822095,153.925633 51.1894435,153.801409 C51.1822095,150.377957 51.1966775,146.948111 51.1822095,143.525572 C51.2762514,143.437884 51.412793,143.489035 51.5285369,143.473507 C53.1073556,143.480815 54.6861743,143.467113 56.264993,143.480815 Z M50.4678528,165.403516 C50.8069462,164.711152 51.0954016,163.975859 51.1388056,163.20403 C51.3268894,161.653063 50.9009881,160.042725 49.9777499,158.790443 C49.7544004,158.579446 49.5889228,158.316384 49.3655733,158.105387 C48.7597265,157.523546 47.9884022,157.129868 47.2098438,156.845798 C46.6175607,156.736189 45.9981502,156.612879 45.3995374,156.765418 C45.103848,156.765418 44.8298605,156.911563 44.5486391,156.977328 C43.7990167,157.289714 43.0566283,157.6907 42.5158874,158.316384 C42.3142399,158.579446 42.0610502,158.805058 41.9172746,159.111049 C41.6432872,159.459971 41.5130753,159.890186 41.3041938,160.275644 C41.2182902,160.516784 41.1676522,160.771625 41.0880783,161.011851 C40.9081328,161.769066 40.9506325,162.570125 40.9723344,163.349261 C41.0519084,163.655253 41.0374404,163.983166 41.1821202,164.274544 C41.3114278,164.828069 41.5926492,165.330443 41.8738707,165.818203 C42.227432,166.32149 42.6162591,166.80925 43.12083,167.165479 C43.3884877,167.443155 43.7556128,167.566465 44.0802381,167.749147 C44.3397576,167.887071 44.628213,167.938222 44.8877325,168.061532 C45.4935793,168.236907 46.1346918,168.178449 46.7550066,168.163834 C46.9503244,168.090761 47.1519719,168.083454 47.3536194,168.083454 C47.468459,167.923608 47.6854788,167.930915 47.8509563,167.843228 C48.9396721,167.318932 49.898176,166.488644 50.4678528,165.403516 Z M86.9004053,169.991746 C86.9085436,170.137891 86.9085436,170.283123 86.9004053,170.429268 C86.6842898,170.457584 86.4681743,170.421047 86.2583886,170.450276 C86.2303569,171.106103 86.2583886,171.754623 86.2439206,172.409536 C86.0495071,172.394922 85.8550935,172.394922 85.667914,172.402229 C85.6453078,171.88524 85.653446,171.360944 85.66068,170.843955 C85.66068,170.705117 85.689616,170.545271 85.5666381,170.450276 C85.3794586,170.421047 85.1913748,170.457584 85.0041953,170.429268 C84.9969613,170.283123 84.9969613,170.137891 85.0114293,169.991746 L86.9004053,169.991746 Z M88.047626,170.013485 C88.0322538,170.224482 88.2058696,170.370627 88.2556033,170.56701 C88.3279432,170.814544 88.4355488,171.047463 88.508793,171.294996 C88.5657607,171.404605 88.6670366,171.499599 88.6308666,171.637524 C88.7746422,171.069384 88.9979917,170.530474 89.2222454,169.99887 C89.4745309,169.991563 89.7340503,169.984256 89.9935698,169.99887 C90.0080378,170.778921 89.9935698,171.571759 89.9935698,172.351809 C89.8208582,172.36551 89.6472424,172.36551 89.4672969,172.351809 C89.4745309,171.805591 89.4672969,171.25846 89.4817649,170.720463 C89.4166589,170.778921 89.351553,170.829158 89.3009151,170.902231 C89.2077774,171.397298 88.955492,171.848521 88.8325141,172.343588 C88.6887385,172.36551 88.5512927,172.36551 88.4075171,172.351809 C88.3641131,172.075046 88.1696996,171.848521 88.1696996,171.564451 C87.9752861,171.324225 87.9680521,170.982611 87.8161383,170.713155 C87.7157666,170.909538 87.7944363,171.142457 87.7727343,171.353454 C87.7437984,171.695982 87.8089043,172.045817 87.7437984,172.388345 C87.5710868,172.388345 87.3766733,172.44589 87.2392274,172.321666 C87.2618337,171.549837 87.2392274,170.778921 87.2464614,169.99887 C87.5132149,169.991563 87.7808726,169.976949 88.047626,170.013485 Z" id="logo3-section3"></path>
                </g>
            </g>
        </g>
    </g>
</svg>