<?xml version="1.0" encoding="UTF-8"?>
<svg width="94px" height="26px" viewBox="0 0 94 26" version="1.1" xmlns="http://www.w3.org/2000/svg" xmlns:xlink="http://www.w3.org/1999/xlink">
    <!-- Generator: sketchtool 51.3 (57544) - http://www.bohemiancoding.com/sketch -->
    <title>4CFDA261-C943-468A-94A4-9A17ED2D42E3</title>
    <desc>Created with sketchtool.</desc>
    <defs></defs>
    <g id="Design" stroke="none" stroke-width="1" fill="none" fill-rule="evenodd">
        <g id="2a-Résidentiel" transform="translate(-315.000000, -2945.000000)" fill="#FFFFFF">
            <g id="Section-4" transform="translate(120.000000, 2439.000000)">
                <g id="1" transform="translate(195.000000, 284.000000)">
                    <path d="M77.2049321,222.000578 L77.2049321,246.075243 L73.1872563,246.075243 L73.1872563,222.000578 L77.2049321,222.000496 Z M80.2476854,246.359272 L85.1397202,234.01829 L80.995631,222.013549 L85.0133069,222.013549 L87.2944197,228.603723 L89.8923762,222.065596 L89.9304623,222.00033 L94,222.00033 L89.1954821,234.095947 L94,248 C92.6054014,247.793463 91.1986476,247.613363 89.7910835,247.431611 L87.0529377,239.510514 L84.1770339,246.773172 C82.8707625,246.630248 81.552336,246.488977 80.2476854,246.359272 Z M50.2833439,244.731432 C49.2055889,244.731432 48.127834,244.718214 47.037924,244.718214 C46.7713215,244.718214 46.5176844,244.731432 46.2518922,244.718214 L46.2518922,222 L55.8341868,222 L55.8341868,225.773839 L50.2833439,225.773839 L50.2833439,232.131866 L55.112172,232.131866 L55.112172,235.892487 L50.2833439,235.892487 L50.2833439,244.731432 Z M34.5654636,244.951022 L34.5654636,225.7745 L30.81358,225.7745 L30.81358,222.000661 L42.3358333,222.000661 L42.3358333,225.7745 L38.5831394,225.7745 L38.5831394,244.821317 C37.2395923,244.860972 35.9090107,244.899801 34.5654636,244.951022 Z M3.85317637,233.153231 L3.85317637,247.495968 C2.57283596,247.651283 1.29249554,247.83221 0,247.999917 L0,222.000248 L3.85317637,222.000248 L4.01848614,222.000248 L9.15200292,236.848586 L9.15200292,222.000248 L13.004369,222.000248 L13.004369,246.436847 C11.5344085,246.591337 10.0636377,246.747479 8.60664274,246.915186 L3.85317637,233.153231 Z M26.9344726,225.77417 L21.3706642,225.77417 L21.3706642,232.13137 L26.2003028,232.13137 L26.2003028,235.905209 L21.3706642,235.905209 L21.3706642,241.926994 C23.2206751,241.784897 25.0714963,241.656018 26.9215072,241.552749 L26.9215072,244.240205 L26.9215072,245.325762 C23.7149837,245.519081 20.5214258,245.752054 17.340023,246.036249 L17.340023,242.26241 L17.340023,222.00033 L26.9344726,222.00033 L26.9344726,225.77417 Z M63.8073851,222.000661 L63.8073851,241.371328 C65.657396,241.461378 67.5082172,241.565472 69.3720039,241.707569 L69.3720039,244.252928 L69.3720039,245.467364 C66.1776356,245.248435 62.9832673,245.079901 59.7759335,244.964241 L59.7759335,241.190401 L59.7759335,222.000661 L63.8073851,222.000661 Z" id="logo5-section3"></path>
                </g>
            </g>
        </g>
    </g>
</svg>