<?xml version="1.0" encoding="UTF-8"?>
<svg width="115px" height="19px" viewBox="0 0 115 19" version="1.1" xmlns="http://www.w3.org/2000/svg" xmlns:xlink="http://www.w3.org/1999/xlink">
    <!-- Generator: sketchtool 51.3 (57544) - http://www.bohemiancoding.com/sketch -->
    <title>89144A67-060A-4FB5-9A3E-71FB9A77DD6C</title>
    <desc>Created with sketchtool.</desc>
    <defs></defs>
    <g id="Design" stroke="none" stroke-width="1" fill="none" fill-rule="evenodd">
        <g id="2a-Résidentiel" transform="translate(-315.000000, -2795.000000)" fill="#FFFFFF">
            <g id="Section-4" transform="translate(120.000000, 2439.000000)">
                <g id="1" transform="translate(195.000000, 284.000000)">
                    <path d="M104.911386,82.0921915 L110.713373,82.0921915 C110.597721,81.1393114 109.867976,79.995132 107.7984,79.995132 C105.844477,79.995132 105.086869,81.1125259 104.911386,82.0921915 Z M107.7984,76.5242238 C111.969422,76.5242238 115,79.4632206 115,84.0515227 L115,85.0311425 L104.971216,85.0311425 C105.290214,86.2327851 106.45857,87.2430824 108.496227,87.2430824 C109.489195,87.2430824 111.124073,86.8221137 111.937551,86.0950568 L113.891474,88.9191732 C112.491814,90.1246161 110.15911,90.7101444 108.001794,90.7101444 C103.659297,90.7101444 100.333625,87.9969249 100.333625,83.6037684 C100.333625,79.685106 103.396074,76.5242238 107.7984,76.5242238 Z M15.4624588,72 L22.5976633,72 L22.5976633,90.0968952 L17.4626233,90.0968952 L17.4626233,78.1300626 L12.4499775,90.0968952 L10.1804089,90.0968952 L5.13508885,78.1300626 L5.13508885,90.0968952 L0,90.0968952 L0,72 L7.1352045,72 L11.3151688,81.9853987 L15.4624588,72 Z M31.8129684,85.7008737 C31.3464467,85.0579739 30.2977034,84.7479479 29.3047824,84.7479479 C28.1403868,84.7479479 27.0597723,85.2531194 27.0597723,86.3169879 C27.0597723,87.3808107 28.1403868,87.8821361 29.3047824,87.8821361 C30.2977034,87.8821361 31.3464467,87.5491707 31.8129684,86.9024705 L31.8129684,85.7008737 Z M31.8129684,89.0301617 C30.9397074,90.0366129 29.2450001,90.7100986 27.4386005,90.7100986 C25.2813316,90.7100986 22.5976633,89.2827246 22.5976633,86.2595706 C22.5976633,82.9876542 25.2813316,81.8931997 27.4386005,81.8931997 C29.3047824,81.8931997 30.9676186,82.4825284 31.8129684,83.4889796 L31.8129684,82.1457626 C31.8129684,80.9709514 30.7642728,80.1596458 28.9538654,80.1596458 C27.5542051,80.1596458 26.1545925,80.691603 25.018108,81.6138513 L23.3552719,78.6213291 C25.1656792,77.1364919 27.586124,76.5242238 29.7434406,76.5242238 C33.1248875,76.5242238 36.3029885,77.7258206 36.3029885,81.9238315 L36.3029885,90.3733787 L31.8129684,90.3733787 L31.8129684,89.0301617 Z M38.9263497,85.5363141 C39.975093,86.4317768 42.2201031,87.3540251 43.8829392,87.3540251 C45.2227695,87.3540251 45.7770323,86.9904737 45.7770323,86.4011451 C45.7770323,84.7250542 37.5865194,86.4585624 37.5865194,80.9747976 C37.5865194,78.5944977 39.7437883,76.5242238 43.6197157,76.5242238 C46.012297,76.5242238 47.9941313,77.2512807 49.5094439,78.315195 L47.7907378,81.3650887 C46.945388,80.5806145 45.3423819,79.8841435 43.6516346,79.8841435 C42.5989312,79.8841435 41.901105,80.2744804 41.901105,80.8063918 C41.901105,82.2873828 50.0637067,80.7490203 50.0637067,86.2902024 C50.0637067,88.8656478 47.7030443,90.7101444 43.6795457,90.7101444 C41.1434486,90.7101444 38.5475215,89.8988388 37.0601678,88.6130392 L38.9263497,85.5363141 Z M60.1530689,90.6632342 L60.1530689,82.7991696 C60.1530689,81.1498643 59.2478891,80.6179072 57.8203176,80.6179072 C56.5083985,80.6179072 55.6351376,81.3181785 55.1087859,81.9342928 L55.1087859,90.6632342 L50.6187657,90.6632342 L50.6187657,72 L55.1087859,72 L55.1087859,78.8001962 C55.9541357,77.8473161 57.6170196,76.8140794 59.9776343,76.8140794 C63.1836942,76.8140794 64.6430891,78.5476333 64.6430891,81.0388758 L64.6430891,90.6632342 L60.1530689,90.6632342 Z M74.2965753,85.7008737 C73.8300059,85.0579739 72.7812627,84.7479479 71.7883894,84.7479479 C70.623946,84.7479479 69.5433315,85.2531194 69.5433315,86.3169879 C69.5433315,87.3808107 70.623946,87.8821361 71.7883894,87.8821361 C72.7812627,87.8821361 73.8300059,87.5491707 74.2965753,86.9024705 L74.2965753,85.7008737 Z M74.2965753,90.3733787 L74.2965753,89.0301617 C73.4232666,90.0366129 71.7285593,90.7100986 69.9221597,90.7100986 C67.7648908,90.7100986 65.0812702,89.2827246 65.0812702,86.2595706 C65.0812702,82.9876542 67.7648908,81.8931997 69.9221597,81.8931997 C71.7883894,81.8931997 73.4511778,82.4825284 74.2965753,83.4889796 L74.2965753,82.1457626 C74.2965753,80.9709514 73.247832,80.1596458 71.4374723,80.1596458 C70.037812,80.1596458 68.6381517,80.691603 67.501715,81.6138513 L65.8388311,78.6213291 C67.6492385,77.1364919 70.0696832,76.5242238 72.2269998,76.5242238 C75.6084944,76.5242238 78.7865955,77.7258206 78.7865955,81.9238315 L78.7865955,90.3733787 L74.2965753,90.3733787 Z M90.7396407,83.8936698 C90.7396407,81.876967 89.3998105,80.617953 87.6213697,80.617953 C86.6603199,80.617953 85.4919642,81.1230787 84.9377014,81.8501815 L84.9377014,85.9907751 C85.4919642,86.717832 86.6603199,87.1923718 87.6213697,87.1923718 C89.3998105,87.1923718 90.7396407,85.9333578 90.7396407,83.8936698 Z M80.4476812,90.66328 L80.4476812,72 L84.9377014,72 L84.9377014,78.7428246 C86.046227,77.3996077 87.5615397,76.8141251 89.1087235,76.8141251 C92.6377416,76.8141251 95.3174021,79.4699274 95.3174021,83.8936698 C95.3174021,88.4819718 92.5779593,91 89.1087235,91 C87.5336285,91 86.1060571,90.3839315 84.9377014,89.0980861 L84.9377014,90.66328 L80.4476812,90.66328 Z M95.8140922,90.6632342 L95.8140922,72 L100.304112,72 L100.304112,90.6632342 L95.8140922,90.6632342 Z" id="logo1-section3"></path>
                </g>
            </g>
        </g>
    </g>
</svg>