<?xml version="1.0" encoding="UTF-8"?>
<svg width="85px" height="166px" viewBox="0 0 85 166" version="1.1" xmlns="http://www.w3.org/2000/svg" xmlns:xlink="http://www.w3.org/1999/xlink">
    <!-- Generator: Sketch 52 (66869) - http://www.bohemiancoding.com/sketch -->
    <title>Oval2</title>
    <desc>Created with Sketch.</desc>
    <g id="Symbols" stroke="none" stroke-width="1" fill="none" fill-rule="evenodd">
        <g id="Illustrations-/-Technicien-/-Societe" transform="translate(-286.000000, -60.000000)" fill="#171A3B" fill-rule="nonzero">
            <g id="Oval2">
                <path d="M247.296548,184.636961 C246.299481,184.636961 245.491198,183.831073 245.491198,182.836961 C245.491198,181.842848 246.299481,181.036961 247.296548,181.036961 C248.293616,181.036961 249.101899,181.842848 249.101899,182.836961 C249.101899,183.831073 248.293616,184.636961 247.296548,184.636961 Z M267.488431,184.636961 C266.491364,184.636961 265.683081,183.831073 265.683081,182.836961 C265.683081,181.842848 266.491364,181.036961 267.488431,181.036961 C268.485499,181.036961 269.293782,181.842848 269.293782,182.836961 C269.293782,183.831073 268.485499,184.636961 267.488431,184.636961 Z M287.680314,184.636961 C286.683246,184.636961 285.874963,183.831073 285.874963,182.836961 C285.874963,181.842848 286.683246,181.036961 287.680314,181.036961 C288.677382,181.036961 289.485665,181.842848 289.485665,182.836961 C289.485665,183.831073 288.677382,184.636961 287.680314,184.636961 Z M307.872197,184.636961 C306.875129,184.636961 306.066846,183.831073 306.066846,182.836961 C306.066846,181.842848 306.875129,181.036961 307.872197,181.036961 C308.869264,181.036961 309.677547,181.842848 309.677547,182.836961 C309.677547,183.831073 308.869264,184.636961 307.872197,184.636961 Z M328.064079,184.636961 C327.067012,184.636961 326.258729,183.831073 326.258729,182.836961 C326.258729,181.842848 327.067012,181.036961 328.064079,181.036961 C329.061147,181.036961 329.86943,181.842848 329.86943,182.836961 C329.86943,183.831073 329.061147,184.636961 328.064079,184.636961 Z M348.255962,184.636961 C347.258894,184.636961 346.450611,183.831073 346.450611,182.836961 C346.450611,181.842848 347.258894,181.036961 348.255962,181.036961 C349.25303,181.036961 350.061313,181.842848 350.061313,182.836961 C350.061313,183.831073 349.25303,184.636961 348.255962,184.636961 Z M368.447845,184.636961 C367.450777,184.636961 366.642494,183.831073 366.642494,182.836961 C366.642494,181.842848 367.450777,181.036961 368.447845,181.036961 C369.444912,181.036961 370.253195,181.842848 370.253195,182.836961 C370.253195,183.831073 369.444912,184.636961 368.447845,184.636961 Z M388.639728,184.636961 C387.64266,184.636961 386.834377,183.831073 386.834377,182.836961 C386.834377,181.842848 387.64266,181.036961 388.639728,181.036961 C389.636795,181.036961 390.445078,181.842848 390.445078,182.836961 C390.445078,183.831073 389.636795,184.636961 388.639728,184.636961 Z M408.83161,184.636961 C407.834543,184.636961 407.02626,183.831073 407.02626,182.836961 C407.02626,181.842848 407.834543,181.036961 408.83161,181.036961 C409.828678,181.036961 410.636961,181.842848 410.636961,182.836961 C410.636961,183.831073 409.828678,184.636961 408.83161,184.636961 Z M247.296548,164.504921 C246.299481,164.504921 245.491198,163.699034 245.491198,162.704921 C245.491198,161.710809 246.299481,160.904921 247.296548,160.904921 C248.293616,160.904921 249.101899,161.710809 249.101899,162.704921 C249.101899,163.699034 248.293616,164.504921 247.296548,164.504921 Z M267.488431,164.504921 C266.491364,164.504921 265.683081,163.699034 265.683081,162.704921 C265.683081,161.710809 266.491364,160.904921 267.488431,160.904921 C268.485499,160.904921 269.293782,161.710809 269.293782,162.704921 C269.293782,163.699034 268.485499,164.504921 267.488431,164.504921 Z M287.680314,164.504921 C286.683246,164.504921 285.874963,163.699034 285.874963,162.704921 C285.874963,161.710809 286.683246,160.904921 287.680314,160.904921 C288.677382,160.904921 289.485665,161.710809 289.485665,162.704921 C289.485665,163.699034 288.677382,164.504921 287.680314,164.504921 Z M307.872197,164.504921 C306.875129,164.504921 306.066846,163.699034 306.066846,162.704921 C306.066846,161.710809 306.875129,160.904921 307.872197,160.904921 C308.869264,160.904921 309.677547,161.710809 309.677547,162.704921 C309.677547,163.699034 308.869264,164.504921 307.872197,164.504921 Z M328.064079,164.504921 C327.067012,164.504921 326.258729,163.699034 326.258729,162.704921 C326.258729,161.710809 327.067012,160.904921 328.064079,160.904921 C329.061147,160.904921 329.86943,161.710809 329.86943,162.704921 C329.86943,163.699034 329.061147,164.504921 328.064079,164.504921 Z M348.255962,164.504921 C347.258894,164.504921 346.450611,163.699034 346.450611,162.704921 C346.450611,161.710809 347.258894,160.904921 348.255962,160.904921 C349.25303,160.904921 350.061313,161.710809 350.061313,162.704921 C350.061313,163.699034 349.25303,164.504921 348.255962,164.504921 Z M368.447845,164.504921 C367.450777,164.504921 366.642494,163.699034 366.642494,162.704921 C366.642494,161.710809 367.450777,160.904921 368.447845,160.904921 C369.444912,160.904921 370.253195,161.710809 370.253195,162.704921 C370.253195,163.699034 369.444912,164.504921 368.447845,164.504921 Z M388.639728,164.504921 C387.64266,164.504921 386.834377,163.699034 386.834377,162.704921 C386.834377,161.710809 387.64266,160.904921 388.639728,160.904921 C389.636795,160.904921 390.445078,161.710809 390.445078,162.704921 C390.445078,163.699034 389.636795,164.504921 388.639728,164.504921 Z M408.83161,164.504921 C407.834543,164.504921 407.02626,163.699034 407.02626,162.704921 C407.02626,161.710809 407.834543,160.904921 408.83161,160.904921 C409.828678,160.904921 410.636961,161.710809 410.636961,162.704921 C410.636961,163.699034 409.828678,164.504921 408.83161,164.504921 Z M247.296548,144.372882 C246.299481,144.372882 245.491198,143.566994 245.491198,142.572882 C245.491198,141.578769 246.299481,140.772881 247.296548,140.772881 C248.293616,140.772881 249.101899,141.578769 249.101899,142.572882 C249.101899,143.566994 248.293616,144.372882 247.296548,144.372882 Z M267.488431,144.372882 C266.491364,144.372882 265.683081,143.566994 265.683081,142.572882 C265.683081,141.578769 266.491364,140.772881 267.488431,140.772881 C268.485499,140.772881 269.293782,141.578769 269.293782,142.572882 C269.293782,143.566994 268.485499,144.372882 267.488431,144.372882 Z M287.680314,144.372882 C286.683246,144.372882 285.874963,143.566994 285.874963,142.572882 C285.874963,141.578769 286.683246,140.772881 287.680314,140.772881 C288.677382,140.772881 289.485665,141.578769 289.485665,142.572882 C289.485665,143.566994 288.677382,144.372882 287.680314,144.372882 Z M307.872197,144.372882 C306.875129,144.372882 306.066846,143.566994 306.066846,142.572882 C306.066846,141.578769 306.875129,140.772881 307.872197,140.772881 C308.869264,140.772881 309.677547,141.578769 309.677547,142.572882 C309.677547,143.566994 308.869264,144.372882 307.872197,144.372882 Z M328.064079,144.372882 C327.067012,144.372882 326.258729,143.566994 326.258729,142.572882 C326.258729,141.578769 327.067012,140.772881 328.064079,140.772881 C329.061147,140.772881 329.86943,141.578769 329.86943,142.572882 C329.86943,143.566994 329.061147,144.372882 328.064079,144.372882 Z M348.255962,144.372882 C347.258894,144.372882 346.450611,143.566994 346.450611,142.572882 C346.450611,141.578769 347.258894,140.772881 348.255962,140.772881 C349.25303,140.772881 350.061313,141.578769 350.061313,142.572882 C350.061313,143.566994 349.25303,144.372882 348.255962,144.372882 Z M368.447845,144.372882 C367.450777,144.372882 366.642494,143.566994 366.642494,142.572882 C366.642494,141.578769 367.450777,140.772881 368.447845,140.772881 C369.444912,140.772881 370.253195,141.578769 370.253195,142.572882 C370.253195,143.566994 369.444912,144.372882 368.447845,144.372882 Z M388.639728,144.372882 C387.64266,144.372882 386.834377,143.566994 386.834377,142.572882 C386.834377,141.578769 387.64266,140.772881 388.639728,140.772881 C389.636795,140.772881 390.445078,141.578769 390.445078,142.572882 C390.445078,143.566994 389.636795,144.372882 388.639728,144.372882 Z M408.83161,144.372882 C407.834543,144.372882 407.02626,143.566994 407.02626,142.572882 C407.02626,141.578769 407.834543,140.772881 408.83161,140.772881 C409.828678,140.772881 410.636961,141.578769 410.636961,142.572882 C410.636961,143.566994 409.828678,144.372882 408.83161,144.372882 Z M247.296548,124.240842 C246.299481,124.240842 245.491198,123.434954 245.491198,122.440842 C245.491198,121.446729 246.299481,120.640842 247.296548,120.640842 C248.293616,120.640842 249.101899,121.446729 249.101899,122.440842 C249.101899,123.434954 248.293616,124.240842 247.296548,124.240842 Z M267.488431,124.240842 C266.491364,124.240842 265.683081,123.434954 265.683081,122.440842 C265.683081,121.446729 266.491364,120.640842 267.488431,120.640842 C268.485499,120.640842 269.293782,121.446729 269.293782,122.440842 C269.293782,123.434954 268.485499,124.240842 267.488431,124.240842 Z M287.680314,124.240842 C286.683246,124.240842 285.874963,123.434954 285.874963,122.440842 C285.874963,121.446729 286.683246,120.640842 287.680314,120.640842 C288.677382,120.640842 289.485665,121.446729 289.485665,122.440842 C289.485665,123.434954 288.677382,124.240842 287.680314,124.240842 Z M307.872197,124.240842 C306.875129,124.240842 306.066846,123.434954 306.066846,122.440842 C306.066846,121.446729 306.875129,120.640842 307.872197,120.640842 C308.869264,120.640842 309.677547,121.446729 309.677547,122.440842 C309.677547,123.434954 308.869264,124.240842 307.872197,124.240842 Z M328.064079,124.240842 C327.067012,124.240842 326.258729,123.434954 326.258729,122.440842 C326.258729,121.446729 327.067012,120.640842 328.064079,120.640842 C329.061147,120.640842 329.86943,121.446729 329.86943,122.440842 C329.86943,123.434954 329.061147,124.240842 328.064079,124.240842 Z M348.255962,124.240842 C347.258894,124.240842 346.450611,123.434954 346.450611,122.440842 C346.450611,121.446729 347.258894,120.640842 348.255962,120.640842 C349.25303,120.640842 350.061313,121.446729 350.061313,122.440842 C350.061313,123.434954 349.25303,124.240842 348.255962,124.240842 Z M368.447845,124.240842 C367.450777,124.240842 366.642494,123.434954 366.642494,122.440842 C366.642494,121.446729 367.450777,120.640842 368.447845,120.640842 C369.444912,120.640842 370.253195,121.446729 370.253195,122.440842 C370.253195,123.434954 369.444912,124.240842 368.447845,124.240842 Z M388.639728,124.240842 C387.64266,124.240842 386.834377,123.434954 386.834377,122.440842 C386.834377,121.446729 387.64266,120.640842 388.639728,120.640842 C389.636795,120.640842 390.445078,121.446729 390.445078,122.440842 C390.445078,123.434954 389.636795,124.240842 388.639728,124.240842 Z M408.83161,124.240842 C407.834543,124.240842 407.02626,123.434954 407.02626,122.440842 C407.02626,121.446729 407.834543,120.640842 408.83161,120.640842 C409.828678,120.640842 410.636961,121.446729 410.636961,122.440842 C410.636961,123.434954 409.828678,124.240842 408.83161,124.240842 Z M247.296548,104.108802 C246.299481,104.108802 245.491198,103.302915 245.491198,102.308802 C245.491198,101.31469 246.299481,100.508802 247.296548,100.508802 C248.293616,100.508802 249.101899,101.31469 249.101899,102.308802 C249.101899,103.302915 248.293616,104.108802 247.296548,104.108802 Z M267.488431,104.108802 C266.491364,104.108802 265.683081,103.302915 265.683081,102.308802 C265.683081,101.31469 266.491364,100.508802 267.488431,100.508802 C268.485499,100.508802 269.293782,101.31469 269.293782,102.308802 C269.293782,103.302915 268.485499,104.108802 267.488431,104.108802 Z M287.680314,104.108802 C286.683246,104.108802 285.874963,103.302915 285.874963,102.308802 C285.874963,101.31469 286.683246,100.508802 287.680314,100.508802 C288.677382,100.508802 289.485665,101.31469 289.485665,102.308802 C289.485665,103.302915 288.677382,104.108802 287.680314,104.108802 Z M307.872197,104.108802 C306.875129,104.108802 306.066846,103.302915 306.066846,102.308802 C306.066846,101.31469 306.875129,100.508802 307.872197,100.508802 C308.869264,100.508802 309.677547,101.31469 309.677547,102.308802 C309.677547,103.302915 308.869264,104.108802 307.872197,104.108802 Z M328.064079,104.108802 C327.067012,104.108802 326.258729,103.302915 326.258729,102.308802 C326.258729,101.31469 327.067012,100.508802 328.064079,100.508802 C329.061147,100.508802 329.86943,101.31469 329.86943,102.308802 C329.86943,103.302915 329.061147,104.108802 328.064079,104.108802 Z M348.255962,104.108802 C347.258894,104.108802 346.450611,103.302915 346.450611,102.308802 C346.450611,101.31469 347.258894,100.508802 348.255962,100.508802 C349.25303,100.508802 350.061313,101.31469 350.061313,102.308802 C350.061313,103.302915 349.25303,104.108802 348.255962,104.108802 Z M368.447845,104.108802 C367.450777,104.108802 366.642494,103.302915 366.642494,102.308802 C366.642494,101.31469 367.450777,100.508802 368.447845,100.508802 C369.444912,100.508802 370.253195,101.31469 370.253195,102.308802 C370.253195,103.302915 369.444912,104.108802 368.447845,104.108802 Z M388.639728,104.108802 C387.64266,104.108802 386.834377,103.302915 386.834377,102.308802 C386.834377,101.31469 387.64266,100.508802 388.639728,100.508802 C389.636795,100.508802 390.445078,101.31469 390.445078,102.308802 C390.445078,103.302915 389.636795,104.108802 388.639728,104.108802 Z M408.83161,104.108802 C407.834543,104.108802 407.02626,103.302915 407.02626,102.308802 C407.02626,101.31469 407.834543,100.508802 408.83161,100.508802 C409.828678,100.508802 410.636961,101.31469 410.636961,102.308802 C410.636961,103.302915 409.828678,104.108802 408.83161,104.108802 Z" transform="translate(328.064079, 142.572882) rotate(-270.000000) translate(-328.064079, -142.572882) "></path>
            </g>
        </g>
    </g>
</svg>