<?xml version="1.0" encoding="UTF-8"?>
<svg width="36px" height="31px" viewBox="0 0 36 31" version="1.1" xmlns="http://www.w3.org/2000/svg" xmlns:xlink="http://www.w3.org/1999/xlink">
    <!-- Generator: sketchtool 51.3 (57544) - http://www.bohemiancoding.com/sketch -->
    <title>1EBEAEC2-5E04-46AA-9124-BB4B0916CCB5</title>
    <desc>Created with sketchtool.</desc>
    <defs></defs>
    <g id="Design" stroke="none" stroke-width="1" fill="none" fill-rule="evenodd">
        <g id="5a-A-Propos" transform="translate(-950.000000, -1021.000000)">
            <g id="Section-1" transform="translate(342.000000, 811.000000)">
                <g id="3" transform="translate(608.000000, 210.000000)">
                    <g id="picto3-section1">
                        <circle id="Oval-2" fill="#52C2D6" fill-rule="nonzero" cx="26" cy="21" r="10"></circle>
                        <g id="Group" transform="translate(6.000000, 0.000000)" stroke="#171A3B" stroke-linecap="round" stroke-linejoin="round" stroke-width="1.65000004">
                            <g id="human-resources-offer-employee-1">
                                <path d="M0.816833333,15.4288333 L0.816833333,25.1788333" id="Shape"></path>
                                <path d="M0.816833333,23.5538333 L17.0668333,23.5538333 C17.0668333,21.7589079 15.6117588,20.3038333 13.8168333,20.3038333 L9.75,20.3038333 C9.75,18.5089079 8.29492544,17.0538333 6.5,17.0538333 L0.816833333,17.0538333" id="Shape"></path>
                                <path d="M6.50433333,20.3038333 L9.75433333,20.3038333" id="Shape"></path>
                                <path d="M11.6209167,14.9023333 C13.3199874,12.0942318 16.6816936,10.7619208 19.8431388,11.6437033 C23.0045839,12.5254858 25.1914307,15.4053855 25.1918333,18.6875 L17.875,18.6875" id="Shape"></path>
                                <circle id="Oval" cx="17.8793333" cy="5.28125" r="4.46875"></circle>
                            </g>
                        </g>
                        <circle id="Oval-2-Copy-2" fill="#52C2D6" fill-rule="nonzero" cx="3.5" cy="5.5" r="3.5"></circle>
                    </g>
                </g>
            </g>
        </g>
    </g>
</svg>