<?xml version="1.0" encoding="UTF-8"?>
<svg width="34px" height="37px" viewBox="0 0 34 37" version="1.1" xmlns="http://www.w3.org/2000/svg" xmlns:xlink="http://www.w3.org/1999/xlink">
    <!-- Generator: sketchtool 51.3 (57544) - http://www.bohemiancoding.com/sketch -->
    <title>69420EF1-4DC3-476F-A089-49EE5B6ECCF6</title>
    <desc>Created with sketchtool.</desc>
    <defs></defs>
    <g id="Design" stroke="none" stroke-width="1" fill="none" fill-rule="evenodd">
        <g id="5a-A-Propos" transform="translate(-342.000000, -1016.000000)">
            <g id="Section-1" transform="translate(342.000000, 811.000000)">
                <g id="1" transform="translate(0.000000, 205.000000)">
                    <g id="picto1-section1">
                        <circle id="Oval-2" fill="#F1653C" fill-rule="nonzero" cx="12" cy="27" r="10"></circle>
                        <circle id="Oval-2-Copy-3" fill="#F1653C" fill-rule="nonzero" cx="31" cy="3" r="3"></circle>
                        <g id="Group" stroke="#171A3B" stroke-linecap="round" stroke-linejoin="round" stroke-width="1.5">
                            <g id="Regular">
                                <circle id="Oval" cx="8.25" cy="10.875" r="2.625"></circle>
                                <path d="M3.75,18.75 C3.75000004,16.2647187 5.76471865,14.2500001 8.25,14.2500001 C10.7352813,14.2500001 12.75,16.2647187 12.75,18.75 L3.75,18.75 Z" id="Shape"></path>
                                <path d="M14.25,11.25 L18.75,11.25" id="Shape"></path>
                                <path d="M14.25,14.25 L20.25,14.25" id="Shape"></path>
                                <path d="M21.75,5.25 L2.25,5.25 C1.42157288,5.25 0.75,5.92157288 0.75,6.75 L0.75,21.75 C0.75,22.5784271 1.42157288,23.25 2.25,23.25 L5.25,23.25 C5.25,22.4215729 5.92157288,21.75 6.75,21.75 C7.57842712,21.75 8.25,22.4215729 8.25,23.25 L15.75,23.25 C15.75,22.4215729 16.4215729,21.75 17.25,21.75 C18.0784271,21.75 18.75,22.4215729 18.75,23.25 L21.75,23.25 C22.5784271,23.25 23.25,22.5784271 23.25,21.75 L23.25,6.75 C23.25,5.92157288 22.5784271,5.25 21.75,5.25 Z" id="Shape"></path>
                                <path d="M23.25,2.25 C23.25,1.42157288 22.5784271,0.75 21.75,0.75 L2.25,0.75 C1.42157288,0.75 0.75,1.42157288 0.75,2.25" id="Shape"></path>
                            </g>
                        </g>
                    </g>
                </g>
            </g>
        </g>
    </g>
</svg>