<?xml version="1.0" encoding="UTF-8"?>
<svg width="71px" height="138px" viewBox="0 0 71 138" version="1.1" xmlns="http://www.w3.org/2000/svg" xmlns:xlink="http://www.w3.org/1999/xlink">
    <!-- Generator: sketchtool 51.3 (57544) - http://www.bohemiancoding.com/sketch -->
    <title>8E017E24-29F5-4CD4-AEB3-06CAC7E87CBC</title>
    <desc>Created with sketchtool.</desc>
    <defs></defs>
    <g id="Design" stroke="none" stroke-width="1" fill="none" fill-rule="evenodd">
        <g id="2a-Résidentiel" transform="translate(-940.000000, -297.000000)" fill="#272C6C" fill-rule="nonzero">
            <g id="Cover" transform="translate(120.000000, 167.000000)">
                <path d="M787.747125,233.86413 C786.916235,233.86413 786.242666,233.192557 786.242666,232.36413 C786.242666,231.535703 786.916235,230.86413 787.747125,230.86413 C788.578015,230.86413 789.251584,231.535703 789.251584,232.36413 C789.251584,233.192557 788.578015,233.86413 787.747125,233.86413 Z M804.573693,233.86413 C803.742804,233.86413 803.069234,233.192557 803.069234,232.36413 C803.069234,231.535703 803.742804,230.86413 804.573693,230.86413 C805.404583,230.86413 806.078152,231.535703 806.078152,232.36413 C806.078152,233.192557 805.404583,233.86413 804.573693,233.86413 Z M821.400262,233.86413 C820.569372,233.86413 819.895803,233.192557 819.895803,232.36413 C819.895803,231.535703 820.569372,230.86413 821.400262,230.86413 C822.231151,230.86413 822.90472,231.535703 822.90472,232.36413 C822.90472,233.192557 822.231151,233.86413 821.400262,233.86413 Z M838.22683,233.86413 C837.39594,233.86413 836.722371,233.192557 836.722371,232.36413 C836.722371,231.535703 837.39594,230.86413 838.22683,230.86413 C839.057719,230.86413 839.731289,231.535703 839.731289,232.36413 C839.731289,233.192557 839.057719,233.86413 838.22683,233.86413 Z M855.053398,233.86413 C854.222508,233.86413 853.548939,233.192557 853.548939,232.36413 C853.548939,231.535703 854.222508,230.86413 855.053398,230.86413 C855.884288,230.86413 856.557857,231.535703 856.557857,232.36413 C856.557857,233.192557 855.884288,233.86413 855.053398,233.86413 Z M871.879966,233.86413 C871.049077,233.86413 870.375508,233.192557 870.375508,232.36413 C870.375508,231.535703 871.049077,230.86413 871.879966,230.86413 C872.710856,230.86413 873.384425,231.535703 873.384425,232.36413 C873.384425,233.192557 872.710856,233.86413 871.879966,233.86413 Z M888.706535,233.86413 C887.875645,233.86413 887.202076,233.192557 887.202076,232.36413 C887.202076,231.535703 887.875645,230.86413 888.706535,230.86413 C889.537424,230.86413 890.210993,231.535703 890.210993,232.36413 C890.210993,233.192557 889.537424,233.86413 888.706535,233.86413 Z M905.533103,233.86413 C904.702213,233.86413 904.028644,233.192557 904.028644,232.36413 C904.028644,231.535703 904.702213,230.86413 905.533103,230.86413 C906.363993,230.86413 907.037562,231.535703 907.037562,232.36413 C907.037562,233.192557 906.363993,233.86413 905.533103,233.86413 Z M922.359671,233.86413 C921.528781,233.86413 920.855212,233.192557 920.855212,232.36413 C920.855212,231.535703 921.528781,230.86413 922.359671,230.86413 C923.190561,230.86413 923.86413,231.535703 923.86413,232.36413 C923.86413,233.192557 923.190561,233.86413 922.359671,233.86413 Z M787.747125,217.087431 C786.916235,217.087431 786.242666,216.415858 786.242666,215.587431 C786.242666,214.759004 786.916235,214.087431 787.747125,214.087431 C788.578015,214.087431 789.251584,214.759004 789.251584,215.587431 C789.251584,216.415858 788.578015,217.087431 787.747125,217.087431 Z M804.573693,217.087431 C803.742804,217.087431 803.069234,216.415858 803.069234,215.587431 C803.069234,214.759004 803.742804,214.087431 804.573693,214.087431 C805.404583,214.087431 806.078152,214.759004 806.078152,215.587431 C806.078152,216.415858 805.404583,217.087431 804.573693,217.087431 Z M821.400262,217.087431 C820.569372,217.087431 819.895803,216.415858 819.895803,215.587431 C819.895803,214.759004 820.569372,214.087431 821.400262,214.087431 C822.231151,214.087431 822.90472,214.759004 822.90472,215.587431 C822.90472,216.415858 822.231151,217.087431 821.400262,217.087431 Z M838.22683,217.087431 C837.39594,217.087431 836.722371,216.415858 836.722371,215.587431 C836.722371,214.759004 837.39594,214.087431 838.22683,214.087431 C839.057719,214.087431 839.731289,214.759004 839.731289,215.587431 C839.731289,216.415858 839.057719,217.087431 838.22683,217.087431 Z M855.053398,217.087431 C854.222508,217.087431 853.548939,216.415858 853.548939,215.587431 C853.548939,214.759004 854.222508,214.087431 855.053398,214.087431 C855.884288,214.087431 856.557857,214.759004 856.557857,215.587431 C856.557857,216.415858 855.884288,217.087431 855.053398,217.087431 Z M871.879966,217.087431 C871.049077,217.087431 870.375508,216.415858 870.375508,215.587431 C870.375508,214.759004 871.049077,214.087431 871.879966,214.087431 C872.710856,214.087431 873.384425,214.759004 873.384425,215.587431 C873.384425,216.415858 872.710856,217.087431 871.879966,217.087431 Z M888.706535,217.087431 C887.875645,217.087431 887.202076,216.415858 887.202076,215.587431 C887.202076,214.759004 887.875645,214.087431 888.706535,214.087431 C889.537424,214.087431 890.210993,214.759004 890.210993,215.587431 C890.210993,216.415858 889.537424,217.087431 888.706535,217.087431 Z M905.533103,217.087431 C904.702213,217.087431 904.028644,216.415858 904.028644,215.587431 C904.028644,214.759004 904.702213,214.087431 905.533103,214.087431 C906.363993,214.087431 907.037562,214.759004 907.037562,215.587431 C907.037562,216.415858 906.363993,217.087431 905.533103,217.087431 Z M922.359671,217.087431 C921.528781,217.087431 920.855212,216.415858 920.855212,215.587431 C920.855212,214.759004 921.528781,214.087431 922.359671,214.087431 C923.190561,214.087431 923.86413,214.759004 923.86413,215.587431 C923.86413,216.415858 923.190561,217.087431 922.359671,217.087431 Z M787.747125,200.310732 C786.916235,200.310732 786.242666,199.639159 786.242666,198.810732 C786.242666,197.982305 786.916235,197.310732 787.747125,197.310732 C788.578015,197.310732 789.251584,197.982305 789.251584,198.810732 C789.251584,199.639159 788.578015,200.310732 787.747125,200.310732 Z M804.573693,200.310732 C803.742804,200.310732 803.069234,199.639159 803.069234,198.810732 C803.069234,197.982305 803.742804,197.310732 804.573693,197.310732 C805.404583,197.310732 806.078152,197.982305 806.078152,198.810732 C806.078152,199.639159 805.404583,200.310732 804.573693,200.310732 Z M821.400262,200.310732 C820.569372,200.310732 819.895803,199.639159 819.895803,198.810732 C819.895803,197.982305 820.569372,197.310732 821.400262,197.310732 C822.231151,197.310732 822.90472,197.982305 822.90472,198.810732 C822.90472,199.639159 822.231151,200.310732 821.400262,200.310732 Z M838.22683,200.310732 C837.39594,200.310732 836.722371,199.639159 836.722371,198.810732 C836.722371,197.982305 837.39594,197.310732 838.22683,197.310732 C839.057719,197.310732 839.731289,197.982305 839.731289,198.810732 C839.731289,199.639159 839.057719,200.310732 838.22683,200.310732 Z M855.053398,200.310732 C854.222508,200.310732 853.548939,199.639159 853.548939,198.810732 C853.548939,197.982305 854.222508,197.310732 855.053398,197.310732 C855.884288,197.310732 856.557857,197.982305 856.557857,198.810732 C856.557857,199.639159 855.884288,200.310732 855.053398,200.310732 Z M871.879966,200.310732 C871.049077,200.310732 870.375508,199.639159 870.375508,198.810732 C870.375508,197.982305 871.049077,197.310732 871.879966,197.310732 C872.710856,197.310732 873.384425,197.982305 873.384425,198.810732 C873.384425,199.639159 872.710856,200.310732 871.879966,200.310732 Z M888.706535,200.310732 C887.875645,200.310732 887.202076,199.639159 887.202076,198.810732 C887.202076,197.982305 887.875645,197.310732 888.706535,197.310732 C889.537424,197.310732 890.210993,197.982305 890.210993,198.810732 C890.210993,199.639159 889.537424,200.310732 888.706535,200.310732 Z M905.533103,200.310732 C904.702213,200.310732 904.028644,199.639159 904.028644,198.810732 C904.028644,197.982305 904.702213,197.310732 905.533103,197.310732 C906.363993,197.310732 907.037562,197.982305 907.037562,198.810732 C907.037562,199.639159 906.363993,200.310732 905.533103,200.310732 Z M922.359671,200.310732 C921.528781,200.310732 920.855212,199.639159 920.855212,198.810732 C920.855212,197.982305 921.528781,197.310732 922.359671,197.310732 C923.190561,197.310732 923.86413,197.982305 923.86413,198.810732 C923.86413,199.639159 923.190561,200.310732 922.359671,200.310732 Z M787.747125,183.534033 C786.916235,183.534033 786.242666,182.86246 786.242666,182.034033 C786.242666,181.205606 786.916235,180.534033 787.747125,180.534033 C788.578015,180.534033 789.251584,181.205606 789.251584,182.034033 C789.251584,182.86246 788.578015,183.534033 787.747125,183.534033 Z M804.573693,183.534033 C803.742804,183.534033 803.069234,182.86246 803.069234,182.034033 C803.069234,181.205606 803.742804,180.534033 804.573693,180.534033 C805.404583,180.534033 806.078152,181.205606 806.078152,182.034033 C806.078152,182.86246 805.404583,183.534033 804.573693,183.534033 Z M821.400262,183.534033 C820.569372,183.534033 819.895803,182.86246 819.895803,182.034033 C819.895803,181.205606 820.569372,180.534033 821.400262,180.534033 C822.231151,180.534033 822.90472,181.205606 822.90472,182.034033 C822.90472,182.86246 822.231151,183.534033 821.400262,183.534033 Z M838.22683,183.534033 C837.39594,183.534033 836.722371,182.86246 836.722371,182.034033 C836.722371,181.205606 837.39594,180.534033 838.22683,180.534033 C839.057719,180.534033 839.731289,181.205606 839.731289,182.034033 C839.731289,182.86246 839.057719,183.534033 838.22683,183.534033 Z M855.053398,183.534033 C854.222508,183.534033 853.548939,182.86246 853.548939,182.034033 C853.548939,181.205606 854.222508,180.534033 855.053398,180.534033 C855.884288,180.534033 856.557857,181.205606 856.557857,182.034033 C856.557857,182.86246 855.884288,183.534033 855.053398,183.534033 Z M871.879966,183.534033 C871.049077,183.534033 870.375508,182.86246 870.375508,182.034033 C870.375508,181.205606 871.049077,180.534033 871.879966,180.534033 C872.710856,180.534033 873.384425,181.205606 873.384425,182.034033 C873.384425,182.86246 872.710856,183.534033 871.879966,183.534033 Z M888.706535,183.534033 C887.875645,183.534033 887.202076,182.86246 887.202076,182.034033 C887.202076,181.205606 887.875645,180.534033 888.706535,180.534033 C889.537424,180.534033 890.210993,181.205606 890.210993,182.034033 C890.210993,182.86246 889.537424,183.534033 888.706535,183.534033 Z M905.533103,183.534033 C904.702213,183.534033 904.028644,182.86246 904.028644,182.034033 C904.028644,181.205606 904.702213,180.534033 905.533103,180.534033 C906.363993,180.534033 907.037562,181.205606 907.037562,182.034033 C907.037562,182.86246 906.363993,183.534033 905.533103,183.534033 Z M922.359671,183.534033 C921.528781,183.534033 920.855212,182.86246 920.855212,182.034033 C920.855212,181.205606 921.528781,180.534033 922.359671,180.534033 C923.190561,180.534033 923.86413,181.205606 923.86413,182.034033 C923.86413,182.86246 923.190561,183.534033 922.359671,183.534033 Z M787.747125,166.757334 C786.916235,166.757334 786.242666,166.085761 786.242666,165.257334 C786.242666,164.428907 786.916235,163.757334 787.747125,163.757334 C788.578015,163.757334 789.251584,164.428907 789.251584,165.257334 C789.251584,166.085761 788.578015,166.757334 787.747125,166.757334 Z M804.573693,166.757334 C803.742804,166.757334 803.069234,166.085761 803.069234,165.257334 C803.069234,164.428907 803.742804,163.757334 804.573693,163.757334 C805.404583,163.757334 806.078152,164.428907 806.078152,165.257334 C806.078152,166.085761 805.404583,166.757334 804.573693,166.757334 Z M821.400262,166.757334 C820.569372,166.757334 819.895803,166.085761 819.895803,165.257334 C819.895803,164.428907 820.569372,163.757334 821.400262,163.757334 C822.231151,163.757334 822.90472,164.428907 822.90472,165.257334 C822.90472,166.085761 822.231151,166.757334 821.400262,166.757334 Z M838.22683,166.757334 C837.39594,166.757334 836.722371,166.085761 836.722371,165.257334 C836.722371,164.428907 837.39594,163.757334 838.22683,163.757334 C839.057719,163.757334 839.731289,164.428907 839.731289,165.257334 C839.731289,166.085761 839.057719,166.757334 838.22683,166.757334 Z M855.053398,166.757334 C854.222508,166.757334 853.548939,166.085761 853.548939,165.257334 C853.548939,164.428907 854.222508,163.757334 855.053398,163.757334 C855.884288,163.757334 856.557857,164.428907 856.557857,165.257334 C856.557857,166.085761 855.884288,166.757334 855.053398,166.757334 Z M871.879966,166.757334 C871.049077,166.757334 870.375508,166.085761 870.375508,165.257334 C870.375508,164.428907 871.049077,163.757334 871.879966,163.757334 C872.710856,163.757334 873.384425,164.428907 873.384425,165.257334 C873.384425,166.085761 872.710856,166.757334 871.879966,166.757334 Z M888.706535,166.757334 C887.875645,166.757334 887.202076,166.085761 887.202076,165.257334 C887.202076,164.428907 887.875645,163.757334 888.706535,163.757334 C889.537424,163.757334 890.210993,164.428907 890.210993,165.257334 C890.210993,166.085761 889.537424,166.757334 888.706535,166.757334 Z M905.533103,166.757334 C904.702213,166.757334 904.028644,166.085761 904.028644,165.257334 C904.028644,164.428907 904.702213,163.757334 905.533103,163.757334 C906.363993,163.757334 907.037562,164.428907 907.037562,165.257334 C907.037562,166.085761 906.363993,166.757334 905.533103,166.757334 Z M922.359671,166.757334 C921.528781,166.757334 920.855212,166.085761 920.855212,165.257334 C920.855212,164.428907 921.528781,163.757334 922.359671,163.757334 C923.190561,163.757334 923.86413,164.428907 923.86413,165.257334 C923.86413,166.085761 923.190561,166.757334 922.359671,166.757334 Z" id="Oval-cover" transform="translate(855.053398, 198.810732) rotate(-270.000000) translate(-855.053398, -198.810732) "></path>
            </g>
        </g>
    </g>
</svg>