<?xml version="1.0" encoding="UTF-8"?>
<svg width="70px" height="138px" viewBox="0 0 70 138" version="1.1" xmlns="http://www.w3.org/2000/svg" xmlns:xlink="http://www.w3.org/1999/xlink">
    <!-- Generator: sketchtool 51.3 (57544) - http://www.bohemiancoding.com/sketch -->
    <title>74BB80D7-9A18-4537-B52A-B9DE5CF0001A</title>
    <desc>Created with sketchtool.</desc>
    <defs></defs>
    <g id="Symbols" stroke="none" stroke-width="1" fill="none" fill-rule="evenodd">
        <g id="UI-Kit" transform="translate(-971.000000, -2399.000000)" fill="#52C2D6" fill-rule="nonzero">
            <g id="patterns" transform="translate(250.000000, 2241.000000)">
                <path d="M688.508597,262 C687.675422,262 687,261.32945 687,260.502285 C687,259.67512 687.675422,259.00457 688.508597,259.00457 C689.341772,259.00457 690.017194,259.67512 690.017194,260.502285 C690.017194,261.32945 689.341772,262 688.508597,262 Z M705.381448,262 C704.548273,262 703.872851,261.32945 703.872851,260.502285 C703.872851,259.67512 704.548273,259.00457 705.381448,259.00457 C706.214623,259.00457 706.890045,259.67512 706.890045,260.502285 C706.890045,261.32945 706.214623,262 705.381448,262 Z M722.254298,262 C721.421123,262 720.745702,261.32945 720.745702,260.502285 C720.745702,259.67512 721.421123,259.00457 722.254298,259.00457 C723.087474,259.00457 723.762895,259.67512 723.762895,260.502285 C723.762895,261.32945 723.087474,262 722.254298,262 Z M739.127149,262 C738.293974,262 737.618552,261.32945 737.618552,260.502285 C737.618552,259.67512 738.293974,259.00457 739.127149,259.00457 C739.960324,259.00457 740.635746,259.67512 740.635746,260.502285 C740.635746,261.32945 739.960324,262 739.127149,262 Z M756,262 C755.166825,262 754.491403,261.32945 754.491403,260.502285 C754.491403,259.67512 755.166825,259.00457 756,259.00457 C756.833175,259.00457 757.508597,259.67512 757.508597,260.502285 C757.508597,261.32945 756.833175,262 756,262 Z M772.872851,262 C772.039676,262 771.364254,261.32945 771.364254,260.502285 C771.364254,259.67512 772.039676,259.00457 772.872851,259.00457 C773.706026,259.00457 774.381448,259.67512 774.381448,260.502285 C774.381448,261.32945 773.706026,262 772.872851,262 Z M789.745702,262 C788.912526,262 788.237105,261.32945 788.237105,260.502285 C788.237105,259.67512 788.912526,259.00457 789.745702,259.00457 C790.578877,259.00457 791.254298,259.67512 791.254298,260.502285 C791.254298,261.32945 790.578877,262 789.745702,262 Z M806.618552,262 C805.785377,262 805.109955,261.32945 805.109955,260.502285 C805.109955,259.67512 805.785377,259.00457 806.618552,259.00457 C807.451727,259.00457 808.127149,259.67512 808.127149,260.502285 C808.127149,261.32945 807.451727,262 806.618552,262 Z M823.491403,262 C822.658228,262 821.982806,261.32945 821.982806,260.502285 C821.982806,259.67512 822.658228,259.00457 823.491403,259.00457 C824.324578,259.00457 825,259.67512 825,260.502285 C825,261.32945 824.324578,262 823.491403,262 Z M688.508597,245.248857 C687.675422,245.248857 687,244.578308 687,243.751143 C687,242.923977 687.675422,242.253428 688.508597,242.253428 C689.341772,242.253428 690.017194,242.923977 690.017194,243.751143 C690.017194,244.578308 689.341772,245.248857 688.508597,245.248857 Z M705.381448,245.248857 C704.548273,245.248857 703.872851,244.578308 703.872851,243.751143 C703.872851,242.923977 704.548273,242.253428 705.381448,242.253428 C706.214623,242.253428 706.890045,242.923977 706.890045,243.751143 C706.890045,244.578308 706.214623,245.248857 705.381448,245.248857 Z M722.254298,245.248857 C721.421123,245.248857 720.745702,244.578308 720.745702,243.751143 C720.745702,242.923977 721.421123,242.253428 722.254298,242.253428 C723.087474,242.253428 723.762895,242.923977 723.762895,243.751143 C723.762895,244.578308 723.087474,245.248857 722.254298,245.248857 Z M739.127149,245.248857 C738.293974,245.248857 737.618552,244.578308 737.618552,243.751143 C737.618552,242.923977 738.293974,242.253428 739.127149,242.253428 C739.960324,242.253428 740.635746,242.923977 740.635746,243.751143 C740.635746,244.578308 739.960324,245.248857 739.127149,245.248857 Z M756,245.248857 C755.166825,245.248857 754.491403,244.578308 754.491403,243.751143 C754.491403,242.923977 755.166825,242.253428 756,242.253428 C756.833175,242.253428 757.508597,242.923977 757.508597,243.751143 C757.508597,244.578308 756.833175,245.248857 756,245.248857 Z M772.872851,245.248857 C772.039676,245.248857 771.364254,244.578308 771.364254,243.751143 C771.364254,242.923977 772.039676,242.253428 772.872851,242.253428 C773.706026,242.253428 774.381448,242.923977 774.381448,243.751143 C774.381448,244.578308 773.706026,245.248857 772.872851,245.248857 Z M789.745702,245.248857 C788.912526,245.248857 788.237105,244.578308 788.237105,243.751143 C788.237105,242.923977 788.912526,242.253428 789.745702,242.253428 C790.578877,242.253428 791.254298,242.923977 791.254298,243.751143 C791.254298,244.578308 790.578877,245.248857 789.745702,245.248857 Z M806.618552,245.248857 C805.785377,245.248857 805.109955,244.578308 805.109955,243.751143 C805.109955,242.923977 805.785377,242.253428 806.618552,242.253428 C807.451727,242.253428 808.127149,242.923977 808.127149,243.751143 C808.127149,244.578308 807.451727,245.248857 806.618552,245.248857 Z M823.491403,245.248857 C822.658228,245.248857 821.982806,244.578308 821.982806,243.751143 C821.982806,242.923977 822.658228,242.253428 823.491403,242.253428 C824.324578,242.253428 825,242.923977 825,243.751143 C825,244.578308 824.324578,245.248857 823.491403,245.248857 Z M688.508597,228.497715 C687.675422,228.497715 687,227.827165 687,227 C687,226.172835 687.675422,225.502285 688.508597,225.502285 C689.341772,225.502285 690.017194,226.172835 690.017194,227 C690.017194,227.827165 689.341772,228.497715 688.508597,228.497715 Z M705.381448,228.497715 C704.548273,228.497715 703.872851,227.827165 703.872851,227 C703.872851,226.172835 704.548273,225.502285 705.381448,225.502285 C706.214623,225.502285 706.890045,226.172835 706.890045,227 C706.890045,227.827165 706.214623,228.497715 705.381448,228.497715 Z M722.254298,228.497715 C721.421123,228.497715 720.745702,227.827165 720.745702,227 C720.745702,226.172835 721.421123,225.502285 722.254298,225.502285 C723.087474,225.502285 723.762895,226.172835 723.762895,227 C723.762895,227.827165 723.087474,228.497715 722.254298,228.497715 Z M739.127149,228.497715 C738.293974,228.497715 737.618552,227.827165 737.618552,227 C737.618552,226.172835 738.293974,225.502285 739.127149,225.502285 C739.960324,225.502285 740.635746,226.172835 740.635746,227 C740.635746,227.827165 739.960324,228.497715 739.127149,228.497715 Z M756,228.497715 C755.166825,228.497715 754.491403,227.827165 754.491403,227 C754.491403,226.172835 755.166825,225.502285 756,225.502285 C756.833175,225.502285 757.508597,226.172835 757.508597,227 C757.508597,227.827165 756.833175,228.497715 756,228.497715 Z M772.872851,228.497715 C772.039676,228.497715 771.364254,227.827165 771.364254,227 C771.364254,226.172835 772.039676,225.502285 772.872851,225.502285 C773.706026,225.502285 774.381448,226.172835 774.381448,227 C774.381448,227.827165 773.706026,228.497715 772.872851,228.497715 Z M789.745702,228.497715 C788.912526,228.497715 788.237105,227.827165 788.237105,227 C788.237105,226.172835 788.912526,225.502285 789.745702,225.502285 C790.578877,225.502285 791.254298,226.172835 791.254298,227 C791.254298,227.827165 790.578877,228.497715 789.745702,228.497715 Z M806.618552,228.497715 C805.785377,228.497715 805.109955,227.827165 805.109955,227 C805.109955,226.172835 805.785377,225.502285 806.618552,225.502285 C807.451727,225.502285 808.127149,226.172835 808.127149,227 C808.127149,227.827165 807.451727,228.497715 806.618552,228.497715 Z M823.491403,228.497715 C822.658228,228.497715 821.982806,227.827165 821.982806,227 C821.982806,226.172835 822.658228,225.502285 823.491403,225.502285 C824.324578,225.502285 825,226.172835 825,227 C825,227.827165 824.324578,228.497715 823.491403,228.497715 Z M688.508597,211.746572 C687.675422,211.746572 687,211.076023 687,210.248857 C687,209.421692 687.675422,208.751143 688.508597,208.751143 C689.341772,208.751143 690.017194,209.421692 690.017194,210.248857 C690.017194,211.076023 689.341772,211.746572 688.508597,211.746572 Z M705.381448,211.746572 C704.548273,211.746572 703.872851,211.076023 703.872851,210.248857 C703.872851,209.421692 704.548273,208.751143 705.381448,208.751143 C706.214623,208.751143 706.890045,209.421692 706.890045,210.248857 C706.890045,211.076023 706.214623,211.746572 705.381448,211.746572 Z M722.254298,211.746572 C721.421123,211.746572 720.745702,211.076023 720.745702,210.248857 C720.745702,209.421692 721.421123,208.751143 722.254298,208.751143 C723.087474,208.751143 723.762895,209.421692 723.762895,210.248857 C723.762895,211.076023 723.087474,211.746572 722.254298,211.746572 Z M739.127149,211.746572 C738.293974,211.746572 737.618552,211.076023 737.618552,210.248857 C737.618552,209.421692 738.293974,208.751143 739.127149,208.751143 C739.960324,208.751143 740.635746,209.421692 740.635746,210.248857 C740.635746,211.076023 739.960324,211.746572 739.127149,211.746572 Z M756,211.746572 C755.166825,211.746572 754.491403,211.076023 754.491403,210.248857 C754.491403,209.421692 755.166825,208.751143 756,208.751143 C756.833175,208.751143 757.508597,209.421692 757.508597,210.248857 C757.508597,211.076023 756.833175,211.746572 756,211.746572 Z M772.872851,211.746572 C772.039676,211.746572 771.364254,211.076023 771.364254,210.248857 C771.364254,209.421692 772.039676,208.751143 772.872851,208.751143 C773.706026,208.751143 774.381448,209.421692 774.381448,210.248857 C774.381448,211.076023 773.706026,211.746572 772.872851,211.746572 Z M789.745702,211.746572 C788.912526,211.746572 788.237105,211.076023 788.237105,210.248857 C788.237105,209.421692 788.912526,208.751143 789.745702,208.751143 C790.578877,208.751143 791.254298,209.421692 791.254298,210.248857 C791.254298,211.076023 790.578877,211.746572 789.745702,211.746572 Z M806.618552,211.746572 C805.785377,211.746572 805.109955,211.076023 805.109955,210.248857 C805.109955,209.421692 805.785377,208.751143 806.618552,208.751143 C807.451727,208.751143 808.127149,209.421692 808.127149,210.248857 C808.127149,211.076023 807.451727,211.746572 806.618552,211.746572 Z M823.491403,211.746572 C822.658228,211.746572 821.982806,211.076023 821.982806,210.248857 C821.982806,209.421692 822.658228,208.751143 823.491403,208.751143 C824.324578,208.751143 825,209.421692 825,210.248857 C825,211.076023 824.324578,211.746572 823.491403,211.746572 Z M688.508597,194.99543 C687.675422,194.99543 687,194.32488 687,193.497715 C687,192.67055 687.675422,192 688.508597,192 C689.341772,192 690.017194,192.67055 690.017194,193.497715 C690.017194,194.32488 689.341772,194.99543 688.508597,194.99543 Z M705.381448,194.99543 C704.548273,194.99543 703.872851,194.32488 703.872851,193.497715 C703.872851,192.67055 704.548273,192 705.381448,192 C706.214623,192 706.890045,192.67055 706.890045,193.497715 C706.890045,194.32488 706.214623,194.99543 705.381448,194.99543 Z M722.254298,194.99543 C721.421123,194.99543 720.745702,194.32488 720.745702,193.497715 C720.745702,192.67055 721.421123,192 722.254298,192 C723.087474,192 723.762895,192.67055 723.762895,193.497715 C723.762895,194.32488 723.087474,194.99543 722.254298,194.99543 Z M739.127149,194.99543 C738.293974,194.99543 737.618552,194.32488 737.618552,193.497715 C737.618552,192.67055 738.293974,192 739.127149,192 C739.960324,192 740.635746,192.67055 740.635746,193.497715 C740.635746,194.32488 739.960324,194.99543 739.127149,194.99543 Z M756,194.99543 C755.166825,194.99543 754.491403,194.32488 754.491403,193.497715 C754.491403,192.67055 755.166825,192 756,192 C756.833175,192 757.508597,192.67055 757.508597,193.497715 C757.508597,194.32488 756.833175,194.99543 756,194.99543 Z M772.872851,194.99543 C772.039676,194.99543 771.364254,194.32488 771.364254,193.497715 C771.364254,192.67055 772.039676,192 772.872851,192 C773.706026,192 774.381448,192.67055 774.381448,193.497715 C774.381448,194.32488 773.706026,194.99543 772.872851,194.99543 Z M789.745702,194.99543 C788.912526,194.99543 788.237105,194.32488 788.237105,193.497715 C788.237105,192.67055 788.912526,192 789.745702,192 C790.578877,192 791.254298,192.67055 791.254298,193.497715 C791.254298,194.32488 790.578877,194.99543 789.745702,194.99543 Z M806.618552,194.99543 C805.785377,194.99543 805.109955,194.32488 805.109955,193.497715 C805.109955,192.67055 805.785377,192 806.618552,192 C807.451727,192 808.127149,192.67055 808.127149,193.497715 C808.127149,194.32488 807.451727,194.99543 806.618552,194.99543 Z M823.491403,194.99543 C822.658228,194.99543 821.982806,194.32488 821.982806,193.497715 C821.982806,192.67055 822.658228,192 823.491403,192 C824.324578,192 825,192.67055 825,193.497715 C825,194.32488 824.324578,194.99543 823.491403,194.99543 Z" id="points3" transform="translate(756.000000, 227.000000) rotate(-270.000000) translate(-756.000000, -227.000000) "></path>
            </g>
        </g>
    </g>
</svg>