<?xml version="1.0" encoding="UTF-8"?>
<svg width="40px" height="26px" viewBox="0 0 40 26" version="1.1" xmlns="http://www.w3.org/2000/svg" xmlns:xlink="http://www.w3.org/1999/xlink">
    <!-- Generator: sketchtool 51.3 (57544) - http://www.bohemiancoding.com/sketch -->
    <title>6F0AD3C5-3B2E-4AD9-AA25-AE67448B738A</title>
    <desc>Created with sketchtool.</desc>
    <defs></defs>
    <g id="Design" stroke="none" stroke-width="1" fill="none" fill-rule="evenodd">
        <g id="4a-Techniciens" transform="translate(-649.000000, -928.000000)">
            <g id="Section-1" transform="translate(344.000000, 747.000000)">
                <g id="2" transform="translate(305.000000, 181.000000)">
                    <g id="picto2-section1">
                        <circle id="Oval-2" fill="#0081C5" fill-rule="nonzero" cx="10" cy="16" r="10"></circle>
                        <g id="Group" transform="translate(13.000000, 0.000000)" stroke="#171A3B" stroke-linecap="round" stroke-linejoin="round" stroke-width="1.5">
                            <g id="settings-user">
                                <path d="M10.5,11.25 C7.60050506,11.25 5.25,8.89949494 5.25,6 C5.25,3.10050506 7.60050506,0.75 10.5,0.75 L10.5,11.25 Z" id="Shape"></path>
                                <path d="M10.5,23.25 L0.75,23.25 C0.75,17.8652237 5.11522369,13.5 10.5,13.5 L10.5,23.25 Z" id="Shape"></path>
                                <path d="M15.621,3.879 L17.25,2.25" id="Shape"></path>
                                <path d="M15.621,8.121 L17.25,9.75" id="Shape"></path>
                                <path d="M13.5,3 C15.1568542,3 16.5,4.34314575 16.5,6 C16.5,7.65685425 15.1568542,9 13.5,9" id="Shape"></path>
                                <path d="M13.5,3 L13.5,0.75" id="Shape"></path>
                                <path d="M13.5,9 L13.5,11.25" id="Shape"></path>
                                <path d="M16.5,6 L18.75,6" id="Shape"></path>
                                <path d="M23.25,23.25 L23.25,21.75 L20.85,21.75 C20.658393,20.8092756 20.2872933,19.9142904 19.757,19.114 L21.457,17.414 L19.334,15.3 L17.634,17 C16.834763,16.4676296 15.9404781,16.0941621 15,15.9 L15,13.5 L13.5,13.5" id="Shape"></path>
                                <path d="M13.5,19.5 C15.5710678,19.5 17.25,21.1789322 17.25,23.25" id="Shape"></path>
                            </g>
                        </g>
                        <circle id="Oval-2-Copy" fill="#0081C5" fill-rule="nonzero" cx="37" cy="6" r="3"></circle>
                    </g>
                </g>
            </g>
        </g>
    </g>
</svg>