<?xml version="1.0" encoding="UTF-8"?>
<svg width="36px" height="34px" viewBox="0 0 36 34" version="1.1" xmlns="http://www.w3.org/2000/svg" xmlns:xlink="http://www.w3.org/1999/xlink">
    <!-- Generator: sketchtool 51.3 (57544) - http://www.bohemiancoding.com/sketch -->
    <title>8A034F50-7027-4A4B-845E-3260D5A329D6</title>
    <desc>Created with sketchtool.</desc>
    <defs></defs>
    <g id="Design" stroke="none" stroke-width="1" fill="none" fill-rule="evenodd">
        <g id="4a-Techniciens" transform="translate(-954.000000, -922.000000)">
            <g id="Section-1" transform="translate(344.000000, 747.000000)">
                <g id="3" transform="translate(610.000000, 175.000000)">
                    <g id="picto3-section1">
                        <circle id="Oval-2" fill="#52C2D6" fill-rule="nonzero" cx="26" cy="24" r="10"></circle>
                        <g id="Group" transform="translate(6.000000, 0.000000)" stroke="#171A3B" stroke-linecap="round" stroke-linejoin="round" stroke-width="1.5">
                            <g id="presentation">
                                <circle id="Oval" cx="20" cy="18.375" r="2.625"></circle>
                                <path d="M23.249,23.25 C22.4379043,22.2976681 21.2499245,21.7490067 19.999,21.7490067 C18.7480755,21.7490067 17.5600957,22.2976681 16.749,23.25" id="Shape"></path>
                                <circle id="Oval" cx="3.998" cy="18.375" r="2.625"></circle>
                                <path d="M7.247,23.25 C6.43590432,22.2976681 5.24792453,21.7490067 3.997,21.7490067 C2.74607547,21.7490067 1.55809568,22.2976681 0.747,23.25" id="Shape"></path>
                                <circle id="Oval" cx="12.203" cy="3.375" r="2.625"></circle>
                                <path d="M15.452,8.25 C14.6409043,7.29766814 13.4529245,6.74900668 12.202,6.74900668 C10.9510755,6.74900668 9.76309568,7.29766814 8.952,8.25" id="Shape"></path>
                                <path d="M5.775,16.443 L6.608,12.043 C6.67288665,11.5961826 7.04779956,11.2595604 7.499,11.243 L16.499,11.243 C16.9502004,11.2595604 17.3251134,11.5961826 17.39,12.043 L18.223,16.443" id="Shape"></path>
                            </g>
                        </g>
                        <circle id="Oval-2-Copy-2" fill="#52C2D6" fill-rule="nonzero" cx="3.5" cy="8.5" r="3.5"></circle>
                    </g>
                </g>
            </g>
        </g>
    </g>
</svg>