<?xml version="1.0" encoding="UTF-8"?>
<svg width="269px" height="305px" viewBox="0 0 269 305" version="1.1" xmlns="http://www.w3.org/2000/svg" xmlns:xlink="http://www.w3.org/1999/xlink">
    <!-- Generator: Sketch 51.3 (57544) - http://www.bohemiancoding.com/sketch -->
    <title>Illustration</title>
    <desc>Created with Sketch.</desc>
    <defs>
        <radialGradient cx="11.1758462%" cy="50%" fx="11.1758462%" fy="50%" r="126.011449%" gradientTransform="translate(0.111758,0.500000),scale(0.499798,1.000000),rotate(3.529151),translate(-0.111758,-0.500000)" id="radialGradient-1">
            <stop stop-color="#DEEBF3" offset="0%"></stop>
            <stop stop-color="#FFFFFF" offset="100%"></stop>
        </radialGradient>
        <path d="M16.5949023,57.1720231 L105.089722,12.9424568 C120.069096,5.45579067 137.698556,5.45579067 152.677929,12.9424568 L241.172749,57.1720231 C245.554889,59.3622099 247.331819,64.6901339 245.141632,69.0722745 C244.283139,70.7899544 242.890429,72.1826645 241.172749,73.0411581 L152.677929,117.270724 C137.698556,124.757391 120.069096,124.757391 105.089722,117.270724 L16.5949023,73.0411581 C12.2127617,70.8509714 10.435832,65.5230474 12.6260187,61.1409068 C13.4845123,59.4232269 14.8772225,58.0305167 16.5949023,57.1720231 Z" id="path-2"></path>
        <filter x="-10.1%" y="-14.8%" width="120.3%" height="159.3%" filterUnits="objectBoundingBox" id="filter-3">
            <feOffset dx="0" dy="31" in="SourceAlpha" result="shadowOffsetOuter1"></feOffset>
            <feGaussianBlur stdDeviation="3.5" in="shadowOffsetOuter1" result="shadowBlurOuter1"></feGaussianBlur>
            <feColorMatrix values="0 0 0 0 0   0 0 0 0 0   0 0 0 0 0  0 0 0 0.2 0" type="matrix" in="shadowBlurOuter1"></feColorMatrix>
        </filter>
    </defs>
    <g id="Design" stroke="none" stroke-width="1" fill="none" fill-rule="evenodd">
        <g id="3a-Tertiaire" transform="translate(-1056.000000, -2526.000000)">
            <g id="Section-3" transform="translate(118.000000, 2252.000000)">
                <g id="Illustration" transform="translate(1039.000000, 399.000000) scale(-1, 1) translate(-1039.000000, -399.000000) translate(866.000000, 250.000000)">
                    <g id="plateforme1" transform="translate(0.000000, 168.313253)" fill-rule="nonzero">
                        <g id="Rectangle-18_Top_Isometric">
                            <use fill="black" fill-opacity="1" filter="url(#filter-3)" xlink:href="#path-2"></use>
                            <use fill="url(#radialGradient-1)" xlink:href="#path-2"></use>
                        </g>
                        <path d="M75.0974641,102.449949 C91.9072296,93.0326429 133.769766,71.2994937 200.685072,37.250502 C192.560732,31.2825724 180.757446,26.8258023 167.030377,24.8237077 L156.951597,30.6152075 C96.847967,60.8749227 59.9650793,79.8045055 46.3029343,87.4039557 C48.8079823,89.1065312 71.937571,101.040553 75.0974641,102.449949 Z" id="Shape" fill="#0081C5" opacity="0.2"></path>
                    </g>
                    <g id="dashboard" transform="translate(110.385862, 0.049048)">
                        <path d="M70.7569345,131.233024 L157.778714,181.742852 C159.457117,182.717043 161.60747,182.146167 162.581661,180.467764 C162.892674,179.931929 163.056484,179.323389 163.056484,178.703834 L163.056484,83.5294214 C163.056484,78.9736381 160.626382,74.7638058 156.681321,72.4852864 L74.2782681,24.8923775 C72.5977786,23.9217899 70.4486559,24.4972791 69.4780682,26.1777686 C69.1694845,26.712055 69.0070233,27.3181756 69.0070233,27.935173 L69.0070233,128.194006 C69.0070233,129.446488 69.6737001,130.604285 70.7569345,131.233024 Z" id="Shape" fill-opacity="0.1" fill="#0081C5" fill-rule="nonzero"></path>
                        <path d="M73.6278532,82.684663 C73.6278532,82.684663 80.630641,65.8440378 88.7191976,69.6331785 C101.487502,75.6368613 92.4478454,128.028046 104.47547,137.248289 C115.097487,145.382311 118.54838,112.383106 127.529119,108.492921 C136.509858,104.602737 139.186404,129.038484 156.575538,92.6122116" id="Shape" stroke="#0081C5" stroke-width="0.878460111"></path>
                        <ellipse id="Oval" fill="#0081C5" fill-rule="nonzero" cx="156.836459" cy="91.5344115" rx="2.73546399" ry="2.7366016"></ellipse>
                        <ellipse id="Oval" fill="#0081C5" fill-rule="nonzero" cx="72.693587" cy="82.684663" rx="2.73546399" ry="2.7366016"></ellipse>
                        <path d="M73.6278532,99.6936945 C73.6278532,99.6936945 77.9961788,111.760002 87.2462554,103.802807 C96.4963321,95.8456116 103.625372,99.1800554 108.498706,115.094446 C113.372041,131.008837 120.400079,136.802012 127.478618,133.307582 C132.04053,131.059359 135.584008,122.19277 135.584008,122.19277" id="Shape" stroke="#F1653C" stroke-width="0.878460111"></path>
                        <ellipse id="Oval" fill="#F1653C" fill-rule="nonzero" cx="135.971182" cy="121.409681" rx="2.51662687" ry="2.51767347"></ellipse>
                        <path d="M78.3244344,130.377314 L78.3244344,40.6841437" id="Shape" stroke="#272C6C" stroke-width="0.878460111" opacity="0.2"></path>
                        <path d="M92.9696878,137.702986 L92.9696878,48.0098157" id="Shape" stroke="#272C6C" stroke-width="0.878460111" opacity="0.2"></path>
                        <path d="M107.614941,145.028658 L107.614941,55.3354877" id="Shape" stroke="#272C6C" stroke-width="0.878460111" opacity="0.2"></path>
                        <path d="M122.260194,153.819464 L122.260194,64.126294" id="Shape" stroke="#272C6C" stroke-width="0.878460111" opacity="0.2"></path>
                        <path d="M136.905448,164.075405 L136.905448,74.3822348" id="Shape" stroke="#272C6C" stroke-width="0.878460111" opacity="0.2"></path>
                        <path d="M151.550701,174.331345 L151.550701,84.6381755" id="Shape" stroke="#272C6C" stroke-width="0.878460111" opacity="0.2"></path>
                    </g>
                    <g id="femmeDevant" transform="translate(144.637159, 107.694202)">
                        <path d="M30.4816032,78.8027519 C33.4774361,77.1923966 36.6882164,76.0196399 40.0162057,75.3201812 C44.8294938,74.4610448 48.0639008,75.6730408 50.309591,77.6751354 C52.5552811,79.6772301 51.5359064,93.1242489 51.5359064,93.1242489 C51.5359064,93.1242489 47.3664339,97.0210461 40.9282778,93.6305257 L30.4816032,78.8027519 Z" id="Shape" fill="#D4D4D8" fill-rule="nonzero"></path>
                        <path d="M42.6987708,80.8815552 C45.695292,79.2727372 48.9058468,78.1000628 52.2333733,77.3989844 C57.0543259,76.539848 60.2887329,77.751844 62.534423,79.7539387 C64.2222217,81.2586576 64.0613831,94.7743696 63.877305,101.396857 C61.5412603,100.430907 57.0744773,98.2943241 52.9263049,95.9674913 L42.6987708,80.8815552 Z" id="Shape" fill="#FFB1B1" fill-rule="nonzero"></path>
                        <path d="M42.8520602,76.7392904 C49.6058958,77.8569659 55.1809291,82.6357496 57.3225824,89.1430722 C57.3225824,89.1430722 53.8582413,98.1716752 41.8940013,105.021754 L34.4901218,89.4345649 L42.8520602,76.7392904 Z" id="Shape" fill="#16193E" fill-rule="nonzero"></path>
                        <path d="M68.0758359,52.8368885 L62.534423,49.4617098 C62.534423,49.4617098 61.6683377,48.9170787 60.4113644,50.7810978 C59.7982067,51.6862594 54.1724846,60.1472187 52.6319258,61.4742776 C51.0913671,62.8013365 36.1303187,59.1730194 36.1303187,59.1730194 C34.0072601,57.324342 29.3166035,62.3180723 26.4270978,60.8912922 C15.344272,55.3912851 7.70279386,46.6234913 5.11220249,51.1186157 C4.77492006,51.7153526 4.58075988,52.3823498 4.5450316,53.0670143 C3.0121373,59.2037029 -0.352565689,78.6953599 13.0909173,99.2686083 C14.0069268,100.693098 15.0510815,102.030833 16.2103572,103.265127 C16.6561418,103.765518 17.1432834,104.227405 17.6666068,104.645882 C18.482015,105.333032 19.3870615,105.905932 20.3568363,106.348813 C23.3756963,107.800024 26.6882498,108.535011 30.0370638,108.496654 C38.9125218,108.496654 46.132454,103.725378 46.132454,97.8341573 C46.132454,94.2058402 43.4039021,91.0070913 39.2344296,89.0817053 C40.802147,85.0832482 42.0202566,80.9561892 42.8750536,76.7469613 C47.6500194,76.5858732 52.9461692,75.8187871 57.2459377,73.678617 C57.2459377,73.678617 61.9136008,72.4205958 68.9189278,55.0077421 C68.8959344,54.9847295 69.4401118,53.8647838 68.0758359,52.8368885 Z" id="Shape" fill="#262B67" fill-rule="nonzero"></path>
                        <path d="M6.37684029,49.7378608 C12.821822,44.675502 19.8965622,40.4725015 27.4234791,37.2343578 C27.4234791,37.2343578 31.9531817,32.1792606 36.1303187,22.3068629 C36.2676663,21.9300424 36.6718908,21.7227465 37.0577197,21.8312695 C37.8241669,21.9616742 42.8673891,23.6646052 42.8673891,23.6646052 C43.1531725,23.7397125 43.389912,23.9397304 43.5118431,24.2090952 C43.6337742,24.4784601 43.6279086,24.7884792 43.4958758,25.053031 C43.1203167,26.1959893 41.2808435,36.2678294 37.9851208,42.343151 C37.9851208,42.343151 36.4522265,46.6771873 23.2540066,52.1311693 L6.28486664,52.1311693 L5.11220249,51.1109448 L6.37684029,49.7378608 Z" id="Shape" fill="#1F2356" fill-rule="nonzero"></path>
                        <path d="M36.0230161,23.4421503 L38.1000879,17.3054617 C38.2166069,16.4682761 38.1697546,15.6164181 37.9621274,14.7970903 C37.6172262,13.4163354 36.4292331,10.6778381 36.18397,9.66528448 C35.9387069,8.65273086 37.8931471,4.44142834 39.2497586,3.11436944 C40.60637,1.78731054 43.3502508,-0.268480126 44.1243625,0.0460251625 C44.8984741,0.360530451 44.8371583,3.2984701 43.9787375,5.7378038 C43.1203167,8.1771375 44.3083098,10.1562196 44.4999216,12.1046182 C44.6915334,14.0530168 43.1969614,15.1115956 42.9210404,15.9400485 C42.6451195,16.7685015 41.7637052,25.3752072 41.7637052,25.3752072 L36.0230161,23.4421503 Z" id="Shape" fill="#FFB1B1" fill-rule="nonzero"></path>
                        <path d="M43.6415008,0.0920503284 C42.5531458,0.360530453 40.4377517,2.00209464 39.2650875,3.1220403 C37.8778182,4.4490992 35.9157135,8.66040173 36.1992989,9.67295534 C36.4828844,10.685509 37.6325551,13.4240062 37.9774563,14.8047611 C38.1850836,15.624089 38.2319358,16.475947 38.1154168,17.3131326 L36.038345,23.4498211 L38.4296601,24.2629324 L38.7898903,23.5572132 C38.7898903,23.5572132 40.9895936,16.3849584 40.9895936,15.3800757 C40.9895936,14.3751929 38.8205482,9.95677718 40.3764359,7.56346865 C41.7330474,5.46165282 43.6108429,2.30892907 43.6415008,0.0920503284 Z" id="Shape" fill="#E29E9E" fill-rule="nonzero"></path>
                        <path d="M33.6240365,27.6304402 C31.9293641,31.0576289 29.8490229,34.2798272 27.4234791,37.2343578 C19.8965622,40.4725015 12.821822,44.675502 6.37684029,49.7378608 L5.11220249,51.1109448 L6.28486664,52.1311693 L23.2540066,52.1311693 C24.2427234,51.7246137 25.1547955,51.3257289 26.0132163,50.934515 C26.6953543,49.9219614 31.3093661,43.0105159 32.543346,40.0035385 C33.8692996,36.7587645 36.9734105,28.4972475 36.9734105,28.4972475 L33.6240365,27.6304402 Z" id="Shape" fill="#1F2356" fill-rule="nonzero"></path>
                        <ellipse id="Oval" fill="#FFB1B1" fill-rule="nonzero" cx="22.9244343" cy="36.0990704" rx="14.2712459" ry="14.2831426"></ellipse>
                        <path d="M44.9674543,23.7719973 C44.9357771,23.7052243 44.8772777,23.6550401 44.8065004,23.6339218 L34.8426875,20.4658563 C34.7725576,20.4443615 34.6967626,20.4516962 34.6320466,20.4862401 C34.5673306,20.5207841 34.5190196,20.5796944 34.4977863,20.649957 L32.543346,26.7866456 C32.5128202,26.8523033 32.5128202,26.928101 32.543346,26.9937588 C32.5750232,27.0605318 32.6335227,27.110716 32.7042999,27.1318343 L42.6681129,30.2998998 C42.7180538,30.3152808 42.7714614,30.3152808 42.8214023,30.2998998 C42.9118148,30.2741137 42.9835822,30.2051596 43.0130141,30.1157991 L44.9674543,23.9791105 C44.9943015,23.9126872 44.9943015,23.8384206 44.9674543,23.7719973 Z" id="Shape" fill="#191D45" fill-rule="nonzero"></path>
                        <path d="M17.084107,49.1318628 L17.084107,55.2685513 C17.1545919,57.6577018 19.1106419,59.5576037 21.4988426,59.5565624 C22.0587702,59.5563869 22.6132925,59.4469533 23.131375,59.2343863 C24.8137635,58.5678719 25.9194612,56.9413845 25.9212426,55.1304758 L25.9212426,49.1011793 L17.084107,49.1318628 Z" id="Shape" fill="#E29E9E" fill-rule="nonzero"></path>
                        <path d="M61.5227128,51.5558547 L65.0330407,46.0711893 C65.3499366,45.2864681 65.5113314,44.4475577 65.508238,43.6011722 C65.508238,42.182063 65.0330407,39.2364525 65.0330407,38.1932154 C65.0330407,37.1499784 67.9608688,33.5446738 69.6317236,32.5934871 C71.3025784,31.6423004 74.4296828,30.2922289 75.0964918,30.8291891 C75.7633008,31.3661494 74.9968537,34.1660135 73.5635975,36.3215254 C72.1303413,38.4770373 72.7971504,40.6862451 72.5135649,42.619302 C72.2299795,44.5523589 70.5284668,45.2197238 70.0532696,45.979139 C69.5780723,46.7385542 66.6809021,54.8543248 66.6809021,54.8543248 L61.5227128,51.5558547 Z" id="Shape" fill="#FFB1B1" fill-rule="nonzero"></path>
                        <path d="M39.2191007,21.8542821 L34.8426875,20.4658563 C34.7725576,20.4443615 34.6967626,20.4516962 34.6320466,20.4862401 C34.5673306,20.5207841 34.5190196,20.5796944 34.4977863,20.649957 L32.543346,26.7866456 C32.5128202,26.8523033 32.5128202,26.928101 32.543346,26.9937588 C32.5750232,27.0605318 32.6335227,27.110716 32.7042999,27.1318343 L36.9580816,28.4819058 L39.2191007,21.8542821 Z" id="Shape" fill="#060711" fill-rule="nonzero"></path>
                        <path d="M57.3225824,98.2244736 L57.3225824,89.1430722 C56.2625962,91.5266755 54.5739694,94.0045446 52.8645464,95.9743184 C54.3368339,96.7558548 55.8397103,97.4223719 57.3225824,98.2244736 Z" id="Shape" fill="#E29E9E" fill-rule="nonzero"></path>
                        <path d="M31.064103,23.1046324 C31.064103,23.1046324 37.8701537,22.8284814 38.7975548,28.7964111 C39.7249558,34.7643407 31.5316358,36.3598797 29.8531165,39.4358948 C29.8531165,39.4358948 29.3855838,36.4135757 27.4234791,37.2727121 C25.4613743,38.1318485 25.9365716,44.0997781 28.8260773,44.7518013 C28.8157846,45.9276681 28.3057069,47.0435216 27.4234791,47.8201456 C25.9289071,49.1548753 18.8469354,48.5872317 18.7549618,51.0802614 C18.7549618,51.0802614 18.2950935,49.4693806 15.7734824,49.1548753 C13.2518712,48.8403701 8.43091866,43.5091219 7.92506354,37.7559763 C7.58016232,33.7287745 7.38088606,31.0899984 11.8569374,25.5899913 C16.3329888,20.0899842 24.7255851,18.9623676 31.064103,23.1046324 Z" id="Shape" fill="#928583" fill-rule="nonzero"></path>
                        <path d="M32.1447935,30.3382541 C30.5122611,28.5739561 29.3166035,29.571168 28.0979525,27.8452243 C26.8793016,26.1192807 24.0357826,26.4414568 24.0357826,26.4414568 L7.84075435,33.5830281 C7.72838791,34.9733035 7.75663437,36.3713835 7.92506354,37.7559763 C8.42325419,43.5091219 13.2901936,48.8173575 15.7734824,49.1318628 C18.2567711,49.4463681 18.7549618,51.0572488 18.7549618,51.0572488 C18.8469354,48.5412065 25.9289071,49.1318628 27.4234791,47.797133 C28.3057069,47.020509 28.8157846,45.9046555 28.8260773,44.7287887 C25.9365716,44.0767656 25.4690388,38.1088359 27.4234791,37.2496995 C29.3779193,36.3905631 29.8531165,39.4128823 29.8531165,39.4128823 C29.8531165,39.4128823 33.7773259,32.1102229 32.1447935,30.3382541 Z" id="Shape" fill="#675755" fill-rule="nonzero"></path>
                        <ellipse id="Oval" fill="#928583" fill-rule="nonzero" cx="14.5548314" cy="27.8452243" rx="10.4006878" ry="10.409358"></ellipse>
                        <path d="M11.0904903,19.1694809 C6.88552257,19.1601712 3.08928541,21.6877196 1.47294874,25.5728747 C-0.143387922,29.4580298 0.738706743,33.9351456 3.70768322,36.9153818 C6.6766597,39.895618 11.147423,40.7916607 15.0340966,39.1854528 C18.9207702,37.5792448 21.4574089,33.787321 21.4605202,29.5788388 C21.4272256,23.8557114 16.8087276,19.2196979 11.0904903,19.1694809 Z" id="Shape" fill="#675755" fill-rule="nonzero"></path>
                        <path d="M74.2763934,32.9616884 C74.7027884,32.4535132 75.0467729,31.8814534 75.2957681,31.2664282 C75.281743,31.1004706 75.2082463,30.9451817 75.0888273,30.8291891 C74.4220183,30.3075706 71.2565916,31.6423004 69.6240592,32.5934871 C69.4880043,32.6714512 69.3574068,32.7585888 69.2331711,32.8542964 C68.2411135,34.5043894 67.3652392,36.221714 66.6119219,37.993773 C65.9221194,39.5279452 66.5352771,44.8975477 66.1520536,46.4317198 C65.76883,47.9658919 62.8563308,52.4456746 62.8563308,52.4456746 L65.8454747,53.2127607 C65.8454747,53.2127607 69.7543552,44.3068914 70.352184,40.8473332 C70.9500127,37.387775 72.1303413,35.7231983 74.2763934,32.9616884 Z" id="Shape" fill="#E29E9E" fill-rule="nonzero"></path>
                        <path d="M61.0015287,56.7336857 C61.0015287,56.7336857 56.617451,63.6374603 55.2378461,64.6423431 C53.8582413,65.6472258 39.0888047,63.3306259 34.9729835,63.1848796 C30.8571623,63.0391332 17.2757188,61.2057975 16.1183836,59.5182081 C14.9610484,57.8306188 14.5854893,51.0802614 14.5854893,51.0802614 L7.58782679,49.1241919 C6.57044564,49.5002896 5.70920077,50.208234 5.14286038,51.1339574 C4.80557795,51.7306943 4.61141777,52.3976915 4.57568949,53.082356 C3.04279519,59.2190446 -0.321907803,78.7107016 13.1215752,99.28395 C14.0375847,100.70844 15.0817394,102.046174 16.2410151,103.280468 C16.6867997,103.78086 17.1739413,104.242747 17.6972647,104.661223 C18.5126728,105.348374 19.4177194,105.921274 20.3874942,106.364154 C23.4063542,107.815366 26.7189077,108.550353 30.0677217,108.511995 C35.8697267,108.511995 40.9589357,106.471546 43.7794612,103.410873 C44.4309413,100.08172 44.0630467,94.4819912 37.0040684,88.9973258 C39.4708923,85.1695463 41.445997,81.0459454 42.8827181,76.7239487 C49.1115872,75.0878462 54.6842609,71.5678666 58.8401478,66.6444377 C60.9226386,64.2453651 62.6659935,61.5713691 64.0213305,58.6974261 L61.0015287,56.7336857 Z" id="Shape" fill="#1F2356" fill-rule="nonzero"></path>
                        <path d="M70.7813944,54.1409348 C70.76905,54.0626836 70.72459,53.993157 70.6587628,53.9491633 L61.3694234,47.8124747 C61.3038545,47.770866 61.2241079,47.7579815 61.1487879,47.7768272 C61.0734678,47.795673 61.0091614,47.8446006 60.9708708,47.9121959 L57.3685692,53.9875176 C57.3260186,54.056184 57.3122479,54.1388769 57.3302469,54.2176434 C57.3424316,54.2980126 57.3903428,54.368529 57.4605429,54.4094149 L66.7498823,60.5461035 C66.7953136,60.5762647 66.8486542,60.5922803 66.9031718,60.5921286 C67.0039044,60.5868858 67.0956149,60.5323873 67.1484349,60.4463823 L70.7507365,54.3710606 C70.7914913,54.3016099 70.8025439,54.2186463 70.7813944,54.1409348 Z" id="Shape" fill="#191D45" fill-rule="nonzero"></path>
                        <path d="M33.501405,58.0454029 C33.501405,58.0454029 22.1579871,61.3822273 18.3640737,58.2678579 C18.3640737,58.2678579 17.084107,57.3857089 17.084107,52.1311693 L17.084107,50.3822131 C17.084107,50.3822131 13.5584501,51.6325633 12.5773977,54.9847295 C11.5963454,58.3368956 14.2635815,61.2364809 16.4096335,62.5712107 C18.5556855,63.9059405 26.8333147,65.5014795 32.543346,64.1667497 C38.2533773,62.83202 36.0230161,58.973577 36.0230161,58.973577 L33.501405,58.0454029 Z" id="Shape" fill="#262B67" fill-rule="nonzero"></path>
                        <path d="M25.9289071,53.6730123 L25.9289071,55.1611593 C25.9288844,57.270148 24.4396049,59.0851144 22.3725923,59.4951956 C22.3725923,59.4951956 26.8486437,60.0935227 33.501405,58.0454029 C31.1028171,56.3801971 28.569908,54.9176852 25.9289071,53.6730123 Z" id="Shape" fill="#262B67" fill-rule="nonzero"></path>
                        <path d="M28.4965051,43.3633755 C29.7688073,43.3633755 30.7958465,45.0586357 30.7958465,47.1988059 C30.7958465,49.338976 29.7688073,50.9958819 28.4965051,50.9958819 C27.2242028,50.9958819 26.1971636,49.3006217 26.1971636,47.1988059 C26.1345543,45.9639818 26.5709887,44.7558751 27.4081501,43.8466397" id="Shape" stroke="#C59700" stroke-width="0.798600084"></path>
                        <path d="M8.02976245,38.9581242 C13.3148948,39.8386243 17.7191718,38.9581242 21.2425934,36.3166236 C21.2425934,36.3166236 18.6000272,41.5996247 11.9936117,41.5996247 C9.35104555,41.5996247 8.02976245,40.7191245 8.02976245,38.9581242 Z" id="Path-35" fill-opacity="0.4" fill="#000000" fill-rule="nonzero"></path>
                    </g>
                </g>
            </g>
        </g>
    </g>
</svg>