<?xml version="1.0" encoding="UTF-8"?>
<svg width="41px" height="32px" viewBox="0 0 41 32" version="1.1" xmlns="http://www.w3.org/2000/svg" xmlns:xlink="http://www.w3.org/1999/xlink">
    <!-- Generator: sketchtool 51.3 (57544) - http://www.bohemiancoding.com/sketch -->
    <title>23EF1061-1D3A-46AC-8545-869E0609DA91</title>
    <desc>Created with sketchtool.</desc>
    <defs></defs>
    <g id="Design" stroke="none" stroke-width="1" fill="none" fill-rule="evenodd">
        <g id="3a-Tertiaire" transform="translate(-264.000000, -2747.000000)">
            <g id="Section-3" transform="translate(118.000000, 2252.000000)">
                <g id="2" transform="translate(144.000000, 487.000000)">
                    <g id="picto3-section3" transform="translate(2.000000, 8.000000)">
                        <circle id="Oval-2" fill="#52C2D6" fill-rule="nonzero" cx="31" cy="10" r="10"></circle>
                        <circle id="Oval-2-Copy-3" fill="#52C2D6" fill-rule="nonzero" cx="3" cy="29" r="3"></circle>
                        <g id="Group" transform="translate(6.000000, 2.000000)" stroke="#171A3B" stroke-linecap="round" stroke-linejoin="round" stroke-width="1.5">
                            <g id="analytics-graph">
                                <polyline id="Shape" points="0.75 0.75 0.75 23.25 23.25 23.25"></polyline>
                                <path d="M15.937,8.578 L20.43,2.962" id="Shape"></path>
                                <path d="M9.621,7.359 L13.629,9.14" id="Shape"></path>
                                <path d="M0.75,11.25 L6.964,7.522" id="Shape"></path>
                                <path d="M15.561,16.521 L20.301,13.888" id="Shape"></path>
                                <path d="M8.25,17.25 L12.75,17.25" id="Shape"></path>
                                <path d="M0.75,20.25 L5.408,17.921" id="Shape"></path>
                                <circle id="Oval" cx="8.25" cy="6.75" r="1.5"></circle>
                                <circle id="Oval" cx="15" cy="9.75" r="1.5"></circle>
                                <circle id="Oval" cx="21.75" cy="2.25" r="1.5"></circle>
                                <circle id="Oval" cx="21.75" cy="13.5" r="1.5"></circle>
                                <circle id="Oval" cx="14.25" cy="17.25" r="1.5"></circle>
                                <circle id="Oval" cx="6.75" cy="17.25" r="1.5"></circle>
                            </g>
                        </g>
                    </g>
                </g>
            </g>
        </g>
    </g>
</svg>