<?xml version="1.0" encoding="UTF-8"?>
<svg width="37px" height="35px" viewBox="0 0 37 35" version="1.1" xmlns="http://www.w3.org/2000/svg" xmlns:xlink="http://www.w3.org/1999/xlink">
    <!-- Generator: sketchtool 51.3 (57544) - http://www.bohemiancoding.com/sketch -->
    <title>60504917-C43F-4F53-AFAA-B331BB08E415</title>
    <desc>Created with sketchtool.</desc>
    <defs></defs>
    <g id="Design" stroke="none" stroke-width="1" fill="none" fill-rule="evenodd">
        <g id="3a-Tertiaire" transform="translate(-648.000000, -2531.000000)">
            <g id="Section-3" transform="translate(118.000000, 2252.000000)">
                <g id="1-copy" transform="translate(529.000000, 271.000000)">
                    <g id="picto2-section3" transform="translate(1.000000, 8.000000)">
                        <circle id="Oval-2" fill="#0081C5" fill-rule="nonzero" cx="27" cy="10" r="10"></circle>
                        <circle id="Oval-2-Copy-3" fill="#0081C5" fill-rule="nonzero" cx="3" cy="32" r="3"></circle>
                        <g id="Group" transform="translate(7.000000, 5.000000)" stroke="#171A3B" stroke-linecap="round" stroke-linejoin="round" stroke-width="1.5">
                            <g id="time-clock-hand-1">
                                <path d="M0.75,14.25 L0.75,23.25" id="Shape"></path>
                                <path d="M0.75,21.75 L15.75,21.75 C15.75,20.0931458 14.4068542,18.75 12.75,18.75 L9,18.75 C9,17.0931458 7.65685425,15.75 6,15.75 L0.75,15.75" id="Shape"></path>
                                <path d="M6,18.75 L9,18.75" id="Shape"></path>
                                <path d="M7.684,12.816 C6.05993906,9.70141483 6.58607004,5.90004204 8.99502573,3.34364864 C11.4039814,0.787255239 15.1674392,0.0364992983 18.3728995,1.47289709 C21.5783599,2.90929487 23.522814,6.21782132 23.2181366,9.71716217 C22.9134592,13.216503 20.426471,16.1391967 17.021,17" id="Shape"></path>
                                <polyline id="Shape" points="14.25 3.75 14.25 9.75 18 9.75"></polyline>
                            </g>
                        </g>
                    </g>
                </g>
            </g>
        </g>
    </g>
</svg>