<?xml version="1.0" encoding="UTF-8"?>
<svg width="36px" height="33px" viewBox="0 0 36 33" version="1.1" xmlns="http://www.w3.org/2000/svg" xmlns:xlink="http://www.w3.org/1999/xlink">
    <!-- Generator: sketchtool 51.3 (57544) - http://www.bohemiancoding.com/sketch -->
    <title>807016FD-CD69-4C2D-8D7E-79392485F1A8</title>
    <desc>Created with sketchtool.</desc>
    <defs></defs>
    <g id="Design" stroke="none" stroke-width="1" fill="none" fill-rule="evenodd">
        <g id="3a-Tertiaire" transform="translate(-269.000000, -2533.000000)">
            <g id="Section-3" transform="translate(118.000000, 2252.000000)">
                <g id="1" transform="translate(144.000000, 271.000000)">
                    <g id="picto1-section3" transform="translate(7.000000, 10.000000)">
                        <circle id="Oval-2" fill="#F1653C" fill-rule="nonzero" cx="26" cy="11" r="10"></circle>
                        <circle id="Oval-2-Copy-3" fill="#F1653C" fill-rule="nonzero" cx="3" cy="30" r="3"></circle>
                        <g id="business-deal-handshake-circle" stroke="#171A3B" stroke-linecap="round" stroke-linejoin="round" stroke-width="1.5">
                            <path d="M18.75,14.004 L13.963,14.961" id="Shape"></path>
                            <path d="M14.438,9.531 L12.178,10.486 C11.8176642,10.634931 11.4119426,10.6291453 11.056,10.47 C10.6951777,10.3088647 10.4139082,10.0099484 10.275,9.64 C9.9945054,8.91927053 10.2979299,8.10268911 10.981,7.74 L13.24,6.613 C13.7339421,6.35696857 14.3133891,6.32279791 14.834,6.519 L19.473,8.347" id="Shape"></path>
                            <path d="M5.2,15 L6.8,15 L9.849,17.326 C10.1454484,17.660995 10.654046,17.7007983 10.999,17.416 L15.259,13.898 C15.6089759,13.6083362 15.6660584,13.0932656 15.388,12.734 L13.041,10.125" id="Shape"></path>
                            <path d="M10.736,7.9 L10.489,7.7 C9.99104679,7.33263682 9.33848077,7.24903271 8.764,7.479 L5.194,9" id="Shape"></path>
                            <path d="M1.39,15.75 L4.05,15.75 C4.67676621,15.7835509 5.21294048,15.3045685 5.25,14.678 L5.25,9.321 C5.21241408,8.69482976 4.6763987,8.21643603 4.05,8.25 L1.39,8.25" id="Shape"></path>
                            <path d="M22.61,15.75 L19.95,15.75 C19.3232338,15.7835509 18.7870595,15.3045685 18.75,14.678 L18.75,9.321 C18.7875859,8.69482976 19.3236013,8.21643603 19.95,8.25 L22.61,8.25" id="Shape"></path>
                            <circle id="Oval" cx="12" cy="12" r="11.25"></circle>
                        </g>
                    </g>
                </g>
            </g>
        </g>
    </g>
</svg>