<?xml version="1.0" encoding="UTF-8"?>
<svg width="225px" height="37px" viewBox="0 0 225 37" version="1.1" xmlns="http://www.w3.org/2000/svg" xmlns:xlink="http://www.w3.org/1999/xlink">
    <!-- Generator: sketchtool 51.3 (57544) - http://www.bohemiancoding.com/sketch -->
    <title>B48E928A-EF31-4154-AFE1-9E673F6A2A85-555-0000C9F62220CC15</title>
    <desc>Created with sketchtool.</desc>
    <defs></defs>
    <g id="Design" stroke="none" stroke-width="1" fill="none" fill-rule="evenodd">
        <g id="1a-Home" transform="translate(-277.000000, -5133.000000)" fill="#272C6C">
            <g id="Section-5-/-Testimonial" transform="translate(120.000000, 4924.000000)">
                <g id="Section-6">
                    <path d="M362,229 L373,229 C372.780735,227.182445 371.397209,225 367.473496,225 C363.769049,225 362.332697,227.131354 362,229 Z M367.76019,218 C376.007603,218 382,223.800957 382,232.857292 L382,234.790854 L362.169965,234.790854 C362.800724,237.162642 365.110928,239.156755 369.140011,239.156755 C371.10342,239.156755 374.336082,238.325852 375.944583,236.890795 L379.808099,242.465002 C377.040534,244.844291 372.428051,246 368.162363,246 C359.575892,246 353,240.64468 353,231.97352 C353,224.238911 359.055417,218 367.76019,218 Z M187.107015,209 L201,209 L201,244 L191.001543,244 L191.001543,220.855746 L181.241401,244 L176.822315,244 L166.998552,220.855746 L166.998552,244 L157,244 L157,209 L170.892985,209 L179.03181,228.312095 L187.107015,209 Z M219,235.824254 C218.116659,234.593505 216.130902,234 214.250843,234 C212.046103,234 210,234.967086 210,237.003725 C210,239.040277 212.046103,240 214.250843,240 C216.130902,240 218.116659,239.362581 219,238.124556 L219,235.824254 Z M219.154493,242.68415 C217.434137,244.670678 214.095501,246 210.536826,246 C206.286926,246 201,243.182657 201,237.215573 C201,230.757483 206.286926,228.597255 210.536826,228.597255 C214.213274,228.597255 217.489123,229.760468 219.154493,231.746996 L219.154493,229.095762 C219.154493,226.776926 217.088524,225.175576 213.521954,225.175576 C210.764572,225.175576 208.007283,226.22555 205.768366,228.045878 L202.492517,222.139255 C206.059087,219.208491 210.827453,218 215.077447,218 C221.739023,218 228,220.371705 228,228.657715 L228,245.335384 L219.154493,245.335384 L219.154493,242.68415 Z M233.587835,235.787956 C235.6041,237.555409 239.920252,239.375732 243.117144,239.375732 C245.693039,239.375732 246.758639,238.658159 246.758639,237.494949 C246.758639,234.186701 231.011939,237.608278 231.011939,226.784489 C231.011939,222.086282 235.159404,218 242.611082,218 C247.210948,218 251.02113,219.435056 253.9344,221.534998 L250.630095,227.554841 C249.004865,226.006455 245.923,224.631769 242.672448,224.631769 C240.648569,224.631769 239.306961,225.402212 239.306961,226.452092 C239.306961,229.375254 255,226.338853 255,237.275971 C255,242.359355 250.4615,246 242.726109,246 C237.850326,246 232.859517,244.398655 230,241.860759 L233.587835,235.787956 Z M274.355694,245 L274.355694,229.8308 C274.355694,226.649412 272.613018,225.623306 269.864619,225.623306 C267.338878,225.623306 265.657652,226.974078 264.644306,228.162517 L264.644306,245 L256,245 L256,209 L264.644306,209 L264.644306,222.117076 C266.271796,220.279041 269.473224,218.286003 274.017942,218.286003 C280.190334,218.286003 283,221.629901 283,226.435324 L283,245 L274.355694,245 Z M302,235.824254 C301.116577,234.593505 299.130841,234 297.250891,234 C295.046083,234 293,234.967086 293,237.003725 C293,239.040277 295.046083,240 297.250891,240 C299.130841,240 301.116577,239.362581 302,238.124556 L302,235.824254 Z M302.154493,245.335384 L302.154493,242.68415 C300.434043,244.670678 297.095407,246 293.536732,246 C289.286832,246 284,243.182657 284,237.215573 C284,230.757483 289.286832,228.597255 293.536732,228.597255 C297.213274,228.597255 300.489029,229.760468 302.154493,231.746996 L302.154493,229.095762 C302.154493,226.776926 300.08843,225.175576 296.521954,225.175576 C293.764572,225.175576 291.007189,226.22555 288.768366,228.045878 L285.492423,222.139255 C289.058993,219.208491 293.827359,218 298.077353,218 C304.739023,218 311,220.371705 311,228.657715 L311,245.335384 L302.154493,245.335384 Z M334,232.477275 C334,228.489525 331.459792,226 328.088014,226 C326.265943,226 324.050837,226.998816 323,228.436561 L323,236.624009 C324.050837,238.061663 326.265943,239 328.088014,239 C331.459792,239 334,236.510475 334,232.477275 Z M314,245.344282 L314,209 L322.756761,209 L322.756761,222.130764 C324.918687,219.515025 327.873959,218.374875 330.891388,218.374875 C337.773933,218.374875 343,223.546701 343,232.161357 C343,241.096471 337.657341,246 330.891388,246 C327.819524,246 325.035372,244.800288 322.756761,242.296273 L322.756761,245.344282 L314,245.344282 Z M344,245 L344,209 L353,209 L353,245 L344,245 Z" id="logo-mashable"></path>
                </g>
            </g>
        </g>
    </g>
</svg>