<?xml version="1.0" encoding="UTF-8"?>
<svg width="224px" height="58px" viewBox="0 0 224 58" version="1.1" xmlns="http://www.w3.org/2000/svg" xmlns:xlink="http://www.w3.org/1999/xlink">
    <!-- Generator: Sketch 52 (66869) - http://www.bohemiancoding.com/sketch -->
    <title>logo-style-2</title>
    <desc>Created with Sketch.</desc>
    <g id="Page-1" stroke="none" stroke-width="1" fill="none" fill-rule="evenodd">
        <g id="logo-style-2">
            <path d="M209.512545,40.6 L212.190143,40.6 L212.190143,30.7082192 C212.190143,27.7684932 213.908602,25.9808219 216.626165,25.9808219 C219.303763,25.9808219 220.582616,27.4109589 220.582616,30.430137 L220.582616,40.6 L223.260215,40.6 L223.260215,29.7547945 C223.260215,25.7821918 221.142115,23.5575342 217.385484,23.5575342 C214.827778,23.5575342 213.189247,24.630137 212.310036,26.4972603 L212.070251,26.4972603 L212.070251,23.8356164 L209.512545,23.8356164 L209.512545,40.6 Z M205.076523,20.4589041 C206.115591,20.4589041 206.954839,19.6246575 206.954839,18.5917808 C206.954839,17.5589041 206.115591,16.7246575 205.076523,16.7246575 C204.037455,16.7246575 203.198208,17.5589041 203.198208,18.5917808 C203.198208,19.6246575 204.077419,20.4589041 205.076523,20.4589041 Z M203.757706,40.6 L206.435305,40.6 L206.435305,23.8356164 L203.757706,23.8356164 L203.757706,40.6 Z M192.847491,40.8780822 C195.085484,40.8780822 196.923835,39.8849315 198.042832,38.0972603 L198.282616,38.0972603 L198.282616,40.560274 L200.840323,40.560274 L200.840323,29.1191781 C200.840323,25.6232877 198.562366,23.5575342 194.446057,23.5575342 C190.849283,23.5575342 188.211649,25.3452055 187.851971,28.0068493 L190.569534,28.0068493 C190.929211,26.6958904 192.367921,25.9410959 194.366129,25.9410959 C196.883871,25.9410959 198.162724,27.0931507 198.162724,29.1191781 L198.162724,30.6287671 L193.327061,30.9068493 C189.410573,31.1452055 187.172581,32.8534247 187.172581,35.8726027 C187.172581,38.9315068 189.57043,40.8780822 192.847491,40.8780822 Z M193.327061,38.5342466 C191.368817,38.5342466 189.930108,37.5410959 189.930108,35.8328767 C189.930108,34.1643836 191.049104,33.290411 193.60681,33.0917808 L198.12276,32.8136986 L198.12276,34.3630137 C198.162724,36.7465753 196.084588,38.5342466 193.327061,38.5342466 Z M179.619355,19.5054795 L179.619355,23.8356164 L176.901792,23.8356164 L176.901792,26.060274 L179.619355,26.060274 L179.619355,36.190411 C179.619355,39.3684932 181.0181,40.6794521 184.455018,40.6794521 C184.974552,40.6794521 185.494086,40.6 186.01362,40.5205479 L186.01362,38.2561644 C185.53405,38.2958904 185.254301,38.3356164 184.774731,38.3356164 C183.016308,38.3356164 182.296953,37.5013699 182.296953,35.5150685 L182.296953,26.060274 L186.053584,26.060274 L186.053584,23.8356164 L182.296953,23.8356164 L182.296953,19.5054795 L179.619355,19.5054795 Z M162.07509,40.6 L164.752688,40.6 L164.752688,30.7082192 C164.752688,27.7684932 166.471147,25.9808219 169.18871,25.9808219 C171.866308,25.9808219 173.145161,27.4109589 173.145161,30.430137 L173.145161,40.6 L175.82276,40.6 L175.82276,29.7547945 C175.82276,25.7821918 173.704659,23.5575342 169.948029,23.5575342 C167.390323,23.5575342 165.751792,24.630137 164.872581,26.4972603 L164.632796,26.4972603 L164.632796,23.8356164 L162.07509,23.8356164 L162.07509,40.6 Z M157.639068,20.4589041 C158.678136,20.4589041 159.517384,19.6246575 159.517384,18.5917808 C159.517384,17.5589041 158.678136,16.7246575 157.639068,16.7246575 C156.6,16.7246575 155.760753,17.5589041 155.760753,18.5917808 C155.800717,19.6246575 156.639964,20.4589041 157.639068,20.4589041 Z M156.320251,40.6 L158.997849,40.6 L158.997849,23.8356164 L156.320251,23.8356164 L156.320251,40.6 Z M145.410036,40.8780822 C147.648029,40.8780822 149.48638,39.8849315 150.605376,38.0972603 L150.845161,38.0972603 L150.845161,40.560274 L153.402867,40.560274 L153.402867,29.1191781 C153.402867,25.6232877 151.12491,23.5575342 147.008602,23.5575342 C143.411828,23.5575342 140.774194,25.3452055 140.414516,28.0068493 L143.132079,28.0068493 C143.491756,26.6958904 144.930466,25.9410959 146.928674,25.9410959 C149.446416,25.9410959 150.725269,27.0931507 150.725269,29.1191781 L150.725269,30.6287671 L145.889606,30.9068493 C141.973118,31.1452055 139.735125,32.8534247 139.735125,35.8726027 C139.735125,38.9315068 142.132975,40.8780822 145.410036,40.8780822 Z M145.889606,38.5342466 C143.931362,38.5342466 142.492652,37.5410959 142.492652,35.8328767 C142.492652,34.1643836 143.611649,33.290411 146.169355,33.0917808 L150.685305,32.8136986 L150.685305,34.3630137 C150.725269,36.7465753 148.687097,38.5342466 145.889606,38.5342466 Z M117.594982,40.6 L117.594982,23.5178082 L117.794803,23.5178082 L124.908423,40.4808219 L127.266308,40.4808219 L134.379928,23.5178082 L134.579749,23.5178082 L134.579749,40.6 L137.217384,40.6 L137.217384,18.1945205 L133.940323,18.1945205 L126.22724,36.7068493 L125.987455,36.7068493 L118.274373,18.1945205 L114.997312,18.1945205 L114.997312,40.6 L117.594982,40.6 Z M107.603943,35.4753425 C107.244265,36.4684932 106.125269,37.0643836 104.526703,37.0643836 C102.408602,37.0643836 101.129749,35.6739726 101.089785,33.409589 L101.089785,33.1315068 L112.799283,33.1315068 L112.799283,31.6219178 C112.799283,26.1 109.682079,22.8821918 104.326882,22.8821918 C98.9317204,22.8821918 95.6946237,26.3383562 95.6946237,32.0191781 C95.6946237,37.7 98.8917563,40.9575342 104.40681,40.9575342 C108.92276,40.9575342 112.079928,38.8123288 112.679391,35.4753425 L107.603943,35.4753425 Z M104.286918,26.8150685 C106.125269,26.8150685 107.284229,28.0068493 107.364158,30.0328767 L101.049821,30.0328767 C101.249642,28.0465753 102.48853,26.8150685 104.286918,26.8150685 Z M80.9078853,26.8547945 L81.1876344,26.8547945 L84.9442652,40.560274 L90.2994624,40.560274 L96.1741935,18.1547945 L90.2594982,18.1547945 L87.3021505,33.0123288 L87.0224014,33.0123288 L83.3057348,18.1547945 L78.7098566,18.1547945 L75.1130824,33.0123288 L74.8333333,33.0123288 L71.8360215,18.1547945 L65.881362,18.1547945 L71.7560932,40.560274 L77.2311828,40.560274 L80.9078853,26.8547945 Z" id="Shape" fill="#FFFFFF" fill-rule="nonzero"></path>
            <g id="Group" transform="translate(0.500000, 0.000000)">
                <g id="Shape" transform="translate(11.189964, 17.082192)">
                    <g id="Group" fill="#0582C6">
                        <path d="M2.03817204,23.2 C1.0390681,23.2 0.199820789,22.3657534 0.199820789,21.3726027 L0.199820789,2.18493151 C0.199820789,1.19178082 1.0390681,0.357534247 2.03817204,0.357534247 C3.03727599,0.357534247 3.8765233,1.19178082 3.8765233,2.18493151 L3.8765233,21.3726027 C3.83655914,22.3657534 3.03727599,23.2 2.03817204,23.2 Z" id="Path"></path>
                        <path d="M0.719354839,22.6438356 C8.57647287e-15,21.9287671 8.57647287e-15,20.7767123 0.719354839,20.0616438 L10.5105735,10.3287671 C11.2299283,9.61369863 12.3888889,9.61369863 13.1082437,10.3287671 C13.8275986,11.0438356 13.8275986,12.1958904 13.1082437,12.9109589 L3.27706093,22.6438356 C2.59767025,23.3589041 1.39874552,23.3589041 0.719354839,22.6438356 Z" id="Path"></path>
                        <path d="M10.4706093,10.3684932 C11.1899642,9.65342466 12.3489247,9.65342466 13.0682796,10.3684932 L22.7795699,20.0219178 C23.4989247,20.7369863 23.4989247,21.8890411 22.7795699,22.6041096 C22.0602151,23.3191781 20.9012545,23.3191781 20.1818996,22.6041096 L10.4706093,12.9506849 C9.75125448,12.2356164 9.75125448,11.0835616 10.4706093,10.3684932 Z" id="Path"></path>
                    </g>
                    <g id="Group" transform="translate(12.388889, 0.000000)" fill="#F1663C">
                        <path d="M21.3408602,0.357534247 C22.3399642,0.357534247 23.1792115,1.19178082 23.1792115,2.18493151 L23.1792115,21.3726027 C23.1792115,22.3657534 22.3399642,23.2 21.3408602,23.2 C20.3417563,23.2 19.502509,22.3657534 19.502509,21.3726027 L19.502509,2.18493151 C19.502509,1.19178082 20.3417563,0.357534247 21.3408602,0.357534247 Z" id="Path"></path>
                        <path d="M22.6596774,0.91369863 C23.3790323,1.62876712 23.3790323,2.78082192 22.6596774,3.49589041 L12.8684588,13.2287671 C12.1491039,13.9438356 10.9901434,13.9438356 10.2707885,13.2287671 C9.55143369,12.5136986 9.55143369,11.3616438 10.2707885,10.6465753 L20.0620072,0.91369863 C20.781362,0.198630137 21.9403226,0.198630137 22.6596774,0.91369863 Z" id="Path"></path>
                        <path d="M12.8684588,13.1890411 C12.1491039,13.9041096 10.9901434,13.9041096 10.2707885,13.1890411 L0.559498208,3.53561644 C-0.159856631,2.82054795 -0.159856631,1.66849315 0.559498208,0.953424658 C1.27885305,0.238356164 2.43781362,0.238356164 3.15716846,0.953424658 L12.8684588,10.6068493 C13.5878136,11.3219178 13.5878136,12.4739726 12.8684588,13.1890411 Z" id="Path"></path>
                    </g>
                </g>
                <path d="M29.0539427,57.7219178 C13.0283154,57.7219178 0.0399641577,44.7712329 0.0399641577,28.8808219 C0.0399641577,12.9506849 13.0682796,0.0397260274 29.0539427,0.0397260274 C45.0396057,0.0397260274 58.0679211,12.990411 58.0679211,28.8808219 C58.1078853,44.7712329 45.0795699,57.7219178 29.0539427,57.7219178 Z M29.0539427,3.29726027 C14.8666667,3.29726027 3.31702509,14.7780822 3.31702509,28.8808219 C3.31702509,42.9835616 14.8666667,54.4643836 29.0539427,54.4643836 C43.2412186,54.4643836 54.7908602,42.9835616 54.7908602,28.8808219 C54.7908602,14.7383562 43.2412186,3.29726027 29.0539427,3.29726027 Z" id="Shape" fill="#FFFFFF" fill-rule="nonzero"></path>
            </g>
        </g>
    </g>
</svg>