<?xml version="1.0" encoding="UTF-8"?>
<svg width="224px" height="58px" viewBox="0 0 224 58" version="1.1" xmlns="http://www.w3.org/2000/svg" xmlns:xlink="http://www.w3.org/1999/xlink">
    <!-- Generator: sketchtool 51.3 (57544) - http://www.bohemiancoding.com/sketch -->
    <title>94E7582D-CF45-4FA2-AC7D-E63EED0E51E2-714-0002798B8264343F</title>
    <desc>Created with sketchtool.</desc>
    <defs></defs>
    <g id="Design" stroke="none" stroke-width="1" fill="none" fill-rule="evenodd">
        <g id="1a-Home-header-scroll" transform="translate(-142.000000, -4526.000000)" fill-rule="nonzero">
            <g id="Footer" transform="translate(0.000000, 4463.000000)">
                <g id="WeMaintain-logo-horizontal-color">
                    <g transform="translate(142.500000, 63.000000)">
                        <path d="M209.012545,40.6 L211.690143,40.6 L211.690143,30.7082192 C211.690143,27.7684932 213.408602,25.9808219 216.126165,25.9808219 C218.803763,25.9808219 220.082616,27.4109589 220.082616,30.430137 L220.082616,40.6 L222.760215,40.6 L222.760215,29.7547945 C222.760215,25.7821918 220.642115,23.5575342 216.885484,23.5575342 C214.327778,23.5575342 212.689247,24.630137 211.810036,26.4972603 L211.570251,26.4972603 L211.570251,23.8356164 L209.012545,23.8356164 L209.012545,40.6 Z M204.576523,20.4589041 C205.615591,20.4589041 206.454839,19.6246575 206.454839,18.5917808 C206.454839,17.5589041 205.615591,16.7246575 204.576523,16.7246575 C203.537455,16.7246575 202.698208,17.5589041 202.698208,18.5917808 C202.698208,19.6246575 203.577419,20.4589041 204.576523,20.4589041 Z M203.257706,40.6 L205.935305,40.6 L205.935305,23.8356164 L203.257706,23.8356164 L203.257706,40.6 Z M192.347491,40.8780822 C194.585484,40.8780822 196.423835,39.8849315 197.542832,38.0972603 L197.782616,38.0972603 L197.782616,40.560274 L200.340323,40.560274 L200.340323,29.1191781 C200.340323,25.6232877 198.062366,23.5575342 193.946057,23.5575342 C190.349283,23.5575342 187.711649,25.3452055 187.351971,28.0068493 L190.069534,28.0068493 C190.429211,26.6958904 191.867921,25.9410959 193.866129,25.9410959 C196.383871,25.9410959 197.662724,27.0931507 197.662724,29.1191781 L197.662724,30.6287671 L192.827061,30.9068493 C188.910573,31.1452055 186.672581,32.8534247 186.672581,35.8726027 C186.672581,38.9315068 189.07043,40.8780822 192.347491,40.8780822 Z M192.827061,38.5342466 C190.868817,38.5342466 189.430108,37.5410959 189.430108,35.8328767 C189.430108,34.1643836 190.549104,33.290411 193.10681,33.0917808 L197.62276,32.8136986 L197.62276,34.3630137 C197.662724,36.7465753 195.584588,38.5342466 192.827061,38.5342466 Z M179.119355,19.5054795 L179.119355,23.8356164 L176.401792,23.8356164 L176.401792,26.060274 L179.119355,26.060274 L179.119355,36.190411 C179.119355,39.3684932 180.5181,40.6794521 183.955018,40.6794521 C184.474552,40.6794521 184.994086,40.6 185.51362,40.5205479 L185.51362,38.2561644 C185.03405,38.2958904 184.754301,38.3356164 184.274731,38.3356164 C182.516308,38.3356164 181.796953,37.5013699 181.796953,35.5150685 L181.796953,26.060274 L185.553584,26.060274 L185.553584,23.8356164 L181.796953,23.8356164 L181.796953,19.5054795 L179.119355,19.5054795 Z M161.57509,40.6 L164.252688,40.6 L164.252688,30.7082192 C164.252688,27.7684932 165.971147,25.9808219 168.68871,25.9808219 C171.366308,25.9808219 172.645161,27.4109589 172.645161,30.430137 L172.645161,40.6 L175.32276,40.6 L175.32276,29.7547945 C175.32276,25.7821918 173.204659,23.5575342 169.448029,23.5575342 C166.890323,23.5575342 165.251792,24.630137 164.372581,26.4972603 L164.132796,26.4972603 L164.132796,23.8356164 L161.57509,23.8356164 L161.57509,40.6 Z M157.139068,20.4589041 C158.178136,20.4589041 159.017384,19.6246575 159.017384,18.5917808 C159.017384,17.5589041 158.178136,16.7246575 157.139068,16.7246575 C156.1,16.7246575 155.260753,17.5589041 155.260753,18.5917808 C155.300717,19.6246575 156.139964,20.4589041 157.139068,20.4589041 Z M155.820251,40.6 L158.497849,40.6 L158.497849,23.8356164 L155.820251,23.8356164 L155.820251,40.6 Z M144.910036,40.8780822 C147.148029,40.8780822 148.98638,39.8849315 150.105376,38.0972603 L150.345161,38.0972603 L150.345161,40.560274 L152.902867,40.560274 L152.902867,29.1191781 C152.902867,25.6232877 150.62491,23.5575342 146.508602,23.5575342 C142.911828,23.5575342 140.274194,25.3452055 139.914516,28.0068493 L142.632079,28.0068493 C142.991756,26.6958904 144.430466,25.9410959 146.428674,25.9410959 C148.946416,25.9410959 150.225269,27.0931507 150.225269,29.1191781 L150.225269,30.6287671 L145.389606,30.9068493 C141.473118,31.1452055 139.235125,32.8534247 139.235125,35.8726027 C139.235125,38.9315068 141.632975,40.8780822 144.910036,40.8780822 Z M145.389606,38.5342466 C143.431362,38.5342466 141.992652,37.5410959 141.992652,35.8328767 C141.992652,34.1643836 143.111649,33.290411 145.669355,33.0917808 L150.185305,32.8136986 L150.185305,34.3630137 C150.225269,36.7465753 148.187097,38.5342466 145.389606,38.5342466 Z M117.094982,40.6 L117.094982,23.5178082 L117.294803,23.5178082 L124.408423,40.4808219 L126.766308,40.4808219 L133.879928,23.5178082 L134.079749,23.5178082 L134.079749,40.6 L136.717384,40.6 L136.717384,18.1945205 L133.440323,18.1945205 L125.72724,36.7068493 L125.487455,36.7068493 L117.774373,18.1945205 L114.497312,18.1945205 L114.497312,40.6 L117.094982,40.6 Z M107.103943,35.4753425 C106.744265,36.4684932 105.625269,37.0643836 104.026703,37.0643836 C101.908602,37.0643836 100.629749,35.6739726 100.589785,33.409589 L100.589785,33.1315068 L112.299283,33.1315068 L112.299283,31.6219178 C112.299283,26.1 109.182079,22.8821918 103.826882,22.8821918 C98.4317204,22.8821918 95.1946237,26.3383562 95.1946237,32.0191781 C95.1946237,37.7 98.3917563,40.9575342 103.90681,40.9575342 C108.42276,40.9575342 111.579928,38.8123288 112.179391,35.4753425 L107.103943,35.4753425 Z M103.786918,26.8150685 C105.625269,26.8150685 106.784229,28.0068493 106.864158,30.0328767 L100.549821,30.0328767 C100.749642,28.0465753 101.98853,26.8150685 103.786918,26.8150685 Z M80.4078853,26.8547945 L80.6876344,26.8547945 L84.4442652,40.560274 L89.7994624,40.560274 L95.6741935,18.1547945 L89.7594982,18.1547945 L86.8021505,33.0123288 L86.5224014,33.0123288 L82.8057348,18.1547945 L78.2098566,18.1547945 L74.6130824,33.0123288 L74.3333333,33.0123288 L71.3360215,18.1547945 L65.381362,18.1547945 L71.2560932,40.560274 L76.7311828,40.560274 L80.4078853,26.8547945 Z" id="Shape" fill="#001975"></path>
                        <g id="Group">
                            <g transform="translate(11.189964, 17.082192)" id="Shape">
                                <g fill="#0582C6">
                                    <path d="M2.03817204,23.2 C1.0390681,23.2 0.199820789,22.3657534 0.199820789,21.3726027 L0.199820789,2.18493151 C0.199820789,1.19178082 1.0390681,0.357534247 2.03817204,0.357534247 C3.03727599,0.357534247 3.8765233,1.19178082 3.8765233,2.18493151 L3.8765233,21.3726027 C3.83655914,22.3657534 3.03727599,23.2 2.03817204,23.2 Z"></path>
                                    <path d="M0.719354839,22.6438356 C8.54871729e-15,21.9287671 8.54871729e-15,20.7767123 0.719354839,20.0616438 L10.5105735,10.3287671 C11.2299283,9.61369863 12.3888889,9.61369863 13.1082437,10.3287671 C13.8275986,11.0438356 13.8275986,12.1958904 13.1082437,12.9109589 L3.27706093,22.6438356 C2.59767025,23.3589041 1.39874552,23.3589041 0.719354839,22.6438356 Z"></path>
                                    <path d="M10.4706093,10.3684932 C11.1899642,9.65342466 12.3489247,9.65342466 13.0682796,10.3684932 L22.7795699,20.0219178 C23.4989247,20.7369863 23.4989247,21.8890411 22.7795699,22.6041096 C22.0602151,23.3191781 20.9012545,23.3191781 20.1818996,22.6041096 L10.4706093,12.9506849 C9.75125448,12.2356164 9.75125448,11.0835616 10.4706093,10.3684932 Z"></path>
                                </g>
                                <g transform="translate(12.388889, 0.000000)" fill="#F1663C">
                                    <path d="M21.3408602,0.357534247 C22.3399642,0.357534247 23.1792115,1.19178082 23.1792115,2.18493151 L23.1792115,21.3726027 C23.1792115,22.3657534 22.3399642,23.2 21.3408602,23.2 C20.3417563,23.2 19.502509,22.3657534 19.502509,21.3726027 L19.502509,2.18493151 C19.502509,1.19178082 20.3417563,0.357534247 21.3408602,0.357534247 Z"></path>
                                    <path d="M22.6596774,0.91369863 C23.3790323,1.62876712 23.3790323,2.78082192 22.6596774,3.49589041 L12.8684588,13.2287671 C12.1491039,13.9438356 10.9901434,13.9438356 10.2707885,13.2287671 C9.55143369,12.5136986 9.55143369,11.3616438 10.2707885,10.6465753 L20.0620072,0.91369863 C20.781362,0.198630137 21.9403226,0.198630137 22.6596774,0.91369863 Z"></path>
                                    <path d="M12.8684588,13.1890411 C12.1491039,13.9041096 10.9901434,13.9041096 10.2707885,13.1890411 L0.559498208,3.53561644 C-0.159856631,2.82054795 -0.159856631,1.66849315 0.559498208,0.953424658 C1.27885305,0.238356164 2.43781362,0.238356164 3.15716846,0.953424658 L12.8684588,10.6068493 C13.5878136,11.3219178 13.5878136,12.4739726 12.8684588,13.1890411 Z"></path>
                                </g>
                            </g>
                            <path d="M29.0539427,57.7219178 C13.0283154,57.7219178 0.0399641577,44.7712329 0.0399641577,28.8808219 C0.0399641577,12.9506849 13.0682796,0.0397260274 29.0539427,0.0397260274 C45.0396057,0.0397260274 58.0679211,12.990411 58.0679211,28.8808219 C58.1078853,44.7712329 45.0795699,57.7219178 29.0539427,57.7219178 Z M29.0539427,3.29726027 C14.8666667,3.29726027 3.31702509,14.7780822 3.31702509,28.8808219 C3.31702509,42.9835616 14.8666667,54.4643836 29.0539427,54.4643836 C43.2412186,54.4643836 54.7908602,42.9835616 54.7908602,28.8808219 C54.7908602,14.7383562 43.2412186,3.29726027 29.0539427,3.29726027 Z" id="Shape" fill="#001975"></path>
                        </g>
                    </g>
                </g>
            </g>
        </g>
    </g>
</svg>