<?xml version="1.0" encoding="UTF-8"?>
<svg width="154px" height="40px" viewBox="0 0 154 40" version="1.1" xmlns="http://www.w3.org/2000/svg" xmlns:xlink="http://www.w3.org/1999/xlink">
    <!-- Generator: sketchtool 51.3 (57544) - http://www.bohemiancoding.com/sketch -->
    <title>8279F9C5-802B-40B7-B5AA-8A0F4300E8B9-555-00008BB342BD0882</title>
    <desc>Created with sketchtool.</desc>
    <defs></defs>
    <g id="Design" stroke="none" stroke-width="1" fill="none" fill-rule="evenodd">
        <g id="1a-Home" transform="translate(-119.000000, -35.000000)" fill="#FFFFFF" fill-rule="nonzero">
            <g id="Header" transform="translate(119.000000, 0.000000)">
                <g id="WeMaintain-logo-horizontal-white">
                    <g transform="translate(0.000000, 35.000000)">
                        <path d="M144.146583,28 L145.993202,28 L145.993202,21.1780822 C145.993202,19.1506849 147.178346,17.9178082 149.052527,17.9178082 C150.899147,17.9178082 151.781115,18.9041096 151.781115,20.9863014 L151.781115,28 L153.627735,28 L153.627735,20.5205479 C153.627735,17.7808219 152.166976,16.2465753 149.576196,16.2465753 C147.812261,16.2465753 146.68224,16.9863014 146.075887,18.2739726 L145.910518,18.2739726 L145.910518,16.4383562 L144.146583,16.4383562 L144.146583,28 Z M141.087257,14.109589 C141.803856,14.109589 142.382647,13.5342466 142.382647,12.8219178 C142.382647,12.109589 141.803856,11.5342466 141.087257,11.5342466 C140.370659,11.5342466 139.791868,12.109589 139.791868,12.8219178 C139.791868,13.5342466 140.39822,14.109589 141.087257,14.109589 Z M140.177728,28 L142.024348,28 L142.024348,16.4383562 L140.177728,16.4383562 L140.177728,28 Z M132.653442,28.1917808 C134.196885,28.1917808 135.464714,27.5068493 136.236436,26.2739726 L136.401804,26.2739726 L136.401804,27.9726027 L138.16574,27.9726027 L138.16574,20.0821918 C138.16574,17.6712329 136.594735,16.2465753 133.755902,16.2465753 C131.275368,16.2465753 129.456309,17.4794521 129.208256,19.3150685 L131.082437,19.3150685 C131.330491,18.4109589 132.322704,17.890411 133.700779,17.890411 C135.437152,17.890411 136.31912,18.6849315 136.31912,20.0821918 L136.31912,21.1232877 L132.98418,21.3150685 C130.283154,21.4794521 128.739711,22.6575342 128.739711,24.739726 C128.739711,26.8493151 130.3934,28.1917808 132.653442,28.1917808 Z M132.98418,26.5753425 C131.633667,26.5753425 130.641453,25.890411 130.641453,24.7123288 C130.641453,23.5616438 131.413175,22.9589041 133.17711,22.8219178 L136.291559,22.630137 L136.291559,23.6986301 C136.31912,25.3424658 134.885923,26.5753425 132.98418,26.5753425 Z M123.53059,13.4520548 L123.53059,16.4383562 L121.656408,16.4383562 L121.656408,17.9726027 L123.53059,17.9726027 L123.53059,24.9589041 C123.53059,27.1506849 124.495242,28.0547945 126.86553,28.0547945 C127.223829,28.0547945 127.582128,28 127.940428,27.9452055 L127.940428,26.3835616 C127.60969,26.4109589 127.416759,26.4383562 127.086022,26.4383562 C125.873316,26.4383562 125.377209,25.8630137 125.377209,24.4931507 L125.377209,17.9726027 L127.967989,17.9726027 L127.967989,16.4383562 L125.377209,16.4383562 L125.377209,13.4520548 L123.53059,13.4520548 Z M111.431096,28 L113.277716,28 L113.277716,21.1780822 C113.277716,19.1506849 114.46286,17.9178082 116.337041,17.9178082 C118.183661,17.9178082 119.065628,18.9041096 119.065628,20.9863014 L119.065628,28 L120.912248,28 L120.912248,20.5205479 C120.912248,17.7808219 119.451489,16.2465753 116.860709,16.2465753 C115.096774,16.2465753 113.966753,16.9863014 113.3604,18.2739726 L113.195032,18.2739726 L113.195032,16.4383562 L111.431096,16.4383562 L111.431096,28 Z M108.371771,14.109589 C109.08837,14.109589 109.667161,13.5342466 109.667161,12.8219178 C109.667161,12.109589 109.08837,11.5342466 108.371771,11.5342466 C107.655172,11.5342466 107.076381,12.109589 107.076381,12.8219178 C107.103943,13.5342466 107.682734,14.109589 108.371771,14.109589 Z M107.462242,28 L109.308862,28 L109.308862,16.4383562 L107.462242,16.4383562 L107.462242,28 Z M99.9379558,28.1917808 C101.481399,28.1917808 102.749228,27.5068493 103.520949,26.2739726 L103.686318,26.2739726 L103.686318,27.9726027 L105.450253,27.9726027 L105.450253,20.0821918 C105.450253,17.6712329 103.879249,16.2465753 101.040415,16.2465753 C98.5598813,16.2465753 96.7408231,17.4794521 96.4927697,19.3150685 L98.3669509,19.3150685 C98.6150043,18.4109589 99.6072179,17.890411 100.985292,17.890411 C102.721666,17.890411 103.603634,18.6849315 103.603634,20.0821918 L103.603634,21.1232877 L100.268694,21.3150685 C97.5676678,21.4794521 96.0242244,22.6575342 96.0242244,24.739726 C96.0242244,26.8493151 97.6779137,28.1917808 99.9379558,28.1917808 Z M100.268694,26.5753425 C98.9181807,26.5753425 97.9259671,25.890411 97.9259671,24.7123288 C97.9259671,23.5616438 98.6976888,22.9589041 100.461624,22.8219178 L103.576072,22.630137 L103.576072,23.6986301 C103.603634,25.3424658 102.197998,26.5753425 100.268694,26.5753425 Z M80.7551601,28 L80.7551601,16.2191781 L80.8929675,16.2191781 L85.7989124,27.9178082 L87.4250402,27.9178082 L92.330985,16.2191781 L92.4687925,16.2191781 L92.4687925,28 L94.2878507,28 L94.2878507,12.5479452 L92.0278087,12.5479452 L86.7084415,25.3150685 L86.5430725,25.3150685 L81.2237054,12.5479452 L78.9636633,12.5479452 L78.9636633,28 L80.7551601,28 Z M73.864788,24.4657534 C73.6167346,25.1506849 72.845013,25.5616438 71.7425535,25.5616438 C70.2817946,25.5616438 69.399827,24.6027397 69.3722655,23.0410959 L69.3722655,22.8493151 L77.4477815,22.8493151 L77.4477815,21.8082192 C77.4477815,18 75.2979854,15.7808219 71.604746,15.7808219 C67.8839451,15.7808219 65.6514646,18.1643836 65.6514646,22.0821918 C65.6514646,26 67.8563836,28.2465753 71.659869,28.2465753 C74.7743171,28.2465753 76.9516747,26.7671233 77.365097,24.4657534 L73.864788,24.4657534 Z M71.5771845,18.4931507 C72.845013,18.4931507 73.6442961,19.3150685 73.6994191,20.7123288 L69.344704,20.7123288 C69.4825114,19.3424658 70.3369176,18.4931507 71.5771845,18.4931507 Z M55.453714,18.5205479 L55.6466444,18.5205479 L58.2374243,27.9726027 L61.9306637,27.9726027 L65.9822024,12.5205479 L61.9031022,12.5205479 L59.8635521,22.7671233 L59.6706217,22.7671233 L57.1074033,12.5205479 L53.9378322,12.5205479 L51.4572982,22.7671233 L51.2643678,22.7671233 L49.1972562,12.5205479 L45.0905945,12.5205479 L49.1421332,27.9726027 L52.9180571,27.9726027 L55.453714,18.5205479 Z" id="Shape"></path>
                        <g id="Group">
                            <g transform="translate(7.717217, 11.780822)" id="Shape">
                                <g>
                                    <path d="M1.40563589,16 C0.71659869,16 0.13780744,15.4246575 0.13780744,14.739726 L0.13780744,1.50684932 C0.13780744,0.821917808 0.71659869,0.246575342 1.40563589,0.246575342 C2.09467309,0.246575342 2.67346434,0.821917808 2.67346434,1.50684932 L2.67346434,14.739726 C2.64590286,15.4246575 2.09467309,16 1.40563589,16 Z"></path>
                                    <path d="M0.496106785,15.6164384 C1.03111963e-14,15.1232877 1.03111963e-14,14.3287671 0.496106785,13.8356164 L7.24867136,7.12328767 C7.74477815,6.63013699 8.5440613,6.63013699 9.04016809,7.12328767 C9.53627487,7.61643836 9.53627487,8.4109589 9.04016809,8.90410959 L2.26004202,15.6164384 C1.79149672,16.109589 0.964652083,16.109589 0.496106785,15.6164384 Z"></path>
                                    <path d="M7.22110988,7.15068493 C7.71721666,6.65753425 8.51649981,6.65753425 9.0126066,7.15068493 L15.7100482,13.8082192 C16.206155,14.3013699 16.206155,15.0958904 15.7100482,15.5890411 C15.2139414,16.0821918 14.4146583,16.0821918 13.9185515,15.5890411 L7.22110988,8.93150685 C6.72500309,8.43835616 6.72500309,7.64383562 7.22110988,7.15068493 Z"></path>
                                </g>
                                <g transform="translate(8.544061, 0.000000)">
                                    <path d="M14.7178346,0.246575342 C15.4068718,0.246575342 15.9856631,0.821917808 15.9856631,1.50684932 L15.9856631,14.739726 C15.9856631,15.4246575 15.4068718,16 14.7178346,16 C14.0287974,16 13.4500062,15.4246575 13.4500062,14.739726 L13.4500062,1.50684932 C13.4500062,0.821917808 14.0287974,0.246575342 14.7178346,0.246575342 Z"></path>
                                    <path d="M15.6273637,0.630136986 C16.1234705,1.12328767 16.1234705,1.91780822 15.6273637,2.4109589 L8.87479916,9.12328767 C8.37869237,9.61643836 7.57940922,9.61643836 7.08330243,9.12328767 C6.58719565,8.63013699 6.58719565,7.83561644 7.08330243,7.34246575 L13.835867,0.630136986 C14.3319738,0.136986301 15.131257,0.136986301 15.6273637,0.630136986 Z"></path>
                                    <path d="M8.87479916,9.09589041 C8.37869237,9.5890411 7.57940922,9.5890411 7.08330243,9.09589041 L0.385860833,2.43835616 C-0.110245952,1.94520548 -0.110245952,1.15068493 0.385860833,0.657534247 C0.881967618,0.164383562 1.68125077,0.164383562 2.17735756,0.657534247 L8.87479916,7.31506849 C9.37090594,7.80821918 9.37090594,8.60273973 8.87479916,9.09589041 Z"></path>
                                </g>
                            </g>
                            <path d="M20.0372018,39.8082192 C8.98504511,39.8082192 0.0275614881,30.8767123 0.0275614881,19.9178082 C0.0275614881,8.93150685 9.0126066,0.0273972603 20.0372018,0.0273972603 C31.0617971,0.0273972603 40.0468422,8.95890411 40.0468422,19.9178082 C40.0744037,30.8767123 31.0893585,39.8082192 20.0372018,39.8082192 Z M20.0372018,2.2739726 C10.2528736,2.2739726 2.28760351,10.1917808 2.28760351,19.9178082 C2.28760351,29.6438356 10.2528736,37.5616438 20.0372018,37.5616438 C29.8215301,37.5616438 37.7868001,29.6438356 37.7868001,19.9178082 C37.7868001,10.1643836 29.8215301,2.2739726 20.0372018,2.2739726 Z" id="Shape"></path>
                        </g>
                    </g>
                </g>
            </g>
        </g>
    </g>
</svg>