<?xml version="1.0" encoding="UTF-8"?>
<svg width="21px" height="88px" viewBox="0 0 21 88" version="1.1" xmlns="http://www.w3.org/2000/svg" xmlns:xlink="http://www.w3.org/1999/xlink">
    <!-- Generator: Sketch 51.3 (57544) - http://www.bohemiancoding.com/sketch -->
    <title>points3</title>
    <desc>Created with Sketch.</desc>
    <defs></defs>
    <g id="Symbols" stroke="none" stroke-width="1" fill="none" fill-rule="evenodd">
        <g id="UI-Kit" transform="translate(-890.000000, -2397.000000)" fill="#F1653C" fill-rule="nonzero">
            <g id="patterns" transform="translate(250.000000, 2241.000000)">
                <path d="M608.502011,210 C607.672473,210 607,209.320844 607,208.483063 C607,207.645282 607.672473,206.966127 608.502011,206.966127 C609.331549,206.966127 610.004023,207.645282 610.004023,208.483063 C610.004023,209.320844 609.331549,210 608.502011,210 Z M625.301207,210 C624.471669,210 623.799195,209.320844 623.799195,208.483063 C623.799195,207.645282 624.471669,206.966127 625.301207,206.966127 C626.130745,206.966127 626.803218,207.645282 626.803218,208.483063 C626.803218,209.320844 626.130745,210 625.301207,210 Z M642.100402,210 C641.270864,210 640.598391,209.320844 640.598391,208.483063 C640.598391,207.645282 641.270864,206.966127 642.100402,206.966127 C642.92994,206.966127 643.602414,207.645282 643.602414,208.483063 C643.602414,209.320844 642.92994,210 642.100402,210 Z M658.899598,210 C658.07006,210 657.397586,209.320844 657.397586,208.483063 C657.397586,207.645282 658.07006,206.966127 658.899598,206.966127 C659.729136,206.966127 660.401609,207.645282 660.401609,208.483063 C660.401609,209.320844 659.729136,210 658.899598,210 Z M675.698793,210 C674.869255,210 674.196782,209.320844 674.196782,208.483063 C674.196782,207.645282 674.869255,206.966127 675.698793,206.966127 C676.528331,206.966127 677.200805,207.645282 677.200805,208.483063 C677.200805,209.320844 676.528331,210 675.698793,210 Z M692.497989,210 C691.668451,210 690.995977,209.320844 690.995977,208.483063 C690.995977,207.645282 691.668451,206.966127 692.497989,206.966127 C693.327527,206.966127 694,207.645282 694,208.483063 C694,209.320844 693.327527,210 692.497989,210 Z M608.502011,193.033873 C607.672473,193.033873 607,192.354718 607,191.516937 C607,190.679156 607.672473,190 608.502011,190 C609.331549,190 610.004023,190.679156 610.004023,191.516937 C610.004023,192.354718 609.331549,193.033873 608.502011,193.033873 Z M625.301207,193.033873 C624.471669,193.033873 623.799195,192.354718 623.799195,191.516937 C623.799195,190.679156 624.471669,190 625.301207,190 C626.130745,190 626.803218,190.679156 626.803218,191.516937 C626.803218,192.354718 626.130745,193.033873 625.301207,193.033873 Z M642.100402,193.033873 C641.270864,193.033873 640.598391,192.354718 640.598391,191.516937 C640.598391,190.679156 641.270864,190 642.100402,190 C642.92994,190 643.602414,190.679156 643.602414,191.516937 C643.602414,192.354718 642.92994,193.033873 642.100402,193.033873 Z M658.899598,193.033873 C658.07006,193.033873 657.397586,192.354718 657.397586,191.516937 C657.397586,190.679156 658.07006,190 658.899598,190 C659.729136,190 660.401609,190.679156 660.401609,191.516937 C660.401609,192.354718 659.729136,193.033873 658.899598,193.033873 Z M675.698793,193.033873 C674.869255,193.033873 674.196782,192.354718 674.196782,191.516937 C674.196782,190.679156 674.869255,190 675.698793,190 C676.528331,190 677.200805,190.679156 677.200805,191.516937 C677.200805,192.354718 676.528331,193.033873 675.698793,193.033873 Z M692.497989,193.033873 C691.668451,193.033873 690.995977,192.354718 690.995977,191.516937 C690.995977,190.679156 691.668451,190 692.497989,190 C693.327527,190 694,190.679156 694,191.516937 C694,192.354718 693.327527,193.033873 692.497989,193.033873 Z" id="points3" transform="translate(650.500000, 200.000000) rotate(-270.000000) translate(-650.500000, -200.000000) "></path>
            </g>
        </g>
    </g>
</svg>