<?xml version="1.0" encoding="UTF-8"?>
<svg width="71px" height="138px" viewBox="0 0 71 138" version="1.1" xmlns="http://www.w3.org/2000/svg" xmlns:xlink="http://www.w3.org/1999/xlink">
    <!-- Generator: Sketch 51.3 (57544) - http://www.bohemiancoding.com/sketch -->
    <title>points2</title>
    <desc>Created with Sketch.</desc>
    <defs></defs>
    <g id="Symbols" stroke="none" stroke-width="1" fill="none" fill-rule="evenodd">
        <g id="UI-Kit" transform="translate(-730.000000, -2399.000000)" fill="#272C6C" fill-rule="nonzero">
            <g id="patterns" transform="translate(250.000000, 2241.000000)">
                <g id="points2" transform="translate(480.000000, 158.000000)">
                    <path d="M-32.252875,103.86413 C-33.0837647,103.86413 -33.7573338,103.192557 -33.7573338,102.36413 C-33.7573338,101.535703 -33.0837647,100.86413 -32.252875,100.86413 C-31.4219854,100.86413 -30.7484162,101.535703 -30.7484162,102.36413 C-30.7484162,103.192557 -31.4219854,103.86413 -32.252875,103.86413 Z M-15.4263067,103.86413 C-16.2571964,103.86413 -16.9307655,103.192557 -16.9307655,102.36413 C-16.9307655,101.535703 -16.2571964,100.86413 -15.4263067,100.86413 C-14.5954171,100.86413 -13.9218479,101.535703 -13.9218479,102.36413 C-13.9218479,103.192557 -14.5954171,103.86413 -15.4263067,103.86413 Z M1.40026153,103.86413 C0.569371878,103.86413 -0.104197268,103.192557 -0.104197268,102.36413 C-0.104197268,101.535703 0.569371878,100.86413 1.40026153,100.86413 C2.23115118,100.86413 2.90472032,101.535703 2.90472032,102.36413 C2.90472032,103.192557 2.23115118,103.86413 1.40026153,103.86413 Z M18.2268298,103.86413 C17.3959401,103.86413 16.722371,103.192557 16.722371,102.36413 C16.722371,101.535703 17.3959401,100.86413 18.2268298,100.86413 C19.0577194,100.86413 19.7312886,101.535703 19.7312886,102.36413 C19.7312886,103.192557 19.0577194,103.86413 18.2268298,103.86413 Z M35.0533981,103.86413 C34.2225084,103.86413 33.5489393,103.192557 33.5489393,102.36413 C33.5489393,101.535703 34.2225084,100.86413 35.0533981,100.86413 C35.8842877,100.86413 36.5578569,101.535703 36.5578569,102.36413 C36.5578569,103.192557 35.8842877,103.86413 35.0533981,103.86413 Z M51.8799663,103.86413 C51.0490767,103.86413 50.3755075,103.192557 50.3755075,102.36413 C50.3755075,101.535703 51.0490767,100.86413 51.8799663,100.86413 C52.710856,100.86413 53.3844251,101.535703 53.3844251,102.36413 C53.3844251,103.192557 52.710856,103.86413 51.8799663,103.86413 Z M68.7065346,103.86413 C67.8756449,103.86413 67.2020758,103.192557 67.2020758,102.36413 C67.2020758,101.535703 67.8756449,100.86413 68.7065346,100.86413 C69.5374242,100.86413 70.2109934,101.535703 70.2109934,102.36413 C70.2109934,103.192557 69.5374242,103.86413 68.7065346,103.86413 Z M85.5331029,103.86413 C84.7022132,103.86413 84.0286441,103.192557 84.0286441,102.36413 C84.0286441,101.535703 84.7022132,100.86413 85.5331029,100.86413 C86.3639925,100.86413 87.0375616,101.535703 87.0375616,102.36413 C87.0375616,103.192557 86.3639925,103.86413 85.5331029,103.86413 Z M102.359671,103.86413 C101.528781,103.86413 100.855212,103.192557 100.855212,102.36413 C100.855212,101.535703 101.528781,100.86413 102.359671,100.86413 C103.190561,100.86413 103.86413,101.535703 103.86413,102.36413 C103.86413,103.192557 103.190561,103.86413 102.359671,103.86413 Z M-32.252875,87.0874309 C-33.0837647,87.0874309 -33.7573338,86.415858 -33.7573338,85.5874309 C-33.7573338,84.7590038 -33.0837647,84.0874309 -32.252875,84.0874309 C-31.4219854,84.0874309 -30.7484162,84.7590038 -30.7484162,85.5874309 C-30.7484162,86.415858 -31.4219854,87.0874309 -32.252875,87.0874309 Z M-15.4263067,87.0874309 C-16.2571964,87.0874309 -16.9307655,86.415858 -16.9307655,85.5874309 C-16.9307655,84.7590038 -16.2571964,84.0874309 -15.4263067,84.0874309 C-14.5954171,84.0874309 -13.9218479,84.7590038 -13.9218479,85.5874309 C-13.9218479,86.415858 -14.5954171,87.0874309 -15.4263067,87.0874309 Z M1.40026153,87.0874309 C0.569371878,87.0874309 -0.104197268,86.415858 -0.104197268,85.5874309 C-0.104197268,84.7590038 0.569371878,84.0874309 1.40026153,84.0874309 C2.23115118,84.0874309 2.90472032,84.7590038 2.90472032,85.5874309 C2.90472032,86.415858 2.23115118,87.0874309 1.40026153,87.0874309 Z M18.2268298,87.0874309 C17.3959401,87.0874309 16.722371,86.415858 16.722371,85.5874309 C16.722371,84.7590038 17.3959401,84.0874309 18.2268298,84.0874309 C19.0577194,84.0874309 19.7312886,84.7590038 19.7312886,85.5874309 C19.7312886,86.415858 19.0577194,87.0874309 18.2268298,87.0874309 Z M35.0533981,87.0874309 C34.2225084,87.0874309 33.5489393,86.415858 33.5489393,85.5874309 C33.5489393,84.7590038 34.2225084,84.0874309 35.0533981,84.0874309 C35.8842877,84.0874309 36.5578569,84.7590038 36.5578569,85.5874309 C36.5578569,86.415858 35.8842877,87.0874309 35.0533981,87.0874309 Z M51.8799663,87.0874309 C51.0490767,87.0874309 50.3755075,86.415858 50.3755075,85.5874309 C50.3755075,84.7590038 51.0490767,84.0874309 51.8799663,84.0874309 C52.710856,84.0874309 53.3844251,84.7590038 53.3844251,85.5874309 C53.3844251,86.415858 52.710856,87.0874309 51.8799663,87.0874309 Z M68.7065346,87.0874309 C67.8756449,87.0874309 67.2020758,86.415858 67.2020758,85.5874309 C67.2020758,84.7590038 67.8756449,84.0874309 68.7065346,84.0874309 C69.5374242,84.0874309 70.2109934,84.7590038 70.2109934,85.5874309 C70.2109934,86.415858 69.5374242,87.0874309 68.7065346,87.0874309 Z M85.5331029,87.0874309 C84.7022132,87.0874309 84.0286441,86.415858 84.0286441,85.5874309 C84.0286441,84.7590038 84.7022132,84.0874309 85.5331029,84.0874309 C86.3639925,84.0874309 87.0375616,84.7590038 87.0375616,85.5874309 C87.0375616,86.415858 86.3639925,87.0874309 85.5331029,87.0874309 Z M102.359671,87.0874309 C101.528781,87.0874309 100.855212,86.415858 100.855212,85.5874309 C100.855212,84.7590038 101.528781,84.0874309 102.359671,84.0874309 C103.190561,84.0874309 103.86413,84.7590038 103.86413,85.5874309 C103.86413,86.415858 103.190561,87.0874309 102.359671,87.0874309 Z M-32.252875,70.3107319 C-33.0837647,70.3107319 -33.7573338,69.639159 -33.7573338,68.8107319 C-33.7573338,67.9823047 -33.0837647,67.3107319 -32.252875,67.3107319 C-31.4219854,67.3107319 -30.7484162,67.9823047 -30.7484162,68.8107319 C-30.7484162,69.639159 -31.4219854,70.3107319 -32.252875,70.3107319 Z M-15.4263067,70.3107319 C-16.2571964,70.3107319 -16.9307655,69.639159 -16.9307655,68.8107319 C-16.9307655,67.9823047 -16.2571964,67.3107319 -15.4263067,67.3107319 C-14.5954171,67.3107319 -13.9218479,67.9823047 -13.9218479,68.8107319 C-13.9218479,69.639159 -14.5954171,70.3107319 -15.4263067,70.3107319 Z M1.40026153,70.3107319 C0.569371878,70.3107319 -0.104197268,69.639159 -0.104197268,68.8107319 C-0.104197268,67.9823047 0.569371878,67.3107319 1.40026153,67.3107319 C2.23115118,67.3107319 2.90472032,67.9823047 2.90472032,68.8107319 C2.90472032,69.639159 2.23115118,70.3107319 1.40026153,70.3107319 Z M18.2268298,70.3107319 C17.3959401,70.3107319 16.722371,69.639159 16.722371,68.8107319 C16.722371,67.9823047 17.3959401,67.3107319 18.2268298,67.3107319 C19.0577194,67.3107319 19.7312886,67.9823047 19.7312886,68.8107319 C19.7312886,69.639159 19.0577194,70.3107319 18.2268298,70.3107319 Z M35.0533981,70.3107319 C34.2225084,70.3107319 33.5489393,69.639159 33.5489393,68.8107319 C33.5489393,67.9823047 34.2225084,67.3107319 35.0533981,67.3107319 C35.8842877,67.3107319 36.5578569,67.9823047 36.5578569,68.8107319 C36.5578569,69.639159 35.8842877,70.3107319 35.0533981,70.3107319 Z M51.8799663,70.3107319 C51.0490767,70.3107319 50.3755075,69.639159 50.3755075,68.8107319 C50.3755075,67.9823047 51.0490767,67.3107319 51.8799663,67.3107319 C52.710856,67.3107319 53.3844251,67.9823047 53.3844251,68.8107319 C53.3844251,69.639159 52.710856,70.3107319 51.8799663,70.3107319 Z M68.7065346,70.3107319 C67.8756449,70.3107319 67.2020758,69.639159 67.2020758,68.8107319 C67.2020758,67.9823047 67.8756449,67.3107319 68.7065346,67.3107319 C69.5374242,67.3107319 70.2109934,67.9823047 70.2109934,68.8107319 C70.2109934,69.639159 69.5374242,70.3107319 68.7065346,70.3107319 Z M85.5331029,70.3107319 C84.7022132,70.3107319 84.0286441,69.639159 84.0286441,68.8107319 C84.0286441,67.9823047 84.7022132,67.3107319 85.5331029,67.3107319 C86.3639925,67.3107319 87.0375616,67.9823047 87.0375616,68.8107319 C87.0375616,69.639159 86.3639925,70.3107319 85.5331029,70.3107319 Z M102.359671,70.3107319 C101.528781,70.3107319 100.855212,69.639159 100.855212,68.8107319 C100.855212,67.9823047 101.528781,67.3107319 102.359671,67.3107319 C103.190561,67.3107319 103.86413,67.9823047 103.86413,68.8107319 C103.86413,69.639159 103.190561,70.3107319 102.359671,70.3107319 Z M-32.252875,53.5340328 C-33.0837647,53.5340328 -33.7573338,52.86246 -33.7573338,52.0340328 C-33.7573338,51.2056057 -33.0837647,50.5340328 -32.252875,50.5340328 C-31.4219854,50.5340328 -30.7484162,51.2056057 -30.7484162,52.0340328 C-30.7484162,52.86246 -31.4219854,53.5340328 -32.252875,53.5340328 Z M-15.4263067,53.5340328 C-16.2571964,53.5340328 -16.9307655,52.86246 -16.9307655,52.0340328 C-16.9307655,51.2056057 -16.2571964,50.5340328 -15.4263067,50.5340328 C-14.5954171,50.5340328 -13.9218479,51.2056057 -13.9218479,52.0340328 C-13.9218479,52.86246 -14.5954171,53.5340328 -15.4263067,53.5340328 Z M1.40026153,53.5340328 C0.569371878,53.5340328 -0.104197268,52.86246 -0.104197268,52.0340328 C-0.104197268,51.2056057 0.569371878,50.5340328 1.40026153,50.5340328 C2.23115118,50.5340328 2.90472032,51.2056057 2.90472032,52.0340328 C2.90472032,52.86246 2.23115118,53.5340328 1.40026153,53.5340328 Z M18.2268298,53.5340328 C17.3959401,53.5340328 16.722371,52.86246 16.722371,52.0340328 C16.722371,51.2056057 17.3959401,50.5340328 18.2268298,50.5340328 C19.0577194,50.5340328 19.7312886,51.2056057 19.7312886,52.0340328 C19.7312886,52.86246 19.0577194,53.5340328 18.2268298,53.5340328 Z M35.0533981,53.5340328 C34.2225084,53.5340328 33.5489393,52.86246 33.5489393,52.0340328 C33.5489393,51.2056057 34.2225084,50.5340328 35.0533981,50.5340328 C35.8842877,50.5340328 36.5578569,51.2056057 36.5578569,52.0340328 C36.5578569,52.86246 35.8842877,53.5340328 35.0533981,53.5340328 Z M-32.252875,36.7573338 C-33.0837647,36.7573338 -33.7573338,36.0857609 -33.7573338,35.2573338 C-33.7573338,34.4289067 -33.0837647,33.7573338 -32.252875,33.7573338 C-31.4219854,33.7573338 -30.7484162,34.4289067 -30.7484162,35.2573338 C-30.7484162,36.0857609 -31.4219854,36.7573338 -32.252875,36.7573338 Z M-15.4263067,36.7573338 C-16.2571964,36.7573338 -16.9307655,36.0857609 -16.9307655,35.2573338 C-16.9307655,34.4289067 -16.2571964,33.7573338 -15.4263067,33.7573338 C-14.5954171,33.7573338 -13.9218479,34.4289067 -13.9218479,35.2573338 C-13.9218479,36.0857609 -14.5954171,36.7573338 -15.4263067,36.7573338 Z M1.40026153,36.7573338 C0.569371878,36.7573338 -0.104197268,36.0857609 -0.104197268,35.2573338 C-0.104197268,34.4289067 0.569371878,33.7573338 1.40026153,33.7573338 C2.23115118,33.7573338 2.90472032,34.4289067 2.90472032,35.2573338 C2.90472032,36.0857609 2.23115118,36.7573338 1.40026153,36.7573338 Z M18.2268298,36.7573338 C17.3959401,36.7573338 16.722371,36.0857609 16.722371,35.2573338 C16.722371,34.4289067 17.3959401,33.7573338 18.2268298,33.7573338 C19.0577194,33.7573338 19.7312886,34.4289067 19.7312886,35.2573338 C19.7312886,36.0857609 19.0577194,36.7573338 18.2268298,36.7573338 Z M35.0533981,36.7573338 C34.2225084,36.7573338 33.5489393,36.0857609 33.5489393,35.2573338 C33.5489393,34.4289067 34.2225084,33.7573338 35.0533981,33.7573338 C35.8842877,33.7573338 36.5578569,34.4289067 36.5578569,35.2573338 C36.5578569,36.0857609 35.8842877,36.7573338 35.0533981,36.7573338 Z" id="Oval" transform="translate(35.053398, 68.810732) rotate(-270.000000) translate(-35.053398, -68.810732) "></path>
                </g>
            </g>
        </g>
    </g>
</svg>