<?xml version="1.0" encoding="UTF-8"?>
<svg width="38px" height="32px" viewBox="0 0 38 32" version="1.1" xmlns="http://www.w3.org/2000/svg" xmlns:xlink="http://www.w3.org/1999/xlink">
    <!-- Generator: sketchtool 51.3 (57544) - http://www.bohemiancoding.com/sketch -->
    <title>D3EB76F7-244B-43A8-8825-8BF462589B80-black</title>
    <desc>Created with sketchtool.</desc>
    <defs></defs>
    <g id="Design" stroke="none" stroke-width="1" fill="none" fill-rule="evenodd" opacity="0.1">
        <g id="2a-Résidentiel" transform="translate(-936.000000, -2966.000000)" fill="#FFFFFF">
            <g id="Section-4" transform="translate(120.000000, 2439.000000)">
                <g id="2" transform="translate(575.000000, 284.000000)">
                    <path d="M279,246.788227 C277.603745,247.430769 276.100428,247.865294 274.523508,248.059444 C276.133885,247.060961 277.369549,245.477718 277.951693,243.591694 C276.443916,244.516215 274.777778,245.188805 272.997887,245.549368 C271.579327,243.979993 269.551858,243 267.308035,243 C263.005517,243 259.514879,246.61719 259.514879,251.078007 C259.514879,251.711304 259.581793,252.326111 259.715619,252.917804 C253.236192,252.580354 247.49281,249.367642 243.645301,244.474612 C242.973939,245.671867 242.590303,247.060961 242.590303,248.540195 C242.590303,251.341495 243.966485,253.81459 246.058637,255.263778 C244.782826,255.224485 243.578388,254.856988 242.525621,254.256049 L242.525621,254.355435 C242.525621,258.270784 245.2133,261.536656 248.782004,262.276273 C248.128485,262.4658 247.439279,262.560563 246.727769,262.560563 C246.22592,262.560563 245.735223,262.512026 245.26014,262.417263 C246.252685,265.625352 249.129952,267.96208 252.542525,268.024485 C249.874919,270.192488 246.511416,271.484507 242.860187,271.484507 C242.231203,271.484507 241.60891,271.447526 241,271.373564 C244.45049,273.661755 248.550038,275 252.950696,275 C267.292422,275 275.132418,262.692308 275.132418,252.016396 C275.132418,251.665078 275.125726,251.313759 275.112344,250.969375 C276.635734,249.829902 277.958385,248.408451 279,246.788227" id="Twitter"></path>
                </g>
            </g>
        </g>
    </g>
</svg>