<?xml version="1.0" encoding="UTF-8"?>
<svg width="22px" height="18px" viewBox="0 0 22 18" version="1.1" xmlns="http://www.w3.org/2000/svg" xmlns:xlink="http://www.w3.org/1999/xlink">
    <!-- Generator: sketchtool 51.3 (57544) - http://www.bohemiancoding.com/sketch -->
    <title>D13D2004-D2E3-46DE-AD3A-4392B32DE857-714-0002798B82604347</title>
    <desc>Created with sketchtool.</desc>
    <defs></defs>
    <g id="Design" stroke="none" stroke-width="1" fill="none" fill-rule="evenodd">
        <g id="1a-Home-header-scroll" transform="translate(-1155.000000, -4582.000000)" fill="#171A3B">
            <g id="Footer" transform="translate(0.000000, 4463.000000)">
                <g id="Group-3">
                    <g transform="translate(1114.000000, 78.000000)">
                        <g id="Social" transform="translate(1.500000, 39.000000)">
                            <path d="M60.4207941,2.33276729 C59.5875898,2.8529685 58.6669159,3.23129666 57.6828825,3.43372529 C56.8990201,2.55134408 55.778736,2 54.5384615,2 C52.1610819,2 50.2317037,4.03466726 50.2317037,6.54397488 C50.2317037,6.90038768 50.2687101,7.24584281 50.3427229,7.57861011 C46.7620751,7.38886931 43.5879369,5.58200634 41.4617521,2.829323 C41.0905668,3.50293166 40.8786212,4.28438691 40.8786212,5.11659351 C40.8786212,6.69219186 41.6389341,8.08323988 42.7956639,8.89814488 C42.0902998,8.87622953 41.4247457,8.66976387 40.8427362,8.33180609 L40.8427362,8.38717119 C40.8427362,10.5896639 42.3280378,12.427093 44.3005901,12.8429079 C43.9394975,12.9496011 43.5582196,13.003236 43.165167,13.003236 C42.8876191,13.003236 42.6167997,12.9755535 42.3543908,12.9224953 C42.9027581,14.7270514 44.4929111,16.0413957 46.3785545,16.0765756 C44.9044669,17.2957611 43.0457373,18.022428 41.0277681,18.022428 C40.6801324,18.022428 40.3364216,18.0016661 40,17.9601423 C41.9063893,19.2473807 44.1721891,20 46.6045177,20 C54.530051,20 58.8626011,13.0770562 58.8626011,7.07167345 C58.8626011,6.87385858 58.8592369,6.67662042 58.8519478,6.48284259 C59.6935626,5.84210695 60.424719,5.04219666 61,4.13097946 C60.228473,4.49200602 59.3975115,4.7365352 58.5261795,4.84611195 C59.4160147,4.28438691 60.0989507,3.39393163 60.4207941,2.33276729" id="Twitter"></path>
                        </g>
                    </g>
                </g>
            </g>
        </g>
    </g>
</svg>