<?xml version="1.0" encoding="UTF-8"?>
<svg width="18px" height="18px" viewBox="0 0 18 18" version="1.1" xmlns="http://www.w3.org/2000/svg" xmlns:xlink="http://www.w3.org/1999/xlink">
    <!-- Generator: sketchtool 51.3 (57544) - http://www.bohemiancoding.com/sketch -->
    <title>9487A50C-D34A-4380-A5B8-9D1DD8B92CEF-714-0002798B825FA6BF</title>
    <desc>Created with sketchtool.</desc>
    <defs></defs>
    <g id="Design" stroke="none" stroke-width="1" fill="none" fill-rule="evenodd" stroke-linecap="round" stroke-linejoin="round">
        <g id="1a-Home-header-scroll" transform="translate(-1117.000000, -4651.000000)" stroke="#F1653C" stroke-width="1.5">
            <g id="Footer" transform="translate(0.000000, 4463.000000)">
                <g id="Group-3">
                    <g transform="translate(1114.000000, 78.000000)">
                        <g id="Group" transform="translate(4.000000, 111.000000)">
                            <g id="phone">
                                <path d="M10.1617915,15.3794494 L10.170325,15.3844266 C11.7262441,16.3748865 13.7614537,16.1517048 15.0656845,14.8476 L15.6160924,14.2972639 C16.1279692,13.7848114 16.1279692,12.954643 15.6160924,12.4421905 L13.2971256,10.1249485 C12.7846062,9.61313848 11.9543294,9.61313848 11.44181,10.1249485 C11.1959792,10.37105 10.8623792,10.509334 10.5145077,10.509334 C10.1666362,10.509334 9.83303625,10.37105 9.58720547,10.1249485 L5.87657418,6.41409052 C5.36469738,5.90163799 5.36469738,5.07146959 5.87657418,4.55901706 C6.1227079,4.31321836 6.26100988,3.97966194 6.26100988,3.63183585 C6.26100988,3.28400975 6.1227079,2.95045333 5.87657418,2.70465463 L3.55831853,0.383857486 C3.0457991,-0.127952495 2.21552232,-0.127952495 1.70300289,0.383857486 L1.15259495,0.934193575 C-0.151399149,2.23832194 -0.374866354,4.27290849 0.614987202,5.82891403 L0.620676173,5.83744637 C3.16180624,9.59866287 6.40065221,12.8378102 10.1617915,15.3794494 Z" id="Shape"></path>
                            </g>
                        </g>
                    </g>
                </g>
            </g>
        </g>
    </g>
</svg>