<?xml version="1.0" encoding="UTF-8"?>
<svg width="24px" height="20px" viewBox="0 0 24 20" version="1.1" xmlns="http://www.w3.org/2000/svg" xmlns:xlink="http://www.w3.org/1999/xlink">
    <!-- Generator: sketchtool 51.3 (57544) - http://www.bohemiancoding.com/sketch -->
    <title>7D7330B3-D8B5-4114-BC6F-4A4838E7031D-555-0000184AC07619CA-black</title>
    <desc>Created with sketchtool.</desc>
    <defs></defs>
    <g id="Design" stroke="none" stroke-width="1" fill="none" fill-rule="evenodd">
        <g id="1a-Home" transform="translate(-1199.000000, -5600.000000)" fill="#171A3B">
            <g id="Footer" transform="translate(0.000000, 5483.000000)">
                <g id="Group-3">
                    <g transform="translate(1114.000000, 78.000000)">
                        <g id="Social" transform="translate(1.500000, 39.000000)">
                            <path d="M107,20 L101.916686,20 L101.916686,12.9692002 C101.916686,11.128898 101.121531,9.87257476 99.3730009,9.87257476 C98.0355715,9.87257476 97.2918039,10.7203688 96.9456138,11.5374272 C96.8157926,11.8306973 96.8360771,12.2392265 96.8360771,12.6477557 L96.8360771,20 L91.8000941,20 C91.8000941,20 91.8650047,7.54562336 91.8000941,6.41352372 L96.8360771,6.41352372 L96.8360771,8.54581546 C97.1335842,7.61349811 98.7428269,6.28289684 101.310854,6.28289684 C104.496884,6.28289684 107,8.23717743 107,12.4454121 L107,20 L107,20 Z M86.7073142,4.71409362 L86.6748589,4.71409362 C85.0520931,4.71409362 84,3.67548185 84,2.35896779 C84,1.01684062 85.0831961,0 86.7384172,0 C88.392286,0 89.4092192,1.01427931 89.4416745,2.35512582 C89.4416745,3.67163988 88.392286,4.71409362 86.7073142,4.71409362 L86.7073142,4.71409362 L86.7073142,4.71409362 Z M84.5801388,6.41352372 L89.0630292,6.41352372 L89.0630292,20 L84.5801388,20 L84.5801388,6.41352372 L84.5801388,6.41352372 Z" id="LinkedIn"></path>
                        </g>
                    </g>
                </g>
            </g>
        </g>
    </g>
</svg>