<?xml version="1.0" encoding="UTF-8"?>
<svg width="71px" height="139px" viewBox="0 0 71 139" version="1.1" xmlns="http://www.w3.org/2000/svg" xmlns:xlink="http://www.w3.org/1999/xlink">
    <!-- Generator: Sketch 52 (66869) - http://www.bohemiancoding.com/sketch -->
    <title>Oval3</title>
    <desc>Created with Sketch.</desc>
    <g id="Design" stroke="none" stroke-width="1" fill="none" fill-rule="evenodd">
        <g id="4a-Techniciens" transform="translate(-510.000000, -2789.000000)" fill="#FFFFFF" fill-rule="nonzero">
            <g id="Section-3" transform="translate(0.000000, 2308.000000)">
                <g id="1" transform="translate(195.000000, 332.000000)">
                    <g id="Illustration1-section3">
                        <path d="M283.331027,253.280228 C282.500137,253.280228 281.826568,252.608655 281.826568,251.780228 C281.826568,250.951801 282.500137,250.280228 283.331027,250.280228 C284.161917,250.280228 284.835486,250.951801 284.835486,251.780228 C284.835486,252.608655 284.161917,253.280228 283.331027,253.280228 Z M300.157595,253.280228 C299.326706,253.280228 298.653137,252.608655 298.653137,251.780228 C298.653137,250.951801 299.326706,250.280228 300.157595,250.280228 C300.988485,250.280228 301.662054,250.951801 301.662054,251.780228 C301.662054,252.608655 300.988485,253.280228 300.157595,253.280228 Z M316.984164,253.280228 C316.153274,253.280228 315.479705,252.608655 315.479705,251.780228 C315.479705,250.951801 316.153274,250.280228 316.984164,250.280228 C317.815053,250.280228 318.488622,250.951801 318.488622,251.780228 C318.488622,252.608655 317.815053,253.280228 316.984164,253.280228 Z M333.810732,253.280228 C332.979842,253.280228 332.306273,252.608655 332.306273,251.780228 C332.306273,250.951801 332.979842,250.280228 333.810732,250.280228 C334.641622,250.280228 335.315191,250.951801 335.315191,251.780228 C335.315191,252.608655 334.641622,253.280228 333.810732,253.280228 Z M350.6373,253.280228 C349.80641,253.280228 349.132841,252.608655 349.132841,251.780228 C349.132841,250.951801 349.80641,250.280228 350.6373,250.280228 C351.46819,250.280228 352.141759,250.951801 352.141759,251.780228 C352.141759,252.608655 351.46819,253.280228 350.6373,253.280228 Z M367.463868,253.280228 C366.632979,253.280228 365.95941,252.608655 365.95941,251.780228 C365.95941,250.951801 366.632979,250.280228 367.463868,250.280228 C368.294758,250.280228 368.968327,250.951801 368.968327,251.780228 C368.968327,252.608655 368.294758,253.280228 367.463868,253.280228 Z M384.290437,253.280228 C383.459547,253.280228 382.785978,252.608655 382.785978,251.780228 C382.785978,250.951801 383.459547,250.280228 384.290437,250.280228 C385.121326,250.280228 385.794895,250.951801 385.794895,251.780228 C385.794895,252.608655 385.121326,253.280228 384.290437,253.280228 Z M401.117005,253.280228 C400.286115,253.280228 399.612546,252.608655 399.612546,251.780228 C399.612546,250.951801 400.286115,250.280228 401.117005,250.280228 C401.947895,250.280228 402.621464,250.951801 402.621464,251.780228 C402.621464,252.608655 401.947895,253.280228 401.117005,253.280228 Z M417.943573,253.280228 C417.112684,253.280228 416.439114,252.608655 416.439114,251.780228 C416.439114,250.951801 417.112684,250.280228 417.943573,250.280228 C418.774463,250.280228 419.448032,250.951801 419.448032,251.780228 C419.448032,252.608655 418.774463,253.280228 417.943573,253.280228 Z M283.331027,236.503529 C282.500137,236.503529 281.826568,235.831956 281.826568,235.003529 C281.826568,234.175102 282.500137,233.503529 283.331027,233.503529 C284.161917,233.503529 284.835486,234.175102 284.835486,235.003529 C284.835486,235.831956 284.161917,236.503529 283.331027,236.503529 Z M300.157595,236.503529 C299.326706,236.503529 298.653137,235.831956 298.653137,235.003529 C298.653137,234.175102 299.326706,233.503529 300.157595,233.503529 C300.988485,233.503529 301.662054,234.175102 301.662054,235.003529 C301.662054,235.831956 300.988485,236.503529 300.157595,236.503529 Z M316.984164,236.503529 C316.153274,236.503529 315.479705,235.831956 315.479705,235.003529 C315.479705,234.175102 316.153274,233.503529 316.984164,233.503529 C317.815053,233.503529 318.488622,234.175102 318.488622,235.003529 C318.488622,235.831956 317.815053,236.503529 316.984164,236.503529 Z M333.810732,236.503529 C332.979842,236.503529 332.306273,235.831956 332.306273,235.003529 C332.306273,234.175102 332.979842,233.503529 333.810732,233.503529 C334.641622,233.503529 335.315191,234.175102 335.315191,235.003529 C335.315191,235.831956 334.641622,236.503529 333.810732,236.503529 Z M350.6373,236.503529 C349.80641,236.503529 349.132841,235.831956 349.132841,235.003529 C349.132841,234.175102 349.80641,233.503529 350.6373,233.503529 C351.46819,233.503529 352.141759,234.175102 352.141759,235.003529 C352.141759,235.831956 351.46819,236.503529 350.6373,236.503529 Z M367.463868,236.503529 C366.632979,236.503529 365.95941,235.831956 365.95941,235.003529 C365.95941,234.175102 366.632979,233.503529 367.463868,233.503529 C368.294758,233.503529 368.968327,234.175102 368.968327,235.003529 C368.968327,235.831956 368.294758,236.503529 367.463868,236.503529 Z M384.290437,236.503529 C383.459547,236.503529 382.785978,235.831956 382.785978,235.003529 C382.785978,234.175102 383.459547,233.503529 384.290437,233.503529 C385.121326,233.503529 385.794895,234.175102 385.794895,235.003529 C385.794895,235.831956 385.121326,236.503529 384.290437,236.503529 Z M401.117005,236.503529 C400.286115,236.503529 399.612546,235.831956 399.612546,235.003529 C399.612546,234.175102 400.286115,233.503529 401.117005,233.503529 C401.947895,233.503529 402.621464,234.175102 402.621464,235.003529 C402.621464,235.831956 401.947895,236.503529 401.117005,236.503529 Z M417.943573,236.503529 C417.112684,236.503529 416.439114,235.831956 416.439114,235.003529 C416.439114,234.175102 417.112684,233.503529 417.943573,233.503529 C418.774463,233.503529 419.448032,234.175102 419.448032,235.003529 C419.448032,235.831956 418.774463,236.503529 417.943573,236.503529 Z M283.331027,219.72683 C282.500137,219.72683 281.826568,219.055257 281.826568,218.22683 C281.826568,217.398403 282.500137,216.72683 283.331027,216.72683 C284.161917,216.72683 284.835486,217.398403 284.835486,218.22683 C284.835486,219.055257 284.161917,219.72683 283.331027,219.72683 Z M300.157595,219.72683 C299.326706,219.72683 298.653137,219.055257 298.653137,218.22683 C298.653137,217.398403 299.326706,216.72683 300.157595,216.72683 C300.988485,216.72683 301.662054,217.398403 301.662054,218.22683 C301.662054,219.055257 300.988485,219.72683 300.157595,219.72683 Z M316.984164,219.72683 C316.153274,219.72683 315.479705,219.055257 315.479705,218.22683 C315.479705,217.398403 316.153274,216.72683 316.984164,216.72683 C317.815053,216.72683 318.488622,217.398403 318.488622,218.22683 C318.488622,219.055257 317.815053,219.72683 316.984164,219.72683 Z M333.810732,219.72683 C332.979842,219.72683 332.306273,219.055257 332.306273,218.22683 C332.306273,217.398403 332.979842,216.72683 333.810732,216.72683 C334.641622,216.72683 335.315191,217.398403 335.315191,218.22683 C335.315191,219.055257 334.641622,219.72683 333.810732,219.72683 Z M350.6373,219.72683 C349.80641,219.72683 349.132841,219.055257 349.132841,218.22683 C349.132841,217.398403 349.80641,216.72683 350.6373,216.72683 C351.46819,216.72683 352.141759,217.398403 352.141759,218.22683 C352.141759,219.055257 351.46819,219.72683 350.6373,219.72683 Z M367.463868,219.72683 C366.632979,219.72683 365.95941,219.055257 365.95941,218.22683 C365.95941,217.398403 366.632979,216.72683 367.463868,216.72683 C368.294758,216.72683 368.968327,217.398403 368.968327,218.22683 C368.968327,219.055257 368.294758,219.72683 367.463868,219.72683 Z M384.290437,219.72683 C383.459547,219.72683 382.785978,219.055257 382.785978,218.22683 C382.785978,217.398403 383.459547,216.72683 384.290437,216.72683 C385.121326,216.72683 385.794895,217.398403 385.794895,218.22683 C385.794895,219.055257 385.121326,219.72683 384.290437,219.72683 Z M401.117005,219.72683 C400.286115,219.72683 399.612546,219.055257 399.612546,218.22683 C399.612546,217.398403 400.286115,216.72683 401.117005,216.72683 C401.947895,216.72683 402.621464,217.398403 402.621464,218.22683 C402.621464,219.055257 401.947895,219.72683 401.117005,219.72683 Z M417.943573,219.72683 C417.112684,219.72683 416.439114,219.055257 416.439114,218.22683 C416.439114,217.398403 417.112684,216.72683 417.943573,216.72683 C418.774463,216.72683 419.448032,217.398403 419.448032,218.22683 C419.448032,219.055257 418.774463,219.72683 417.943573,219.72683 Z M283.331027,202.950131 C282.500137,202.950131 281.826568,202.278558 281.826568,201.450131 C281.826568,200.621704 282.500137,199.950131 283.331027,199.950131 C284.161917,199.950131 284.835486,200.621704 284.835486,201.450131 C284.835486,202.278558 284.161917,202.950131 283.331027,202.950131 Z M300.157595,202.950131 C299.326706,202.950131 298.653137,202.278558 298.653137,201.450131 C298.653137,200.621704 299.326706,199.950131 300.157595,199.950131 C300.988485,199.950131 301.662054,200.621704 301.662054,201.450131 C301.662054,202.278558 300.988485,202.950131 300.157595,202.950131 Z M316.984164,202.950131 C316.153274,202.950131 315.479705,202.278558 315.479705,201.450131 C315.479705,200.621704 316.153274,199.950131 316.984164,199.950131 C317.815053,199.950131 318.488622,200.621704 318.488622,201.450131 C318.488622,202.278558 317.815053,202.950131 316.984164,202.950131 Z M333.810732,202.950131 C332.979842,202.950131 332.306273,202.278558 332.306273,201.450131 C332.306273,200.621704 332.979842,199.950131 333.810732,199.950131 C334.641622,199.950131 335.315191,200.621704 335.315191,201.450131 C335.315191,202.278558 334.641622,202.950131 333.810732,202.950131 Z M350.6373,202.950131 C349.80641,202.950131 349.132841,202.278558 349.132841,201.450131 C349.132841,200.621704 349.80641,199.950131 350.6373,199.950131 C351.46819,199.950131 352.141759,200.621704 352.141759,201.450131 C352.141759,202.278558 351.46819,202.950131 350.6373,202.950131 Z M367.463868,202.950131 C366.632979,202.950131 365.95941,202.278558 365.95941,201.450131 C365.95941,200.621704 366.632979,199.950131 367.463868,199.950131 C368.294758,199.950131 368.968327,200.621704 368.968327,201.450131 C368.968327,202.278558 368.294758,202.950131 367.463868,202.950131 Z M384.290437,202.950131 C383.459547,202.950131 382.785978,202.278558 382.785978,201.450131 C382.785978,200.621704 383.459547,199.950131 384.290437,199.950131 C385.121326,199.950131 385.794895,200.621704 385.794895,201.450131 C385.794895,202.278558 385.121326,202.950131 384.290437,202.950131 Z M401.117005,202.950131 C400.286115,202.950131 399.612546,202.278558 399.612546,201.450131 C399.612546,200.621704 400.286115,199.950131 401.117005,199.950131 C401.947895,199.950131 402.621464,200.621704 402.621464,201.450131 C402.621464,202.278558 401.947895,202.950131 401.117005,202.950131 Z M417.943573,202.950131 C417.112684,202.950131 416.439114,202.278558 416.439114,201.450131 C416.439114,200.621704 417.112684,199.950131 417.943573,199.950131 C418.774463,199.950131 419.448032,200.621704 419.448032,201.450131 C419.448032,202.278558 418.774463,202.950131 417.943573,202.950131 Z M283.331027,186.173432 C282.500137,186.173432 281.826568,185.501859 281.826568,184.673432 C281.826568,183.845005 282.500137,183.173432 283.331027,183.173432 C284.161917,183.173432 284.835486,183.845005 284.835486,184.673432 C284.835486,185.501859 284.161917,186.173432 283.331027,186.173432 Z M300.157595,186.173432 C299.326706,186.173432 298.653137,185.501859 298.653137,184.673432 C298.653137,183.845005 299.326706,183.173432 300.157595,183.173432 C300.988485,183.173432 301.662054,183.845005 301.662054,184.673432 C301.662054,185.501859 300.988485,186.173432 300.157595,186.173432 Z M316.984164,186.173432 C316.153274,186.173432 315.479705,185.501859 315.479705,184.673432 C315.479705,183.845005 316.153274,183.173432 316.984164,183.173432 C317.815053,183.173432 318.488622,183.845005 318.488622,184.673432 C318.488622,185.501859 317.815053,186.173432 316.984164,186.173432 Z M333.810732,186.173432 C332.979842,186.173432 332.306273,185.501859 332.306273,184.673432 C332.306273,183.845005 332.979842,183.173432 333.810732,183.173432 C334.641622,183.173432 335.315191,183.845005 335.315191,184.673432 C335.315191,185.501859 334.641622,186.173432 333.810732,186.173432 Z M350.6373,186.173432 C349.80641,186.173432 349.132841,185.501859 349.132841,184.673432 C349.132841,183.845005 349.80641,183.173432 350.6373,183.173432 C351.46819,183.173432 352.141759,183.845005 352.141759,184.673432 C352.141759,185.501859 351.46819,186.173432 350.6373,186.173432 Z M367.463868,186.173432 C366.632979,186.173432 365.95941,185.501859 365.95941,184.673432 C365.95941,183.845005 366.632979,183.173432 367.463868,183.173432 C368.294758,183.173432 368.968327,183.845005 368.968327,184.673432 C368.968327,185.501859 368.294758,186.173432 367.463868,186.173432 Z M384.290437,186.173432 C383.459547,186.173432 382.785978,185.501859 382.785978,184.673432 C382.785978,183.845005 383.459547,183.173432 384.290437,183.173432 C385.121326,183.173432 385.794895,183.845005 385.794895,184.673432 C385.794895,185.501859 385.121326,186.173432 384.290437,186.173432 Z M401.117005,186.173432 C400.286115,186.173432 399.612546,185.501859 399.612546,184.673432 C399.612546,183.845005 400.286115,183.173432 401.117005,183.173432 C401.947895,183.173432 402.621464,183.845005 402.621464,184.673432 C402.621464,185.501859 401.947895,186.173432 401.117005,186.173432 Z M417.943573,186.173432 C417.112684,186.173432 416.439114,185.501859 416.439114,184.673432 C416.439114,183.845005 417.112684,183.173432 417.943573,183.173432 C418.774463,183.173432 419.448032,183.845005 419.448032,184.673432 C419.448032,185.501859 418.774463,186.173432 417.943573,186.173432 Z" id="Oval3" transform="translate(350.637300, 218.226830) rotate(-270.000000) translate(-350.637300, -218.226830) "></path>
                    </g>
                </g>
            </g>
        </g>
    </g>
</svg>