<?xml version="1.0" encoding="UTF-8"?>
<svg width="71px" height="138px" viewBox="0 0 71 138" version="1.1" xmlns="http://www.w3.org/2000/svg" xmlns:xlink="http://www.w3.org/1999/xlink">
    <!-- Generator: Sketch 52 (66869) - http://www.bohemiancoding.com/sketch -->
    <title>Oval</title>
    <desc>Created with Sketch.</desc>
    <g id="Design" stroke="none" stroke-width="1" fill="none" fill-rule="evenodd">
        <g id="4b-Techniciens" transform="translate(-764.000000, -1295.000000)" fill="#272C6C" fill-rule="nonzero">
            <g id="Section-2" transform="translate(229.000000, 1091.000000)">
                <g id="illu-section2" transform="translate(335.000000, 160.000000)">
                    <path d="M167.747125,147.86413 C166.916235,147.86413 166.242666,147.192557 166.242666,146.36413 C166.242666,145.535703 166.916235,144.86413 167.747125,144.86413 C168.578015,144.86413 169.251584,145.535703 169.251584,146.36413 C169.251584,147.192557 168.578015,147.86413 167.747125,147.86413 Z M184.573693,147.86413 C183.742804,147.86413 183.069234,147.192557 183.069234,146.36413 C183.069234,145.535703 183.742804,144.86413 184.573693,144.86413 C185.404583,144.86413 186.078152,145.535703 186.078152,146.36413 C186.078152,147.192557 185.404583,147.86413 184.573693,147.86413 Z M201.400262,147.86413 C200.569372,147.86413 199.895803,147.192557 199.895803,146.36413 C199.895803,145.535703 200.569372,144.86413 201.400262,144.86413 C202.231151,144.86413 202.90472,145.535703 202.90472,146.36413 C202.90472,147.192557 202.231151,147.86413 201.400262,147.86413 Z M218.22683,147.86413 C217.39594,147.86413 216.722371,147.192557 216.722371,146.36413 C216.722371,145.535703 217.39594,144.86413 218.22683,144.86413 C219.057719,144.86413 219.731289,145.535703 219.731289,146.36413 C219.731289,147.192557 219.057719,147.86413 218.22683,147.86413 Z M235.053398,147.86413 C234.222508,147.86413 233.548939,147.192557 233.548939,146.36413 C233.548939,145.535703 234.222508,144.86413 235.053398,144.86413 C235.884288,144.86413 236.557857,145.535703 236.557857,146.36413 C236.557857,147.192557 235.884288,147.86413 235.053398,147.86413 Z M251.879966,147.86413 C251.049077,147.86413 250.375508,147.192557 250.375508,146.36413 C250.375508,145.535703 251.049077,144.86413 251.879966,144.86413 C252.710856,144.86413 253.384425,145.535703 253.384425,146.36413 C253.384425,147.192557 252.710856,147.86413 251.879966,147.86413 Z M268.706535,147.86413 C267.875645,147.86413 267.202076,147.192557 267.202076,146.36413 C267.202076,145.535703 267.875645,144.86413 268.706535,144.86413 C269.537424,144.86413 270.210993,145.535703 270.210993,146.36413 C270.210993,147.192557 269.537424,147.86413 268.706535,147.86413 Z M285.533103,147.86413 C284.702213,147.86413 284.028644,147.192557 284.028644,146.36413 C284.028644,145.535703 284.702213,144.86413 285.533103,144.86413 C286.363993,144.86413 287.037562,145.535703 287.037562,146.36413 C287.037562,147.192557 286.363993,147.86413 285.533103,147.86413 Z M302.359671,147.86413 C301.528781,147.86413 300.855212,147.192557 300.855212,146.36413 C300.855212,145.535703 301.528781,144.86413 302.359671,144.86413 C303.190561,144.86413 303.86413,145.535703 303.86413,146.36413 C303.86413,147.192557 303.190561,147.86413 302.359671,147.86413 Z M167.747125,131.087431 C166.916235,131.087431 166.242666,130.415858 166.242666,129.587431 C166.242666,128.759004 166.916235,128.087431 167.747125,128.087431 C168.578015,128.087431 169.251584,128.759004 169.251584,129.587431 C169.251584,130.415858 168.578015,131.087431 167.747125,131.087431 Z M184.573693,131.087431 C183.742804,131.087431 183.069234,130.415858 183.069234,129.587431 C183.069234,128.759004 183.742804,128.087431 184.573693,128.087431 C185.404583,128.087431 186.078152,128.759004 186.078152,129.587431 C186.078152,130.415858 185.404583,131.087431 184.573693,131.087431 Z M201.400262,131.087431 C200.569372,131.087431 199.895803,130.415858 199.895803,129.587431 C199.895803,128.759004 200.569372,128.087431 201.400262,128.087431 C202.231151,128.087431 202.90472,128.759004 202.90472,129.587431 C202.90472,130.415858 202.231151,131.087431 201.400262,131.087431 Z M218.22683,131.087431 C217.39594,131.087431 216.722371,130.415858 216.722371,129.587431 C216.722371,128.759004 217.39594,128.087431 218.22683,128.087431 C219.057719,128.087431 219.731289,128.759004 219.731289,129.587431 C219.731289,130.415858 219.057719,131.087431 218.22683,131.087431 Z M235.053398,131.087431 C234.222508,131.087431 233.548939,130.415858 233.548939,129.587431 C233.548939,128.759004 234.222508,128.087431 235.053398,128.087431 C235.884288,128.087431 236.557857,128.759004 236.557857,129.587431 C236.557857,130.415858 235.884288,131.087431 235.053398,131.087431 Z M251.879966,131.087431 C251.049077,131.087431 250.375508,130.415858 250.375508,129.587431 C250.375508,128.759004 251.049077,128.087431 251.879966,128.087431 C252.710856,128.087431 253.384425,128.759004 253.384425,129.587431 C253.384425,130.415858 252.710856,131.087431 251.879966,131.087431 Z M268.706535,131.087431 C267.875645,131.087431 267.202076,130.415858 267.202076,129.587431 C267.202076,128.759004 267.875645,128.087431 268.706535,128.087431 C269.537424,128.087431 270.210993,128.759004 270.210993,129.587431 C270.210993,130.415858 269.537424,131.087431 268.706535,131.087431 Z M285.533103,131.087431 C284.702213,131.087431 284.028644,130.415858 284.028644,129.587431 C284.028644,128.759004 284.702213,128.087431 285.533103,128.087431 C286.363993,128.087431 287.037562,128.759004 287.037562,129.587431 C287.037562,130.415858 286.363993,131.087431 285.533103,131.087431 Z M302.359671,131.087431 C301.528781,131.087431 300.855212,130.415858 300.855212,129.587431 C300.855212,128.759004 301.528781,128.087431 302.359671,128.087431 C303.190561,128.087431 303.86413,128.759004 303.86413,129.587431 C303.86413,130.415858 303.190561,131.087431 302.359671,131.087431 Z M167.747125,114.310732 C166.916235,114.310732 166.242666,113.639159 166.242666,112.810732 C166.242666,111.982305 166.916235,111.310732 167.747125,111.310732 C168.578015,111.310732 169.251584,111.982305 169.251584,112.810732 C169.251584,113.639159 168.578015,114.310732 167.747125,114.310732 Z M184.573693,114.310732 C183.742804,114.310732 183.069234,113.639159 183.069234,112.810732 C183.069234,111.982305 183.742804,111.310732 184.573693,111.310732 C185.404583,111.310732 186.078152,111.982305 186.078152,112.810732 C186.078152,113.639159 185.404583,114.310732 184.573693,114.310732 Z M201.400262,114.310732 C200.569372,114.310732 199.895803,113.639159 199.895803,112.810732 C199.895803,111.982305 200.569372,111.310732 201.400262,111.310732 C202.231151,111.310732 202.90472,111.982305 202.90472,112.810732 C202.90472,113.639159 202.231151,114.310732 201.400262,114.310732 Z M218.22683,114.310732 C217.39594,114.310732 216.722371,113.639159 216.722371,112.810732 C216.722371,111.982305 217.39594,111.310732 218.22683,111.310732 C219.057719,111.310732 219.731289,111.982305 219.731289,112.810732 C219.731289,113.639159 219.057719,114.310732 218.22683,114.310732 Z M235.053398,114.310732 C234.222508,114.310732 233.548939,113.639159 233.548939,112.810732 C233.548939,111.982305 234.222508,111.310732 235.053398,111.310732 C235.884288,111.310732 236.557857,111.982305 236.557857,112.810732 C236.557857,113.639159 235.884288,114.310732 235.053398,114.310732 Z M251.879966,114.310732 C251.049077,114.310732 250.375508,113.639159 250.375508,112.810732 C250.375508,111.982305 251.049077,111.310732 251.879966,111.310732 C252.710856,111.310732 253.384425,111.982305 253.384425,112.810732 C253.384425,113.639159 252.710856,114.310732 251.879966,114.310732 Z M268.706535,114.310732 C267.875645,114.310732 267.202076,113.639159 267.202076,112.810732 C267.202076,111.982305 267.875645,111.310732 268.706535,111.310732 C269.537424,111.310732 270.210993,111.982305 270.210993,112.810732 C270.210993,113.639159 269.537424,114.310732 268.706535,114.310732 Z M285.533103,114.310732 C284.702213,114.310732 284.028644,113.639159 284.028644,112.810732 C284.028644,111.982305 284.702213,111.310732 285.533103,111.310732 C286.363993,111.310732 287.037562,111.982305 287.037562,112.810732 C287.037562,113.639159 286.363993,114.310732 285.533103,114.310732 Z M302.359671,114.310732 C301.528781,114.310732 300.855212,113.639159 300.855212,112.810732 C300.855212,111.982305 301.528781,111.310732 302.359671,111.310732 C303.190561,111.310732 303.86413,111.982305 303.86413,112.810732 C303.86413,113.639159 303.190561,114.310732 302.359671,114.310732 Z M167.747125,97.5340328 C166.916235,97.5340328 166.242666,96.86246 166.242666,96.0340328 C166.242666,95.2056057 166.916235,94.5340328 167.747125,94.5340328 C168.578015,94.5340328 169.251584,95.2056057 169.251584,96.0340328 C169.251584,96.86246 168.578015,97.5340328 167.747125,97.5340328 Z M184.573693,97.5340328 C183.742804,97.5340328 183.069234,96.86246 183.069234,96.0340328 C183.069234,95.2056057 183.742804,94.5340328 184.573693,94.5340328 C185.404583,94.5340328 186.078152,95.2056057 186.078152,96.0340328 C186.078152,96.86246 185.404583,97.5340328 184.573693,97.5340328 Z M201.400262,97.5340328 C200.569372,97.5340328 199.895803,96.86246 199.895803,96.0340328 C199.895803,95.2056057 200.569372,94.5340328 201.400262,94.5340328 C202.231151,94.5340328 202.90472,95.2056057 202.90472,96.0340328 C202.90472,96.86246 202.231151,97.5340328 201.400262,97.5340328 Z M218.22683,97.5340328 C217.39594,97.5340328 216.722371,96.86246 216.722371,96.0340328 C216.722371,95.2056057 217.39594,94.5340328 218.22683,94.5340328 C219.057719,94.5340328 219.731289,95.2056057 219.731289,96.0340328 C219.731289,96.86246 219.057719,97.5340328 218.22683,97.5340328 Z M235.053398,97.5340328 C234.222508,97.5340328 233.548939,96.86246 233.548939,96.0340328 C233.548939,95.2056057 234.222508,94.5340328 235.053398,94.5340328 C235.884288,94.5340328 236.557857,95.2056057 236.557857,96.0340328 C236.557857,96.86246 235.884288,97.5340328 235.053398,97.5340328 Z M251.879966,97.5340328 C251.049077,97.5340328 250.375508,96.86246 250.375508,96.0340328 C250.375508,95.2056057 251.049077,94.5340328 251.879966,94.5340328 C252.710856,94.5340328 253.384425,95.2056057 253.384425,96.0340328 C253.384425,96.86246 252.710856,97.5340328 251.879966,97.5340328 Z M268.706535,97.5340328 C267.875645,97.5340328 267.202076,96.86246 267.202076,96.0340328 C267.202076,95.2056057 267.875645,94.5340328 268.706535,94.5340328 C269.537424,94.5340328 270.210993,95.2056057 270.210993,96.0340328 C270.210993,96.86246 269.537424,97.5340328 268.706535,97.5340328 Z M285.533103,97.5340328 C284.702213,97.5340328 284.028644,96.86246 284.028644,96.0340328 C284.028644,95.2056057 284.702213,94.5340328 285.533103,94.5340328 C286.363993,94.5340328 287.037562,95.2056057 287.037562,96.0340328 C287.037562,96.86246 286.363993,97.5340328 285.533103,97.5340328 Z M302.359671,97.5340328 C301.528781,97.5340328 300.855212,96.86246 300.855212,96.0340328 C300.855212,95.2056057 301.528781,94.5340328 302.359671,94.5340328 C303.190561,94.5340328 303.86413,95.2056057 303.86413,96.0340328 C303.86413,96.86246 303.190561,97.5340328 302.359671,97.5340328 Z M167.747125,80.7573338 C166.916235,80.7573338 166.242666,80.0857609 166.242666,79.2573338 C166.242666,78.4289067 166.916235,77.7573338 167.747125,77.7573338 C168.578015,77.7573338 169.251584,78.4289067 169.251584,79.2573338 C169.251584,80.0857609 168.578015,80.7573338 167.747125,80.7573338 Z M184.573693,80.7573338 C183.742804,80.7573338 183.069234,80.0857609 183.069234,79.2573338 C183.069234,78.4289067 183.742804,77.7573338 184.573693,77.7573338 C185.404583,77.7573338 186.078152,78.4289067 186.078152,79.2573338 C186.078152,80.0857609 185.404583,80.7573338 184.573693,80.7573338 Z M201.400262,80.7573338 C200.569372,80.7573338 199.895803,80.0857609 199.895803,79.2573338 C199.895803,78.4289067 200.569372,77.7573338 201.400262,77.7573338 C202.231151,77.7573338 202.90472,78.4289067 202.90472,79.2573338 C202.90472,80.0857609 202.231151,80.7573338 201.400262,80.7573338 Z M218.22683,80.7573338 C217.39594,80.7573338 216.722371,80.0857609 216.722371,79.2573338 C216.722371,78.4289067 217.39594,77.7573338 218.22683,77.7573338 C219.057719,77.7573338 219.731289,78.4289067 219.731289,79.2573338 C219.731289,80.0857609 219.057719,80.7573338 218.22683,80.7573338 Z M235.053398,80.7573338 C234.222508,80.7573338 233.548939,80.0857609 233.548939,79.2573338 C233.548939,78.4289067 234.222508,77.7573338 235.053398,77.7573338 C235.884288,77.7573338 236.557857,78.4289067 236.557857,79.2573338 C236.557857,80.0857609 235.884288,80.7573338 235.053398,80.7573338 Z M251.879966,80.7573338 C251.049077,80.7573338 250.375508,80.0857609 250.375508,79.2573338 C250.375508,78.4289067 251.049077,77.7573338 251.879966,77.7573338 C252.710856,77.7573338 253.384425,78.4289067 253.384425,79.2573338 C253.384425,80.0857609 252.710856,80.7573338 251.879966,80.7573338 Z M268.706535,80.7573338 C267.875645,80.7573338 267.202076,80.0857609 267.202076,79.2573338 C267.202076,78.4289067 267.875645,77.7573338 268.706535,77.7573338 C269.537424,77.7573338 270.210993,78.4289067 270.210993,79.2573338 C270.210993,80.0857609 269.537424,80.7573338 268.706535,80.7573338 Z M285.533103,80.7573338 C284.702213,80.7573338 284.028644,80.0857609 284.028644,79.2573338 C284.028644,78.4289067 284.702213,77.7573338 285.533103,77.7573338 C286.363993,77.7573338 287.037562,78.4289067 287.037562,79.2573338 C287.037562,80.0857609 286.363993,80.7573338 285.533103,80.7573338 Z M302.359671,80.7573338 C301.528781,80.7573338 300.855212,80.0857609 300.855212,79.2573338 C300.855212,78.4289067 301.528781,77.7573338 302.359671,77.7573338 C303.190561,77.7573338 303.86413,78.4289067 303.86413,79.2573338 C303.86413,80.0857609 303.190561,80.7573338 302.359671,80.7573338 Z" id="Oval" transform="translate(235.053398, 112.810732) rotate(-270.000000) translate(-235.053398, -112.810732) "></path>
                </g>
            </g>
        </g>
    </g>
</svg>