<svg width="755" height="718" xmlns="http://www.w3.org/2000/svg" xmlns:xlink="http://www.w3.org/1999/xlink"><defs><linearGradient x1="53.9%" y1="50%" x2="53.9%" y2="96.9%" id="c"><stop stop-color="#272C6C" offset="0%"/><stop stop-color="#1D204F" offset="100%"/></linearGradient><ellipse id="b" cx="374.5" cy="664.6" rx="374.5" ry="218.6"/><filter x="-1.9%" y="-2.5%" width="103.7%" height="110.1%" filterUnits="objectBoundingBox" id="a"><feOffset dy="19" in="SourceAlpha" result="shadowOffsetOuter1"/><feGaussianBlur stdDeviation="1.5" in="shadowOffsetOuter1" result="shadowBlurOuter1"/><feColorMatrix values="0 0 0 0 0.0941176471 0 0 0 0 0.125490196 0 0 0 0 0.474509804 0 0 0 0.3 0" in="shadowBlurOuter1"/></filter><linearGradient x1="50%" y1="42.3%" x2="50.1%" y2="-58.4%" id="d"><stop stop-color="#1571C4" offset="0%"/><stop stop-color="#8C62A7" offset="100%"/></linearGradient><linearGradient x1="100%" y1="50%" x2="0%" y2="50%" id="e"><stop stop-color="#1A568F" offset="0%"/><stop stop-color="#52C2D6" offset="100%"/></linearGradient><linearGradient x1="50.6%" y1="127.5%" x2="49.1%" y2="-74.7%" id="f"><stop stop-color="#155CC4" offset="0%"/><stop stop-color="#8CE1A7" offset="100%"/></linearGradient><linearGradient x1="99.6%" y1="49.9%" x2="-.1%" y2="49.9%" id="g"><stop stop-color="#CEB051" offset="0%"/><stop stop-color="#A1632A" offset="100%"/></linearGradient><linearGradient x1="70.1%" y1="13.4%" x2="15.3%" y2="62.1%" id="h"><stop stop-color="#4A5992" stop-opacity="0" offset="0%"/><stop stop-opacity=".6" offset="100%"/></linearGradient><linearGradient x1="67.1%" y1="65.1%" x2="18.3%" y2="10.4%" id="i"><stop stop-color="#4A5992" stop-opacity="0" offset="0%"/><stop stop-opacity=".6" offset="100%"/></linearGradient><linearGradient x1="99.8%" y1="50%" x2="0%" y2="50%" id="j"><stop stop-color="#CEB051" offset="0%"/><stop stop-color="#A1632A" offset="100%"/></linearGradient><linearGradient x1="100%" y1="49.9%" x2="0%" y2="49.9%" id="k"><stop stop-color="#CEB051" offset="0%"/><stop stop-color="#A1632A" offset="100%"/></linearGradient><linearGradient x1="100%" y1="50.1%" x2="0%" y2="50.1%" id="l"><stop stop-color="#CEB051" offset="0%"/><stop stop-color="#A1632A" offset="100%"/></linearGradient><linearGradient x1="100%" y1="50%" x2="0%" y2="50%" id="m"><stop stop-color="#CEB051" offset="0%"/><stop stop-color="#A1632A" offset="100%"/></linearGradient><linearGradient x1="-11295.3%" y1="47.1%" x2="-11196%" y2="47.1%" id="n"><stop stop-color="#45242F" offset="0%"/><stop stop-color="#6B3C71" offset="100%"/></linearGradient><linearGradient x1="0%" y1="50.4%" x2="100.3%" y2="50.4%" id="o"><stop stop-color="#57C7F2" offset="0%"/><stop stop-color="#2A306A" offset="100%"/></linearGradient><radialGradient cx="-143.4%" cy="-288%" fx="-143.4%" fy="-288%" r="71.9%" gradientTransform="matrix(.56507 0 0 1 -.6 0)" id="p"><stop stop-color="#242D59" offset="0%"/><stop stop-color="#242D59" stop-opacity=".5" offset="39%"/><stop stop-color="#242D59" stop-opacity=".1" offset="70%"/><stop stop-color="#242D59" stop-opacity="0" offset="87%"/><stop stop-color="#242D59" stop-opacity="0" offset="100%"/><stop stop-color="#242D59" stop-opacity="0" offset="100%"/></radialGradient><linearGradient x1="-.1%" y1="50%" x2="100.1%" y2="50%" id="q"><stop stop-color="#CEB051" offset="0%"/><stop stop-color="#A1632A" offset="100%"/></linearGradient><linearGradient x1="0%" y1="50.1%" x2="100.3%" y2="50.1%" id="r"><stop stop-color="#CEB051" offset="0%"/><stop stop-color="#A1632A" offset="100%"/></linearGradient><linearGradient x1="50%" y1="0%" x2="50%" y2="99%" id="s"><stop stop-color="#1571C4" offset="0%"/><stop stop-color="#8CF5A7" offset="100%"/></linearGradient><linearGradient x1="1872.7%" y1="45.1%" x2="1872.7%" y2="91.6%" id="t"><stop stop-color="#FFF" offset="0%"/><stop stop-color="#428FB7" offset="100%"/></linearGradient><linearGradient x1="1872.7%" y1="45.1%" x2="1872.7%" y2="91.6%" id="u"><stop stop-color="#FFF" offset="0%"/><stop stop-color="#327DBD" offset="100%"/></linearGradient><linearGradient x1="50%" y1="0%" x2="50%" y2="100%" id="v"><stop stop-color="#272C6C" stop-opacity="0" offset="0%"/><stop stop-color="#315181" offset="71.5%"/><stop stop-color="#1D3C94" stop-opacity="0" offset="100%"/></linearGradient><filter x="-4.8%" y="-2.2%" width="109.7%" height="104.3%" filterUnits="objectBoundingBox" id="w"><feGaussianBlur stdDeviation="4.4" in="SourceGraphic"/></filter><linearGradient x1="50%" y1="17.4%" x2="50%" y2="100%" id="x"><stop stop-color="#272C6C" stop-opacity="0" offset="0%"/><stop stop-color="#52C2D6" offset="71.5%"/><stop stop-color="#52C2D6" stop-opacity="0" offset="100%"/></linearGradient><filter x="-7%" y="-2.2%" width="114.1%" height="104.3%" filterUnits="objectBoundingBox" id="y"><feGaussianBlur stdDeviation="4.4" in="SourceGraphic"/></filter><linearGradient x1="50%" y1="106.9%" x2="50%" y2="-22.9%" id="z"><stop stop-color="#A8C8DD" offset="0%"/><stop stop-color="#CAE4FF" offset="100%"/></linearGradient><linearGradient x1="50%" y1="106.9%" x2="50%" y2="6.3%" id="A"><stop stop-color="#FFF" offset="0%"/><stop stop-color="#CAD8E0" offset="100%"/></linearGradient><linearGradient x1="50%" y1="191.4%" x2="50%" y2="1.4%" id="B"><stop stop-color="#0094CD" offset="0%"/><stop stop-color="#2A306A" offset="100%"/></linearGradient><linearGradient x1="50%" y1="106.9%" x2="50%" y2="6.3%" id="C"><stop stop-color="#CBE0EE" offset="0%"/><stop stop-color="#CAD8E0" offset="100%"/></linearGradient><linearGradient x1="1%" y1="106.8%" x2="1%" y2="-23.1%" id="D"><stop stop-color="#0068A9" offset="0%"/><stop stop-color="#2B2E6B" offset="100%"/></linearGradient><linearGradient x1="110.5%" y1="2.8%" x2="17.9%" y2="74.5%" id="E"><stop stop-color="#0068A9" offset="0%"/><stop stop-color="#1C4280" offset="40%"/><stop stop-color="#2B2E6B" offset="100%"/></linearGradient><linearGradient x1="0%" y1="50%" y2="50%" id="F"><stop stop-color="#FFF" offset="0%"/><stop stop-color="#2A2F69" offset="100%"/></linearGradient><path id="G" d="M.4.5h1.8v87.2H.4z"/><linearGradient x1="0%" y1="50%" y2="50%" id="H"><stop stop-color="#FFF" offset="0%"/><stop stop-color="#2A2F69" offset="100%"/></linearGradient><linearGradient x1="0%" y1="50%" y2="50%" id="J"><stop stop-color="#FFF" offset="0%"/><stop stop-color="#2A2F69" offset="100%"/></linearGradient><linearGradient x1="0%" y1="50%" y2="50%" id="K"><stop stop-color="#FFF" offset="0%"/><stop stop-color="#2A2F69" offset="100%"/></linearGradient><linearGradient x1="0%" y1="50.4%" x2="100.3%" y2="50.4%" id="L"><stop stop-color="#0094CD" offset="0%"/><stop stop-color="#2A306A" offset="100%"/></linearGradient><radialGradient cx="-143.4%" cy="-288%" fx="-143.4%" fy="-288%" r="72%" gradientTransform="matrix(.56489 0 0 1 -.6 0)" id="M"><stop stop-color="#242D59" offset="0%"/><stop stop-color="#242D59" stop-opacity=".5" offset="39%"/><stop stop-color="#242D59" stop-opacity=".1" offset="70%"/><stop stop-color="#242D59" stop-opacity="0" offset="87%"/><stop stop-color="#242D59" stop-opacity="0" offset="100%"/><stop stop-color="#242D59" stop-opacity="0" offset="100%"/></radialGradient><path id="N" d="M.9 6L3.4.7 5.9 3z"/><linearGradient x1="0%" y1="50%" y2="50%" id="O"><stop stop-color="#CDAF50" offset="0%"/><stop stop-color="#A1622A" offset="100%"/></linearGradient><path id="Q" d="M0 6.1L10.2 12l5-3V3.3L12.7.8 10.2 6 0 .2z"/><linearGradient x1="0%" y1="50%" y2="50%" id="R"><stop stop-color="#CDAF50" offset="0%"/><stop stop-color="#A1622A" offset="100%"/></linearGradient><path id="T" d="M2.5 1L0 6.2l5-2.9z"/><linearGradient x1="0%" y1="50%" y2="50%" id="U"><stop stop-color="#CDAF50" offset="0%"/><stop stop-color="#A1622A" offset="100%"/></linearGradient><path id="W" d="M.2 5.4l5-3L2.7.1z"/><linearGradient x1="0%" y1="50%" y2="50%" id="X"><stop stop-color="#CDAF50" offset="0%"/><stop stop-color="#A1622A" offset="100%"/></linearGradient><path id="Z" d="M2.5 1L0 6.2l.2.2L2.7 1z"/><linearGradient x1="0%" y1="50%" y2="50%" id="aa"><stop stop-color="#CDAF50" offset="0%"/><stop stop-color="#A1622A" offset="100%"/></linearGradient><path id="ac" d="M.9 6l.3.1L3.7 1 3.4.7z"/><linearGradient x1="0%" y1="50%" y2="50%" id="ad"><stop stop-color="#CDAF50" offset="0%"/><stop stop-color="#A1622A" offset="100%"/></linearGradient><filter x="-3.3%" y="-23.1%" width="106.7%" height="146.2%" filterUnits="objectBoundingBox" id="af"><feGaussianBlur stdDeviation="2.4" in="SourceGraphic"/></filter><linearGradient x1="27.9%" y1="29.9%" x2="90.4%" y2="82%" id="ag"><stop stop-color="#F1653C" offset="0%"/><stop stop-color="#FFF" stop-opacity="0" offset="100%"/></linearGradient><linearGradient x1="100%" y1="0%" x2="0%" y2="100%" id="ah"><stop stop-color="#52C2D6" offset="0%"/><stop stop-color="#FFF" stop-opacity="0" offset="100%"/></linearGradient><filter x="-13.2%" y="-4.4%" width="126.3%" height="108.7%" filterUnits="objectBoundingBox" id="ai"><feGaussianBlur stdDeviation="2.4" in="SourceGraphic"/></filter><linearGradient x1="34.3%" y1="27.7%" x2="90.4%" y2="82%" id="aj"><stop stop-color="#52C2D6" offset="0%"/><stop stop-color="#52C2D6" stop-opacity="0" offset="100%"/></linearGradient><linearGradient x1="-108.6%" y1="100%" x2="2566.4%" y2="-744.1%" id="ak"><stop stop-color="#52FFFF" offset="0%"/><stop stop-color="#FFF034" offset="100%"/></linearGradient><linearGradient x1="-253.9%" y1="146%" x2="2419.7%" y2="-698.1%" id="al"><stop stop-color="#52FFFF" offset="0%"/><stop stop-color="#FFF034" offset="100%"/></linearGradient><linearGradient x1="-399.4%" y1="191.5%" x2="2273.9%" y2="-649.9%" id="am"><stop stop-color="#52FFFF" offset="0%"/><stop stop-color="#FFF034" offset="100%"/></linearGradient><linearGradient x1="-544.7%" y1="237.7%" x2="2128.6%" y2="-605.6%" id="an"><stop stop-color="#52FFFF" offset="0%"/><stop stop-color="#FFF034" offset="100%"/></linearGradient><linearGradient x1="-690.3%" y1="283.7%" x2="1983.2%" y2="-560.5%" id="ao"><stop stop-color="#52FFFF" offset="0%"/><stop stop-color="#FFF034" offset="100%"/></linearGradient><linearGradient x1="-835.7%" y1="330.7%" x2="1837.7%" y2="-517%" id="ap"><stop stop-color="#52FFFF" offset="0%"/><stop stop-color="#FFF034" offset="100%"/></linearGradient><linearGradient x1="-981.8%" y1="377%" x2="1693.1%" y2="-471.5%" id="aq"><stop stop-color="#52FFFF" offset="0%"/><stop stop-color="#FFF034" offset="100%"/></linearGradient><linearGradient x1="-1127.4%" y1="421.6%" x2="1547.6%" y2="-422.6%" id="ar"><stop stop-color="#52FFFF" offset="0%"/><stop stop-color="#FFF034" offset="100%"/></linearGradient><linearGradient x1="-1273.5%" y1="467.4%" x2="1402.6%" y2="-376.6%" id="as"><stop stop-color="#52FFFF" offset="0%"/><stop stop-color="#FFF034" offset="100%"/></linearGradient><linearGradient x1="-1420.4%" y1="513.5%" x2="1258%" y2="-330.8%" id="at"><stop stop-color="#52FFFF" offset="0%"/><stop stop-color="#FFF034" offset="100%"/></linearGradient><linearGradient x1="-1565.6%" y1="558.8%" x2="1112%" y2="-284.4%" id="au"><stop stop-color="#52FFFF" offset="0%"/><stop stop-color="#FFF034" offset="100%"/></linearGradient><linearGradient x1="-1711.7%" y1="605.3%" x2="966.5%" y2="-238.9%" id="av"><stop stop-color="#52FFFF" offset="0%"/><stop stop-color="#FFF034" offset="100%"/></linearGradient><linearGradient x1="-1857.1%" y1="651.4%" x2="820.5%" y2="-192.9%" id="aw"><stop stop-color="#52FFFF" offset="0%"/><stop stop-color="#FFF034" offset="100%"/></linearGradient><linearGradient x1="-2002.6%" y1="697.5%" x2="675.6%" y2="-146.9%" id="ax"><stop stop-color="#52FFFF" offset="0%"/><stop stop-color="#FFF034" offset="100%"/></linearGradient><linearGradient x1="-2155.7%" y1="743.2%" x2="530.9%" y2="-101%" id="ay"><stop stop-color="#52FFFF" offset="0%"/><stop stop-color="#FFF034" offset="100%"/></linearGradient><linearGradient x1="-2294.7%" y1="789.1%" x2="383.4%" y2="-55.1%" id="az"><stop stop-color="#52FFFF" offset="0%"/><stop stop-color="#FFF034" offset="100%"/></linearGradient><linearGradient x1="-2438.6%" y1="830.8%" x2="238.1%" y2="-9.1%" id="aA"><stop stop-color="#52FFFF" offset="0%"/><stop stop-color="#FFF034" offset="100%"/></linearGradient><linearGradient x1="-2585.1%" y1="877.8%" x2="92.1%" y2="37%" id="aB"><stop stop-color="#52FFFF" offset="0%"/><stop stop-color="#FFF034" offset="100%"/></linearGradient><linearGradient x1="18.8%" y1="26.6%" x2="85.3%" y2="83.3%" id="aE"><stop stop-color="#EDF3F7" offset="0%"/><stop stop-color="#FFF" offset="100%"/></linearGradient><ellipse id="aD" cx="46.9" cy="46.6" rx="46.8" ry="26.4"/><filter x="-15%" y="-20.8%" width="129.9%" height="183.4%" filterUnits="objectBoundingBox" id="aC"><feOffset dy="19" in="SourceAlpha" result="shadowOffsetOuter1"/><feGaussianBlur stdDeviation="1.5" in="shadowOffsetOuter1" result="shadowBlurOuter1"/><feColorMatrix values="0 0 0 0 0 0 0 0 0 0 0 0 0 0 0 0 0 0 0.2 0" in="shadowBlurOuter1"/></filter><ellipse id="aG" cx="117.6" cy="290.7" rx="46.8" ry="24.9"/><filter x="-15%" y="-22.1%" width="129.9%" height="188.4%" filterUnits="objectBoundingBox" id="aF"><feOffset dy="19" in="SourceAlpha" result="shadowOffsetOuter1"/><feGaussianBlur stdDeviation="1.5" in="shadowOffsetOuter1" result="shadowBlurOuter1"/><feColorMatrix values="0 0 0 0 0 0 0 0 0 0 0 0 0 0 0 0 0 0 0.2 0" in="shadowBlurOuter1"/></filter><linearGradient x1="36%" y1="78%" x2="50%" y2="20.5%" id="aH"><stop stop-color="#FFF" stop-opacity="0" offset="0%"/><stop stop-color="#FFF" offset="100%"/></linearGradient><linearGradient x1="20.3%" y1="74.3%" x2="61.8%" y2="23.1%" id="aI"><stop stop-color="#FFF" stop-opacity="0" offset="0%"/><stop stop-color="#FFF" offset="100%"/></linearGradient><linearGradient x1="-.7%" y1="50%" x2="100.6%" y2="50%" id="aJ"><stop stop-color="#F1653C" offset="0%"/><stop stop-color="#BE3C16" offset="100%"/></linearGradient><ellipse id="aL" cx="52.3" cy="40.6" rx="46.8" ry="27.3"/><filter x="-31%" y="-47.6%" width="162%" height="290.5%" filterUnits="objectBoundingBox" id="aK"><feOffset dy="49" in="SourceAlpha" result="shadowOffsetOuter1"/><feGaussianBlur stdDeviation="1.5" in="shadowOffsetOuter1" result="shadowBlurOuter1"/><feColorMatrix values="0 0 0 0 0 0 0 0 0 0 0 0 0 0 0 0 0 0 0.2 0" in="shadowBlurOuter1"/></filter><linearGradient x1="-.2%" y1="50%" y2="50%" id="aM"><stop stop-color="#0094CD" offset="0%"/><stop stop-color="#2A306A" offset="100%"/></linearGradient><linearGradient x1="0%" y1="49.9%" y2="49.9%" id="aN"><stop stop-color="#CEB051" offset="0%"/><stop stop-color="#A1632A" offset="100%"/></linearGradient><linearGradient x1="0%" y1="50%" y2="50%" id="aO"><stop stop-color="#CEB051" offset="0%"/><stop stop-color="#A1632A" offset="100%"/></linearGradient><linearGradient x1="50%" y1=".4%" x2="50%" y2="100.4%" id="aP"><stop stop-color="#1571C4" offset="0%"/><stop stop-color="#8CF5A7" offset="100%"/></linearGradient><linearGradient x1="-629.6%" y1="503.2%" x2="284.4%" y2="-119.5%" id="aQ"><stop stop-color="#9370C4" offset="0%"/><stop stop-color="#2B2E6B" offset="100%"/></linearGradient><linearGradient x1="-16%" y1="26%" x2="9%" y2="-4%" id="aR"><stop stop-color="#0068A9" offset="0%"/><stop stop-color="#2B2E6B" offset="100%"/></linearGradient><linearGradient x1="-629.8%" y1="292.4%" x2="292.4%" y2="-42%" id="aS"><stop stop-color="#67A5EC" offset="0%"/><stop stop-color="#2B2E6B" offset="100%"/></linearGradient><linearGradient x1="-.2%" y1="50%" y2="50%" id="aT"><stop stop-color="#67A5EC" offset="0%"/><stop stop-color="#2B2E6B" offset="100%"/></linearGradient></defs><g fill="none" fill-rule="evenodd"><g fill-rule="nonzero" transform="translate(3 -187)"><use fill="#000" filter="url(#a)" xlink:href="#b"/><use fill="url(#c)" xlink:href="#b"/></g><g transform="translate(148.3 281.3)"><ellipse fill="url(#d)" fill-rule="nonzero" cx="227" cy="129.2" rx="93.4" ry="54"/><path d="M326 245.8a392.5 392.5 0 0 1-85.5 9.2 361.5 361.5 0 0 1-152.7-32" stroke="url(#e)" stroke-width="1.6" stroke-linejoin="round"/><path d="M397.2 51.3l22 13.6c26.4 18.3 42.4 41.7 42.4 67.4 0 37.5-34.1 70.4-85.3 88.9" stroke="url(#e)" stroke-width="1.6" stroke-linejoin="round" transform="rotate(-1 419 136.2)"/><path d="M380.3 59.6L400.1 72c23.8 16.5 38.2 37.6 38.2 60.7 0 33.8-33.6 59.1-70.8 73.5" stroke="url(#e)" stroke-width="1.6" stroke-linejoin="round" transform="rotate(-1 402.9 132.9)"/><path d="M67.2 184c-25.9-18-41.5-41.1-41.5-66.3 0-57.2 100-97.2 180.6-97.2 40.4 0 77.7 7.7 107.7 20.8" stroke="url(#e)" stroke-width="1.6" stroke-linejoin="round"/><path d="M43.9 194.5C14.4 174.1.7 148.3.7 119.6.7 54.6 91.5.8 204 .8c46 0 84.9 9.4 119 24.2" stroke="url(#e)" stroke-width="1.6" stroke-linejoin="round"/><ellipse fill="url(#f)" fill-rule="nonzero" cx="227" cy="138.9" rx="91.9" ry="44.3"/></g><g fill-rule="nonzero"><path d="M17.9 62.5V62c0-1 1.1-2.5 2.9-3.5 2-1.3 4.2-1.5 4.8-.4.2.3.2.8 0 1.2 0 1-1.1 2.4-2.8 3.4-2 1.2-4.2 1.4-4.8.4V63l-.1-.4z" fill="url(#g)" transform="translate(658 302)"/><path fill="url(#h)" opacity=".5" d="M73.1 34.4L21.4 64.6l-10.7-6L62.6 29z" transform="translate(658 302)"/><path fill="url(#i)" opacity=".5" d="M27.6 87.8L79.3 118l10.7-6-52-29.6z" transform="translate(658 302)"/><path d="M675.9 363.9c0-1 1.1-2.5 2.9-3.5l1-.6 3.5.8c0 .7 0 1.3-.2 2-.6.8-1.4 1.5-2.3 2-2 1.2-4.2 1.4-4.8.4v-.2V364h-.1z" fill="#A1632A"/><path d="M683.1 360.7s-3 3-5.2 2.4c-1.8-.5 1.8-2.4 1.8-2.4h3.4z" fill="#D3AF4A"/><path d="M675.9 364.2v.3l.1.2c.6 1 2.7.8 4.8-.5 1.7-1 2.8-2.3 2.9-3.4v-.3.7c0 1-1.2 2.4-2.9 3.4-2 1.2-4.2 1.4-4.8.4v-.2l-.1-.3a2.9 2.9 0 0 1 0-.3z" fill="#FFFEFD"/><path d="M11 59.7v-.6c0-1 1-2.5 2.8-3.5 2.1-1.3 4.2-1.5 4.8-.4.2.3.3.8.1 1.2 0 1-1.2 2.4-2.8 3.4-2.1 1.2-4.3 1.4-4.8.4l-.1-.1v-.4z" fill="url(#j)" transform="translate(658 302)"/><path d="M669 361c0-1 1-2.4 2.8-3.5l.9-.4 3.8.7v1.3c-.6 1.1-1.5 2-2.6 2.7-2.1 1.2-4.3 1.4-4.8.4l-.1-.2v-.3-.7z" fill="#A1632A"/><path d="M676.5 357.8s-3 2.9-5.2 2.3c-1.7-.4 1.4-2.3 1.4-2.3h3.8z" fill="#D3AF4A"/><path d="M669 361.4a1.2 1.2 0 0 0 0 .5c.6 1 2.8.8 4.9-.5 1.6-1 2.8-2.3 2.8-3.4v-.2.6c0 1-1.2 2.4-2.8 3.4-2.1 1.2-4.3 1.4-4.8.4l-.1-.1v-.4a3.6 3.6 0 0 1 0-.3z" fill="#FFFEFD"/><path d="M683.3 358v2.6s-1.8 1.7-3.5 0V358h3.5zM676.5 355.4v2.4s-2 1.8-3.8 0l-.1-2.8 3.9.4z" fill="#D99788"/><path d="M672.8 313.8s-3.6 0-3.8 8.5c0 0-.1.7-1.4 1.5l-4.6 3.3c.6.4 1 1.2 1 2 0 0 5.2-1.8 6.6-3.1 1.5-1.3 2.2-12.2 2.2-12.2z" fill="#F1653C"/><path d="M671.5 324.6c.2 1.4 1.3 7.2 1.1 12.4-.2 6 0 18.7 0 18.7 1.1 1 2.8 1 4 0l1.4-19.3 1.8 21.7c1 .7 2.5.7 3.6 0l.7-23.6a85.9 85.9 0 0 1 1.7-13.2c.3-1.8-2.2-4.7-6-6.9-4.2-2.4-7.9-1.2-8.8.5 0 0-.7.3.5 9.7z" fill="#DE5D37"/><path d="M670.9 318.4l2.2-3.3c6.1.9 8.7 3.9 8.7 3.9-1.3 9 1.7 8.8 1.7 8.8l.9 3.3-.3 3.4c0 3-.8 23.6-.8 23.6-1 .7-2.5.7-3.6 0l-1.7-21.7-1.5 19.3c-1.1 1-2.8 1-4 0 0 0-.2-12.8 0-18.7.3-5.2-.9-11-1-12.4-.4-2.8-.5-4.8-.6-6.2z" fill="#F1653C"/><path d="M672.6 337c.2-5.2-1-11-1.1-12.4l-.2-1.8c-.2-3.4.6-7.3 3.6-9.7h1.3c-.7.9-3.2 4-3.1 6.8 0 3.2 4.6 4 5.4 1 .8-2.7 1.9-4.4 3.3-5l1.2.9a2.5 2.5 0 0 0-2 2.3c-.5 2.9.4 8.6 2.3 8.7.7 0 1.3-.3 1.6-.9-.4 3-.8 6.1-.8 7.6 0 3-.8 23.6-.8 23.6-1 .7-2.5.7-3.6 0l-1.7-21.7-1.5 19.3c-1.1 1-2.8 1-4 0 0 0-.1-12.8.1-18.7z" fill="#4A8AD2"/><path d="M679.4 314v2a1.5 1.5 0 0 1-3 0v-2h3z" fill="#B3796C"/><path d="M678.5 317.4l-.5.1c-.9 0-1.5-.7-1.5-1.5v-2h2v3.4z" fill="#D99788"/><path d="M678 315c3 0 5.3-3 5.3-6s-2.4-5.4-5.3-5.4c-3 0-5 2.5-5 5.4 0 3 2 6 5 6z" fill="#D99788"/><path d="M683.7 317.5c2.1 2 3.8 4.5 4.8 7.2 2 4.9 2 11.4 2 11.4a2 2 0 0 1-2 .7s-2.3-8.6-4.8-11c-2.5-2.3-3.2-8.6 0-8.3z" fill="#F1653C"/><path d="M659.2 324l.3-.3h.3l2.4 1.4.1.2v5.5l-.1.3-.3.2h-.2-.2l-2.3-1.4-.2-.3v-5.4l.2-.3z" fill="#D9D9DB"/><path d="M661.5 331.3l-2.3-1.4-.2-.3v-5.4l.1-.2h.2l2.4 1.4.1.3V331.3h-.3z" fill="#C6C6C6"/><path d="M663 327l-.7.5v2.2l1.6-.6c.1-.8-.3-1.6-1-2z" fill="#D99788"/><path fill="url(#k)" d="M36.7 38.7l-1.9-4-1.8 1.8z" transform="translate(658 302)"/><path fill="url(#l)" d="M36.5 38.8l-1.8-4-1.9 1.8z" transform="translate(658 302)"/><path fill="url(#m)" d="M36.5 38.8h.2l-1.9-4h-.1zM29.3 43l-.2.1-2-4h.3z" transform="translate(658 302)"/><path d="M659 327c.7.9 1.2 1.9 1.4 2.9.2 1.3-2 0-2 0l-.3-.9c0-.5-.2-2.8 1-2.7v.7z" fill="#D99788"/><path d="M676.8 307.1c-.4-.5-1.2-.9-2-.8-1.2.2-1.4.9-1.7.4l-.4 1.3c-.3-.4-.3-1-.1-1.4.4-.9 0-1.3.4-2 .3-.7 1.7-.1 2.6-1a4 4 0 0 1 5-.8c1.8 1.1 1 2 2.6 2.3 1.5.5 1.5 2.7 1 3.7a7 7 0 0 0-.8 2.6c-.2 1.2-2.2 2-2.2 2s-.6-.4.1-1.2c.8-.7 1-1.6.4-2-.2 0-.4 0-.5.2.3-.6.2-1.4-.3-2-.8-.8-2.4.5-4-1.3z" fill="#161944"/><path d="M674.9 306.3c-1.3.2-1.5.9-1.8.4l-.4 1.3c-.3-.4-.3-1-.1-1.4.4-.9 0-1.3.4-2 .3-.7 1.7-.1 2.6-1 .1-.3.3-.4.6-.6.7-.2 1.5-.1 2.3.2 1.7.7 1.9 2 3 2.4 1.3.4 2.5 1.5 2 2.8-.4 1.3 0 2.2-.2 3.3-.4 1-2.1 1.7-2.1 1.7s-.6-.5.1-1.2c.8-.7 1-1.6.4-2-.2 0-.4 0-.5.2.3-.7.2-1.4-.3-2-.8-.8-2.4.5-4-1.3-.5-.5-1.3-.9-2-.8z" fill="#333A8C"/><path d="M681.8 319c.8 1.2 4.6 6.7 5.5 9.4.7 2.5 1.7 6.7 2 8.4-.2.1-.5.1-.8 0 0 0-2.3-8.6-4.8-11a8.1 8.1 0 0 1-2-6.8z" fill="#DE5D37"/><path d="M688 339l.7-1-.2-1.2c.7 0 1.5-.2 2-.7v1.9l.9 1.5c0 .6-.3 1.2-.7 1.6-.4.4-1.5.2-2 0-.4-.1-.7-1.2-.7-1.2v-.9z" fill="#D99788"/><path fill="#A1632A" d="M694.5 340.8l-1.8-4-1.9 1.8z"/><path d="M30 38l.8.3.2-.6c0-.3-1 .2-1 .2z" fill="url(#n)" transform="translate(658 302)"/><path d="M691 338.8l1.5-1s.3 0 .3.6c0 .3-.1.5-.3.6l-1.1.7-.4-1zM689 340l-.3 1.2-2.5 1.5-.4-.9 3.2-1.9z" fill="#454645"/><path d="M675.3 335.6c-.3 5.6 0 17.7 0 20.8-1 .2-2 0-2.7-.7 0 0-.2-12.8 0-18.7.2-5.2-1-11-1.1-12.4l-.2-1.8c-.1-2.8.4-5.9 2.2-8.2l1.3.5a8.9 8.9 0 0 0-1.7 4.8c.1 3.2 4.6 4 5.4 1 .3-1.2.8-2.3 1.5-3.4l1.2 1-.2.6c-.4 2.4.2 6.9 1.5 8.3l-.3 2.5c-.3 1.3-.1 23.5 0 28.7a3 3 0 0 1-2.5-.5l-1.7-21.7s-2.3-7.2-2.7-.8z" fill="#67A5EC"/><path d="M675 309l1 1" stroke="#333A8C"/><path d="M678 310l1 1" stroke="#40418C"/></g><g transform="translate(660 325)" fill-rule="nonzero"><path d="M21.8 14.1l-4.4-7.7-.2-.2h-.4c0-.1-.1-.1-.2 0l-5.4 3s-.4.3 0 1l4.4 7.5.6.2h.2l5.3-3.2a.4.4 0 0 0 .1-.6z" fill="#D9D9DB"/><path d="M17.4 6.4l-.2-.2H17l-5.4 3.1s-.4.3 0 1l4.4 7.5h.4l5.3-3a.4.4 0 0 0 .2-.6l-4.5-7.8z" fill="#FFF"/><path d="M21 13.8l-3.8-6.6-.2-.1h-.2l-4.5 2.6a.3.3 0 0 0-.2.5l3.8 6.6.3.1h.2l4.5-2.7c.2 0 .2-.2.2-.4z" fill="url(#o)"/><ellipse fill="#D9D9DB" cx="14.5" cy="8" rx="1" ry="1"/><path d="M16.9 7h-.1l-4.5 2.7a.3.3 0 0 0-.2.5l3.8 6.6.2.1H16.4l.5-.3V7.1z" fill="#FFF" opacity=".2"/><path d="M29.3 15.2L24 13.7a1.6 1.6 0 0 0-.7 2.1l4.8 3 1-3.6z" fill="#F1653C"/><path d="M39.8 15.4c0-.6-.1-.8-.2-1l-.1-.4c-1-1.6-4.4-3-8.2-.9-2 1-3.7 2.6-4.9 4.4-.6.7-1 1.5-1 2.5 0 .6.3 1.3.8 1.8l2 9.2c3.2 2.2 7.4 1.4 9.6-1.6 0-3.6.4-7.1 1.2-10.6.6-2.1.8-2.1.8-3.4z" fill="#F1653C"/><path d="M39.8 15.4c0-.6-.1-.8-.2-1l-.1-.4a4 4 0 0 0-2-1.6c-2.5.2-7.5 1.8-9.3 5.5-1.4 2.9-.3 9.6.5 13.4 5.6 3 9-1.9 9-1.9.1-3.5.5-7.1 1.3-10.6.6-2.1.8-2.1.8-3.4z" fill="#DE5D37"/><path fill="url(#p)" d="M63.6 49.4L11.3 79.7l-10.8-6L53 44z"/><path fill="url(#p)" d="M.5 49.4l52.3 30.3 10.8-6L11 44z"/><path d="M31.8 11.4v2a1.4 1.4 0 0 0 2 1.3c.5-.2.9-.7.9-1.3v-2h-2.9z" fill="#E6A99A"/><ellipse fill="#FFC4B6" cx="33.3" cy="7.2" rx="4.7" ry="4.7"/><path d="M35.8 57.2l-.3 2.8a1.5 1.5 0 0 1-2.3 0l-.1-2.8h2.7z" fill="#FFC4B6"/><path d="M35.6 59.3v.7a1.5 1.5 0 0 1-2.4 0l-.1-2.4c-1.6-.9-3.2-1-3.7-.3s.5 2.4 2.4 3.6c1.8 1.3 3.8 1.6 4.3.8v-.3s.3-.7-.5-2z" fill="url(#q)"/><path d="M33.3 60l-.1-1.5c-.8-.5-1.4-.6-1.6-.4-.2.3.3 1 1.1 1.5l.6.4z" fill="#D3AF4A"/><path d="M34 60.4c-.6.2-1 .6-1.2 1.1 1.5.8 2.8.8 3.3.2l.1-.3s.2-.7-.6-2v.6c-.5.4-1 .6-1.6.4z" fill="#A1632A"/><path d="M31.5 60.6l-.3 2.8a1.5 1.5 0 0 1-2.3 0l-.2-2.8h2.8z" fill="#FFC4B6"/><path d="M36.2 61l-.1.3c-.6.8-2.5.5-4.3-.7-1.4-1-2.4-2.1-2.5-3-.2.9.8 2.3 2.5 3.3 1.8 1.3 3.8 1.6 4.3.8a.9.9 0 0 0 .1-.7z" fill="#FFF"/><path d="M38.6 14.2a4.7 4.7 0 0 0-3.9-2.2v1c.8.4 1.5 1 1.8 2-.7 1-2 1.7-3.4 1.6a14 14 0 0 0-2.9-2.4 1 1 0 0 0-.9 0l-1 .8c-.4.2-.5.5-.6.8 2-.5 3.2 2.2 3.5 3.1.3 1 0 6-1.9 6.3-1 .2-2-.3-2.6-1.2l1.2 10.7c-.2 2.5-.2 5 0 7.6a483.2 483.2 0 0 1 .9 18.3c0 .4.6.8 1.3.8.8 0 1.4-.4 1.4-.8l1-12.3.6 8.9c0 .4.6.7 1.3.7.7 0 1.4-.4 1.4-.8V57l.8-17c0-1.3 1.6-5.7 1.6-8.6v-6s2-8.8.4-11.2z" fill="#67A5EC"/><path d="M29.5 63.8c.6.2 1.3 0 1.7-.4l.3-2.8h-2v3.2z" fill="#C89285"/><path d="M31.3 62.7v.7a1.5 1.5 0 0 1-2.4 0l-.1-2.4c-1.7-.9-3.2-1-3.7-.3s.5 2.5 2.3 3.7c1.9 1.2 3.8 1.5 4.3.7l.2-.3s.2-.7-.6-2z" fill="url(#r)"/><path d="M38.6 14.2a5.4 5.4 0 0 0-2-1.7c-.6 0-1.2.1-1.6.6a4 4 0 0 1 1.5 1.8c-.7 1.2-2 1.8-3.4 1.7l-2-1.9c-1.2.1-1.7 1.4-1.7 1.4v.1a6 6 0 0 1 1.8 2.7c.3 1 0 5.4-1.5 6.2 0 4 0 8-.2 9.8-.4 4-.2 8.4-.2 12.5l.1 13.9.7.1c.6 0 1.1-.2 1.4-.7l.2-3.4.7-8.2v-.8L33 44s.4-3.4.6-3.9c.3-.6.7-1.3 1.2-1.8l-1 9c-.3 1.8.2 9.5.2 10.5h1.3a.9.9 0 0 0 .6-1l.8-16.8c0-1.4 1.6-5.8 1.6-8.7v-6s2-8.8.4-11.2z" fill="#4A8AD2"/><path d="M27.3 16.3a4.5 4.5 0 0 0-1.9 3.7c0 2.4.7 7.6.6 8.5 0 1-1.4 5.4-1.4 5.4.4.8 1.2 1.2 2 1 0 0 2.1-4 2.8-5.8.7-1.6 1.4-7 1.4-7l-3.5-5.8z" fill="#F1653C"/><path d="M30.8 22.1L28.2 18s-1 2.4-.5 8c0 1.5-.1 3-.5 4.4l-1.5 4.5c.3.2.6.2 1 0l2.7-5.7c.7-1.6 1.4-7 1.4-7z" fill="#DE5D37"/><path d="M24.6 34l-.3 1-.6.6c-.2.2-1.6 1.2-1.5 1.7.3.8.8 1.4 1.5 1.8a7 7 0 0 0 2.2-.6c.4-.6.6-1.2.8-1.8.1-.3-.4-.4-.8-.4l.8-1.4c-.8 0-1.6-.3-2.1-1z" fill="#FFC4B6"/><path d="M25.9 36.3a1 1 0 0 1-1 .8l1.7-.2s.4-.6-.7-.6z" fill="#D8C7C7"/><path d="M28.5 6.9c-.3-.2-.5-.4-.6-.8-.3-.7-.1-1.5.4-2s2-.7 2.2-1c.2-.5 2.2-.6 2.8-.6.6 0 2.7-.3 4.5 3l1 1c.5.7 0 2.1-.6 2.6-.5.3-.9.8-1.1 1.3-.4.8-.2 1.5-2.4 1.6-2.2.1-2.8.2-3.4 0-.6-.4-1-1.3-.6-2l.3-.6s.6 0 .8-1c.3-1-.7-.6-.7-.6s-.2-.8-.8-.9c-.6 0-1.4.4-1.8 0z" fill="#333A8C"/><path d="M21.9 12.7l-.8-1.3c-.2-.3-1.3-.8-1.3-.8l.8 1.3.7 3s.2.2.7 0l1.4 1a2 2 0 0 1 .7-2.2l-2.2-1z" fill="#FFC4B6"/><path d="M33 57.2c.1.4.7.7 1.4.7s1.4-.4 1.4-.8V57l.8-17c0-1 1-3.7 1.4-6.4-1 2.4-4.4 5.3-4.7 7-.3 1.5-.9 7.6-.9 7.6l.7 9z" fill="#67A5EC"/><path d="M38.7 6.5l-.9-1C36.5 3 35 2.5 34 2.4l-1.8 5.3-.3.3v.3c-.3 1-.9 1-.9 1s-.6 2.3 1.3 2.7h2.4c2.2-.2 2-1 2.4-1.7.2-.5.6-1 1.2-1.3.5-.5 1-1.8.4-2.6z" fill="#333A8C"/><path d="M24.1 13.7l-2.3-1c-.5-.3-1-1-2-.7-.8.2-1.3.2-1.3.5 0 .2.3.2 1.4.1.5 0 .9 1.7 2.3 1.3l1 1c.3-.5.5-1 1-1.2z" fill="#FFC4B6"/><path d="M29 63.4l-.2-1.5c-.7-.4-1.3-.6-1.5-.4-.2.3.3 1 1.1 1.6l.6.3z" fill="#D3AF4A"/><path d="M35.3 3.5L30.8.9h-.3l-4.4 2.6a.3.3 0 0 0 0 .5l4.4 2.5H30.8L35.3 4a.3.3 0 0 0 0-.5z" fill="#B29115"/><path d="M32 .7l-.9.5a3 3 0 0 0-.7.8c-.7.7-1 1.7-.9 2.7.2 1.6 2.8 3.8 5 3.8 2.3 0 4.3-1.3 4.3-3v-.2c0-1.3-.6-2.6-1.6-3.5l-.4-.3c-.7-.6-1.6-1-2.6-1.1a4 4 0 0 0-2.2.3z" fill="#DFB51A"/><path d="M38.8 5.4v-.1c0-1.3-.6-2.6-1.6-3.6l-.4-.2L36 1c-1.2 0-2.3.6-3 1.5a6.5 6.5 0 0 0-.8 5.4 5 5 0 0 0 2.3.6c2.4 0 4.3-1.4 4.3-3z" fill="#B29115"/><ellipse fill="url(#s)" opacity=".3" style="mix-blend-mode:overlay" transform="rotate(-57.6 35.3 2)" cx="35.1" cy="1.9" rx="1" ry="1"/><path d="M21.3 38.3h1.4l-.1-.2-.4-.8h-1.9a2.2 2.2 0 0 0-3.2-.2l-.2.2c-.4.3-.6.8-.7 1.3a1.7 1.7 0 0 1 3 1c0 .4-.2.7-.3 1l-.3.3-.2.2a2.5 2.5 0 0 0 2.4-2.8h.5z" fill="#97979E"/><path d="M16.8 37.3c.5-.4 1-.6 1.6-.6.7 0 1.3.3 1.7.9l2.2-.1-.1-.2-1.9.1a2.2 2.2 0 0 0-3.2-.3l-.2.2zM22.6 38.2V38zM18.6 40.8l-.2.3.2-.3zM20.5 38.4v.5c0 .5-.1 1-.5 1.4.5-.4.8-1 .8-1.7v-.2h-.3zM19.8 40.5z" fill="#77777F"/><path d="M26.3 36.3h-.4l.8-1.4-1-.1-.7 1.5c-.2.2-.8.6-.8.8l.6 1.2c.4.3.8.3 1.1.2l.5-1-.1-1.2z" fill="#E6A99A"/><path d="M28 37.2V37a.4.4 0 0 0-.3-.4h-.1L25 37l-.2.2.4.7 2.1-.2h.3l.2-.3h.1z" fill="#97979E"/><path d="M34 57.2v3.2c.5.2 1 0 1.5-.4l.2-2.8H34z" fill="#C89285"/><path d="M27.7 36.6h-.1L25 37l-.2.2 2.5-.3a.4.4 0 0 1 .5.4v.2l-.1.2.2-.2v-.2l.1-.2a.4.4 0 0 0-.4-.4z" fill="#77777F"/><path d="M38 33.6c-.5 1.5-2 3-3 4.5l-.5 2.8a222 222 0 0 0-.5 17h.5c.7 0 1.3-.3 1.3-.8V57l.8-17c0-1 1-3.8 1.4-6.4z" fill="#4A8AD2"/><path d="M31.2 63.4c-.5.5-1.1.6-1.7.4-.3.4-.4 1-.3 1.4 1.2.4 2.2.4 2.5-.1l.2-.3s.1-.7-.7-2v.6z" fill="#A1632A"/><path d="M31.9 64.4l-.1.3c-.6.8-2.5.5-4.4-.7-1.4-1-2.3-2-2.4-3-.2 1 .8 2.3 2.4 3.4 1.9 1.2 3.9 1.5 4.4.7v-.3c.1-.1.1-.2 0-.4z" fill="#FFF"/><path fill-opacity=".5" fill="#D8D8D8" d="M34 19l3-2v2l-3 2z"/></g><path fill="url(#t)" d="M.7 100.9h1.7V21.1H.7zM86.3 100.9H88V21.4h-1.7zM43.8 77.3h1.7V.8h-1.7z" transform="translate(331 325)"/><path fill="url(#u)" d="M43.8 124.4h1.7V48h-1.7z" transform="translate(331 325)"/><path d="M236 41h273c-28.5 292.8-42.8 476.9-42.8 552.4 0 42-32.6 57.2-93.7 57.2s-93.7-14.6-93.7-57.2c0-48.5-14.3-232.5-42.8-552.3z" fill="url(#v)" fill-rule="nonzero" opacity=".9" filter="url(#w)" transform="translate(3 -187)"/><path d="M278.8 41h187.4v552.4c0 42-32.6 57.2-93.7 57.2s-93.7-14.6-93.7-57.2V41z" fill="url(#x)" fill-rule="nonzero" opacity=".8" filter="url(#y)" transform="translate(3 -187)"/><g transform="translate(307 71)"><path d="M135.1 121.9L70.5 84.4c-1.1-.6-2.5-.6-3.6 0L2.3 121.9c-1.1.6-1.8 1.8-1.8 3v154.3c0 1.3.7 2.5 1.8 3l64.6 37.6c1.1.6 2.5.6 3.6 0l64.6-37.5c1.1-.7 1.8-1.8 1.8-3V124.8c0-1.2-.7-2.4-1.8-3z" fill="#FFF" fill-rule="nonzero"/><path d="M135 124.3l-64.8 37.5c-1 .7-1.7 1.8-1.7 3v154.4c0 .3 0-19.5.2-19.2v20.2c.6 0 1.2-.1 1.8-.4l64.6-37.5c1.1-.7 1.8-1.8 1.8-3.1V124.9c0-.3 0-.7-.2-1-.6 0-1.2.1-1.8.4z" fill="#CBE0EE" fill-rule="nonzero"/><path d="M131 134.8l-56.8 33c-1 .6-1.6 1.6-1.6 2.7v116.6c0 .4 0-17 .2-16.8v17.8c.6 0 1-.1 1.6-.4l56.8-33c1-.5 1.6-1.6 1.6-2.7V135.4c0-.3 0-.6-.2-1-.5 0-1 .2-1.6.4z" fill="url(#z)" fill-rule="nonzero"/><path d="M132.6 134.4c-.5 0-1 .2-1.6.4l-1.8 1v113.7c0 1.1-.5 2.1-1.5 2.7L72.8 284v4.1c.5 0 1-.1 1.6-.4l56.8-33c1-.5 1.6-1.6 1.6-2.7V135.4c0-.3 0-.7-.2-1z" fill="url(#A)" fill-rule="nonzero"/><path d="M70.5 84.4c-1.1-.6-2.5-.6-3.6 0L2.3 121.9c-.5.3-1 .7-1.2 1.1.3.5.7 1 1.2 1.2l64.6 37.5c1.1.6 2.5.6 3.6 0l64.6-37.5c.5-.3 1-.7 1.2-1.2-.3-.4-.7-.8-1.2-1.1L70.5 84.4z" fill="#EDF7FF" fill-rule="nonzero"/><path fill="url(#B)" fill-rule="nonzero" d="M7.6 245.5l53.9-30V167l-54-31.2z"/><path fill="#EAF2F6" fill-rule="nonzero" d="M61.5 242.4v-18l-50.9 29.4 50.9 29.7zM72.8 239.4v-19.6l55.3 32-55.3 32.3z"/><path fill="url(#C)" fill-rule="nonzero" d="M10.6 254V137.5l-3-1.7V256l53.9 31.2v-3.7z"/><path fill="#4187AB" fill-rule="nonzero" d="M10.6 137.5v107.6L61.5 217V167z"/><path d="M72.6 284.1v0z" fill="url(#D)" fill-rule="nonzero"/><path fill="url(#C)" fill-rule="nonzero" d="M10.6 243.1v2L61.5 217v-2z"/><g transform="translate(2.5 195)" fill-rule="nonzero"><path d="M1.5.4h-.4C.6.4.1 1 .1 2c0 1 .5 1.7 1 1.7h.4c.5 0 1-.7 1-1.7 0-.9-.5-1.6-1-1.6z" fill="#2F7480"/><ellipse fill="#272C6C" cx="1.1" cy="2" rx="1" ry="1.7"/><path d="M1.5 5.8h-.4c-.5 0-1 .8-1 1.7 0 1 .5 1.7 1 1.7h.4c.5 0 1-.8 1-1.7 0-1-.5-1.7-1-1.7z" fill="#2F7480"/><ellipse fill="#272C6C" cx="1.1" cy="7.5" rx="1" ry="1.7"/></g><path fill="url(#E)" fill-rule="nonzero" d="M2.2 122.3l54 31.4 55.1-31.4-55-31.3z" transform="translate(12)"/><path d="M124.4 112.7l-55-31.3a2 2 0 0 0-2 0l-54.2 31.3c-.6.4-1 1-1 1.8v7.8a2 2 0 0 0 1 1.8l54.1 31.3a2 2 0 0 0 2 0l55-31.3c.7-.4 1.1-1 1-1.8v-7.8a2 2 0 0 0-1-1.8z" fill="#E2F1FB" fill-rule="nonzero"/><path d="M69.3 81.4a2 2 0 0 0-2 0l-54 31.3a2 2 0 0 0-1 1.1c.2.5.5.9 1 1.2l54 31.3a2 2 0 0 0 2 0l55-31.3a2 2 0 0 0 1-1.2 2 2 0 0 0-1-1l-55-31.4z" fill="#FFF" fill-rule="nonzero"/><path d="M72.4 140.2c0 1-1.6 1.8-3.5 1.8-2 0-3.6-.8-3.6-1.8s1.6-1.8 3.6-1.8 3.5.8 3.5 1.8M72.4 87c0 1-1.6 1.8-3.5 1.8-2 0-3.6-.8-3.6-1.8s1.6-1.8 3.6-1.8 3.5.8 3.5 1.8" fill="#1E2251"/><path d="M68.9 86.3c1.6 0 2.9.5 3.4 1.3l.1-.6c0-1-1.6-1.8-3.5-1.8-2 0-3.6.8-3.6 1.8 0 .2 0 .4.2.6.5-.8 1.8-1.3 3.4-1.3" fill="#2B2E6B"/><path d="M115 114c0 1-1.6 1.8-3.6 1.8s-3.5-.9-3.5-1.9c0-1 1.6-1.8 3.5-1.8 2 0 3.6.8 3.6 1.8" fill="#1E2251"/><path d="M111.4 113.3c1.6 0 3 .5 3.4 1.2l.2-.6c0-1-1.6-1.8-3.6-1.8s-3.5.8-3.5 1.8l.1.6c.5-.7 1.8-1.2 3.4-1.2" fill="#2B2E6B"/><path d="M29.2 114c0 1-1.6 1.8-3.5 1.8-2 0-3.6-.9-3.6-1.9 0-1 1.6-1.8 3.6-1.8s3.5.8 3.5 1.8" fill="#1E2251"/><path d="M25.7 113.3c1.5 0 2.9.5 3.3 1.2.2-.2.2-.4.2-.6 0-1-1.6-1.8-3.5-1.8-2 0-3.6.8-3.6 1.8 0 .2 0 .4.2.6.4-.7 1.8-1.2 3.4-1.2" fill="#24285B"/><path fill="url(#F)" d="M2.7 114h1.7V26.7H2.7z" transform="translate(22)"/><g transform="translate(110 26.3)"><mask id="I" fill="#fff"><use xlink:href="#G"/></mask><path fill="url(#H)" mask="url(#I)" d="M.4 87.7h1.8V.5H.4z"/></g><path fill="url(#J)" d="M45.8 87.1h1.7V0h-1.7z" transform="translate(22)"/><path fill="url(#K)" d="M45.8 140.7h1.7v-87h-1.7z" transform="translate(22)"/><path fill="#4187AB" fill-rule="nonzero" d="M74.2 167.8v47l55 32v-111z"/><path fill="url(#C)" fill-rule="nonzero" d="M76.2 213.4v-46.8l-2 1.2v47l55 32v-2.7z"/><path fill="#FFF" fill-rule="nonzero" d="M91.7 157.7l-1.3.7v66l11.3 6.4 1.9-1.6.1-78.5z"/><path fill="#CBE0EE" fill-rule="nonzero" d="M101.7 230.8v-79l2-1.1-.1 78.5z"/><path d="M92.7 178.2h-.4c-.6 0-1 .7-1 1.7 0 .9.4 1.6 1 1.6h.4c.5 0 1-.7 1-1.6 0-1-.5-1.7-1-1.7z" fill="#9DBCD1" fill-rule="nonzero"/><ellipse fill="#B2D1E7" fill-rule="nonzero" cx="92.2" cy="179.9" rx="1" ry="1.7"/><path d="M96.2 180.2h-.4c-.6 0-1 .8-1 1.7 0 1 .4 1.6 1 1.6h.4c.5 0 1-.7 1-1.6 0-1-.5-1.7-1-1.7z" fill="#9DBCD1" fill-rule="nonzero"/><ellipse fill="#B2D1E7" fill-rule="nonzero" cx="95.8" cy="181.9" rx="1" ry="1.7"/><path d="M99.7 182.2h-.4c-.5 0-1 .8-1 1.7 0 1 .5 1.7 1 1.7h.4c.5 0 1-.8 1-1.7 0-1-.5-1.7-1-1.7z" fill="#9DBCD1" fill-rule="nonzero"/><ellipse fill="#B2D1E7" fill-rule="nonzero" cx="99.3" cy="183.9" rx="1" ry="1.7"/><path d="M92.7 183.2h-.4c-.6 0-1 .8-1 1.7 0 1 .4 1.7 1 1.7h.4c.5 0 1-.8 1-1.7 0-1-.5-1.7-1-1.7z" fill="#9DBCD1" fill-rule="nonzero"/><ellipse fill="#B2D1E7" fill-rule="nonzero" cx="92.2" cy="184.9" rx="1" ry="1.7"/><path d="M96.2 185.3h-.4c-.6 0-1 .7-1 1.6 0 1 .4 1.7 1 1.7h.4c.5 0 1-.7 1-1.7 0-.9-.5-1.6-1-1.6z" fill="#9DBCD1" fill-rule="nonzero"/><ellipse fill="#B2D1E7" fill-rule="nonzero" cx="95.8" cy="186.9" rx="1" ry="1.7"/><path d="M99.7 187.3h-.4c-.5 0-1 .7-1 1.7 0 .9.5 1.6 1 1.6h.4c.5 0 1-.7 1-1.6 0-1-.5-1.7-1-1.7z" fill="#9DBCD1" fill-rule="nonzero"/><ellipse fill="#B2D1E7" fill-rule="nonzero" cx="99.3" cy="189" rx="1" ry="1.7"/><path d="M92.7 187.8h-.4c-.6 0-1 .7-1 1.7 0 .9.4 1.6 1 1.6h.4c.5 0 1-.7 1-1.6 0-1-.5-1.7-1-1.7z" fill="#9DBCD1" fill-rule="nonzero"/><ellipse fill="#B2D1E7" fill-rule="nonzero" cx="92.2" cy="189.5" rx="1" ry="1.7"/><path d="M96.2 189.8h-.4c-.6 0-1 .8-1 1.7 0 1 .4 1.7 1 1.7h.4c.5 0 1-.8 1-1.7 0-1-.5-1.7-1-1.7z" fill="#9DBCD1" fill-rule="nonzero"/><ellipse fill="#B2D1E7" fill-rule="nonzero" cx="95.8" cy="191.5" rx="1" ry="1.7"/><path d="M99.7 191.8h-.4c-.5 0-1 .8-1 1.7 0 1 .5 1.7 1 1.7h.4c.5 0 1-.8 1-1.7 0-1-.5-1.7-1-1.7z" fill="#9DBCD1" fill-rule="nonzero"/><ellipse fill="#B2D1E7" fill-rule="nonzero" cx="99.3" cy="193.5" rx="1" ry="1.7"/><path fill="#D1E6F4" fill-rule="nonzero" d="M10.5 245.2l51-28.2v7.3l-51 29.9z"/><ellipse fill="#E2F1FB" fill-rule="nonzero" cx="17.5" cy="195" rx="2.5" ry="3"/><ellipse fill="#E2F1FB" fill-rule="nonzero" cx="37.5" cy="185" rx="2.5" ry="3"/><ellipse fill="#E2F1FB" fill-rule="nonzero" cx="57.5" cy="175" rx="2.5" ry="3"/><ellipse fill="#E2F1FB" fill-rule="nonzero" cx="80.5" cy="174" rx="2.5" ry="3"/><ellipse fill="#E2F1FB" fill-rule="nonzero" cx="122.5" cy="195" rx="2.5" ry="3"/><path d="M59.6 177.2L56 175l2-1 3.6 2.2.4-.2v.4l1 .6-1 .5v1.5l-52 26v-3l9.6-4.8L16 195l2-1 3.6 2.2 18-9L36 185l2-1 3.6 2.2 18-9zM122 211.5c.7.5 2 1.4 4 2.5l-2 1-4-2.5-18 9c.7.5 2 1.4 4 2.5l-2 1-4-2.5-18 9c.7.5 2 1.4 4 2.5l-2 1-4-2.5-7 3.5v-3l56-28v3l-7 3.5z" fill="#B2D0E7" fill-rule="nonzero"/><ellipse fill="#E2F1FB" fill-rule="nonzero" cx="84.5" cy="235" rx="2.5" ry="3"/><ellipse fill="#E2F1FB" fill-rule="nonzero" cx="104.5" cy="225" rx="2.5" ry="3"/><ellipse fill="#E2F1FB" fill-rule="nonzero" cx="124.5" cy="215" rx="2.5" ry="3"/><path d="M90 185.4v-3l-12.5-6.2L82 174l-2-1-4.5 2.2-.5-.2v.5l-1 .5 1 .5v1.5l15 7.4zm14 6.8l26 12.8v-3l-9.7-4.8 3.7-2.2-2-1-3.7 2.2-14.3-7v3z" fill="#B2D1E7" fill-rule="nonzero"/><path d="M33.5 150.5v120" stroke="#3B7C9D" stroke-linecap="square"/></g><path fill="url(#i)" fill-rule="nonzero" opacity=".5" d="M24 63.4l52.1 30.1 10.8-6L34.6 58z" transform="matrix(-1 0 0 1 334.6 407.7)"/><g transform="matrix(-1 0 0 1 334.6 407.7)"><path d="M21.8 14l-4.5-7.6-.2-.2h-.6l-5.4 3s-.4.3 0 1l4.4 7.5.6.1h.2l5.3-3.1a.4.4 0 0 0 .2-.6z" fill="#D9D9DB" fill-rule="nonzero"/><path d="M17.3 6.4l-.2-.2h-.2l-5.4 3s-.4.4 0 1l4.4 7.5.2.1h.2l5.3-3.1a.4.4 0 0 0 .2-.6l-4.5-7.7z" fill="#FFF" fill-rule="nonzero"/><path d="M21 13.8l-3.8-6.6-.2-.1h-.3l-4.5 2.6a.3.3 0 0 0-.1.5l3.8 6.5.2.2h.3l4.5-2.7c0-.1.1-.3 0-.4z" fill="url(#L)" fill-rule="nonzero"/><ellipse fill="#D9D9DB" fill-rule="nonzero" cx="14.4" cy="8" rx="1" ry="1"/><path d="M16.8 7h-.1l-4.5 2.7a.3.3 0 0 0-.1.5l3.8 6.5.2.2h.3l.4-.3V7z" fill="#FFF" fill-rule="nonzero" opacity=".2"/><path d="M29.1 15.1l-5-1.5a1.6 1.6 0 0 0-.8 2.2l4.8 3 1-3.7z" fill="#F1653C" fill-rule="nonzero"/><path d="M39.7 15.3l-.2-.9c0-.2 0-.3-.2-.5-.9-1.6-4.3-3-8.1-.8-2 1-3.6 2.5-4.9 4.3-.6.7-1 1.6-1 2.5 0 .6.4 1.3.8 1.8l2 9.2c3.2 2.1 7.4 1.4 9.5-1.6 0-3.6.5-7.1 1.2-10.6.7-2 .9-2 .9-3.4z" fill="#F1653C" fill-rule="nonzero"/><path d="M39.7 15.3l-.2-.9c0-.2 0-.3-.2-.5a4 4 0 0 0-2-1.5c-2.5.1-7.4 1.8-9.2 5.4-1.4 2.9-.3 9.6.5 13.4 5.6 3 9-1.9 9-1.9 0-3.5.5-7 1.3-10.6.6-2 .8-2 .8-3.4z" fill="#BF4E2D" fill-rule="nonzero"/><path fill="url(#M)" fill-rule="nonzero" d="M63.3 49.2l-52 30.2-10.8-6 52.3-29.5z"/><path d="M31.7 11.4v2a1.4 1.4 0 0 0 2 1.2c.5-.2.9-.7.9-1.3v-1.9h-2.9z" fill="#FFC4B6" fill-rule="nonzero"/><ellipse fill="#FFC4B6" fill-rule="nonzero" cx="33.2" cy="7.2" rx="4.7" ry="4.7"/><path d="M35.7 57l-.3 2.8a1.5 1.5 0 0 1-2.3 0l-.1-2.9h2.7z" fill="#FFC4B6" fill-rule="nonzero"/><path d="M35.5 59.1l-.1.7a1.5 1.5 0 0 1-2.3 0l-.1-2.4c-1.7-1-3.2-1-3.7-.3s.5 2.4 2.3 3.6c1.9 1.2 3.8 1.5 4.3.7l.2-.3s.1-.6-.6-2z" fill="url(#q)" fill-rule="nonzero"/><path d="M33.1 59.7v-1.5c-.8-.4-1.4-.6-1.6-.3-.2.2.3 1 1 1.5l.6.3z" fill="#D3AF4A" fill-rule="nonzero"/><path d="M33.8 60.2c-.5.1-1 .5-1.1 1 1.5.8 2.8.9 3.3.2v-.3s.2-.6-.5-2l-.1.7c-.4.4-1 .5-1.6.4z" fill="#A1632A" fill-rule="nonzero"/><path d="M31.4 60.3l-.3 2.9a1.5 1.5 0 0 1-2.3 0l-.2-2.9h2.8z" fill="#FFC4B6" fill-rule="nonzero"/><path d="M36 60.8v.2c-.6.8-2.5.5-4.3-.7-1.4-.9-2.4-2-2.5-3-.2 1 .8 2.3 2.5 3.4 1.8 1.2 3.7 1.5 4.3.7a.9.9 0 0 0 0-.7z" fill="#FFF" fill-rule="nonzero"/><path d="M38.4 14.2a4.6 4.6 0 0 0-3.8-2.2v1c.8.3 1.4 1 1.8 1.9-.7 1.1-2 1.7-3.4 1.6a14 14 0 0 0-2.9-2.4 1 1 0 0 0-.9 0l-1 .8c-.4.2-.5.5-.6.8 2-.4 3.2 2.2 3.5 3.2.3.9 0 5.9-1.9 6.2-1 .2-2-.3-2.6-1.2l1.2 10.6a49 49 0 0 0 0 7.7 481.2 481.2 0 0 1 .9 18.1c0 .5.6.9 1.3.9.8 0 1.4-.4 1.4-.9l1-12.2.6 8.8c0 .5.6.8 1.3.8.7 0 1.4-.4 1.4-.9l.7-16.9c.1-1.3 1.7-5.7 1.6-8.7v-6s2.1-8.6.4-11z" fill="#67A5EC" fill-rule="nonzero"/><path d="M29.4 63.6c.6.2 1.3 0 1.7-.4l.3-2.9h-2v3.3z" fill="#FFC4B6" fill-rule="nonzero"/><path d="M31.2 62.5l-.1.7a1.5 1.5 0 0 1-2.3 0l-.1-2.4c-1.7-.9-3.2-1-3.7-.4-.5.8.5 2.5 2.3 3.7 1.9 1.2 3.8 1.5 4.3.7l.1-.3s.3-.6-.5-2z" fill="url(#r)" fill-rule="nonzero"/><path d="M38.4 14.2a5.4 5.4 0 0 0-2-1.7c-.5-.1-1.1.1-1.5.6a4 4 0 0 1 1.5 1.8c-.7 1.1-2 1.8-3.4 1.6-.6-.7-1.3-1.3-2-1.8-1.2 0-1.7 1.3-1.7 1.3.8.9 1.5 1.8 1.8 2.9.3.9 0 5.3-1.5 6 0 4 0 8.1-.2 9.9-.5 3.9-.2 8.3-.2 12.4l.1 13.8.7.2c.6 0 1-.2 1.3-.7.3 0 .3-1.1.3-1.1l.7-8.1V48l.5-4.2s.3-3.3.5-3.9l1.3-1.8-1 9c-.3 1.9.2 9.5.2 10.5h.4l.8-.1c.4 0 .6-.4.7-.8l.7-16.9c.1-1.3 1.7-5.7 1.7-8.7v-6s2-8.6.3-11z" fill="#4A8AD2" fill-rule="nonzero"/><path d="M27.2 16.3a4.5 4.5 0 0 0-1.9 3.6c0 2.4.7 7.6.6 8.5 0 .8-2.3 4.9-2.3 4.9s2.1 1.6 3 1.5l2.7-5.8c.7-1.6 1.4-7 1.4-7l-3.5-5.7z" fill="#F1653C" fill-rule="nonzero"/><path d="M30.7 22l-2.6-4.2s-1 2.4-.5 8c0 1.5-.1 3-.5 4.4l-1.5 4.5h2s1-4 1.7-5.7c.7-1.6 1.4-7 1.4-7z" fill="#BF4E2D" fill-rule="nonzero"/><path fill="#844F24" d="M17.6 37.5l10.2 5.9 5-3-10.2-5.8z"/><g transform="translate(26.6 37.3)"><mask id="P" fill="#fff"><use xlink:href="#N"/></mask><path fill="url(#O)" mask="url(#P)" d="M.9 6L3.4.7 5.9 3z"/></g><g transform="translate(17.6 37.3)"><mask id="S" fill="#fff"><use xlink:href="#Q"/></mask><path fill="url(#R)" mask="url(#S)" d="M0 6.1L10.2 12l5-3V3.3L12.7.8 10.2 6 0 .2z"/></g><g transform="translate(17.6 31.3)"><mask id="V" fill="#fff"><use xlink:href="#T"/></mask><path fill="url(#U)" mask="url(#V)" d="M2.5 1L0 6.2l5-2.9z"/></g><g transform="translate(17.6 32.3)"><mask id="Y" fill="#fff"><use xlink:href="#W"/></mask><path fill="url(#X)" mask="url(#Y)" d="M.2 5.4l5-3L2.7.1z"/></g><g transform="translate(17.6 31.3)"><mask id="ab" fill="#fff"><use xlink:href="#Z"/></mask><path fill="url(#aa)" mask="url(#ab)" d="M2.5 1L0 6.2l.2.2L2.7 1z"/></g><g transform="translate(26.6 37.3)"><mask id="ae" fill="#fff"><use xlink:href="#ac"/></mask><path fill="url(#ad)" mask="url(#ae)" d="M.9 6l.3.1L3.7 1 3.4.7z"/></g><path fill="#A1632A" d="M17.8 37.6l5-2.9-2.5-2.3z"/><g fill="#454645"><path d="M22.5 34.9l-2-1.2s-.4 0-.4.8c0 .5.4.7.4.7l1.5.9.5-1.2M25.2 36.4c0 .6.4 1.7.4 1.7l3.4 2 .5-1.1-4.3-2.6z"/></g><path d="M24.5 33.8l-.3 1.2-.6.5c-.2.2-1.6 1.1-1.5 1.7.3.7.8 1.4 1.5 1.8a7 7 0 0 0 2.3-.7l.7-1.7c.1-.4-.4-.5-.8-.4l.8-1.4c-.8 0-1.6-.4-2-1z" fill="#FFC4B6" fill-rule="nonzero"/><path d="M25.8 36.2a1 1 0 0 1-1 .7l1.7-.1s.4-.7-.7-.6z" fill="#D8C7C7" fill-rule="nonzero"/><path d="M28.4 6.9c-.3-.2-.5-.5-.6-.8-.3-.7-.1-1.5.4-2s2-.7 2.2-1c.2-.5 2.1-.6 2.8-.6.6 0 2.7-.3 4.5 2.9l.9 1c.6.8 0 2.2-.5 2.6-.5.3-1 .8-1.2 1.4-.3.7-.1 1.5-2.3 1.6-2.2 0-2.8.2-3.4-.1-.7-.4-1-1.2-.6-2l.3-.5s.6 0 .8-1c.3-1-.7-.6-.7-.6s-.2-.9-.8-.9c-.6 0-1.4.4-1.8 0z" fill="#CE775C" fill-rule="nonzero"/><path d="M21.8 12.7l-.8-1.3c-.1-.3-1.3-.9-1.3-.9l.8 1.4.7 3 .7-.1 1.4 1a2 2 0 0 1 .7-2.2l-2.2-1z" fill="#FFC4B6" fill-rule="nonzero"/><path d="M33 57c0 .4.6.7 1.3.7.7 0 1.4-.4 1.4-.9l.7-17c.1-1 1-3.7 1.5-6.3-1 2.4-4.4 5.3-4.7 6.8-.3 1.6-.9 7.8-.9 7.8l.6 8.8z" fill="#67A5EC" fill-rule="nonzero"/><path d="M38.6 6.5l-.9-1.1C36.4 3.1 35 2.6 34 2.5l-1.8 5.3-.3.3v.3c-.3 1-.9 1-.9 1s-.6 2.2 1.3 2.7l2.4-.1c2.2-.1 2-1 2.4-1.6.2-.6.6-1 1.1-1.4.6-.4 1.1-1.8.5-2.5z" fill="#A45E48" fill-rule="nonzero"/><path d="M24 13.6c-.8-.2-1.5-.5-2.2-1-.6-.3-1.1-1-2-.7-1 .3-1.3.3-1.3.5s.3.2 1.3.2c.5 0 .9 1.7 2.3 1.3l1 .9c.3-.5.6-.9 1-1.2z" fill="#FFC4B6" fill-rule="nonzero"/><path d="M28.8 63.2v-1.5c-.8-.5-1.4-.7-1.6-.4-.2.2.3 1 1.1 1.5l.6.3z" fill="#D3AF4A" fill-rule="nonzero"/><path d="M35.1 3.5L30.7.9h-.3L26 3.5a.3.3 0 0 0 0 .5l4.4 2.5H30.7L35.1 4a.3.3 0 0 0 0-.5z" fill="#B29115" fill-rule="nonzero"/><path d="M31 1.2a3 3 0 0 0-.7.8c-.7.7-1 1.7-.9 2.7.2 1.6 2.8 3.8 5 3.8 2.3 0 4.3-1.4 4.3-3v-.2C38.6 4 38 2.7 37 1.8l-.4-.3C36 .9 35 .5 34.1.4a4 4 0 0 0-2.2.3l-.9.5z" fill="#DFB51A" fill-rule="nonzero"/><path d="M38.7 5.4v-.1c-.1-1.4-.7-2.6-1.6-3.6l-.4-.2-.8-.5c-1.2 0-2.3.6-3 1.5a6.4 6.4 0 0 0-.8 5.3 5 5 0 0 0 2.3.7c2.3 0 4.3-1.4 4.3-3z" fill="#B29115" fill-rule="nonzero"/><ellipse fill="url(#s)" fill-rule="nonzero" opacity=".3" style="mix-blend-mode:overlay" transform="rotate(-57.6 35.2 2)" cx="35" cy="1.9" rx="1" ry="1"/><path d="M16.8 37.2a2.2 2.2 0 0 1 3.3.3l2-.2v-.1h-1.8A2.2 2.2 0 0 0 17 37l-.2.2zM22.6 38l-.1-.1zM18.6 40.6v.1l-.3.2.3-.2zM20.5 38.2v.5c0 .6-.2 1-.5 1.5.5-.4.7-1 .7-1.7v-.3h-.2zM19.8 40.3z" fill="#77777F" fill-rule="nonzero"/><path d="M26.2 36.2h-.4l.8-1.4c-.4 0-.7 0-1-.2l-.7 1.5c-.1.2-.8.6-.8.9 0 .2.7 1.2.7 1.2.3.2.7.3 1 .1.3-.3.4-.6.5-1l-.1-1.1z" fill="#D0A297" fill-rule="nonzero"/><path d="M33.8 57v3.2c.6.1 1.2 0 1.6-.4l.2-2.9h-1.8z" fill="#FFC4B6" fill-rule="nonzero"/><path d="M27.6 36.5h-.1l-2.5.2-.2.2 2.5-.2a.4.4 0 0 1 .5.4v.2l-.1.1.2-.2v-.1l.1-.2a.4.4 0 0 0-.4-.4z" fill="#77777F" fill-rule="nonzero"/><path d="M37.9 33.5c-.5 1.4-2 3-3.1 4.4l-.5 2.9a221 221 0 0 0-.4 16.9h.4c.8 0 1.4-.4 1.4-.8 0 0 .9-.6.9-1.6V40.8c0-1 .9-4.7 1.3-7.3z" fill="#4A8AD2" fill-rule="nonzero"/><path d="M31 63.2c-.4.4-1 .6-1.6.4-.3.4-.4.9-.3 1.4 1.2.4 2.2.4 2.5-.2l.1-.3s.2-.6-.6-2v.7z" fill="#A1632A" fill-rule="nonzero"/><path d="M31.8 64.2l-.1.3c-.6.8-2.5.5-4.3-.7-1.4-1-2.4-2.1-2.5-3-.2.9.8 2.3 2.5 3.3 1.8 1.2 3.7 1.6 4.3.8v-.3-.4z" fill="#FFF" fill-rule="nonzero"/><path fill-opacity=".5" fill="#D8D8D8" fill-rule="nonzero" d="M36.6 19.3l-3 1v-2l3-1z"/></g><path d="M198 321.5c-73.3 0-142.8-16.4-195.6-46l.6-1.1c52.6 29.5 121.9 45.8 195 45.8 45.5 0 90.7-6.5 130.7-18.7l.4 1.2a453.3 453.3 0 0 1-131 18.8z" stroke="#000" stroke-width="7.3" opacity=".1" filter="url(#af)" transform="translate(182.4 295.6)"/><path d="M380.4 601.4c-73.3 0-142.8-16.3-195.6-46l.6-1.1c52.6 29.6 122 45.9 195 45.9 45.5 0 90.7-6.5 130.8-18.8l.3 1.2a453.3 453.3 0 0 1-131 18.8z" stroke="#FFF" stroke-width="3.3" opacity=".2" stroke-linecap="round" stroke-linejoin="round"/><path d="M33.2 274.8c-11.8-3.8-21-9.6-30.8-15l.6-1.2c52.6 29.6 35.4 10.9 30.2 16.2z" stroke="url(#ag)" stroke-width="3.6" stroke-linecap="round" stroke-linejoin="round" transform="translate(182.4 295.6)"/><path d="M328.7 285.7l.4 1.2a401.9 401.9 0 0 1-34.6 9c-30.8 6.5-5.8 2.1 34.2-10.2z" stroke="url(#ah)" stroke-width="3.6" stroke-linecap="round" stroke-linejoin="round" transform="translate(182.4 295.6)"/><path d="M410.2 269l-.9-1.2c52.4-34.8 81.3-79.4 81.3-125.7 0-22.6-6.7-44.6-19.9-65.5A199.7 199.7 0 0 0 416 20.8l.8-1.3A201 201 0 0 1 472 75.8c13.3 21.2 20 43.5 20 66.3 0 46.8-29 91.9-81.8 127z" stroke="#000" stroke-width="7.3" opacity=".1" filter="url(#ai)" transform="translate(182.4 295.6)"/><path d="M592.6 545.3l-.8-1.2C644 509.3 673 464.6 673 418.3c0-22.5-6.7-44.5-19.8-65.5a199.7 199.7 0 0 0-54.9-55.8l.8-1.2a201 201 0 0 1 55.3 56.3c13.3 21.1 20 43.4 20 66.2 0 46.9-29 92-81.8 127z" stroke="#FFF" stroke-width="3.3" opacity=".2" stroke-linecap="round" stroke-linejoin="round"/><path d="M470.7 57.2A199.7 199.7 0 0 0 416 1.4l.8-1.2A201 201 0 0 1 472 56.4c13.3 21.2 11.9 21.7-1.3.8z" stroke="url(#aj)" stroke-width="3.6" stroke-linecap="round" stroke-linejoin="round" transform="translate(182.4 295.6)"/><g transform="translate(268.5 -187)"><ellipse fill="#FFF" fill-rule="nonzero" cx="57.2" cy="474.3" rx="1" ry="1"/><ellipse fill="#FFF" fill-rule="nonzero" cx="81" cy="548.6" rx="1" ry="1"/><ellipse fill="#FFF" fill-rule="nonzero" cx="63.6" cy="577.7" rx="1" ry="1"/><ellipse fill="#FFF" fill-rule="nonzero" cx="92.6" cy="624.1" rx="1" ry="1"/><ellipse fill="#FFF" fill-rule="nonzero" cx="92.6" cy="618.3" rx="1" ry="1"/><ellipse fill="#FFF" fill-rule="nonzero" cx="110" cy="618.3" rx="1" ry="1"/><ellipse fill="#FFF" fill-rule="nonzero" cx="133.2" cy="589.3" rx="1" ry="1"/><ellipse fill="#FFF" fill-rule="nonzero" cx="88.8" cy="471.5" rx="1" ry="1"/><ellipse fill="#FFF" fill-rule="nonzero" cx="173.8" cy="484.7" rx="1" ry="1"/><ellipse fill="#FFF" fill-rule="nonzero" cx="86.8" cy="554.4" rx="1" ry="1"/><ellipse fill="#FFF" fill-rule="nonzero" cx="168" cy="478.9" rx="1" ry="1"/><ellipse fill="#FFF" fill-rule="nonzero" cx="139" cy="432.5" rx="1" ry="1"/><ellipse fill="#FFF" fill-rule="nonzero" cx="182.5" cy="403.4" rx="1" ry="1"/><ellipse fill="#FFF" fill-rule="nonzero" cx="57.2" cy="245.6" rx="1" ry="1"/><ellipse fill="#FFF" fill-rule="nonzero" cx="81" cy="319.9" rx="1" ry="1"/><ellipse fill="#FFF" fill-rule="nonzero" cx="63.6" cy="348.9" rx="1" ry="1"/><ellipse fill="#FFF" fill-rule="nonzero" cx="92.6" cy="395.4" rx="1" ry="1"/><ellipse fill="#FFF" fill-rule="nonzero" cx="92.6" cy="389.6" rx="1" ry="1"/><ellipse fill="#FFF" fill-rule="nonzero" cx="110" cy="389.6" rx="1" ry="1"/><ellipse fill="#FFF" fill-rule="nonzero" cx="133.2" cy="360.5" rx="1" ry="1"/><ellipse fill="#FFF" fill-rule="nonzero" cx="133.2" cy="290.9" rx="1" ry="1"/><ellipse fill="#FFF" fill-rule="nonzero" cx="173.8" cy="256" rx="1" ry="1"/><ellipse fill="#FFF" fill-rule="nonzero" cx="86.8" cy="325.7" rx="1" ry="1"/><ellipse fill="#FFF" fill-rule="nonzero" cx="168" cy="250.2" rx="1" ry="1"/><ellipse fill="#FFF" fill-rule="nonzero" cx="139" cy="203.7" rx="1" ry="1"/><ellipse fill="#FFF" fill-rule="nonzero" cx="104.5" cy="609.9" rx="1" ry="1"/><ellipse fill="#FFF" fill-rule="nonzero" cx="69.7" cy="580.9" rx="1" ry="1"/><ellipse fill="#FFF" fill-rule="nonzero" cx="75.5" cy="563.5" rx="1" ry="1"/><ellipse fill="#FFF" fill-rule="nonzero" cx="145.1" cy="563.5" rx="1" ry="1"/><ellipse fill="#FFF" fill-rule="nonzero" cx="139.3" cy="551.8" rx="1" ry="1"/><ellipse fill="#FFF" fill-rule="nonzero" cx="174.1" cy="517" rx="1" ry="1"/><ellipse fill="#FFF" fill-rule="nonzero" cx="168.3" cy="488" rx="1" ry="1"/><ellipse fill="#FFF" fill-rule="nonzero" cx="179.9" cy="470.5" rx="1" ry="1"/><ellipse fill="#FFF" fill-rule="nonzero" cx="127.7" cy="453.1" rx="1" ry="1"/><ellipse fill="#FFF" fill-rule="nonzero" cx="58.1" cy="453.1" rx="1" ry="1"/><ellipse fill="#FFF" fill-rule="nonzero" cx="87.1" cy="488" rx="1" ry="1"/><ellipse fill="#FFF" fill-rule="nonzero" cx="46.5" cy="517" rx="1" ry="1"/><ellipse fill="#FFF" fill-rule="nonzero" cx="75.5" cy="395" rx="1" ry="1"/><ellipse fill="#FFF" fill-rule="nonzero" cx="139.3" cy="418.3" rx="1" ry="1"/><ellipse fill="#FFF" fill-rule="nonzero" cx="197.3" cy="337" rx="1" ry="1"/><ellipse fill="#FFF" fill-rule="nonzero" cx="162.5" cy="290.5" rx="1" ry="1"/><ellipse fill="#FFF" fill-rule="nonzero" cx="75.5" cy="337" rx="1" ry="1"/><ellipse fill="#FFF" fill-rule="nonzero" cx="87.1" cy="342.8" rx="1" ry="1"/><ellipse fill="#FFF" fill-rule="nonzero" cx="87.1" cy="360.2" rx="1" ry="1"/><ellipse fill="#FFF" fill-rule="nonzero" cx="29.1" cy="290.5" rx="1" ry="1"/><ellipse fill="#FFF" fill-rule="nonzero" cx="63.9" cy="238.2" rx="1" ry="1"/><ellipse fill="#FFF" fill-rule="nonzero" cx="104.5" cy="372.4" rx="1" ry="1"/><ellipse fill="#FFF" fill-rule="nonzero" cx="69.7" cy="343.4" rx="1" ry="1"/><ellipse fill="#FFF" fill-rule="nonzero" cx="75.5" cy="325.9" rx="1" ry="1"/><ellipse fill="#FFF" fill-rule="nonzero" cx="145.1" cy="325.9" rx="1" ry="1"/><ellipse fill="#FFF" fill-rule="nonzero" cx="139.3" cy="314.3" rx="1" ry="1"/><ellipse fill="#FFF" fill-rule="nonzero" cx="174.1" cy="279.5" rx="1" ry="1"/><ellipse fill="#FFF" fill-rule="nonzero" cx="168.3" cy="250.4" rx="1" ry="1"/><ellipse fill="#FFF" fill-rule="nonzero" cx="179.9" cy="233" rx="1" ry="1"/><ellipse fill="#FFF" fill-rule="nonzero" cx="127.7" cy="215.6" rx="1" ry="1"/><ellipse fill="#FFF" fill-rule="nonzero" cx="58.1" cy="215.6" rx="1" ry="1"/><ellipse fill="#FFF" fill-rule="nonzero" cx="87.1" cy="250.4" rx="1" ry="1"/><ellipse fill="#FFF" fill-rule="nonzero" cx="46.5" cy="279.5" rx="1" ry="1"/></g><g fill-rule="nonzero" opacity=".5"><path d="M3.2 44l-.3-.3v-2.8L.3 39.5a.3.3 0 0 1-.2-.3s0-.2.2-.2h.3l2.8 1.5.2.2v3l-.4.2z" fill="url(#ak)" transform="scale(-1 1) rotate(-8 3221.6 4151.2)"/><path d="M8.3 41.7c-.2 0-.3-.2-.3-.3v-2.8l-2.7-1.4-.1-.2v-.2c0-.1.3-.2.4 0l2.9 1.4.1.2v3c0 .1-.1.3-.3.3z" fill="url(#al)" transform="scale(-1 1) rotate(-8 3221.6 4151.2)"/><path d="M13.4 39.4c-.2 0-.4-.1-.4-.3v-2.8L10.4 35l-.2-.1v-.3h.5l2.8 1.4.2.2v3l-.1.2-.2.1z" fill="url(#am)" transform="scale(-1 1) rotate(-8 3221.6 4151.2)"/><path d="M18 36.9l.2-3.8-2.8-.4-.1-.2v-.2c0-.2.3-.2.4-.1l3 .5.2.2-.2 4v.1l-.3.1c-.2 0-.3 0-.3-.2z" fill="url(#an)" transform="scale(-1 1) rotate(-8 3221.6 4151.2)"/><path d="M23.1 34.6l.2-3.8-2.8-.4-.2-.2V30c.1-.1.3-.2.5 0l3 .4.1.2-.1 4-.1.2h-.2c-.2 0-.4 0-.4-.2z" fill="url(#ao)" transform="scale(-1 1) rotate(-8 3221.6 4151.2)"/><path d="M28.5 32.6c-.2 0-.3-.1-.3-.3l.1-3.8-2.8-.4-.1-.1v-.2c0-.2.3-.2.4-.1l3 .4.2.3-.2 4s-.1.2-.3.2z" fill="url(#ap)" transform="scale(-1 1) rotate(-8 3221.6 4151.2)"/><path d="M33.2 30l.2-3.7-2.8-.4a.3.3 0 0 1-.2-.3s0-.2.2-.2h.3l3 .5.1.2-.1 4-.3.2c-.2 0-.4-.1-.4-.3z" fill="url(#aq)" transform="scale(-1 1) rotate(-8 3221.6 4151.2)"/><path d="M38.4 28l-.1-.2.1-3.8-2.8-.4-.1-.2v-.2l.2-.1h.2l3 .5.2.2-.2 4c0 .1-.1.2-.3.2h-.2z" fill="url(#ar)" transform="scale(-1 1) rotate(-8 3221.6 4151.2)"/><path d="M43.4 25.5v-3.8l-2.7-.4-.2-.2V21l.3-.1h.2l3 .5.1.2-.1 4-.3.3c-.2 0-.3-.2-.3-.3z" fill="url(#as)" transform="scale(-1 1) rotate(-8 3221.6 4151.2)"/><path d="M48.7 23.5c-.1 0-.3-.1-.3-.3l.1-3.8-2.8-.4a.3.3 0 0 1-.1-.2l.1-.2c.1-.1.3-.1.4 0l3 .4v4.3l-.4.2z" fill="url(#at)" transform="scale(-1 1) rotate(-8 3221.6 4151.2)"/><path d="M53.5 21l.1-3.8-2.8-.4c-.2-.1-.2-.3-.1-.4l.2-.2h.2l3 .6.1.2-.1 4c0 .1-.1.2-.3.2-.2 0-.3 0-.3-.3z" fill="url(#au)" transform="scale(-1 1) rotate(-8 3221.6 4151.2)"/><path d="M58.8 19l-.3-.3.2-3.8-2.9-.4a.3.3 0 0 1-.1-.2l.1-.3h.4l3 .5v4.2c0 .1-.2.3-.4.3z" fill="url(#av)" transform="scale(-1 1) rotate(-8 3221.6 4151.2)"/><path d="M63.6 16.4l.1-3.8-2.8-.4c-.2 0-.2-.2-.1-.4h.2c0-.1.1-.1.2 0l3 .4.1.3-.1 4-.1.1h-.2c-.2 0-.3 0-.3-.2z" fill="url(#aw)" transform="scale(-1 1) rotate(-8 3221.6 4151.2)"/><path d="M68.6 14.1l.1-3.8L66 10a.3.3 0 0 1-.1-.2l.1-.2h.3l3 .4.2.3-.2 4s-.1.2-.3.2c-.2 0-.3-.1-.3-.3z" fill="url(#ax)" transform="scale(-1 1) rotate(-8 3221.6 4151.2)"/><path d="M73.7 11.9l.1-3.8-2.8-.4c-.2 0-.2-.3-.1-.4l.2-.1h.2l3 .5.1.2-.1 4c0 .1-.1.2-.3.2-.2 0-.3 0-.3-.2z" fill="url(#ay)" transform="scale(-1 1) rotate(-8 3221.6 4151.2)"/><path d="M78.7 9.6l.2-3.8-2.8-.4a.3.3 0 0 1-.2-.2c0-.1 0-.2.2-.3h.3l3 .5s.1.1 0 .2v4l-.1.2H79c-.1 0-.3 0-.3-.2z" fill="url(#az)" transform="scale(-1 1) rotate(-8 3221.6 4151.2)"/><path d="M83.8 7.3l.1-3.7-2.8-.5c-.2 0-.2-.2-.1-.3 0-.1 0-.2.2-.2h.2l3 .5.1.3-.1 4v.1l-.3.1c-.2 0-.3-.1-.3-.3z" fill="url(#aA)" transform="scale(-1 1) rotate(-8 3221.6 4151.2)"/><path d="M89 5.2c-.1 0-.2 0-.2-.2l.2-3.7-2.8-.5c-.2 0-.2-.2-.2-.3.1-.2.3-.2.5-.1l3 .4.1.3-.1 4-.1.1-.3.1H89z" fill="url(#aB)" transform="scale(-1 1) rotate(-8 3221.6 4151.2)"/></g><g fill-rule="nonzero" opacity=".5"><path d="M1.6 48l1.3-3.5L.2 44a.3.3 0 0 1 .3-.6l2.9.7.2.2L2.2 48c0 .2-.1.4-.3.4a.3.3 0 0 1-.3-.4z" fill="url(#ak)" transform="scale(-1 1) rotate(62 -481.1 -275.9)"/><path d="M6.6 45.5L8 42l-2.8-.6a.3.3 0 0 1 0-.4c0-.1.2-.2.3-.1l3 .6.1.3-1.3 3.7c0 .2-.2.3-.4.3a.3.3 0 0 1-.3-.3z" fill="url(#al)" transform="scale(-1 1) rotate(62 -481.1 -275.9)"/><path d="M11.7 43l1.3-3.6-2.7-.5a.3.3 0 0 1-.1-.4c0-.2.2-.2.4-.2l3 .7v.3L12.4 43a.3.3 0 0 1-.3.3.3.3 0 0 1-.3-.3z" fill="url(#am)" transform="scale(-1 1) rotate(62 -481.1 -275.9)"/><path d="M16.7 40.5l1.4-3.6-2.8-.5a.3.3 0 0 1 0-.5c0-.1.2-.2.3 0l3 .6.1.2-1.3 3.7a.3.3 0 0 1-.3.4.3.3 0 0 1-.4-.3z" fill="url(#an)" transform="scale(-1 1) rotate(62 -481.1 -275.9)"/><path d="M21.8 38l1.3-3.6-2.7-.6a.3.3 0 0 1-.1-.4c0-.1.2-.2.4-.1l3 .6v.3L22.5 38a.3.3 0 0 1-.3.3.3.3 0 0 1-.3-.3z" fill="url(#ao)" transform="scale(-1 1) rotate(62 -481.1 -275.9)"/><path d="M27.2 35.7a.3.3 0 0 1-.4-.3l1.4-3.5-2.8-.6a.3.3 0 0 1 0-.4c0-.1.2-.2.4-.1l2.9.6.1.3-1.3 3.7c0 .2-.2.3-.3.3z" fill="url(#ap)" transform="scale(-1 1) rotate(62 -481.1 -275.9)"/><path d="M31.9 32.9l1.3-3.6-2.7-.5a.3.3 0 0 1 .3-.5l3 .6v.3l-1.3 3.7c0 .2-.1.3-.3.3a.3.3 0 0 1-.3-.3z" fill="url(#aq)" transform="scale(-1 1) rotate(62 -481.1 -275.9)"/><path d="M37 30.6v-.3l1.3-3.5-2.8-.5a.3.3 0 0 1 0-.5.3.3 0 0 1 .4 0l2.9.6.1.2-1.3 3.7c0 .2-.2.3-.3.3H37z" fill="url(#ar)" transform="scale(-1 1) rotate(62 -481.1 -275.9)"/><path d="M42 27.8l1.4-3.5-2.8-.6a.3.3 0 0 1-.1-.4.3.3 0 0 1 .4-.1l3 .6v.3l-1.3 3.7c0 .2-.1.3-.3.3a.3.3 0 0 1-.3-.3z" fill="url(#as)" transform="scale(-1 1) rotate(62 -481.1 -275.9)"/><path d="M47.4 25.6a.3.3 0 0 1-.3-.3l1.3-3.6-2.7-.5a.3.3 0 0 1 .3-.5l2.9.6.1.3-1.3 3.7-.3.3z" fill="url(#at)" transform="scale(-1 1) rotate(62 -481.1 -275.9)"/><path d="M52.1 22.7l1.4-3.5-2.8-.5a.3.3 0 0 1 0-.6h.3l3 .7v.2l-1.3 3.7c0 .2-.1.4-.3.4a.3.3 0 0 1-.3-.4z" fill="url(#au)" transform="scale(-1 1) rotate(62 -481.1 -275.9)"/><path d="M57.5 20.5a.3.3 0 0 1-.3-.3l1.3-3.5-2.7-.6a.3.3 0 0 1 .3-.5l2.9.6.1.3-1.3 3.7c0 .2-.1.3-.3.3z" fill="url(#av)" transform="scale(-1 1) rotate(62 -481.1 -275.9)"/><path d="M62.2 17.7l1.4-3.5-2.8-.6a.3.3 0 0 1 0-.6h.3l3 .7.1.3-1.4 3.7a.3.3 0 0 1-.3.3.3.3 0 0 1-.3-.3z" fill="url(#aw)" transform="scale(-1 1) rotate(62 -481.1 -275.9)"/><path d="M67.2 15.1l1.4-3.5-2.8-.5a.3.3 0 0 1 .4-.6l2.9.7.1.2-1.3 3.7c0 .2-.2.4-.3.4a.3.3 0 0 1-.4-.4z" fill="url(#ax)" transform="scale(-1 1) rotate(62 -481.1 -275.9)"/><path d="M72.3 12.6l1.4-3.5-2.8-.5a.3.3 0 0 1 0-.6h.3l3 .7v.2L73 12.6c0 .2-.1.3-.3.3a.3.3 0 0 1-.3-.3z" fill="url(#ay)" transform="scale(-1 1) rotate(62 -481.1 -275.9)"/><path d="M77.4 10l1.3-3.4L76 6a.3.3 0 0 1 .3-.5l2.9.6.2.3L78 10a.3.3 0 0 1-.3.3.3.3 0 0 1-.3-.3z" fill="url(#az)" transform="scale(-1 1) rotate(62 -481.1 -275.9)"/><path d="M82.4 7.6l1.4-3.5-2.8-.6a.3.3 0 0 1 0-.6h.3l3 .7v.3L83 7.6a.3.3 0 0 1-.3.3.3.3 0 0 1-.3-.3z" fill="url(#aA)" transform="scale(-1 1) rotate(62 -481.1 -275.9)"/><path d="M87.6 5.3l-.1-.3 1.3-3.5-2.7-.6a.3.3 0 0 1 .3-.5l2.9.6.2.3L88 5a.3.3 0 0 1-.5.3z" fill="url(#aB)" transform="scale(-1 1) rotate(62 -481.1 -275.9)"/></g><g transform="translate(509.6 227.5)" fill-rule="nonzero"><use fill="#000" filter="url(#aC)" xlink:href="#aD"/><use fill="url(#aE)" xlink:href="#aD"/></g><g fill-rule="nonzero"><g transform="translate(24 238.2)"><use fill="#000" filter="url(#aF)" xlink:href="#aG"/><use fill="url(#aE)" xlink:href="#aG"/></g><path d="M119 551l63.3-35.4c-6.1-4.5-15-7.9-25.4-9.4l-7.7 4.4L100 538c3.4 5.4 10.2 10 19 13z" fill="#0081C5" opacity=".2"/></g><g transform="translate(121 355)"><path d="M53.6 99.4l65.8 38.2a2.7 2.7 0 0 0 4-2.3v-76c0-1-.5-2-1.3-2.4l-65.9-38a2.7 2.7 0 0 0-4 2.3V97c0 1 .5 1.8 1.4 2.3z" fill="url(#aH)" fill-rule="nonzero" opacity=".5"/><path d="M133.1 91l18.6 10.8a2.7 2.7 0 0 0 4-2.3V56.8c0-1-.5-1.8-1.3-2.3l-20.6-11.9a1.3 1.3 0 0 0-2 1.2v45c0 .9.5 1.8 1.3 2.3zM140.3 135l6.6 3.8a2.7 2.7 0 0 0 4-2.3v-7.7c0-1-.5-1.8-1.3-2.3l-8.6-5a1.3 1.3 0 0 0-2 1.2v10c0 .9.5 1.8 1.3 2.2zM1.3 93.3L20 104a2.7 2.7 0 0 0 4-2.3V80.3c0-1-.5-1.8-1.3-2.3L2 66.1a1.3 1.3 0 0 0-2 1.2V91c0 1 .5 1.8 1.3 2.3zM23 58L33.8 64a2.7 2.7 0 0 0 4-2.3V28.3c0-1-.5-1.8-1.4-2.3l-12.6-7.3a1.3 1.3 0 0 0-2 1.2v35.8c0 1 .5 1.8 1.4 2.3z" fill="url(#aI)" fill-rule="nonzero" opacity=".5"/><path d="M55.7 62.6s5.3-12.7 11.4-9.9c9.7 4.6 2.9 44.2 12 51.2 8 6.2 10.6-18.8 17.4-21.8 6.8-2.9 8.8 15.6 22-12" stroke="#FFF" stroke-width=".7"/><ellipse fill="#EAE8E8" fill-rule="nonzero" cx="118.7" cy="69.3" rx="2.1" ry="2.1"/><ellipse fill="#EAE8E8" fill-rule="nonzero" cx="55" cy="62.6" rx="2.1" ry="2.1"/><path d="M55.7 75.5s3.3 9.1 10.3 3c7-6 12.4-3.4 16.1 8.6 3.7 12 9 16.5 14.4 13.8 3.4-1.7 6.1-8.4 6.1-8.4" stroke="url(#aJ)" stroke-width=".7"/><ellipse fill="#C13E18" fill-rule="nonzero" cx="102.9" cy="91.9" rx="1.9" ry="1.9"/><path d="M59.3 98.7V30.8M70.4 104.3v-68M81.4 109.8V42M92.5 116.5v-68M103.6 124.2V56.3M114.7 132V64" stroke="#EAE8E8" stroke-width=".7" opacity=".1"/></g><g transform="translate(138 443.5)"><path d="M23 59.7a27 27 0 0 1 7.3-2.7c3.6-.6 6 .3 7.8 1.8 1.7 1.5.9 11.7.9 11.7s-3.2 3-8 .4l-8-11.2z" fill="#D4D4D8" fill-rule="nonzero"/><path d="M32.3 61.2a27 27 0 0 1 7.2-2.6c3.7-.6 6.1.3 7.8 1.8 1.7 1.5 1 19.1 1 19.1a25.7 25.7 0 0 0-8-7l-8-11.3z" fill="#FFB1B1" fill-rule="nonzero"/><path d="M32.4 58.1a14 14 0 0 1 11 9.4s-2.6 6.8-11.7 12l-5.6-11.8 6.3-9.6z" fill="#525465" fill-rule="nonzero"/><path d="M51.5 40l-4.2-2.6s-.6-.4-1.6 1c-.4.7-4.7 7.1-5.9 8.1-1.1 1-12.5-1.7-12.5-1.7-1.6-1.4-5.1 2.4-7.3 1.3-8.4-4.2-14.2-10.8-16.1-7.4a44.7 44.7 0 0 0 8.4 39.5l1 1a16.5 16.5 0 0 0 9.4 3c6.8 0 12.2-3.7 12.2-8.1 0-2.8-2-5.2-5.2-6.7 1.2-3 2.1-6.1 2.7-9.3a27 27 0 0 0 11-2.3s3.5-1 8.8-14.2c0 0 .4-.8-.7-1.6z" fill="#E1E4E8" fill-rule="nonzero"/><path d="M4.8 37.7c4.9-3.9 10.3-7 16-9.5 0 0 3.4-3.8 6.5-11.3.1-.3.5-.5.7-.4l4.4 1.4a.7.7 0 0 1 .5 1c-.3 1-1.7 8.6-4.2 13.2 0 0-1.1 3.2-11.1 7.4H4.8l-1-.8 1-1z" fill="#E1E4E8" fill-rule="nonzero"/><path d="M27.3 17.7l1.5-4.6a5 5 0 0 0 0-1.9l-1.4-3.9c-.2-.7 1.3-4 2.3-5 1-1 3.1-2.5 3.7-2.3.6.3.5 2.5-.1 4.3-.7 1.9.2 3.4.4 4.9.1 1.4-1 2.2-1.2 2.9-.2.6-.9 7.1-.9 7.1l-4.3-1.5z" fill="#FFB1B1" fill-rule="nonzero"/><path d="M33 0a11 11 0 0 0-3.3 2.4c-1 1-2.5 4.2-2.3 5l1.3 3.8c.2.6.2 1.3.1 2l-1.5 4.6 1.8.6.3-.6s1.6-5.4 1.6-6.2c0-.7-1.6-4-.4-5.9 1-1.6 2.4-4 2.4-5.6z" fill="#E29E9E" fill-rule="nonzero"/><path d="M25.4 21a38 38 0 0 1-4.6 7.2c-5.7 2.4-11.1 5.6-16 9.5l-1 1 1 .8h12.8l2-1c.6-.7 4.1-6 5-8.2l3.4-8.7-2.6-.7z" fill="#E1E4E8" fill-rule="nonzero"/><ellipse fill="#FFB1B1" fill-rule="nonzero" cx="17.4" cy="27.3" rx="10.8" ry="10.8"/><path d="M34 18v-.1l-7.6-2.4a.2.2 0 0 0-.3.1l-1.5 4.7v.1l.2.1 7.5 2.4h.1l.2-.1 1.4-4.6V18z" fill="#525465" fill-rule="nonzero"/><path d="M13 37.2v4.6a3.3 3.3 0 0 0 6.6 0v-4.6H13z" fill="#E29E9E" fill-rule="nonzero"/><path d="M46.6 39l2.6-4.1a5 5 0 0 0 .4-1.9l-.4-4c0-.9 2.2-3.6 3.5-4.3 1.3-.7 3.6-1.8 4.1-1.4.5.4 0 2.6-1.1 4.2s-.6 3.3-.8 4.8c-.2 1.4-1.5 2-1.9 2.5l-2.5 6.7-4-2.5z" fill="#FFB1B1" fill-rule="nonzero"/><path d="M29.7 16.5l-3.3-1a.2.2 0 0 0-.3.1l-1.5 4.7v.1l.2.1 3.2 1 1.7-5z" fill="#3C3E4B" fill-rule="nonzero"/><path d="M40.2 72.5c1.1.6 2.2 1.2 3.2 2v-7a20 20 0 0 1-3.2 5z" fill="#E29E9E" fill-rule="nonzero"/><path d="M23.5 17.5s5.2-.2 5.9 4.3c.7 4.5-5.5 5.7-6.8 8 0 0-.4-2.2-1.8-1.6-1.5.7-1.2 5.2 1 5.7 0 .9-.4 1.7-1 2.3-1.2 1-6.5.6-6.6 2.5 0 0-.4-1.2-2.3-1.5C10 37 6.4 33 6 28.6c-.3-3-.4-5 3-9.2a11 11 0 0 1 14.5-2z" fill="#928583" fill-rule="nonzero"/><path d="M24.3 23c-1.2-1.4-2.1-.6-3-2-1-1.2-3.1-1-3.1-1L5.9 25.4l.1 3.2c.4 4.3 4 8.4 6 8.6 1.8.2 2.2 1.5 2.2 1.5 0-2 5.4-1.5 6.6-2.5.6-.6 1-1.4 1-2.3-2.2-.5-2.5-5-1-5.7 1.4-.6 1.8 1.6 1.8 1.6s3-5.5 1.7-6.8z" fill="#675755" fill-rule="nonzero"/><ellipse fill="#928583" fill-rule="nonzero" cx="11" cy="21.1" rx="7.9" ry="7.9"/><path d="M8.4 14.5a7.9 7.9 0 1 0 0 15.7 7.9 7.9 0 0 0 0-15.7z" fill="#675755" fill-rule="nonzero"/><path d="M56.2 25l.8-1.3c0-.2 0-.3-.2-.4-.5-.4-2.9.7-4.1 1.4l-.3.2c-.8 1.2-1.4 2.5-2 3.9-.5 1.1 0 5.2-.3 6.4-.3 1.1-2.5 4.5-2.5 4.5l2.2.6s3-6.8 3.4-9.4c.5-2.6 1.4-3.9 3-6z" fill="#E29E9E" fill-rule="nonzero"/><path d="M46.2 43s-3.3 5.2-4.4 6c-1 .7-12.2-1-15.3-1.2a44.6 44.6 0 0 1-14.3-2.7c-.9-1.3-1.2-6.4-1.2-6.4l-5.3-1.5c-.7.3-1.4.8-1.8 1.5a44.7 44.7 0 0 0 8.4 39.5l1 1a16.5 16.5 0 0 0 9.4 3c4.4 0 8.3-1.6 10.4-3.9.5-2.5.2-6.8-5-11a41 41 0 0 0 4.4-9.2c4.7-1.2 8.9-4 12-7.6 1.6-1.9 3-3.9 4-6L46.2 43z" fill="#CBCED3" fill-rule="nonzero"/><path d="M53.6 41l-.1-.2-7-4.6a.2.2 0 0 0-.4 0L43.4 41V41.2l7.1 4.6H50.8l2.7-4.6V41zM25.4 44s-8.6 2.5-11.5.1c0 0-1-.7-1-4.6V38s-2.6 1-3.4 3.5c-.7 2.6 1.3 4.8 3 5.8a22 22 0 0 0 12.1 1.2c4.4-1 2.7-4 2.7-4l-2-.7z" fill="#525465" fill-rule="nonzero"/><path d="M19.6 40.6v1.2c0 1.6-1.1 3-2.7 3.2 0 0 3.4.5 8.5-1a39.8 39.8 0 0 0-5.8-3.4z" fill="#525465" fill-rule="nonzero"/><path d="M21.6 32.8c1 0 1.7 1.3 1.7 3 0 1.6-.8 2.8-1.7 2.8-1 0-1.8-1.3-1.8-2.9 0-.9.3-1.8 1-2.5" stroke="#C59700" stroke-width=".6"/><path d="M6 29.5c4 .7 7.4 0 10-2 0 0-2 4-7 4-2 0-3-.7-3-2z" fill-opacity=".4" fill="#000" fill-rule="nonzero"/></g><g transform="translate(511.7 496.8)" fill-rule="nonzero"><use fill="#000" filter="url(#aK)" xlink:href="#aL"/><use fill="url(#aE)" xlink:href="#aL"/></g><g transform="translate(520 419.8)" fill-rule="nonzero"><path d="M24.5 18.6l-10-17.5a1 1 0 0 0-.5-.4l-.7-.3h-.6L.5 7.4s-1 .8 0 2.2l10 17.1c.3.3.8.4 1.3.4.2 0 .3 0 .5-.2l11.9-7c.4-.3.6-.8.3-1.3z" fill="#D9D9DB"/><path d="M14.4 1.1a1 1 0 0 0-.4-.4l-.4-.1-12.2 7s-1 .7 0 2c.7 1.5 9.9 17.2 9.9 17.2l.5.3c.1 0 .3 0 .5-.2l11.9-7c.4-.3.6-.8.3-1.3l-10-17.5z" fill="#FFF"/><path d="M22.8 17.9L14.2 3a.8.8 0 0 0-.5-.4l-.6.1L3 8.7c-.4.2-.5.7-.3 1l8.6 15c0 .2.2.3.4.3h.7l10.1-6c.4-.3.5-.7.3-1.1z" fill="url(#aM)"/><ellipse fill="#D9D9DB" cx="8" cy="4.7" rx="1" ry="1"/></g><g fill-rule="nonzero"><path d="M560.7 442.2L551 438c-2.8 2.5-3.8 4.8-3 7l10.7 4.6 2-7.4z" fill="#F1653C"/><path d="M580 440c-1.8-3.2-7.4-6.5-15.1-2a19 19 0 0 0-7.9 8c-1.3 1.3-.9 8 0 9l1.7 19.5c11.9 7.2 19.2-3.4 19.2-3.4.3-13 1.1-21 1.1-21.1 1.4-4.4 1.2-9.7 1-10z" fill="#F1653C"/><path d="M576 436c-5 .3-13.7 4.2-17.4 11.7-2.9 5.8-.6 19.6 1 27.3 11.3 6.2 18.4-3.9 18.4-3.9.2-13 2.4-21.5 2.4-21.5 1.6-13.3-2.4-12.9-4.4-13.6z" fill="#DE5D37"/><path d="M566 434.5v4a2.9 2.9 0 0 0 5.8 0v-4H566z" fill="#FFC4B6"/><path d="M567 437c5.3 0 11.5-5.7 11.5-11s-4.3-9.7-9.6-9.7-8.9 4.4-8.9 9.7c0 5.3 1.7 11 7 11z" fill="#FFC4B6"/><path d="M581.2 538l-8.3-5-7.6 3.3 33.8 20.3c1.8-1.4 3.5-3 4.9-5L581.2 538zM573.3 544.6l-8.3-5-7.5 3.4 30.2 18.6c2.6-1 5-2.2 7.3-3.6l-21.7-13.4z" fill="#0081C5" opacity=".3"/><path d="M574 527.7l-.6 5.8s-2.2 2.4-4.5 0l-.4-5.8h5.5z" fill="#FFC4B6"/><path d="M39.5 120.4l-.1 1.3s-2.2 2.4-4.6 0l-.3-4.9c-3.3-1.8-6.5-2.1-7.5-.6-1.1 1.6 1 5 4.8 7.4 3.7 2.5 7.6 3.2 8.7 1.5l.2-.5s.4-1.4-1.2-4.2z" fill="url(#aN)" transform="translate(534 411.8)"/><path d="M568.8 533.5l-.2-3.1c-1.4-1-2.8-1.3-3.1-.7-.4.5.6 2 2.2 3l1.2.8z" fill="#D3AF4A"/><path d="M570.3 534.4c-1.6.3-2.3 1.7-2.4 2.2 3 1.5 5.8 1.7 6.7.3l.2-.5s.4-1.4-1.3-4.2v1.3s-1.5 1.5-3.2 1z" fill="#A1632A"/><path d="M565.2 534.7l-.5 5.8s-2.2 2.3-4.6 0l-.4-5.8h5.5z" fill="#FFC4B6"/><path d="M574.8 535.5l-.2.6c-1.1 1.7-5 1-8.8-1.4-2.8-2-4.7-4.3-5-6-.3 1.7 1.7 4.6 5 6.7 3.8 2.5 7.7 3.2 8.8 1.5l.2-.5v-.9z" fill="#FFF"/><path d="M577 440.1c-3.4-4.8-5.2-4.3-5.2-4.3v1.9c2.5 1 3.7 4 3.7 4-2.3 3.9-7 3.4-7 3.4-1.7-2-3.7-3.6-5.8-5-.8-.5-1.8 0-1.8 0l-2.3 1.7c-1 1-1 1.7-1 1.7 4-1 6.4 4.4 7 6.3.7 2 0 12.2-3.8 12.8-2 .4-4.2-.6-5.3-2.4l2.4 21.7c-.4 5.2-.4 10.4 0 15.6-.3 11.5 0 35.6 0 37 0 1.5 1.8.1 1.8.2 0 1 1.3 1.7 2.8 1.7 1.5 0 4.7-.9 4.7-1.8 0-1-2 0-2 0l2-25 1.3 18.1c.1 1 1.3 1.6 2.7 1.6 1.5 0 2.8-.8 2.8-1.7 0-2.3 1.3-31.3 1.6-34.7.2-2.7 3.4-11.7 3.3-17.7v-12.4s1.5-17.8-1.9-22.7z" fill="#67A5EC"/><path d="M561.2 541.3c2 .8 3.5-.8 3.5-.8l.5-5.8H561l.2 6.6z" fill="#DCA092"/><path d="M30.7 127.3l-.1 1.4s-2.2 2.3-4.6 0l-.3-5c-3.3-1.7-6.5-2-7.5-.6-1 1.7 1 5 4.8 7.5 3.7 2.5 7.7 3.1 8.8 1.4l.2-.5s.4-1.3-1.3-4.2z" fill="url(#aO)" transform="translate(534 411.8)"/><path d="M578.9 440c-3.2-4-1.7-2.4-3.3-3.3-2.4-.1-3.2 1.3-3.2 1.3a8.2 8.2 0 0 1 3 3.7c-2.2 3.9-6.8 3.4-6.8 3.4a26.5 26.5 0 0 0-4.3-3.8c-2.3.1-3.2 2.8-3.2 2.8 2 1.6 3.1 4.4 3.6 5.7.6 1.8 0 11-3.2 12.6.1 8 .1 16.4-.3 20-1 8-.3 17-.4 25.4-.1 7.4.2 24.5.3 28.4l1.4.2c1.3 0 2.4-.6 2.7-1.4l.5-7a6108.7 6108.7 0 0 1 1.5-18.4l.8-8.4s-.4-7.2 0-8.3c.5-1.1 8.2-10.8 6-6.3-2.3 4.4-3.9 17.4-4.4 21.3-.4 3.7.5 19.3.6 21.3l.7.1 1.8-.2c.7-.3 1.3-.9 1.3-1.5 0-2.3 1.3-31.3 1.6-34.7.2-2.7 3.4-11.6 3.3-17.7v-12.4s3.1-18.7 0-22.8z" fill="#4A8AD2"/><path d="M565 452c0 14-2.3 23.3-7 28v-3c3.3-6 5.3-11.7 6-17l1-8z" fill-opacity=".4" fill="#000"/><path d="M575 473v12M562 469l-1 67" stroke="#FFF" stroke-width=".5" opacity=".5"/><path d="M560 476c9.3.7 15.7-1.3 19-6v-3a21 21 0 0 1-18 6l-1 3z" fill="#675954"/><path d="M556.7 444.5c-2.3 1.8-1.2 7.6-1.2 10.5 0 3.3-.5 7.3-1.5 12l-5 13s3.6 3 6.5 2.4c0 0 4.2-8.4 5.6-11.8 1.4-3.4 2.9-14.2 2.9-14.2l-7.3-11.9z" fill="#F1653C"/><path d="M564 456.4l-5.4-8.7s-1 5.3-1 16.3c.2 3-1.2 5-2 8-1.3 3.8-4.3 8.8-3.6 9 .7.2 2.9 1.5 3.5 1.3 0 0 4.2-8.3 5.6-11.7 1.4-3.4 2.8-14.2 2.8-14.2z" fill="#DE5D37"/><path d="M551.3 480.3l-.7 2.4-1 1c-.5.5-3.4 2.4-3.2 3.5.1 1 2 3.6 3 3.7.8.2 4.3-1 4.6-1.3.4-.3 1.3-2.9 1.5-3.6.2-.6-.8-.9-1.6-.8l1.6-2.9a5 5 0 0 1-4.2-2z" fill="#FFC4B6"/><path d="M554 485.2a2 2 0 0 1-2 1.5l3.4-.3s.8-1.2-1.5-1.2z" fill="#D8C7C7"/><path d="M559.2 425.2c-.6-.3-1-.8-1.3-1.4-.6-2 .2-3.1 1-4.2.8-1 3.9-1.4 4.3-2.2.5-.8 4.4-1.1 5.7-1 1.2 0 5.6-.6 9.2 6l1.8 2.1c1.3 1.5.2 4.4-1 5.2-1.5 1.2-1.9 1.7-2.3 2.8-.7 1.4-.4 3-4.8 3.3-4.5.2-5.7.4-6.8-.2-2.1-1-1.6-3.3-1.3-4l.6-1.2s1.2.1 1.7-2c.4-2.3-1.6-1.3-1.6-1.3s-.4-1.7-1.6-1.8c-1.2 0-2.8.8-3.6 0z" fill="#131749"/><path d="M545.7 437.2l-1.5-2.7c-.3-.7-2.7-1.7-2.7-1.7l1.6 2.8 1.6 6s.3.3 1.3-.1l2.8 2s-1-2.4 1.5-4.4l-4.6-2z" fill="#FFC4B6"/><path d="M568.5 527.7c.1 1 1.3 1.6 2.7 1.6 1.5 0 2.8-.8 2.8-1.7v-.2c0-2 1.3-31.1 1.6-34.5.1-2 2-7.8 2.9-13-1.8 4.9-8.8 10.7-9.5 14-.6 3.2-1.8 15.7-1.8 15.7.8 9.5 1.3 18.1 1.3 18.1z" fill="#67A5EC"/><path fill="#3D638D" d="M568 493l6-7-6 11z"/><path d="M580 424.5l-1.9-2.2c-2.7-4.8-5.7-5.7-7.7-5.9l-3.7 10.8-.7.6v.6c-.5 2.1-1.7 2-1.7 2s-1.3 4.6 2.5 5.6l5-.2c4.4-.3 4.1-1.9 4.8-3.3.4-1 .8-1.6 2.3-2.8 1.2-.8 2.3-3.7 1-5.2z" fill="#131749"/><path d="M550.3 439.1s-3.5-1.2-4.6-2c-1-.7-2.2-2-4-1.5-1.8.5-2.7.5-2.7 1 0 .2.6.4 2.7.3 1-.1 1.9 3.5 4.7 2.7l2.2 1.8c.4-.9 1-1.7 1.7-2.3z" fill="#FFC4B6"/><path d="M560.1 540.4l-.2-3c-1.5-1-2.8-1.3-3.2-.8-.3.5.6 2 2.3 3.2l1.1.7z" fill="#D3AF4A"/><g transform="translate(554 411.8)"><path d="M19 6.5l-9-5.1a.6.6 0 0 0-.6 0l-9 5.1c-.2.1-.3.3-.3.5l.3.6 9 5c.2.2.4.2.6 0l9-5 .3-.6c0-.2-.1-.4-.3-.5z" fill="#B29115"/><path d="M12.4 1c-.6.2-1.2.5-1.7.9-.7.4-1.2.9-1.6 1.5A7 7 0 0 0 7.3 9c.3 3.3 5.6 7.8 10.2 7.8 4.8 0 8.6-2.8 8.6-6.3v-.3c0-1.2-.4-4.7-3.2-7.2l-.7-.6A13.3 13.3 0 0 0 16.8 0a8 8 0 0 0-4.4.8z" fill="#DFB51A"/><path d="M26.1 10.5v-.3c0-1.2-.4-4.7-3.2-7.2l-.7-.6-1.7-1c-1.8.1-4.6.8-6.2 3-1.9 2.8-2.6 6.5-1.5 11 1.4.9 3 1.3 4.7 1.4 4.8 0 8.6-2.8 8.6-6.3z" fill="#B29115"/><path d="M22 64l2-2c0 4.7-.3 7.3-1 8-.7.7-1-1.3-1-6z" stroke="#FFF" opacity=".3"/><path d="M14 1.2c3.4 0 5.8.7 7 2 2 2 4 6 4 12" stroke="#735D0D" opacity=".5"/><path d="M14 1.2c3.4 0 5.8.7 7 2 2 2 4 6 4 12" stroke="#9D8013"/><path fill-opacity=".5" fill="#D8D8D8" d="M17 36.2l7-4v5l-7 4z"/><path fill="#D8D8D8" opacity=".5" d="M17 36.2l7-4v5l-7 4z"/><ellipse fill="url(#aP)" opacity=".3" style="mix-blend-mode:overlay" transform="rotate(-57.6 18.9 3.7)" cx="18.9" cy="3.7" rx="1" ry="1"/></g><path d="M544.6 489.3l2.1-.2h.6l-.2-.4-.7-1.4-3.8.2a4.4 4.4 0 0 0-6.6-.7l-.4.4c-.8.8-1.2 1.7-1.4 2.7a3.4 3.4 0 0 1 5.4 4.1l-.5.5-.4.4a5.2 5.2 0 0 0 4.8-4.8v-.7h1z" fill="#97979E"/><path d="M535.6 487.3a4.4 4.4 0 0 1 6.6.6l4.3-.3v-.3l-3.9.2a4.4 4.4 0 0 0-6.6-.6l-.4.4zM547.3 489l-.2-.3.2.4zM539.2 494.4l-.1.1-.4.4.5-.5zM543 489.4l.1 1c0 1.2-.4 2.3-1.1 3 1-.8 1.6-2.1 1.5-3.5v-.5h-.5zM541.6 493.8l.2-.2-.2.2z" fill="#77777F"/><path d="M554.7 485.3h-.8l1.6-3c-.7 0-1.4 0-2-.3-.2.6-1 2.8-1.3 3.1-.4.4-1.6 1.3-1.8 1.7-.1.5 1.4 2.5 1.4 2.5s.7.8 2.2.3l1-2-.3-2.3z" fill="#DCA092"/><path d="M558.3 487.1v-.4a.8.8 0 0 0-.8-.8h-.2l-5 .4-.4.4.8 1.7 4.3-.4c.3 0 .5 0 .7-.2l.3-.4.2-.2z" fill="#97979E"/><path d="M570.3 527.7v6.7c1.7.6 3.1-.9 3.1-.9l.5-5.8h-3.6z" fill="#DCA092"/><path d="M557.5 485.9h-.2l-5 .4-.4.4 5-.4h.2a.8.8 0 0 1 .9.8l-.1.4-.2.3.4-.4.2-.3v-.4a.8.8 0 0 0-.8-.8z" fill="#77777F"/><path d="M578.5 479.8c-1.1 3-4 6.2-6.4 9-.2 2-.5 4-.9 5.9-.8 4.3-1 27.6-1 34.5l1 .1h3.2c.3-.2 1.6-1.3 1.6-1.7 0-.4.7-29.6 1-33 .3-3.3.6-9.5 1.5-14.8z" fill="#4A8AD2"/><path d="M564.7 540.4s-1.6 1.7-3.5.9c-.5.8-.7 1.9-.5 2.9 2.4.8 4.4.8 5.1-.4l.2-.5s.4-1.4-1.2-4.2l-.1 1.3z" fill="#A1632A"/><path d="M566 542.5c0 .2 0 .4-.2.5-1 1.7-5 1-8.7-1.4-2.9-1.9-4.8-4.3-5-6-.4 1.8 1.7 4.6 5 6.8 3.7 2.5 7.6 3.1 8.7 1.4l.3-.5v-.8z" fill="#FFF"/><path fill="#4A8AD2" d="M564 472v5h2v-5M573 470c.7 1.3 1 3 1 5l2-1c0-2-.3-3.7-1-5l-2 1z"/><path d="M566.8 481.8l5-3c0 5.3-.7 8.3-2 9-1.4.7-2.4-1.3-3-6z" stroke="#FFF" opacity=".3"/></g><g fill="#0081C5" fill-rule="nonzero" opacity=".3"><path d="M569.2 248.7l-29.4 16.9c-3.3 1.9-4.5 6.5-3.7 14l13.4-5.9 18.6 11 7.2-2.2 24.7-18c-5.3-7.7-16.7-13.5-30.8-15.8z"/></g><g transform="translate(519.9 178.2)" fill-rule="nonzero"><path d="M21.9 91.2c-.8-1.3-4-1-7 .8-1.5.8-2.7 2-3.7 3.2v.1a5.4 5.4 0 0 0-1 2.4v.2c0 .2 0 .4.2.5.7 1.4 3.9 1 7-.7a9.6 9.6 0 0 0 4.1-4.2c.6-.9.7-1.7.4-2.3z" fill="#272C6C"/><path d="M21.9 91.2c-.2-.3-.5-.5-.9-.6 0 .5-.2 1-.5 1.4-.5 1.3-2 3-4.1 4.2-2.5 1.4-4.9 1.9-6.2 1.4V97.9c0 .2 0 .4.2.5.8 1.4 3.9 1 7-.7a9.6 9.6 0 0 0 4.2-4.2c.5-.9.6-1.7.3-2.3z" fill="#171A3B"/><path d="M18.9 93.1c-.4-.6-2-.4-3.4.4-.7.4-1.3 1-1.7 1.6a2.5 2.5 0 0 0-.5 1.1v.1l.1.3c.4.6 1.9.5 3.3-.4.9-.4 1.6-1.1 2-2 .3-.3.3-.7.2-1z" fill="#171A3B"/><path d="M21.5 93.2c-.5 1.3-2 2.9-4.2 4.1-3 1.8-6.2 2.2-7 .8l-.1-.5v.3l.1.5c.8 1.4 4 1 7-.7a9.6 9.6 0 0 0 4.2-4.2c.4-.5.6-1.1.5-1.7 0 .5-.2 1-.5 1.4z" fill="#000"/><path d="M16.8 90.2V93s1.4 1.7 3.6 0l.3-2.8s-2 1.1-3.9 0z" fill="#FFC4B6"/><ellipse fill="#272C6C" transform="rotate(-47.4 18.2 96.8)" cx="18.2" cy="96.8" rx="6.5" ry="2.9"/><path d="M22.5 92c-.4-.4-1.2-.4-2.1-.1 1 1.1 0 4-2.4 6.6a10.7 10.7 0 0 1-4.3 3l.1.1c1.2 1 4-.2 6.5-2.8 2.4-2.7 3.4-5.7 2.2-6.8z" fill="#171A3B"/><ellipse fill="#171A3B" transform="rotate(-47.4 18.3 97)" cx="18.3" cy="97" rx="3.3" ry="1.5"/><path d="M19.8 93.4l.6-.3.3-3a4 4 0 0 1-.8.4v2.9z" fill="#E0D1D1"/><path d="M14.2 101.6c-1.2-1-.2-4 2.2-6.7 1.8-2 3.8-3 5.2-3.2-1.4-.1-3.6 1.1-5.5 3.2-2.4 2.7-3.5 5.7-2.3 6.7.4.3.8.4 1.3.4-.4 0-.7-.2-1-.4z" fill="#000"/><path d="M19.9 91l-1.1 2.3s-.2 2.7 3.1 2.4l1.5-2L20 91z" fill="#FFC4B6"/><path d="M42.2 48.7l-9-1.8-4.6-5S21 51.6 16 60c0 0-1.5 0 .7 27.9l.1 2.2s1.9 1.2 3.4.1l-.4 1c.9 3.4 3.6 2.3 3.6 2.3 4.4-5.1 15.8-25.4 18-33.3 2.4-7.9.8-11.6.8-11.6zM22.2 88c0-5 1-20.8 2-23.2.6-1.6 3.3-5.4 5.9-6.6-.6 5.3-1.4 12-1.7 13a559 559 0 0 1-7.5 17.6c.8 2.8 1.2 2.5 1.2-.8z" fill="#67A5EC"/><path d="M53.4 26.4c-2-2.5-4.4-4.6-7-6.2a27 27 0 0 0-9-3.8c-1-.2-2-.3-3-.2a28 28 0 0 0-8.3 1.5c-4.4 1.4-7 1.4-8 0l-7-5.9-5 4.6a58 58 0 0 0 9.8 8.5C18 26.3 32 24 32 26.4c-1 3.4-2 11.6-3.7 16.8 0 0 2.7 7.4 13.2 6.7 0 0 1.6-.8 4.6-4.3.5 2.5 1.3 4 2.2 4.2 2.4.6 5.5-3.6 7.1-11.8 1.6-8.2-2.1-11.6-2.1-11.6z" fill="#E1E5E9"/><path d="M29.1 41.8l-2 2c2 4 6 6.4 12 7l2-1c-4-1.3-6.6-2.3-8-3-2-1-4-5-4-5z" fill="#878787"/><path d="M40.1 20.8c0 2 .4 4 1 6 0 0 2 0 5-1" stroke="#FFF"/><path d="M40.1 20.8c0 2 .4 4 1 6 0 0 2 0 5-1" stroke="#FFF" stroke-width=".5" opacity=".5"/><path d="M25.1 47.8c0 .6 2 1 4 0" stroke="#FFF3F3" stroke-width=".5" opacity=".5"/><path d="M25.1 47.8c0 .6 2 1 4 0M30.1 54.8a23 23 0 0 1 3-6M31 53c1-2.3 1.7-3.7 2.1-4.2" stroke="#FFF" stroke-width=".5" opacity=".5"/><path d="M53.4 26.4c-2-2.5-4.4-4.6-7-6.2a27 27 0 0 0-9-3.8 12 12 0 0 0-1.9-.2c2.1.7 5.6 2.4 11.2 6.2 11 7.7 6 18.9 6 18.9a91 91 0 0 0-3-11.5c-2 1-4 0-4 0-.8 5.2-.7 10.6.5 15.8.5 2.5 1.3 4 2.2 4.2 2.4.6 5.5-3.6 7.1-11.8 1.6-8.2-2.1-11.6-2.1-11.6z" fill="url(#aQ)"/><path d="M53.4 26.4c-2-2.5-4.4-4.6-7-6.2a27 27 0 0 0-9-3.8 12 12 0 0 0-1.9-.2c2.1.7 5.6 2.4 11.2 6.2 11 7.7 6 18.9 6 18.9a91 91 0 0 0-3-11.5c-2 1-4 0-4 0-.8 5.2-.7 10.6.5 15.8.5 2.5 1.3 4 2.2 4.2 2.4.6 5.5-3.6 7.1-11.8 1.6-8.2-2.1-11.6-2.1-11.6z" fill="#E1E5E9"/><path d="M45.6 42.5c-2.1 2.7-4.5 5.2-7 7.4h3s1.6-.8 4.5-4.2l-.5-3.2z" fill="#B5BABF"/><path d="M50.4 49.3z" fill="#2B2E6B"/><path d="M53.4 26.4c-2-2.5-4.4-4.6-7-6.2a27 27 0 0 0-9-3.8c-1-.2-2-.3-3-.2a28 28 0 0 0-8.3 1.5c-3.2 1-5.2 1.5-6.5 1.7 1.5.4 3.2.4 4.8.2 5.4-.6 10-2.5 13.8-1.4C42 19.4 49.9 23.4 51.4 29c.6 2.6-1 6.3-3.3 10 1 9 2.3 10.3 2.3 10.3 1-.9 2-2 2.5-3.3.5-1 1-2 1.3-3.2l.2-.4.2-.6.1-.6.2-.6.2-.8.1-.4.3-1.4c1.6-8.2-2.1-11.6-2.1-11.6z" fill="#B5BABF"/><path d="M42.7 17.6l-1 3.4v.1c-.3 1.4.5 2.8 1.9 3.2 1.3.3 2.7-.5 3.1-1.9l1-3.4-5-1.4z" fill="#FFC4B6"/><path d="M54.8 11.6c0 4.9-3.7 8.7-8.3 8.7-4.6 0-8.4-4.7-8.4-9.5S42 3 46.5 3c4.6 0 8.3 4 8.3 8.7z" fill="#FFC4B6"/><path d="M40.2 9s-1.8 1.2-1.4 5.8c0 0-.6-3.6 0-6.5l1.4.8z" fill="#D75C38"/><path d="M50.5 16.2s1.7-.7 1.7.5c0 1.3-1.4 2.6-3 2.3 0 0-1.2 1.3-2 1.3 1 0 2-.3 3-.7 1-.4 4.3-1.7 5-4.6.4-1.9.3-3.8-.4-5.5.3-1.5 0-3-1-4.3-1.4-2.2-5.4-3.8-9-3.4-3.5.3-5.2 0-6.6-1.5-.9-1-3.2 4.7.6 8 3.8 3.2 8.9.6 10.9 4.3.7 1.4.6 3-.2 4.3l1-.7z" fill="#CE775C"/><path d="M38.8 14.8s.5 1.5 1.6 1.1a4 4 0 0 1 4.2 1c1.4 1.3 3.2 2 5.1 2.1 0 0-.6 1.3-2.7 2.3a7 7 0 0 1-7-1.2 4 4 0 0 1-1.2-5.3z" fill="#CE775C"/><ellipse fill="#FFC4B6" transform="rotate(-72.5 42.5 17.8)" cx="42.5" cy="17.8" rx="1" ry="1.5"/><path d="M53.9 5.2c-1.5-2.2-5.5-3.8-9-3.4-2 .2-3.4.2-4.5-.1.4.7 1.2 1.5 3 1.7 3.6.3 8.5 1.6 9.3 5.4 0 0 2.6 5.6-.5 8 0 1.2-1.4 2.5-3 2.2l-.7 1.2 1.7-.6c1-.4 4.3-1.7 5-4.6.4-1.9.3-3.8-.4-5.5.3-1.5 0-3-1-4.3z" fill="#BA654B"/><path d="M57.7 16.4l-.5-.3-4.3-.5-.2.1-5 7v.3l.5.3h.1l4.2.5.3-.1 5-7a.3.3 0 0 0-.1-.3z" fill="#D9D9DB"/><path d="M52.5 23.8l.3-.1 5-7a.3.3 0 0 0-.1-.3h-.2l-4.2-.5-.2.1-5 7a.3.3 0 0 0 .2.4l4.2.4z" fill="#FFF"/><path d="M55.7 18.6c-1.9-.1-3.3 1.6-3.7 2l-2 2-1.5-.2-.4.6a.3.3 0 0 0 .2.4l4.2.4.3-.1 3-4.1c.2-.9-.1-1-.1-1z" fill="#D9D9DB"/><path d="M45.7 29.8l.6-4.2a3 3 0 0 1 2-2.2l1.8.2 2-2c.3-.4 1.7-2.1 3.6-2 0 0 .4.2 0 1-.4 1-1.5 3.9-2 4.5-.4.7-1.2 1.2-2.1 1.3-.7 0-1.5.1-2.1.4l.1 3a4 4 0 0 1-4 0zM9.2 11c-.4-1.6-2.4-2.4-2.9-2.4S4.6 6.8 3.5 6C2.4 5.2-.1 4.6.3 5.8l1.3 3.4c.7.7 1.3 1.5 1.9 2.4 1 1.6 1.5 1.6 1.5 1.6.6.2 1.6-.3 1.9.1l1.4 2.3c.4-1.2 1.5-2 2.7-2.3l-1.8-2.2z" fill="#FFC4B6"/><path d="M49.7 19a8 8 0 0 1-3.2-.8c.4.5.5 1 .5 1.7-.2.7-1.7 2.3-5.5 1.2 1.7.8 3.7 1 5.5.2 2-1 2.7-2.3 2.7-2.3z" fill="#BA654B"/><path d="M6.3 8.6c-.5 0-1.7-1.8-2.8-2.6-.9-.6-2.6-1-3-.7.7.7 2.1 2 2.5 2.6.6 1 1 1.8 1.4 1.8.5 0 2.4 1.4 2.7 1.7.2.4 2.4.8 2.1-.3-.4-1.7-2.4-2.5-2.9-2.5zM55.7 19.6a3 3 0 0 0-1 0c-.6 1.3-2.3 4.2-2.7 4.7-.6.7-2.5.4-3.6.7-1.1.2-1 5-1 5.3a4 4 0 0 0 2.2-.5l-.1-3c.6-.2 1.4-.4 2-.4 1 0 1.8-.5 2.2-1.3.5-.6 1.6-3.6 2-4.4.4-1 0-1 0-1zM21.8 92.4l-1.7 3c.6.3 1.2.4 1.8.3l1.5-2-1.6-1.3z" fill="#DCA092"/><path d="M52.4 40c-.7-3.5-1.7-7-2.8-10.2-.6.3-1.3.5-2 .5h-.2l.7 8.2c.9 9.4 2.3 10.8 2.3 10.8 1-.9 2-2 2.5-3.3 0-2-.2-4-.5-6z" fill="#B5BABF"/><path fill="url(#aR)" d="M21 88.4z"/><path d="M22 62s-.8 1.9-1.1 7.2c-.3 4.6-1 18-1 21.4l.3-.3c2-3 3-4.8 3-5.5 0-1 0-17.6 1-20 .6-1.6 3.4-5.4 5.9-6.6l.4-3.5s-6.4 3.7-8.5 7.4z" fill="url(#aS)"/><path d="M23.4 93.6c2-2.5 5.8-8.3 9.3-14.6l-1-3.4-10.5 17.8c.7.4 1.5.5 2.2.2z" fill="url(#aT)"/><path d="M34.1 34.8c3.4 1.4 6 3 8 5" stroke="#B5BABF"/><circle fill="#FFF" cx="41.5" cy="13.5" r="1"/><circle fill="#FFF" cx="46.5" cy="14.5" r="1"/><path d="M28.1 45.8c.7-1.3 1.4-2 2-2M36.1 50.8c.7-.6 1-1.6 1-3" stroke="#67A5EC"/><path d="M40.1 11.8h2" stroke="#CE775C"/></g><g transform="translate(548.5 224.4)" fill-rule="nonzero"><path d="M38.2 31c0-16.2-7.6-29.3-17-29.3-.7 0-1.4 0-2.2.2l-.2.1h-.1l-3.9 1C6.6 5 .2 17.2.2 32c0 16.3 7.7 29.5 17 29.5.7 0 1.4 0 2.1-.2l.3-.1h.3l3.6-1c8.3-1.9 14.7-14.2 14.7-29.1z" fill="#E1E5E9"/><path d="M38.2 31c0-16.2-7.6-29.3-17-29.3-.7 0-1.4 0-2.2.2l-.2.1h-.1l-3.9 1c-.5 0-1 .3-1.5.5L15 3h.4c.7-.2 1.5-.3 2.2-.3 9.4 0 17 13.1 17 29.4 0 13.9-5.6 25.5-13 28.6l1.8-.5c8.3-1.9 14.7-14.2 14.7-29.1z" fill="#B5BABF"/><ellipse fill="#FFF" cx="17.2" cy="32.1" rx="14.3" ry="24.8"/><path d="M21.4 48.5c-8 0-14.3-11-14.3-24.7 0-4 .5-7.9 1.7-11.6A33 33 0 0 0 2.9 32c0 13.7 6.4 24.8 14.3 24.8 5.5 0 10.2-5.4 12.6-13.2-2.4 3-5.3 4.8-8.4 4.8z" fill="#0081C5" opacity=".1"/><path d="M12.8 26l3.8 4.8.2-.3-3.6-4.5a1 1 0 0 0-1-.4l.6.4zM25.6 21.9a1 1 0 0 0-1-.3c.3 0 .4.1.6.3.5.3.5 1 .2 1.5l-8.2 10.2.3.2 8.2-10.4a1.1 1.1 0 0 0-.1-1.5z" fill="#D4D4D8"/><path d="M17.9 11.9c0-.8-.4-1.4-.8-1.4h-.3l-.6.4c-.4 0-.7.7-.7 1.4 0 .8.4 1.4.9 1.4h.2l.6-.4c.4-.1.7-.7.7-1.4z" fill="#272C6C"/><path d="M17.9 11.9c0-.8-.4-1.4-.8-1.4h-.3l-.4.3.2-.1c.5 0 .9.6.9 1.4 0 .8-.3 1.3-.7 1.4l-.3.1.7-.3c.4-.1.7-.7.7-1.4z" fill="#000"/><path d="M17.9 52.6c0-.7-.4-1.4-.8-1.4h-.3l-.6.4c-.4.1-.7.7-.7 1.4 0 .8.4 1.4.9 1.4h.2l.6-.3c.4-.2.7-.7.7-1.5z" fill="#272C6C"/><path d="M17.9 52.6c0-.7-.4-1.4-.8-1.4h-.3l-.4.3h.2c.5 0 .9.6.9 1.4 0 .7-.3 1.3-.7 1.4h-.3l.7-.2c.4-.2.7-.7.7-1.5z" fill="#000"/><path d="M25.2 21.9c-.5-.4-1.2-.3-1.6.1l-7 8.8-3.8-4.8a1.1 1.1 0 1 0-1.7 1.4l4.5 5.7.3-.3 1.1 1 8.3-10.4a1.1 1.1 0 0 0-.1-1.5z" fill="#F1653C"/><path d="M18.4 32.6c0-1.1-.5-2-1.2-2h-.4l-.8.5c-.6.2-1 1-1 2 0 1.2.5 2.1 1.2 2.1h.3l.9-.5c.6-.2 1-1 1-2z" fill="#272C6C"/><path d="M18.4 32.6c0-1.1-.5-2-1.2-2h-.4l-.5.3h.3c.7 0 1.2.9 1.2 2 0 1-.4 2-1 2l-.3.2.9-.4c.6-.2 1-1 1-2z" fill="#000"/><path d="M28.3 32.7c0-.8-.4-1.4-.9-1.4h-.2l-.6.3c-.4.2-.7.8-.7 1.4 0 .8.4 1.5.8 1.5h.3l.6-.4c.4-.1.7-.7.7-1.4z" fill="#272C6C"/><path d="M28.3 32.7c0-.8-.4-1.4-.9-1.4h-.2l-.4.2h.2c.5 0 .9.6.9 1.4 0 .7-.3 1.3-.7 1.4l-.3.1.7-.3c.4-.1.7-.7.7-1.4z" fill="#000"/><path d="M8 32.7c0-.8-.5-1.4-1-1.4h-.2l-.6.3c-.3.2-.6.8-.6 1.4 0 .8.3 1.5.8 1.5h.2l.6-.4c.4-.1.7-.7.7-1.4z" fill="#272C6C"/><path d="M8 32.7c0-.8-.5-1.4-1-1.4h-.2l-.4.2h.3c.4 0 .8.6.8 1.4 0 .7-.3 1.3-.7 1.4l-.2.1.6-.3c.4-.1.7-.7.7-1.4z" fill="#000"/><path d="M18.5 0s.7 4.5 4 2.9c-.4-.8-.8-1.6-1-2.4l-3-.4z" fill="#B5BABF"/></g><g fill-rule="nonzero" opacity=".5"><path d="M3 47.6v-3L.1 44a.3.3 0 0 1 .3-.6l2.9.7.2.2v3.3c0 .2-.2.3-.4.3a.3.3 0 0 1-.3-.3z" fill="url(#ak)" transform="rotate(-5 5444.9 -1873.2)"/><path d="M8 45.1V42l-2.8-.6a.3.3 0 0 1 0-.4c0-.1.2-.2.3-.1l3 .6.1.3v3.3c0 .2-.1.3-.3.3a.3.3 0 0 1-.3-.3z" fill="url(#al)" transform="rotate(-5 5444.9 -1873.2)"/><path d="M13 42.6v-3.2l-2.7-.5a.3.3 0 0 1-.1-.4c0-.2.2-.2.4-.2l3 .7v3.5a.3.3 0 0 1-.2.4.3.3 0 0 1-.4-.3z" fill="url(#am)" transform="rotate(-5 5444.9 -1873.2)"/><path d="M18 40v-3l-2.7-.6a.3.3 0 0 1 0-.5c0-.1.2-.2.3 0l3 .6.1.2V40a.3.3 0 0 1-.3.4.3.3 0 0 1-.3-.4z" fill="url(#an)" transform="rotate(-5 5444.9 -1873.2)"/><path d="M23.1 37.5v-3.1l-2.7-.6a.3.3 0 0 1-.1-.4c0-.1.2-.2.4-.1l3 .6V37.5a.3.3 0 0 1-.2.3.3.3 0 0 1-.4-.3z" fill="url(#ao)" transform="rotate(-5 5444.9 -1873.2)"/><path d="M28.5 35.3a.3.3 0 0 1-.3-.3v-3.1l-2.8-.6a.3.3 0 0 1 0-.4c0-.1.2-.2.4-.1l2.9.6.1.3V35c0 .2-.1.3-.3.3z" fill="url(#ap)" transform="rotate(-5 5444.9 -1873.2)"/><path d="M33.2 32.4v-3l-2.7-.6a.3.3 0 0 1 .3-.5l3 .6V32.5c0 .1 0 .3-.2.3a.3.3 0 0 1-.4-.4z" fill="url(#aq)" transform="rotate(-5 5444.9 -1873.2)"/><path d="M38.4 30.1l-.1-.2v-3l-2.8-.6a.3.3 0 0 1 0-.5.3.3 0 0 1 .4 0l2.9.6.1.2V30c0 .2-.1.3-.3.3h-.2z" fill="url(#ar)" transform="rotate(-5 5444.9 -1873.2)"/><path d="M43.4 27.4v-3.1l-2.8-.6a.3.3 0 0 1-.1-.4.3.3 0 0 1 .4-.1l3 .6V27.4c0 .2 0 .3-.2.3a.3.3 0 0 1-.3-.3z" fill="url(#as)" transform="rotate(-5 5444.9 -1873.2)"/><path d="M48.7 25.2a.3.3 0 0 1-.3-.3v-3.2l-2.7-.5a.3.3 0 0 1 .3-.5l2.9.6.1.3v3.3c0 .1-.1.3-.3.3z" fill="url(#at)" transform="rotate(-5 5444.9 -1873.2)"/><path d="M53.5 22.3v-3l-2.8-.6a.3.3 0 0 1 0-.6h.3l3 .7v3.5c0 .2 0 .3-.2.3a.3.3 0 0 1-.3-.3z" fill="url(#au)" transform="rotate(-5 5444.9 -1873.2)"/><path d="M58.8 20.1a.3.3 0 0 1-.3-.3v-3.1l-2.7-.6a.3.3 0 0 1 .3-.5l2.9.6.1.3v3.3c0 .2-.1.3-.3.3z" fill="url(#av)" transform="rotate(-5 5444.9 -1873.2)"/><path d="M63.6 17.3v-3.1l-2.8-.6a.3.3 0 0 1 0-.6h.3l3 .7.1.3v3.3a.3.3 0 0 1-.3.3.3.3 0 0 1-.3-.3z" fill="url(#aw)" transform="rotate(-5 5444.9 -1873.2)"/><path d="M68.6 14.7v-3l-2.8-.6a.3.3 0 0 1 .4-.6l2.9.7.1.2v3.3c0 .2-.1.3-.3.3a.3.3 0 0 1-.3-.3z" fill="url(#ax)" transform="rotate(-5 5444.9 -1873.2)"/><path d="M73.7 12.2V9.1l-2.8-.5a.3.3 0 0 1 0-.6h.3l3 .7v3.5c0 .2 0 .3-.2.3a.3.3 0 0 1-.3-.3z" fill="url(#ay)" transform="rotate(-5 5444.9 -1873.2)"/><path d="M78.7 9.7V6.6L76 6a.3.3 0 0 1 .3-.5l2.9.6.2.3v3.3a.3.3 0 0 1-.4.3.3.3 0 0 1-.3-.3z" fill="url(#az)" transform="rotate(-5 5444.9 -1873.2)"/><path d="M83.8 7.2V4L81 3.5a.3.3 0 0 1 0-.6h.3l3 .7V7.2a.3.3 0 0 1-.2.3.3.3 0 0 1-.3-.3z" fill="url(#aA)" transform="rotate(-5 5444.9 -1873.2)"/><path d="M89 4.8c-.1 0-.2 0-.2-.2v-3L86.1.8a.3.3 0 0 1 .3-.5l2.9.6.2.3v3.3a.3.3 0 0 1-.6.2z" fill="url(#aB)" transform="rotate(-5 5444.9 -1873.2)"/></g><path d="M296 435c1.3 2 4.3 2.7 9 2v1c-3.3.7-6.3.3-9-1v-2z" fill="#675954" fill-rule="nonzero"/><path d="M170 502h-4c1.3 2.7 1.7 5.3 1 8 0 0 3-2 3-5v-3z" fill-opacity=".4" fill="#000" fill-rule="nonzero"/><path d="M545 179c0 .7.3 1 1 1" stroke="#DEA294"/><path d="M549 177c.7 0 1.3.3 2 1" stroke="#CE775C"/></g></svg>