<?xml version="1.0" encoding="UTF-8"?>
<svg width="36px" height="36px" viewBox="0 0 36 36" version="1.1" xmlns="http://www.w3.org/2000/svg" xmlns:xlink="http://www.w3.org/1999/xlink">
    <!-- Generator: sketchtool 51.3 (57544) - http://www.bohemiancoding.com/sketch -->
    <title>A8E7D269-2203-4A97-8CBC-19D97436C5AF</title>
    <desc>Created with sketchtool.</desc>
    <defs></defs>
    <g id="Design" stroke="none" stroke-width="1" fill="none" fill-rule="evenodd">
        <g id="1a-Home" transform="translate(-204.000000, -1111.000000)" fill-rule="nonzero">
            <g id="Section-1" transform="translate(0.000000, 861.000000)">
                <g id="Transparence" transform="translate(197.000000, 243.000000)">
                    <g id="picto-euro-orange" transform="translate(7.000000, 8.000000)">
                        <circle id="Oval-2" fill="#F1653C" cx="26" cy="13" r="10"></circle>
                        <circle id="Oval-2-Copy-3" fill="#F1653C" cx="3" cy="32" r="3"></circle>
                        <path d="M2.38272269,15.3523619 L7.59412996,15.3523619 C7.97515166,16.9779774 8.68191289,18.5259605 9.70463296,19.9106185 C11.689688,22.5984839 14.6085863,24.3560322 17.9238153,24.860007 C18.5459523,24.9533357 19.1723418,25 19.7987312,25 C20.4251207,25 21.0519354,24.9533357 21.6740724,24.860007 C21.8832941,24.8286146 21.7676268,24.0807127 21.5605313,24.1048933 C20.3915262,24.2805209 19.2059363,24.2805209 18.0386321,24.1053175 C14.9262462,23.6318867 12.1855265,21.9812421 10.321667,19.4579745 C9.39760432,18.2069462 8.74484951,16.8155007 8.37828622,15.3523619 L19.258667,15.3523619 C19.4704402,15.3523619 19.4704402,14.5891879 19.258667,14.5891879 L8.22434665,14.5891879 C8.06402837,13.6987477 7.99683928,12.7896417 8.04871946,11.8720513 L19.2578165,11.8720513 C19.4695897,11.8720513 19.4695897,11.1084531 19.2578165,11.1084531 L8.12739024,11.1084531 C8.1422739,10.985429 8.14652637,10.8632533 8.16523726,10.7402292 C8.63938815,7.63959652 10.2944511,4.90803633 12.8246734,3.0490991 C15.3557461,1.18973766 18.4600523,0.429533296 21.5601061,0.899994588 C21.7667764,0.933508061 21.8841446,0.177121692 21.6749229,0.145729324 C18.3728766,-0.358245441 15.0653021,0.454562346 12.3696586,2.43482683 C9.67571614,4.41509131 7.91349078,7.32355174 7.40872208,10.6256894 C7.38363248,10.7873177 7.37725377,10.9480975 7.35854288,11.1093016 L2.38272269,11.1093016 C2.17094947,11.1093016 2.17094947,11.8728997 2.38272269,11.8728997 L7.28114785,11.8728997 C7.23266964,12.7900659 7.29518101,13.6987477 7.44571861,14.5900364 L2.38272269,14.5900364 C2.17094947,14.5891879 2.17094947,15.3523619 2.38272269,15.3523619 Z" id="Shape" stroke="#171A3B"></path>
                    </g>
                </g>
            </g>
        </g>
    </g>
</svg>