<?xml version="1.0" encoding="UTF-8"?>
<svg width="71px" height="138px" viewBox="0 0 71 138" version="1.1" xmlns="http://www.w3.org/2000/svg" xmlns:xlink="http://www.w3.org/1999/xlink">
    <!-- Generator: Sketch 51.3 (57544) - http://www.bohemiancoding.com/sketch -->
    <title>Oval-illu1</title>
    <desc>Created with Sketch.</desc>
    <defs></defs>
    <g id="Symbols" stroke="none" stroke-width="1" fill="none" fill-rule="evenodd">
        <g id="Illustrations-/-Residentiel-/-Pre-visite" transform="translate(-272.000000, 0.000000)" fill="#272C6C" fill-rule="nonzero">
            <g id="Oval-illu1">
                <path d="M239.747125,103.86413 C238.916235,103.86413 238.242666,103.192557 238.242666,102.36413 C238.242666,101.535703 238.916235,100.86413 239.747125,100.86413 C240.578015,100.86413 241.251584,101.535703 241.251584,102.36413 C241.251584,103.192557 240.578015,103.86413 239.747125,103.86413 Z M256.573693,103.86413 C255.742804,103.86413 255.069234,103.192557 255.069234,102.36413 C255.069234,101.535703 255.742804,100.86413 256.573693,100.86413 C257.404583,100.86413 258.078152,101.535703 258.078152,102.36413 C258.078152,103.192557 257.404583,103.86413 256.573693,103.86413 Z M273.400262,103.86413 C272.569372,103.86413 271.895803,103.192557 271.895803,102.36413 C271.895803,101.535703 272.569372,100.86413 273.400262,100.86413 C274.231151,100.86413 274.90472,101.535703 274.90472,102.36413 C274.90472,103.192557 274.231151,103.86413 273.400262,103.86413 Z M290.22683,103.86413 C289.39594,103.86413 288.722371,103.192557 288.722371,102.36413 C288.722371,101.535703 289.39594,100.86413 290.22683,100.86413 C291.057719,100.86413 291.731289,101.535703 291.731289,102.36413 C291.731289,103.192557 291.057719,103.86413 290.22683,103.86413 Z M307.053398,103.86413 C306.222508,103.86413 305.548939,103.192557 305.548939,102.36413 C305.548939,101.535703 306.222508,100.86413 307.053398,100.86413 C307.884288,100.86413 308.557857,101.535703 308.557857,102.36413 C308.557857,103.192557 307.884288,103.86413 307.053398,103.86413 Z M323.879966,103.86413 C323.049077,103.86413 322.375508,103.192557 322.375508,102.36413 C322.375508,101.535703 323.049077,100.86413 323.879966,100.86413 C324.710856,100.86413 325.384425,101.535703 325.384425,102.36413 C325.384425,103.192557 324.710856,103.86413 323.879966,103.86413 Z M340.706535,103.86413 C339.875645,103.86413 339.202076,103.192557 339.202076,102.36413 C339.202076,101.535703 339.875645,100.86413 340.706535,100.86413 C341.537424,100.86413 342.210993,101.535703 342.210993,102.36413 C342.210993,103.192557 341.537424,103.86413 340.706535,103.86413 Z M357.533103,103.86413 C356.702213,103.86413 356.028644,103.192557 356.028644,102.36413 C356.028644,101.535703 356.702213,100.86413 357.533103,100.86413 C358.363993,100.86413 359.037562,101.535703 359.037562,102.36413 C359.037562,103.192557 358.363993,103.86413 357.533103,103.86413 Z M374.359671,103.86413 C373.528781,103.86413 372.855212,103.192557 372.855212,102.36413 C372.855212,101.535703 373.528781,100.86413 374.359671,100.86413 C375.190561,100.86413 375.86413,101.535703 375.86413,102.36413 C375.86413,103.192557 375.190561,103.86413 374.359671,103.86413 Z M239.747125,87.0874309 C238.916235,87.0874309 238.242666,86.415858 238.242666,85.5874309 C238.242666,84.7590038 238.916235,84.0874309 239.747125,84.0874309 C240.578015,84.0874309 241.251584,84.7590038 241.251584,85.5874309 C241.251584,86.415858 240.578015,87.0874309 239.747125,87.0874309 Z M256.573693,87.0874309 C255.742804,87.0874309 255.069234,86.415858 255.069234,85.5874309 C255.069234,84.7590038 255.742804,84.0874309 256.573693,84.0874309 C257.404583,84.0874309 258.078152,84.7590038 258.078152,85.5874309 C258.078152,86.415858 257.404583,87.0874309 256.573693,87.0874309 Z M273.400262,87.0874309 C272.569372,87.0874309 271.895803,86.415858 271.895803,85.5874309 C271.895803,84.7590038 272.569372,84.0874309 273.400262,84.0874309 C274.231151,84.0874309 274.90472,84.7590038 274.90472,85.5874309 C274.90472,86.415858 274.231151,87.0874309 273.400262,87.0874309 Z M290.22683,87.0874309 C289.39594,87.0874309 288.722371,86.415858 288.722371,85.5874309 C288.722371,84.7590038 289.39594,84.0874309 290.22683,84.0874309 C291.057719,84.0874309 291.731289,84.7590038 291.731289,85.5874309 C291.731289,86.415858 291.057719,87.0874309 290.22683,87.0874309 Z M307.053398,87.0874309 C306.222508,87.0874309 305.548939,86.415858 305.548939,85.5874309 C305.548939,84.7590038 306.222508,84.0874309 307.053398,84.0874309 C307.884288,84.0874309 308.557857,84.7590038 308.557857,85.5874309 C308.557857,86.415858 307.884288,87.0874309 307.053398,87.0874309 Z M323.879966,87.0874309 C323.049077,87.0874309 322.375508,86.415858 322.375508,85.5874309 C322.375508,84.7590038 323.049077,84.0874309 323.879966,84.0874309 C324.710856,84.0874309 325.384425,84.7590038 325.384425,85.5874309 C325.384425,86.415858 324.710856,87.0874309 323.879966,87.0874309 Z M340.706535,87.0874309 C339.875645,87.0874309 339.202076,86.415858 339.202076,85.5874309 C339.202076,84.7590038 339.875645,84.0874309 340.706535,84.0874309 C341.537424,84.0874309 342.210993,84.7590038 342.210993,85.5874309 C342.210993,86.415858 341.537424,87.0874309 340.706535,87.0874309 Z M357.533103,87.0874309 C356.702213,87.0874309 356.028644,86.415858 356.028644,85.5874309 C356.028644,84.7590038 356.702213,84.0874309 357.533103,84.0874309 C358.363993,84.0874309 359.037562,84.7590038 359.037562,85.5874309 C359.037562,86.415858 358.363993,87.0874309 357.533103,87.0874309 Z M374.359671,87.0874309 C373.528781,87.0874309 372.855212,86.415858 372.855212,85.5874309 C372.855212,84.7590038 373.528781,84.0874309 374.359671,84.0874309 C375.190561,84.0874309 375.86413,84.7590038 375.86413,85.5874309 C375.86413,86.415858 375.190561,87.0874309 374.359671,87.0874309 Z M239.747125,70.3107319 C238.916235,70.3107319 238.242666,69.639159 238.242666,68.8107319 C238.242666,67.9823047 238.916235,67.3107319 239.747125,67.3107319 C240.578015,67.3107319 241.251584,67.9823047 241.251584,68.8107319 C241.251584,69.639159 240.578015,70.3107319 239.747125,70.3107319 Z M256.573693,70.3107319 C255.742804,70.3107319 255.069234,69.639159 255.069234,68.8107319 C255.069234,67.9823047 255.742804,67.3107319 256.573693,67.3107319 C257.404583,67.3107319 258.078152,67.9823047 258.078152,68.8107319 C258.078152,69.639159 257.404583,70.3107319 256.573693,70.3107319 Z M273.400262,70.3107319 C272.569372,70.3107319 271.895803,69.639159 271.895803,68.8107319 C271.895803,67.9823047 272.569372,67.3107319 273.400262,67.3107319 C274.231151,67.3107319 274.90472,67.9823047 274.90472,68.8107319 C274.90472,69.639159 274.231151,70.3107319 273.400262,70.3107319 Z M290.22683,70.3107319 C289.39594,70.3107319 288.722371,69.639159 288.722371,68.8107319 C288.722371,67.9823047 289.39594,67.3107319 290.22683,67.3107319 C291.057719,67.3107319 291.731289,67.9823047 291.731289,68.8107319 C291.731289,69.639159 291.057719,70.3107319 290.22683,70.3107319 Z M307.053398,70.3107319 C306.222508,70.3107319 305.548939,69.639159 305.548939,68.8107319 C305.548939,67.9823047 306.222508,67.3107319 307.053398,67.3107319 C307.884288,67.3107319 308.557857,67.9823047 308.557857,68.8107319 C308.557857,69.639159 307.884288,70.3107319 307.053398,70.3107319 Z M323.879966,70.3107319 C323.049077,70.3107319 322.375508,69.639159 322.375508,68.8107319 C322.375508,67.9823047 323.049077,67.3107319 323.879966,67.3107319 C324.710856,67.3107319 325.384425,67.9823047 325.384425,68.8107319 C325.384425,69.639159 324.710856,70.3107319 323.879966,70.3107319 Z M340.706535,70.3107319 C339.875645,70.3107319 339.202076,69.639159 339.202076,68.8107319 C339.202076,67.9823047 339.875645,67.3107319 340.706535,67.3107319 C341.537424,67.3107319 342.210993,67.9823047 342.210993,68.8107319 C342.210993,69.639159 341.537424,70.3107319 340.706535,70.3107319 Z M357.533103,70.3107319 C356.702213,70.3107319 356.028644,69.639159 356.028644,68.8107319 C356.028644,67.9823047 356.702213,67.3107319 357.533103,67.3107319 C358.363993,67.3107319 359.037562,67.9823047 359.037562,68.8107319 C359.037562,69.639159 358.363993,70.3107319 357.533103,70.3107319 Z M374.359671,70.3107319 C373.528781,70.3107319 372.855212,69.639159 372.855212,68.8107319 C372.855212,67.9823047 373.528781,67.3107319 374.359671,67.3107319 C375.190561,67.3107319 375.86413,67.9823047 375.86413,68.8107319 C375.86413,69.639159 375.190561,70.3107319 374.359671,70.3107319 Z M239.747125,53.5340328 C238.916235,53.5340328 238.242666,52.86246 238.242666,52.0340328 C238.242666,51.2056057 238.916235,50.5340328 239.747125,50.5340328 C240.578015,50.5340328 241.251584,51.2056057 241.251584,52.0340328 C241.251584,52.86246 240.578015,53.5340328 239.747125,53.5340328 Z M256.573693,53.5340328 C255.742804,53.5340328 255.069234,52.86246 255.069234,52.0340328 C255.069234,51.2056057 255.742804,50.5340328 256.573693,50.5340328 C257.404583,50.5340328 258.078152,51.2056057 258.078152,52.0340328 C258.078152,52.86246 257.404583,53.5340328 256.573693,53.5340328 Z M273.400262,53.5340328 C272.569372,53.5340328 271.895803,52.86246 271.895803,52.0340328 C271.895803,51.2056057 272.569372,50.5340328 273.400262,50.5340328 C274.231151,50.5340328 274.90472,51.2056057 274.90472,52.0340328 C274.90472,52.86246 274.231151,53.5340328 273.400262,53.5340328 Z M290.22683,53.5340328 C289.39594,53.5340328 288.722371,52.86246 288.722371,52.0340328 C288.722371,51.2056057 289.39594,50.5340328 290.22683,50.5340328 C291.057719,50.5340328 291.731289,51.2056057 291.731289,52.0340328 C291.731289,52.86246 291.057719,53.5340328 290.22683,53.5340328 Z M307.053398,53.5340328 C306.222508,53.5340328 305.548939,52.86246 305.548939,52.0340328 C305.548939,51.2056057 306.222508,50.5340328 307.053398,50.5340328 C307.884288,50.5340328 308.557857,51.2056057 308.557857,52.0340328 C308.557857,52.86246 307.884288,53.5340328 307.053398,53.5340328 Z M323.879966,53.5340328 C323.049077,53.5340328 322.375508,52.86246 322.375508,52.0340328 C322.375508,51.2056057 323.049077,50.5340328 323.879966,50.5340328 C324.710856,50.5340328 325.384425,51.2056057 325.384425,52.0340328 C325.384425,52.86246 324.710856,53.5340328 323.879966,53.5340328 Z M340.706535,53.5340328 C339.875645,53.5340328 339.202076,52.86246 339.202076,52.0340328 C339.202076,51.2056057 339.875645,50.5340328 340.706535,50.5340328 C341.537424,50.5340328 342.210993,51.2056057 342.210993,52.0340328 C342.210993,52.86246 341.537424,53.5340328 340.706535,53.5340328 Z M357.533103,53.5340328 C356.702213,53.5340328 356.028644,52.86246 356.028644,52.0340328 C356.028644,51.2056057 356.702213,50.5340328 357.533103,50.5340328 C358.363993,50.5340328 359.037562,51.2056057 359.037562,52.0340328 C359.037562,52.86246 358.363993,53.5340328 357.533103,53.5340328 Z M374.359671,53.5340328 C373.528781,53.5340328 372.855212,52.86246 372.855212,52.0340328 C372.855212,51.2056057 373.528781,50.5340328 374.359671,50.5340328 C375.190561,50.5340328 375.86413,51.2056057 375.86413,52.0340328 C375.86413,52.86246 375.190561,53.5340328 374.359671,53.5340328 Z M239.747125,36.7573338 C238.916235,36.7573338 238.242666,36.0857609 238.242666,35.2573338 C238.242666,34.4289067 238.916235,33.7573338 239.747125,33.7573338 C240.578015,33.7573338 241.251584,34.4289067 241.251584,35.2573338 C241.251584,36.0857609 240.578015,36.7573338 239.747125,36.7573338 Z M256.573693,36.7573338 C255.742804,36.7573338 255.069234,36.0857609 255.069234,35.2573338 C255.069234,34.4289067 255.742804,33.7573338 256.573693,33.7573338 C257.404583,33.7573338 258.078152,34.4289067 258.078152,35.2573338 C258.078152,36.0857609 257.404583,36.7573338 256.573693,36.7573338 Z M273.400262,36.7573338 C272.569372,36.7573338 271.895803,36.0857609 271.895803,35.2573338 C271.895803,34.4289067 272.569372,33.7573338 273.400262,33.7573338 C274.231151,33.7573338 274.90472,34.4289067 274.90472,35.2573338 C274.90472,36.0857609 274.231151,36.7573338 273.400262,36.7573338 Z M290.22683,36.7573338 C289.39594,36.7573338 288.722371,36.0857609 288.722371,35.2573338 C288.722371,34.4289067 289.39594,33.7573338 290.22683,33.7573338 C291.057719,33.7573338 291.731289,34.4289067 291.731289,35.2573338 C291.731289,36.0857609 291.057719,36.7573338 290.22683,36.7573338 Z M307.053398,36.7573338 C306.222508,36.7573338 305.548939,36.0857609 305.548939,35.2573338 C305.548939,34.4289067 306.222508,33.7573338 307.053398,33.7573338 C307.884288,33.7573338 308.557857,34.4289067 308.557857,35.2573338 C308.557857,36.0857609 307.884288,36.7573338 307.053398,36.7573338 Z M323.879966,36.7573338 C323.049077,36.7573338 322.375508,36.0857609 322.375508,35.2573338 C322.375508,34.4289067 323.049077,33.7573338 323.879966,33.7573338 C324.710856,33.7573338 325.384425,34.4289067 325.384425,35.2573338 C325.384425,36.0857609 324.710856,36.7573338 323.879966,36.7573338 Z M340.706535,36.7573338 C339.875645,36.7573338 339.202076,36.0857609 339.202076,35.2573338 C339.202076,34.4289067 339.875645,33.7573338 340.706535,33.7573338 C341.537424,33.7573338 342.210993,34.4289067 342.210993,35.2573338 C342.210993,36.0857609 341.537424,36.7573338 340.706535,36.7573338 Z M357.533103,36.7573338 C356.702213,36.7573338 356.028644,36.0857609 356.028644,35.2573338 C356.028644,34.4289067 356.702213,33.7573338 357.533103,33.7573338 C358.363993,33.7573338 359.037562,34.4289067 359.037562,35.2573338 C359.037562,36.0857609 358.363993,36.7573338 357.533103,36.7573338 Z M374.359671,36.7573338 C373.528781,36.7573338 372.855212,36.0857609 372.855212,35.2573338 C372.855212,34.4289067 373.528781,33.7573338 374.359671,33.7573338 C375.190561,33.7573338 375.86413,34.4289067 375.86413,35.2573338 C375.86413,36.0857609 375.190561,36.7573338 374.359671,36.7573338 Z" transform="translate(307.053398, 68.810732) rotate(-270.000000) translate(-307.053398, -68.810732) "></path>
            </g>
        </g>
    </g>
</svg>