<?xml version="1.0" encoding="UTF-8"?>
<svg width="389px" height="71px" viewBox="0 0 389 71" version="1.1" xmlns="http://www.w3.org/2000/svg" xmlns:xlink="http://www.w3.org/1999/xlink">
    <!-- Generator: Sketch 51.3 (57544) - http://www.bohemiancoding.com/sketch -->
    <title>Oval</title>
    <desc>Created with Sketch.</desc>
    <defs></defs>
    <g id="Symbols" stroke="none" stroke-width="1" fill="none" fill-rule="evenodd">
        <g id="Illustrations-/-Tertiaire-/-Compte" transform="translate(-275.000000, 0.000000)" fill="#272C6C" fill-rule="nonzero">
            <g id="Oval">
                <path d="M276.504459,70.1067961 C275.673569,70.1067961 275,69.4352232 275,68.6067961 C275,67.778369 275.673569,67.1067961 276.504459,67.1067961 C277.335348,67.1067961 278.008918,67.778369 278.008918,68.6067961 C278.008918,69.4352232 277.335348,70.1067961 276.504459,70.1067961 Z M293.331027,70.1067961 C292.500137,70.1067961 291.826568,69.4352232 291.826568,68.6067961 C291.826568,67.778369 292.500137,67.1067961 293.331027,67.1067961 C294.161917,67.1067961 294.835486,67.778369 294.835486,68.6067961 C294.835486,69.4352232 294.161917,70.1067961 293.331027,70.1067961 Z M310.157595,70.1067961 C309.326706,70.1067961 308.653137,69.4352232 308.653137,68.6067961 C308.653137,67.778369 309.326706,67.1067961 310.157595,67.1067961 C310.988485,67.1067961 311.662054,67.778369 311.662054,68.6067961 C311.662054,69.4352232 310.988485,70.1067961 310.157595,70.1067961 Z M326.984164,70.1067961 C326.153274,70.1067961 325.479705,69.4352232 325.479705,68.6067961 C325.479705,67.778369 326.153274,67.1067961 326.984164,67.1067961 C327.815053,67.1067961 328.488622,67.778369 328.488622,68.6067961 C328.488622,69.4352232 327.815053,70.1067961 326.984164,70.1067961 Z M343.810732,70.1067961 C342.979842,70.1067961 342.306273,69.4352232 342.306273,68.6067961 C342.306273,67.778369 342.979842,67.1067961 343.810732,67.1067961 C344.641622,67.1067961 345.315191,67.778369 345.315191,68.6067961 C345.315191,69.4352232 344.641622,70.1067961 343.810732,70.1067961 Z M360.6373,70.1067961 C359.80641,70.1067961 359.132841,69.4352232 359.132841,68.6067961 C359.132841,67.778369 359.80641,67.1067961 360.6373,67.1067961 C361.46819,67.1067961 362.141759,67.778369 362.141759,68.6067961 C362.141759,69.4352232 361.46819,70.1067961 360.6373,70.1067961 Z M377.463868,70.1067961 C376.632979,70.1067961 375.95941,69.4352232 375.95941,68.6067961 C375.95941,67.778369 376.632979,67.1067961 377.463868,67.1067961 C378.294758,67.1067961 378.968327,67.778369 378.968327,68.6067961 C378.968327,69.4352232 378.294758,70.1067961 377.463868,70.1067961 Z M394.290437,70.1067961 C393.459547,70.1067961 392.785978,69.4352232 392.785978,68.6067961 C392.785978,67.778369 393.459547,67.1067961 394.290437,67.1067961 C395.121326,67.1067961 395.794895,67.778369 395.794895,68.6067961 C395.794895,69.4352232 395.121326,70.1067961 394.290437,70.1067961 Z M411.117005,70.1067961 C410.286115,70.1067961 409.612546,69.4352232 409.612546,68.6067961 C409.612546,67.778369 410.286115,67.1067961 411.117005,67.1067961 C411.947895,67.1067961 412.621464,67.778369 412.621464,68.6067961 C412.621464,69.4352232 411.947895,70.1067961 411.117005,70.1067961 Z M427.943573,70.1067961 C427.112684,70.1067961 426.439114,69.4352232 426.439114,68.6067961 C426.439114,67.778369 427.112684,67.1067961 427.943573,67.1067961 C428.774463,67.1067961 429.448032,67.778369 429.448032,68.6067961 C429.448032,69.4352232 428.774463,70.1067961 427.943573,70.1067961 Z M444.770141,70.1067961 C443.939252,70.1067961 443.265683,69.4352232 443.265683,68.6067961 C443.265683,67.778369 443.939252,67.1067961 444.770141,67.1067961 C445.601031,67.1067961 446.2746,67.778369 446.2746,68.6067961 C446.2746,69.4352232 445.601031,70.1067961 444.770141,70.1067961 Z M461.59671,70.1067961 C460.76582,70.1067961 460.092251,69.4352232 460.092251,68.6067961 C460.092251,67.778369 460.76582,67.1067961 461.59671,67.1067961 C462.427599,67.1067961 463.101169,67.778369 463.101169,68.6067961 C463.101169,69.4352232 462.427599,70.1067961 461.59671,70.1067961 Z M276.504459,53.3300971 C275.673569,53.3300971 275,52.6585242 275,51.8300971 C275,51.00167 275.673569,50.3300971 276.504459,50.3300971 C277.335348,50.3300971 278.008918,51.00167 278.008918,51.8300971 C278.008918,52.6585242 277.335348,53.3300971 276.504459,53.3300971 Z M293.331027,53.3300971 C292.500137,53.3300971 291.826568,52.6585242 291.826568,51.8300971 C291.826568,51.00167 292.500137,50.3300971 293.331027,50.3300971 C294.161917,50.3300971 294.835486,51.00167 294.835486,51.8300971 C294.835486,52.6585242 294.161917,53.3300971 293.331027,53.3300971 Z M310.157595,53.3300971 C309.326706,53.3300971 308.653137,52.6585242 308.653137,51.8300971 C308.653137,51.00167 309.326706,50.3300971 310.157595,50.3300971 C310.988485,50.3300971 311.662054,51.00167 311.662054,51.8300971 C311.662054,52.6585242 310.988485,53.3300971 310.157595,53.3300971 Z M326.984164,53.3300971 C326.153274,53.3300971 325.479705,52.6585242 325.479705,51.8300971 C325.479705,51.00167 326.153274,50.3300971 326.984164,50.3300971 C327.815053,50.3300971 328.488622,51.00167 328.488622,51.8300971 C328.488622,52.6585242 327.815053,53.3300971 326.984164,53.3300971 Z M343.810732,53.3300971 C342.979842,53.3300971 342.306273,52.6585242 342.306273,51.8300971 C342.306273,51.00167 342.979842,50.3300971 343.810732,50.3300971 C344.641622,50.3300971 345.315191,51.00167 345.315191,51.8300971 C345.315191,52.6585242 344.641622,53.3300971 343.810732,53.3300971 Z M360.6373,53.3300971 C359.80641,53.3300971 359.132841,52.6585242 359.132841,51.8300971 C359.132841,51.00167 359.80641,50.3300971 360.6373,50.3300971 C361.46819,50.3300971 362.141759,51.00167 362.141759,51.8300971 C362.141759,52.6585242 361.46819,53.3300971 360.6373,53.3300971 Z M377.463868,53.3300971 C376.632979,53.3300971 375.95941,52.6585242 375.95941,51.8300971 C375.95941,51.00167 376.632979,50.3300971 377.463868,50.3300971 C378.294758,50.3300971 378.968327,51.00167 378.968327,51.8300971 C378.968327,52.6585242 378.294758,53.3300971 377.463868,53.3300971 Z M394.290437,53.3300971 C393.459547,53.3300971 392.785978,52.6585242 392.785978,51.8300971 C392.785978,51.00167 393.459547,50.3300971 394.290437,50.3300971 C395.121326,50.3300971 395.794895,51.00167 395.794895,51.8300971 C395.794895,52.6585242 395.121326,53.3300971 394.290437,53.3300971 Z M411.117005,53.3300971 C410.286115,53.3300971 409.612546,52.6585242 409.612546,51.8300971 C409.612546,51.00167 410.286115,50.3300971 411.117005,50.3300971 C411.947895,50.3300971 412.621464,51.00167 412.621464,51.8300971 C412.621464,52.6585242 411.947895,53.3300971 411.117005,53.3300971 Z M427.943573,53.3300971 C427.112684,53.3300971 426.439114,52.6585242 426.439114,51.8300971 C426.439114,51.00167 427.112684,50.3300971 427.943573,50.3300971 C428.774463,50.3300971 429.448032,51.00167 429.448032,51.8300971 C429.448032,52.6585242 428.774463,53.3300971 427.943573,53.3300971 Z M444.770141,53.3300971 C443.939252,53.3300971 443.265683,52.6585242 443.265683,51.8300971 C443.265683,51.00167 443.939252,50.3300971 444.770141,50.3300971 C445.601031,50.3300971 446.2746,51.00167 446.2746,51.8300971 C446.2746,52.6585242 445.601031,53.3300971 444.770141,53.3300971 Z M461.59671,53.3300971 C460.76582,53.3300971 460.092251,52.6585242 460.092251,51.8300971 C460.092251,51.00167 460.76582,50.3300971 461.59671,50.3300971 C462.427599,50.3300971 463.101169,51.00167 463.101169,51.8300971 C463.101169,52.6585242 462.427599,53.3300971 461.59671,53.3300971 Z M276.504459,36.5533981 C275.673569,36.5533981 275,35.8818252 275,35.0533981 C275,34.2249709 275.673569,33.5533981 276.504459,33.5533981 C277.335348,33.5533981 278.008918,34.2249709 278.008918,35.0533981 C278.008918,35.8818252 277.335348,36.5533981 276.504459,36.5533981 Z M293.331027,36.5533981 C292.500137,36.5533981 291.826568,35.8818252 291.826568,35.0533981 C291.826568,34.2249709 292.500137,33.5533981 293.331027,33.5533981 C294.161917,33.5533981 294.835486,34.2249709 294.835486,35.0533981 C294.835486,35.8818252 294.161917,36.5533981 293.331027,36.5533981 Z M310.157595,36.5533981 C309.326706,36.5533981 308.653137,35.8818252 308.653137,35.0533981 C308.653137,34.2249709 309.326706,33.5533981 310.157595,33.5533981 C310.988485,33.5533981 311.662054,34.2249709 311.662054,35.0533981 C311.662054,35.8818252 310.988485,36.5533981 310.157595,36.5533981 Z M326.984164,36.5533981 C326.153274,36.5533981 325.479705,35.8818252 325.479705,35.0533981 C325.479705,34.2249709 326.153274,33.5533981 326.984164,33.5533981 C327.815053,33.5533981 328.488622,34.2249709 328.488622,35.0533981 C328.488622,35.8818252 327.815053,36.5533981 326.984164,36.5533981 Z M343.810732,36.5533981 C342.979842,36.5533981 342.306273,35.8818252 342.306273,35.0533981 C342.306273,34.2249709 342.979842,33.5533981 343.810732,33.5533981 C344.641622,33.5533981 345.315191,34.2249709 345.315191,35.0533981 C345.315191,35.8818252 344.641622,36.5533981 343.810732,36.5533981 Z M360.6373,36.5533981 C359.80641,36.5533981 359.132841,35.8818252 359.132841,35.0533981 C359.132841,34.2249709 359.80641,33.5533981 360.6373,33.5533981 C361.46819,33.5533981 362.141759,34.2249709 362.141759,35.0533981 C362.141759,35.8818252 361.46819,36.5533981 360.6373,36.5533981 Z M377.463868,36.5533981 C376.632979,36.5533981 375.95941,35.8818252 375.95941,35.0533981 C375.95941,34.2249709 376.632979,33.5533981 377.463868,33.5533981 C378.294758,33.5533981 378.968327,34.2249709 378.968327,35.0533981 C378.968327,35.8818252 378.294758,36.5533981 377.463868,36.5533981 Z M394.290437,36.5533981 C393.459547,36.5533981 392.785978,35.8818252 392.785978,35.0533981 C392.785978,34.2249709 393.459547,33.5533981 394.290437,33.5533981 C395.121326,33.5533981 395.794895,34.2249709 395.794895,35.0533981 C395.794895,35.8818252 395.121326,36.5533981 394.290437,36.5533981 Z M411.117005,36.5533981 C410.286115,36.5533981 409.612546,35.8818252 409.612546,35.0533981 C409.612546,34.2249709 410.286115,33.5533981 411.117005,33.5533981 C411.947895,33.5533981 412.621464,34.2249709 412.621464,35.0533981 C412.621464,35.8818252 411.947895,36.5533981 411.117005,36.5533981 Z M427.943573,36.5533981 C427.112684,36.5533981 426.439114,35.8818252 426.439114,35.0533981 C426.439114,34.2249709 427.112684,33.5533981 427.943573,33.5533981 C428.774463,33.5533981 429.448032,34.2249709 429.448032,35.0533981 C429.448032,35.8818252 428.774463,36.5533981 427.943573,36.5533981 Z M444.770141,36.5533981 C443.939252,36.5533981 443.265683,35.8818252 443.265683,35.0533981 C443.265683,34.2249709 443.939252,33.5533981 444.770141,33.5533981 C445.601031,33.5533981 446.2746,34.2249709 446.2746,35.0533981 C446.2746,35.8818252 445.601031,36.5533981 444.770141,36.5533981 Z M461.59671,36.5533981 C460.76582,36.5533981 460.092251,35.8818252 460.092251,35.0533981 C460.092251,34.2249709 460.76582,33.5533981 461.59671,33.5533981 C462.427599,33.5533981 463.101169,34.2249709 463.101169,35.0533981 C463.101169,35.8818252 462.427599,36.5533981 461.59671,36.5533981 Z M276.504459,19.776699 C275.673569,19.776699 275,19.1051262 275,18.276699 C275,17.4482719 275.673569,16.776699 276.504459,16.776699 C277.335348,16.776699 278.008918,17.4482719 278.008918,18.276699 C278.008918,19.1051262 277.335348,19.776699 276.504459,19.776699 Z M293.331027,19.776699 C292.500137,19.776699 291.826568,19.1051262 291.826568,18.276699 C291.826568,17.4482719 292.500137,16.776699 293.331027,16.776699 C294.161917,16.776699 294.835486,17.4482719 294.835486,18.276699 C294.835486,19.1051262 294.161917,19.776699 293.331027,19.776699 Z M310.157595,19.776699 C309.326706,19.776699 308.653137,19.1051262 308.653137,18.276699 C308.653137,17.4482719 309.326706,16.776699 310.157595,16.776699 C310.988485,16.776699 311.662054,17.4482719 311.662054,18.276699 C311.662054,19.1051262 310.988485,19.776699 310.157595,19.776699 Z M326.984164,19.776699 C326.153274,19.776699 325.479705,19.1051262 325.479705,18.276699 C325.479705,17.4482719 326.153274,16.776699 326.984164,16.776699 C327.815053,16.776699 328.488622,17.4482719 328.488622,18.276699 C328.488622,19.1051262 327.815053,19.776699 326.984164,19.776699 Z M343.810732,19.776699 C342.979842,19.776699 342.306273,19.1051262 342.306273,18.276699 C342.306273,17.4482719 342.979842,16.776699 343.810732,16.776699 C344.641622,16.776699 345.315191,17.4482719 345.315191,18.276699 C345.315191,19.1051262 344.641622,19.776699 343.810732,19.776699 Z M360.6373,19.776699 C359.80641,19.776699 359.132841,19.1051262 359.132841,18.276699 C359.132841,17.4482719 359.80641,16.776699 360.6373,16.776699 C361.46819,16.776699 362.141759,17.4482719 362.141759,18.276699 C362.141759,19.1051262 361.46819,19.776699 360.6373,19.776699 Z M377.463868,19.776699 C376.632979,19.776699 375.95941,19.1051262 375.95941,18.276699 C375.95941,17.4482719 376.632979,16.776699 377.463868,16.776699 C378.294758,16.776699 378.968327,17.4482719 378.968327,18.276699 C378.968327,19.1051262 378.294758,19.776699 377.463868,19.776699 Z M394.290437,19.776699 C393.459547,19.776699 392.785978,19.1051262 392.785978,18.276699 C392.785978,17.4482719 393.459547,16.776699 394.290437,16.776699 C395.121326,16.776699 395.794895,17.4482719 395.794895,18.276699 C395.794895,19.1051262 395.121326,19.776699 394.290437,19.776699 Z M411.117005,19.776699 C410.286115,19.776699 409.612546,19.1051262 409.612546,18.276699 C409.612546,17.4482719 410.286115,16.776699 411.117005,16.776699 C411.947895,16.776699 412.621464,17.4482719 412.621464,18.276699 C412.621464,19.1051262 411.947895,19.776699 411.117005,19.776699 Z M427.943573,19.776699 C427.112684,19.776699 426.439114,19.1051262 426.439114,18.276699 C426.439114,17.4482719 427.112684,16.776699 427.943573,16.776699 C428.774463,16.776699 429.448032,17.4482719 429.448032,18.276699 C429.448032,19.1051262 428.774463,19.776699 427.943573,19.776699 Z M444.770141,19.776699 C443.939252,19.776699 443.265683,19.1051262 443.265683,18.276699 C443.265683,17.4482719 443.939252,16.776699 444.770141,16.776699 C445.601031,16.776699 446.2746,17.4482719 446.2746,18.276699 C446.2746,19.1051262 445.601031,19.776699 444.770141,19.776699 Z M461.59671,19.776699 C460.76582,19.776699 460.092251,19.1051262 460.092251,18.276699 C460.092251,17.4482719 460.76582,16.776699 461.59671,16.776699 C462.427599,16.776699 463.101169,17.4482719 463.101169,18.276699 C463.101169,19.1051262 462.427599,19.776699 461.59671,19.776699 Z M276.504459,3 C275.673569,3 275,2.32842712 275,1.5 C275,0.671572875 275.673569,0 276.504459,0 C277.335348,0 278.008918,0.671572875 278.008918,1.5 C278.008918,2.32842712 277.335348,3 276.504459,3 Z M293.331027,3 C292.500137,3 291.826568,2.32842712 291.826568,1.5 C291.826568,0.671572875 292.500137,0 293.331027,0 C294.161917,0 294.835486,0.671572875 294.835486,1.5 C294.835486,2.32842712 294.161917,3 293.331027,3 Z M310.157595,3 C309.326706,3 308.653137,2.32842712 308.653137,1.5 C308.653137,0.671572875 309.326706,0 310.157595,0 C310.988485,0 311.662054,0.671572875 311.662054,1.5 C311.662054,2.32842712 310.988485,3 310.157595,3 Z M326.984164,3 C326.153274,3 325.479705,2.32842712 325.479705,1.5 C325.479705,0.671572875 326.153274,0 326.984164,0 C327.815053,0 328.488622,0.671572875 328.488622,1.5 C328.488622,2.32842712 327.815053,3 326.984164,3 Z M343.810732,3 C342.979842,3 342.306273,2.32842712 342.306273,1.5 C342.306273,0.671572875 342.979842,0 343.810732,0 C344.641622,0 345.315191,0.671572875 345.315191,1.5 C345.315191,2.32842712 344.641622,3 343.810732,3 Z M360.6373,3 C359.80641,3 359.132841,2.32842712 359.132841,1.5 C359.132841,0.671572875 359.80641,0 360.6373,0 C361.46819,0 362.141759,0.671572875 362.141759,1.5 C362.141759,2.32842712 361.46819,3 360.6373,3 Z M377.463868,3 C376.632979,3 375.95941,2.32842712 375.95941,1.5 C375.95941,0.671572875 376.632979,0 377.463868,0 C378.294758,0 378.968327,0.671572875 378.968327,1.5 C378.968327,2.32842712 378.294758,3 377.463868,3 Z M394.290437,3 C393.459547,3 392.785978,2.32842712 392.785978,1.5 C392.785978,0.671572875 393.459547,0 394.290437,0 C395.121326,0 395.794895,0.671572875 395.794895,1.5 C395.794895,2.32842712 395.121326,3 394.290437,3 Z M411.117005,3 C410.286115,3 409.612546,2.32842712 409.612546,1.5 C409.612546,0.671572875 410.286115,0 411.117005,0 C411.947895,0 412.621464,0.671572875 412.621464,1.5 C412.621464,2.32842712 411.947895,3 411.117005,3 Z M427.943573,3 C427.112684,3 426.439114,2.32842712 426.439114,1.5 C426.439114,0.671572875 427.112684,0 427.943573,0 C428.774463,0 429.448032,0.671572875 429.448032,1.5 C429.448032,2.32842712 428.774463,3 427.943573,3 Z M444.770141,3 C443.939252,3 443.265683,2.32842712 443.265683,1.5 C443.265683,0.671572875 443.939252,0 444.770141,0 C445.601031,0 446.2746,0.671572875 446.2746,1.5 C446.2746,2.32842712 445.601031,3 444.770141,3 Z M461.59671,3 C460.76582,3 460.092251,2.32842712 460.092251,1.5 C460.092251,0.671572875 460.76582,0 461.59671,0 C462.427599,0 463.101169,0.671572875 463.101169,1.5 C463.101169,2.32842712 462.427599,3 461.59671,3 Z M476.504459,70.1067961 C475.673569,70.1067961 475,69.4352232 475,68.6067961 C475,67.778369 475.673569,67.1067961 476.504459,67.1067961 C477.335348,67.1067961 478.008918,67.778369 478.008918,68.6067961 C478.008918,69.4352232 477.335348,70.1067961 476.504459,70.1067961 Z M493.331027,70.1067961 C492.500137,70.1067961 491.826568,69.4352232 491.826568,68.6067961 C491.826568,67.778369 492.500137,67.1067961 493.331027,67.1067961 C494.161917,67.1067961 494.835486,67.778369 494.835486,68.6067961 C494.835486,69.4352232 494.161917,70.1067961 493.331027,70.1067961 Z M510.157595,70.1067961 C509.326706,70.1067961 508.653137,69.4352232 508.653137,68.6067961 C508.653137,67.778369 509.326706,67.1067961 510.157595,67.1067961 C510.988485,67.1067961 511.662054,67.778369 511.662054,68.6067961 C511.662054,69.4352232 510.988485,70.1067961 510.157595,70.1067961 Z M526.984164,70.1067961 C526.153274,70.1067961 525.479705,69.4352232 525.479705,68.6067961 C525.479705,67.778369 526.153274,67.1067961 526.984164,67.1067961 C527.815053,67.1067961 528.488622,67.778369 528.488622,68.6067961 C528.488622,69.4352232 527.815053,70.1067961 526.984164,70.1067961 Z M543.810732,70.1067961 C542.979842,70.1067961 542.306273,69.4352232 542.306273,68.6067961 C542.306273,67.778369 542.979842,67.1067961 543.810732,67.1067961 C544.641622,67.1067961 545.315191,67.778369 545.315191,68.6067961 C545.315191,69.4352232 544.641622,70.1067961 543.810732,70.1067961 Z M560.6373,70.1067961 C559.80641,70.1067961 559.132841,69.4352232 559.132841,68.6067961 C559.132841,67.778369 559.80641,67.1067961 560.6373,67.1067961 C561.46819,67.1067961 562.141759,67.778369 562.141759,68.6067961 C562.141759,69.4352232 561.46819,70.1067961 560.6373,70.1067961 Z M577.463868,70.1067961 C576.632979,70.1067961 575.95941,69.4352232 575.95941,68.6067961 C575.95941,67.778369 576.632979,67.1067961 577.463868,67.1067961 C578.294758,67.1067961 578.968327,67.778369 578.968327,68.6067961 C578.968327,69.4352232 578.294758,70.1067961 577.463868,70.1067961 Z M594.290437,70.1067961 C593.459547,70.1067961 592.785978,69.4352232 592.785978,68.6067961 C592.785978,67.778369 593.459547,67.1067961 594.290437,67.1067961 C595.121326,67.1067961 595.794895,67.778369 595.794895,68.6067961 C595.794895,69.4352232 595.121326,70.1067961 594.290437,70.1067961 Z M611.117005,70.1067961 C610.286115,70.1067961 609.612546,69.4352232 609.612546,68.6067961 C609.612546,67.778369 610.286115,67.1067961 611.117005,67.1067961 C611.947895,67.1067961 612.621464,67.778369 612.621464,68.6067961 C612.621464,69.4352232 611.947895,70.1067961 611.117005,70.1067961 Z M627.943573,70.1067961 C627.112684,70.1067961 626.439114,69.4352232 626.439114,68.6067961 C626.439114,67.778369 627.112684,67.1067961 627.943573,67.1067961 C628.774463,67.1067961 629.448032,67.778369 629.448032,68.6067961 C629.448032,69.4352232 628.774463,70.1067961 627.943573,70.1067961 Z M644.770141,70.1067961 C643.939252,70.1067961 643.265683,69.4352232 643.265683,68.6067961 C643.265683,67.778369 643.939252,67.1067961 644.770141,67.1067961 C645.601031,67.1067961 646.2746,67.778369 646.2746,68.6067961 C646.2746,69.4352232 645.601031,70.1067961 644.770141,70.1067961 Z M661.59671,70.1067961 C660.76582,70.1067961 660.092251,69.4352232 660.092251,68.6067961 C660.092251,67.778369 660.76582,67.1067961 661.59671,67.1067961 C662.427599,67.1067961 663.101169,67.778369 663.101169,68.6067961 C663.101169,69.4352232 662.427599,70.1067961 661.59671,70.1067961 Z M476.504459,53.3300971 C475.673569,53.3300971 475,52.6585242 475,51.8300971 C475,51.00167 475.673569,50.3300971 476.504459,50.3300971 C477.335348,50.3300971 478.008918,51.00167 478.008918,51.8300971 C478.008918,52.6585242 477.335348,53.3300971 476.504459,53.3300971 Z M493.331027,53.3300971 C492.500137,53.3300971 491.826568,52.6585242 491.826568,51.8300971 C491.826568,51.00167 492.500137,50.3300971 493.331027,50.3300971 C494.161917,50.3300971 494.835486,51.00167 494.835486,51.8300971 C494.835486,52.6585242 494.161917,53.3300971 493.331027,53.3300971 Z M510.157595,53.3300971 C509.326706,53.3300971 508.653137,52.6585242 508.653137,51.8300971 C508.653137,51.00167 509.326706,50.3300971 510.157595,50.3300971 C510.988485,50.3300971 511.662054,51.00167 511.662054,51.8300971 C511.662054,52.6585242 510.988485,53.3300971 510.157595,53.3300971 Z M526.984164,53.3300971 C526.153274,53.3300971 525.479705,52.6585242 525.479705,51.8300971 C525.479705,51.00167 526.153274,50.3300971 526.984164,50.3300971 C527.815053,50.3300971 528.488622,51.00167 528.488622,51.8300971 C528.488622,52.6585242 527.815053,53.3300971 526.984164,53.3300971 Z M543.810732,53.3300971 C542.979842,53.3300971 542.306273,52.6585242 542.306273,51.8300971 C542.306273,51.00167 542.979842,50.3300971 543.810732,50.3300971 C544.641622,50.3300971 545.315191,51.00167 545.315191,51.8300971 C545.315191,52.6585242 544.641622,53.3300971 543.810732,53.3300971 Z M560.6373,53.3300971 C559.80641,53.3300971 559.132841,52.6585242 559.132841,51.8300971 C559.132841,51.00167 559.80641,50.3300971 560.6373,50.3300971 C561.46819,50.3300971 562.141759,51.00167 562.141759,51.8300971 C562.141759,52.6585242 561.46819,53.3300971 560.6373,53.3300971 Z M577.463868,53.3300971 C576.632979,53.3300971 575.95941,52.6585242 575.95941,51.8300971 C575.95941,51.00167 576.632979,50.3300971 577.463868,50.3300971 C578.294758,50.3300971 578.968327,51.00167 578.968327,51.8300971 C578.968327,52.6585242 578.294758,53.3300971 577.463868,53.3300971 Z M594.290437,53.3300971 C593.459547,53.3300971 592.785978,52.6585242 592.785978,51.8300971 C592.785978,51.00167 593.459547,50.3300971 594.290437,50.3300971 C595.121326,50.3300971 595.794895,51.00167 595.794895,51.8300971 C595.794895,52.6585242 595.121326,53.3300971 594.290437,53.3300971 Z M611.117005,53.3300971 C610.286115,53.3300971 609.612546,52.6585242 609.612546,51.8300971 C609.612546,51.00167 610.286115,50.3300971 611.117005,50.3300971 C611.947895,50.3300971 612.621464,51.00167 612.621464,51.8300971 C612.621464,52.6585242 611.947895,53.3300971 611.117005,53.3300971 Z M627.943573,53.3300971 C627.112684,53.3300971 626.439114,52.6585242 626.439114,51.8300971 C626.439114,51.00167 627.112684,50.3300971 627.943573,50.3300971 C628.774463,50.3300971 629.448032,51.00167 629.448032,51.8300971 C629.448032,52.6585242 628.774463,53.3300971 627.943573,53.3300971 Z M644.770141,53.3300971 C643.939252,53.3300971 643.265683,52.6585242 643.265683,51.8300971 C643.265683,51.00167 643.939252,50.3300971 644.770141,50.3300971 C645.601031,50.3300971 646.2746,51.00167 646.2746,51.8300971 C646.2746,52.6585242 645.601031,53.3300971 644.770141,53.3300971 Z M661.59671,53.3300971 C660.76582,53.3300971 660.092251,52.6585242 660.092251,51.8300971 C660.092251,51.00167 660.76582,50.3300971 661.59671,50.3300971 C662.427599,50.3300971 663.101169,51.00167 663.101169,51.8300971 C663.101169,52.6585242 662.427599,53.3300971 661.59671,53.3300971 Z M476.504459,36.5533981 C475.673569,36.5533981 475,35.8818252 475,35.0533981 C475,34.2249709 475.673569,33.5533981 476.504459,33.5533981 C477.335348,33.5533981 478.008918,34.2249709 478.008918,35.0533981 C478.008918,35.8818252 477.335348,36.5533981 476.504459,36.5533981 Z M493.331027,36.5533981 C492.500137,36.5533981 491.826568,35.8818252 491.826568,35.0533981 C491.826568,34.2249709 492.500137,33.5533981 493.331027,33.5533981 C494.161917,33.5533981 494.835486,34.2249709 494.835486,35.0533981 C494.835486,35.8818252 494.161917,36.5533981 493.331027,36.5533981 Z M510.157595,36.5533981 C509.326706,36.5533981 508.653137,35.8818252 508.653137,35.0533981 C508.653137,34.2249709 509.326706,33.5533981 510.157595,33.5533981 C510.988485,33.5533981 511.662054,34.2249709 511.662054,35.0533981 C511.662054,35.8818252 510.988485,36.5533981 510.157595,36.5533981 Z M526.984164,36.5533981 C526.153274,36.5533981 525.479705,35.8818252 525.479705,35.0533981 C525.479705,34.2249709 526.153274,33.5533981 526.984164,33.5533981 C527.815053,33.5533981 528.488622,34.2249709 528.488622,35.0533981 C528.488622,35.8818252 527.815053,36.5533981 526.984164,36.5533981 Z M543.810732,36.5533981 C542.979842,36.5533981 542.306273,35.8818252 542.306273,35.0533981 C542.306273,34.2249709 542.979842,33.5533981 543.810732,33.5533981 C544.641622,33.5533981 545.315191,34.2249709 545.315191,35.0533981 C545.315191,35.8818252 544.641622,36.5533981 543.810732,36.5533981 Z M560.6373,36.5533981 C559.80641,36.5533981 559.132841,35.8818252 559.132841,35.0533981 C559.132841,34.2249709 559.80641,33.5533981 560.6373,33.5533981 C561.46819,33.5533981 562.141759,34.2249709 562.141759,35.0533981 C562.141759,35.8818252 561.46819,36.5533981 560.6373,36.5533981 Z M577.463868,36.5533981 C576.632979,36.5533981 575.95941,35.8818252 575.95941,35.0533981 C575.95941,34.2249709 576.632979,33.5533981 577.463868,33.5533981 C578.294758,33.5533981 578.968327,34.2249709 578.968327,35.0533981 C578.968327,35.8818252 578.294758,36.5533981 577.463868,36.5533981 Z M594.290437,36.5533981 C593.459547,36.5533981 592.785978,35.8818252 592.785978,35.0533981 C592.785978,34.2249709 593.459547,33.5533981 594.290437,33.5533981 C595.121326,33.5533981 595.794895,34.2249709 595.794895,35.0533981 C595.794895,35.8818252 595.121326,36.5533981 594.290437,36.5533981 Z M611.117005,36.5533981 C610.286115,36.5533981 609.612546,35.8818252 609.612546,35.0533981 C609.612546,34.2249709 610.286115,33.5533981 611.117005,33.5533981 C611.947895,33.5533981 612.621464,34.2249709 612.621464,35.0533981 C612.621464,35.8818252 611.947895,36.5533981 611.117005,36.5533981 Z M627.943573,36.5533981 C627.112684,36.5533981 626.439114,35.8818252 626.439114,35.0533981 C626.439114,34.2249709 627.112684,33.5533981 627.943573,33.5533981 C628.774463,33.5533981 629.448032,34.2249709 629.448032,35.0533981 C629.448032,35.8818252 628.774463,36.5533981 627.943573,36.5533981 Z M644.770141,36.5533981 C643.939252,36.5533981 643.265683,35.8818252 643.265683,35.0533981 C643.265683,34.2249709 643.939252,33.5533981 644.770141,33.5533981 C645.601031,33.5533981 646.2746,34.2249709 646.2746,35.0533981 C646.2746,35.8818252 645.601031,36.5533981 644.770141,36.5533981 Z M661.59671,36.5533981 C660.76582,36.5533981 660.092251,35.8818252 660.092251,35.0533981 C660.092251,34.2249709 660.76582,33.5533981 661.59671,33.5533981 C662.427599,33.5533981 663.101169,34.2249709 663.101169,35.0533981 C663.101169,35.8818252 662.427599,36.5533981 661.59671,36.5533981 Z M476.504459,19.776699 C475.673569,19.776699 475,19.1051262 475,18.276699 C475,17.4482719 475.673569,16.776699 476.504459,16.776699 C477.335348,16.776699 478.008918,17.4482719 478.008918,18.276699 C478.008918,19.1051262 477.335348,19.776699 476.504459,19.776699 Z M493.331027,19.776699 C492.500137,19.776699 491.826568,19.1051262 491.826568,18.276699 C491.826568,17.4482719 492.500137,16.776699 493.331027,16.776699 C494.161917,16.776699 494.835486,17.4482719 494.835486,18.276699 C494.835486,19.1051262 494.161917,19.776699 493.331027,19.776699 Z M510.157595,19.776699 C509.326706,19.776699 508.653137,19.1051262 508.653137,18.276699 C508.653137,17.4482719 509.326706,16.776699 510.157595,16.776699 C510.988485,16.776699 511.662054,17.4482719 511.662054,18.276699 C511.662054,19.1051262 510.988485,19.776699 510.157595,19.776699 Z M526.984164,19.776699 C526.153274,19.776699 525.479705,19.1051262 525.479705,18.276699 C525.479705,17.4482719 526.153274,16.776699 526.984164,16.776699 C527.815053,16.776699 528.488622,17.4482719 528.488622,18.276699 C528.488622,19.1051262 527.815053,19.776699 526.984164,19.776699 Z M543.810732,19.776699 C542.979842,19.776699 542.306273,19.1051262 542.306273,18.276699 C542.306273,17.4482719 542.979842,16.776699 543.810732,16.776699 C544.641622,16.776699 545.315191,17.4482719 545.315191,18.276699 C545.315191,19.1051262 544.641622,19.776699 543.810732,19.776699 Z M560.6373,19.776699 C559.80641,19.776699 559.132841,19.1051262 559.132841,18.276699 C559.132841,17.4482719 559.80641,16.776699 560.6373,16.776699 C561.46819,16.776699 562.141759,17.4482719 562.141759,18.276699 C562.141759,19.1051262 561.46819,19.776699 560.6373,19.776699 Z M577.463868,19.776699 C576.632979,19.776699 575.95941,19.1051262 575.95941,18.276699 C575.95941,17.4482719 576.632979,16.776699 577.463868,16.776699 C578.294758,16.776699 578.968327,17.4482719 578.968327,18.276699 C578.968327,19.1051262 578.294758,19.776699 577.463868,19.776699 Z M594.290437,19.776699 C593.459547,19.776699 592.785978,19.1051262 592.785978,18.276699 C592.785978,17.4482719 593.459547,16.776699 594.290437,16.776699 C595.121326,16.776699 595.794895,17.4482719 595.794895,18.276699 C595.794895,19.1051262 595.121326,19.776699 594.290437,19.776699 Z M611.117005,19.776699 C610.286115,19.776699 609.612546,19.1051262 609.612546,18.276699 C609.612546,17.4482719 610.286115,16.776699 611.117005,16.776699 C611.947895,16.776699 612.621464,17.4482719 612.621464,18.276699 C612.621464,19.1051262 611.947895,19.776699 611.117005,19.776699 Z M627.943573,19.776699 C627.112684,19.776699 626.439114,19.1051262 626.439114,18.276699 C626.439114,17.4482719 627.112684,16.776699 627.943573,16.776699 C628.774463,16.776699 629.448032,17.4482719 629.448032,18.276699 C629.448032,19.1051262 628.774463,19.776699 627.943573,19.776699 Z M644.770141,19.776699 C643.939252,19.776699 643.265683,19.1051262 643.265683,18.276699 C643.265683,17.4482719 643.939252,16.776699 644.770141,16.776699 C645.601031,16.776699 646.2746,17.4482719 646.2746,18.276699 C646.2746,19.1051262 645.601031,19.776699 644.770141,19.776699 Z M661.59671,19.776699 C660.76582,19.776699 660.092251,19.1051262 660.092251,18.276699 C660.092251,17.4482719 660.76582,16.776699 661.59671,16.776699 C662.427599,16.776699 663.101169,17.4482719 663.101169,18.276699 C663.101169,19.1051262 662.427599,19.776699 661.59671,19.776699 Z M476.504459,3 C475.673569,3 475,2.32842712 475,1.5 C475,0.671572875 475.673569,0 476.504459,0 C477.335348,0 478.008918,0.671572875 478.008918,1.5 C478.008918,2.32842712 477.335348,3 476.504459,3 Z M493.331027,3 C492.500137,3 491.826568,2.32842712 491.826568,1.5 C491.826568,0.671572875 492.500137,0 493.331027,0 C494.161917,0 494.835486,0.671572875 494.835486,1.5 C494.835486,2.32842712 494.161917,3 493.331027,3 Z M510.157595,3 C509.326706,3 508.653137,2.32842712 508.653137,1.5 C508.653137,0.671572875 509.326706,0 510.157595,0 C510.988485,0 511.662054,0.671572875 511.662054,1.5 C511.662054,2.32842712 510.988485,3 510.157595,3 Z M526.984164,3 C526.153274,3 525.479705,2.32842712 525.479705,1.5 C525.479705,0.671572875 526.153274,0 526.984164,0 C527.815053,0 528.488622,0.671572875 528.488622,1.5 C528.488622,2.32842712 527.815053,3 526.984164,3 Z M543.810732,3 C542.979842,3 542.306273,2.32842712 542.306273,1.5 C542.306273,0.671572875 542.979842,0 543.810732,0 C544.641622,0 545.315191,0.671572875 545.315191,1.5 C545.315191,2.32842712 544.641622,3 543.810732,3 Z M560.6373,3 C559.80641,3 559.132841,2.32842712 559.132841,1.5 C559.132841,0.671572875 559.80641,0 560.6373,0 C561.46819,0 562.141759,0.671572875 562.141759,1.5 C562.141759,2.32842712 561.46819,3 560.6373,3 Z M577.463868,3 C576.632979,3 575.95941,2.32842712 575.95941,1.5 C575.95941,0.671572875 576.632979,0 577.463868,0 C578.294758,0 578.968327,0.671572875 578.968327,1.5 C578.968327,2.32842712 578.294758,3 577.463868,3 Z M594.290437,3 C593.459547,3 592.785978,2.32842712 592.785978,1.5 C592.785978,0.671572875 593.459547,0 594.290437,0 C595.121326,0 595.794895,0.671572875 595.794895,1.5 C595.794895,2.32842712 595.121326,3 594.290437,3 Z M611.117005,3 C610.286115,3 609.612546,2.32842712 609.612546,1.5 C609.612546,0.671572875 610.286115,0 611.117005,0 C611.947895,0 612.621464,0.671572875 612.621464,1.5 C612.621464,2.32842712 611.947895,3 611.117005,3 Z M627.943573,3 C627.112684,3 626.439114,2.32842712 626.439114,1.5 C626.439114,0.671572875 627.112684,0 627.943573,0 C628.774463,0 629.448032,0.671572875 629.448032,1.5 C629.448032,2.32842712 628.774463,3 627.943573,3 Z M644.770141,3 C643.939252,3 643.265683,2.32842712 643.265683,1.5 C643.265683,0.671572875 643.939252,0 644.770141,0 C645.601031,0 646.2746,0.671572875 646.2746,1.5 C646.2746,2.32842712 645.601031,3 644.770141,3 Z M661.59671,3 C660.76582,3 660.092251,2.32842712 660.092251,1.5 C660.092251,0.671572875 660.76582,0 661.59671,0 C662.427599,0 663.101169,0.671572875 663.101169,1.5 C663.101169,2.32842712 662.427599,3 661.59671,3 Z"></path>
            </g>
        </g>
    </g>
</svg>