<?xml version="1.0" encoding="UTF-8"?>
<svg width="117px" height="119px" viewBox="0 0 117 119" version="1.1" xmlns="http://www.w3.org/2000/svg" xmlns:xlink="http://www.w3.org/1999/xlink">
    <!-- Generator: Sketch 51.3 (57544) - http://www.bohemiancoding.com/sketch -->
    <title>Perso Petitdroite </title>
    <desc>Created with Sketch.</desc>
    <defs>
        <linearGradient x1="99.6086%" y1="49.8620688%" x2="-0.0627313112%" y2="49.8620688%" id="linearGradient-1">
            <stop stop-color="#CEB051" offset="0%"></stop>
            <stop stop-color="#A1632A" offset="100%"></stop>
        </linearGradient>
        <linearGradient x1="70.0728909%" y1="13.3586658%" x2="15.2914502%" y2="62.1381571%" id="linearGradient-2">
            <stop stop-color="#4A5992" stop-opacity="0" offset="0%"></stop>
            <stop stop-color="#000000" stop-opacity="0.6" offset="100%"></stop>
        </linearGradient>
        <linearGradient x1="99.7535143%" y1="50%" x2="0.0279091375%" y2="50%" id="linearGradient-3">
            <stop stop-color="#CEB051" offset="0%"></stop>
            <stop stop-color="#A1632A" offset="100%"></stop>
        </linearGradient>
        <linearGradient x1="100%" y1="49.9040307%" x2="0%" y2="49.9040307%" id="linearGradient-4">
            <stop stop-color="#CEB051" offset="0%"></stop>
            <stop stop-color="#A1632A" offset="100%"></stop>
        </linearGradient>
        <linearGradient x1="100%" y1="50.0959693%" x2="-4.59340758e-12%" y2="50.0959693%" id="linearGradient-5">
            <stop stop-color="#CEB051" offset="0%"></stop>
            <stop stop-color="#A1632A" offset="100%"></stop>
        </linearGradient>
        <linearGradient x1="100%" y1="50%" x2="-8.48409237e-12%" y2="50%" id="linearGradient-6">
            <stop stop-color="#CEB051" offset="0%"></stop>
            <stop stop-color="#A1632A" offset="100%"></stop>
        </linearGradient>
        <linearGradient x1="-11295.2903%" y1="47.1315576%" x2="-11196.0386%" y2="47.1315576%" id="linearGradient-7">
            <stop stop-color="#45242F" offset="0%"></stop>
            <stop stop-color="#6B3C71" offset="100%"></stop>
        </linearGradient>
    </defs>
    <g id="Symbols" stroke="none" stroke-width="1" fill="none" fill-rule="evenodd">
        <g id="Illustrations-/-Tertiaire-/-Compte" transform="translate(-595.000000, -275.000000)" fill-rule="nonzero">
            <g id="Perso-Petitdroite-">
                <g transform="translate(595.000000, 275.000000)">
                    <path d="M33.4645994,116.570374 C33.4206606,116.153616 33.4206606,115.733385 33.4645994,115.316626 C33.4645994,113.3867 35.6459026,110.724247 38.8686021,108.808407 C42.7668019,106.498131 46.7916581,106.145954 47.8471274,108.033619 C48.2128614,108.736498 48.2983693,109.552156 48.0863671,110.315722 C47.9456378,112.231562 45.8346993,114.809493 42.6964373,116.668984 C38.7982375,118.993348 34.7733813,119.331437 33.717912,117.443772 C33.6675478,117.355522 33.6296588,117.260704 33.6053286,117.162031 C33.5287759,116.973078 33.4813255,116.773586 33.4645994,116.570374 Z" id="Shape" fill="url(#linearGradient-1)"></path>
                    <polygon id="Shape" fill="url(#linearGradient-2)" opacity="0.5" points="124 56 27.2486499 112.291869 21.9194344 109.184227 119.008535 54.1461055"></polygon>
                    <polygon id="Shape" fill="url(#linearGradient-2)" opacity="0.5" points="143 56 46.2486499 112.291869 40.9194344 109.184227 138.008535 54.1461055"></polygon>
                    <path d="M33.4505265,115.302539 C33.4505265,113.372613 35.6318296,110.71016 38.8545291,108.79432 C39.4781762,108.429628 40.1218604,108.100408 40.7825197,107.808227 L47.4249397,109.216932 C47.4338073,110.462342 47.2776439,111.70343 46.9605332,112.90774 C45.8139358,114.423324 44.3790903,115.696831 42.7386561,116.654897 C38.8404562,118.979261 34.8156001,119.31735 33.7601308,117.429685 C33.7097665,117.341435 33.6718775,117.246617 33.6475474,117.147944 C33.5771765,116.962705 33.5344981,116.768086 33.5208911,116.570374 C33.4769523,116.153616 33.4769523,115.733385 33.5208911,115.316626 L33.4505265,115.302539 Z" id="Shape" fill="#A1632A"></path>
                    <path d="M47.0731166,109.428238 C47.0731166,109.428238 41.2609991,114.96445 37.22207,113.893834 C33.9712246,113.020437 40.6417905,109.428238 40.6417905,109.428238 L47.0731166,109.428238 Z" id="Shape" fill="#D3AF4A"></path>
                    <path d="M33.4645994,115.92237 C33.4768186,116.124847 33.519519,116.324315 33.5912557,116.514026 C33.6155858,116.6127 33.6534748,116.707518 33.7038391,116.795767 C34.7593084,118.683432 38.7841645,118.331256 42.6823644,116.006892 C45.8206264,114.147401 47.9315649,111.56947 48.0722941,109.653631 C48.0722941,109.470499 48.0722941,109.301454 48.0722941,109.13241 C48.1178372,109.520818 48.1178372,109.913226 48.0722941,110.301635 C47.9315649,112.217475 45.8206264,114.795405 42.6823644,116.654897 C38.7841645,118.979261 34.7593084,119.31735 33.7038391,117.429685 C33.6534748,117.341435 33.6155858,117.246617 33.5912557,117.147944 C33.5208849,116.962705 33.4782064,116.768086 33.4645994,116.570374 C33.4343704,116.242373 33.4343704,115.912282 33.4645994,115.584281 C33.4564502,115.696829 33.4564502,115.809821 33.4645994,115.92237 Z" id="Shape" fill="#FFFEFD"></path>
                    <path d="M20.4752909,111.344077 C20.4322702,110.927271 20.4322702,110.507136 20.4752909,110.090329 C20.4752909,108.160403 22.6425211,105.49795 25.8652206,103.58211 C29.7634205,101.271833 33.7882766,100.919657 34.8437459,102.807322 C35.2105755,103.504396 35.3010422,104.314383 35.0970585,105.075338 C34.9422564,106.991177 32.8453907,109.569108 29.7071288,111.442687 C25.8089289,113.752963 21.7840728,114.10514 20.7286035,112.217475 C20.6761932,112.128493 20.633719,112.034011 20.6019472,111.935733 C20.5302105,111.746023 20.4875101,111.546554 20.4752909,111.344077 Z" id="Shape" fill="url(#linearGradient-3)"></path>
                    <path d="M20.4752909,110.048068 C20.4752909,108.118142 22.6425211,105.455688 25.8652206,103.539849 C26.3999917,103.229934 26.9206899,102.96228 27.4413881,102.7228 L34.6045062,104.06107 L34.6889437,106.455869 C33.5265732,108.54073 31.7997155,110.254673 29.7071288,111.400425 C25.8089289,113.710702 21.7840728,114.062879 20.7286035,112.175213 C20.6761932,112.086232 20.633719,111.99175 20.6019472,111.893472 C20.5302105,111.703762 20.4875101,111.504293 20.4752909,111.301816 C20.4322702,110.885009 20.4322702,110.464875 20.4752909,110.048068 Z" id="Shape" fill="#A1632A"></path>
                    <path d="M34.6185791,104.089244 C34.6185791,104.089244 28.9049721,109.385977 24.9926993,108.315361 C21.7981457,107.484224 27.4836068,104.089244 27.4836068,104.089244 L34.6185791,104.089244 Z" id="Shape" fill="#D3AF4A"></path>
                    <path d="M20.4752909,110.71016 C20.4904071,110.91223 20.5330196,111.111288 20.6019472,111.301816 C20.6376786,111.398519 20.6799968,111.492654 20.7286035,111.583557 C21.7840728,113.457135 25.8089289,113.119046 29.7071288,110.794682 C32.8453907,108.935191 34.9422564,106.35726 35.0970585,104.441421 C35.0970585,104.244202 35.0970585,104.075157 35.0970585,103.9202 C35.1358112,104.304269 35.1358112,104.691269 35.0970585,105.075338 C34.9422564,106.991177 32.8453907,109.569108 29.7071288,111.442687 C25.8089289,113.752963 21.7840728,114.10514 20.7286035,112.217475 C20.6761932,112.128493 20.633719,112.034011 20.6019472,111.935733 C20.5302105,111.746023 20.4875101,111.546554 20.4752909,111.344077 C20.4518987,111.020498 20.4518987,110.69565 20.4752909,110.37207 C20.4612179,110.484767 20.4612179,110.597463 20.4752909,110.71016 Z" id="Shape" fill="#FFFEFD"></path>
                    <path d="M47.4249397,104.554117 L47.4249397,109.216932 C47.4249397,109.216932 44.047438,112.471042 40.8247385,109.216932 L40.6558634,104.554117 L47.4249397,104.554117 Z" id="Shape" fill="#D99788"></path>
                    <path d="M34.6045062,99.4546034 L34.6045062,104.103331 C34.6045062,104.103331 30.959619,107.371528 27.4836068,104.103331 L27.3147317,98.7784247 L34.6045062,99.4546034 Z" id="Shape" fill="#D99788"></path>
                    <path d="M27.6947007,21.9194565 C27.6947007,21.9194565 20.995989,21.9194565 20.6582389,37.8941761 C20.6582389,37.8941761 20.4189992,39.0915757 17.9703104,40.7115869 C15.5216217,42.3315982 9.37175409,46.7408462 9.37175409,46.7408462 C10.5430626,47.6142879 11.2237237,48.9979414 11.2012342,50.4598285 C11.2012342,50.4598285 20.9396973,47.1352837 23.6276258,44.6841362 C26.3155542,42.2329888 27.6947007,21.9194565 27.6947007,21.9194565 Z" id="Shape" fill="#F1653C"></path>
                    <path d="M25.2741578,42.1484665 C25.5837621,44.8250068 27.7650653,55.5875163 27.3710234,65.2230614 C26.9206899,76.281399 27.3710234,100.130782 27.3710234,100.130782 C29.4278572,102.023137 32.5898912,102.023137 34.646725,100.130782 L37.4613097,64.1383582 L40.7403009,104.554117 C42.8112868,105.848888 45.4383913,105.848888 47.5093772,104.554117 C47.5093772,104.554117 48.9166696,66.0260235 48.9166696,60.5320723 C48.9166696,57.4892686 49.9158471,50.3048709 50.7742955,44.5010045 C51.4108611,41.7189037 51.8435819,38.893978 52.0690045,36.048772 C52.5334109,32.7101401 47.8471274,27.244363 40.7403009,23.1450302 C32.8594637,18.5949117 26.0763145,20.9192756 24.2749802,24.0466017 C24.1905427,24.117037 23.1210005,24.5255615 25.2741578,42.1484665 Z" id="Shape" fill="#DE5D37"></path>
                    <path d="M24.0920322,30.5970819 L28.187253,24.4410392 C39.7411233,26.0469634 44.4555528,31.6817851 44.4555528,31.6817851 C42.0350099,48.5862503 47.8189815,48.1777257 47.8189815,48.1777257 L49.3670031,54.221072 C49.0573988,56.8412641 48.8463049,59.137454 48.832232,60.5320723 C48.832232,66.0260235 47.4249397,104.554117 47.4249397,104.554117 C45.3539538,105.848888 42.7268493,105.848888 40.6558634,104.554117 L37.3768722,64.1383582 L34.5622874,100.130782 C32.5054537,102.023137 29.3434196,102.023137 27.2865859,100.130782 C27.2865859,100.130782 26.8362523,76.281399 27.2865859,65.2230614 C27.6806278,55.5875163 25.4993246,44.8250068 25.1897203,42.1484665 C24.6127304,36.9362564 24.2609073,33.2454481 24.0920322,30.5970819 Z" id="Shape" fill="#F1653C"></path>
                    <path d="M27.3288047,65.2230614 C27.7228465,55.5875163 25.5415434,44.8250068 25.231939,42.1484665 C25.0771369,40.9228927 24.9504806,39.7959284 24.8378972,38.7253123 C24.5423658,32.3861378 26.0481686,25.1313049 31.6069735,20.6657087 C32.4167348,20.649313 33.2264385,20.7011484 34.0275163,20.8206663 C32.8313178,22.3702422 28.004305,28.1036733 28.2013259,33.3158834 C28.4405656,39.3874038 36.8421011,40.6974999 38.3760497,35.3162451 C39.7833421,30.2308185 41.9083536,26.9485349 44.5822091,25.7933964 C45.342147,26.3709656 45.9895014,26.9485349 46.7072205,27.5261041 C44.6542076,27.9827988 43.1541149,29.7490473 43.0341875,31.8508298 C42.1898121,37.2743457 43.8785629,47.9523328 47.4249397,48.1777257 C48.6527378,48.2000635 49.7934824,47.5452356 50.3943265,46.4731921 C49.6203157,51.8403598 48.8603779,57.8273579 48.832232,60.5602464 C48.832232,66.0541976 47.4249397,104.582291 47.4249397,104.582291 C45.3539538,105.877062 42.7268493,105.877062 40.6558634,104.582291 L37.3768722,64.1665323 L34.5622874,100.158956 C32.5054537,102.051311 29.3434196,102.051311 27.2865859,100.158956 C27.2865859,100.158956 26.8784711,76.2391379 27.3288047,65.2230614 Z" id="Shape" fill="#4A8AD2"></path>
                    <path d="M40.1492381,22.3279811 L40.1492381,26.1878339 C39.8936248,27.5328712 38.7090089,28.4992447 37.3413826,28.478397 C35.9737562,28.4575493 34.819086,27.4555163 34.6045062,26.1033116 L34.6045062,22.313894 L40.1492381,22.3279811 Z" id="Shape" fill="#B3796C"></path>
                    <path d="M38.3760497,28.6953296 C38.0589965,28.8255675 37.7195829,28.8925613 37.3768722,28.8925484 C35.8224199,28.8925484 34.5622874,27.6311506 34.5622874,26.0751375 L34.5622874,22.2857199 L38.333831,22.2857199 L38.3760497,28.6953296 Z" id="Shape" fill="#D99788"></path>
                    <path d="M37.3768722,24.2322916 C42.9262666,24.2322916 47.4249397,18.6700141 47.4249397,13.1150476 C47.4249397,7.56008096 42.9262666,3.05689078 37.3768722,3.05689078 C31.8274777,3.05689078 28.0859014,7.56008096 28.0859014,13.1150476 C28.0859014,18.6700141 31.8274777,24.2322916 37.3768722,24.2322916 Z" id="Oval" fill="#D99788"></path>
                    <path d="M48.1567317,28.8925484 C52.1015121,32.6391455 55.1595631,37.2212017 57.1071111,42.3034241 C60.8082901,51.3614 60.7660713,63.5467019 60.7660713,63.5467019 C59.9261263,64.7082878 58.4784843,65.2613777 57.0789653,64.9554074 C57.0789653,64.9554074 52.8570882,48.8539043 48.1567317,44.4587434 C43.4563752,40.0635824 42.1616662,28.3431533 48.1567317,28.8925484 Z" id="Shape" fill="#F1653C"></path>
                    <path d="M2.25085472,40.8947186 L2.85599043,40.4861941 C3.04491321,40.3659411 3.2862763,40.3659411 3.47519908,40.4861941 L7.83780541,42.9936897 C8.01925716,43.1050423 8.13086102,43.3018752 8.13333681,43.5149107 L8.13333681,53.699851 C8.13528698,53.8994033 8.03418786,54.0858255 7.86595126,54.1928979 L7.26081554,54.6014225 C7.16084159,54.6678484 7.04303818,54.7022422 6.92306537,54.7000318 C6.81441274,54.6983158 6.70793983,54.6692485 6.61346105,54.6155095 L2.26492764,51.9671433 C2.09480435,51.8535107 1.98997648,51.664631 1.98346917,51.4600094 L1.98346917,41.4018526 C1.97933781,41.1979792 2.08037683,41.0063446 2.25085472,40.8947186 Z" id="Shape" fill="#D9D9DB"></path>
                    <path d="M6.61346105,54.6014225 L2.26492764,51.9530563 C2.09480435,51.8394236 1.98997648,51.650544 1.98346917,51.4459223 L1.98346917,41.3877655 C1.98644482,41.270677 2.02579675,41.1574266 2.09605256,41.0637633 C2.23486161,41.0016882 2.39350414,41.0016882 2.53231319,41.0637633 L6.8808466,43.5712589 C7.06229835,43.6826116 7.17390221,43.8794444 7.176378,44.09248 L7.176378,54.2774202 C7.17539039,54.3991785 7.1359862,54.5175097 7.06379461,54.6155095 L6.97935707,54.6155095 C6.85857897,54.6461598 6.73153047,54.6412684 6.61346105,54.6014225 Z" id="Shape" fill="#C6C6C6"></path>
                    <path d="M9.32953532,46.7408462 L8.13333681,47.5438083 L8.13333681,51.5727058 L11.1308695,50.4598285 C11.2894269,48.9775036 10.5903853,47.5342826 9.32953532,46.7408462 Z" id="Shape" fill="#D99788"></path>
                    <polygon id="Shape" fill="url(#linearGradient-4)" points="68.6328356 72.1820662 65.1427505 64.8427109 61.6667384 68.0827334"></polygon>
                    <polygon id="Shape" fill="url(#linearGradient-5)" points="68.3513771 72.3651979 64.8612921 65.0258426 61.3852799 68.2799522"></polygon>
                    <polygon id="Shape" fill="url(#linearGradient-6)" points="68.3513771 72.3651979 68.6328356 72.1820662 65.1427505 64.8427109 64.8612921 65.0258426"></polygon>
                    <polygon id="Shape" fill="url(#linearGradient-6)" points="54.8132246 80.1976001 54.3910369 80.4089059 50.8728059 73.0554636 51.3231395 72.8582448"></polygon>
                    <path d="M1.98346917,46.6563238 C3.23939652,48.2239101 4.12896289,50.0529622 4.58696004,52.0094045 C4.85434559,54.4464649 0.899854047,52.0094045 0.899854047,52.0094045 C0.521801795,51.5584213 0.30838325,50.9920458 0.294718329,50.4034803 C0.294718329,49.4737347 -0.169688151,45.1912702 1.98346917,45.3039666 L1.98346917,46.6563238 Z" id="Shape" fill="#D99788"></path>
                    <path d="M35.2800065,9.59328398 C34.3800524,8.48631885 32.9827402,7.90881901 31.5647547,8.05779506 C29.2708681,8.39588436 28.75017,9.66371925 28.2998364,8.80440894 C27.9368474,9.5758577 27.6720812,10.3898848 27.5117527,11.2273823 C26.9514421,10.4200788 26.8811072,9.36941193 27.3288047,8.49449374 C28.0887426,6.98717893 27.3288047,6.21239095 28.004305,4.9022949 C28.6798053,3.59219885 31.2692233,4.57829265 32.8735366,2.84558497 C35.2787755,0.152443617 39.2610241,-0.439866507 42.3446142,1.43687954 C45.69397,3.6062859 44.3288964,5.04316544 47.1153353,5.83204048 C49.9017742,6.62091552 50.0143576,10.8470318 49.1136905,12.6642618 C48.2578728,14.1519627 47.7031628,15.7938298 47.4812313,17.4961214 C47.1294083,19.721876 43.3860106,21.1869297 43.3860106,21.1869297 C43.3860106,21.1869297 42.3023954,20.4121417 43.667469,19.0456974 C45.0325426,17.6792531 45.6236054,16.073329 44.3429694,15.2562798 C43.9762204,15.1818751 43.5972944,15.304749 43.3437918,15.5802821 C44.0474788,14.4601882 43.877685,13.0008397 42.935677,12.0726055 C41.3454366,10.368072 38.319758,12.9178288 35.2800065,9.59328398 Z" id="Shape" fill="#161944"></path>
                    <path d="M31.5647547,8.05779506 C29.2708681,8.39588436 28.75017,9.66371925 28.2998364,8.80440894 C27.9368474,9.5758577 27.6720812,10.3898848 27.5117527,11.2273823 C26.9514421,10.4200788 26.8811072,9.36941193 27.3288047,8.49449374 C28.0887426,6.98717893 27.3288047,6.21239095 28.004305,4.9022949 C28.6798053,3.59219885 31.2692233,4.57829265 32.8735366,2.84558497 C33.2141776,2.47925247 33.5914262,2.14882848 33.9993705,1.85949117 C35.4402876,1.5738159 36.9311241,1.67589734 38.319758,2.15531931 C41.640968,3.4513283 41.9364994,6.0715204 44.1459484,6.76178606 C46.3553975,7.45205172 48.6070652,9.46650049 47.7626898,11.931735 C46.9183144,14.3969695 47.7626898,15.9888066 47.3123563,18.0173424 C46.5242725,19.9472689 43.3860106,21.1728426 43.3860106,21.1728426 C43.3860106,21.1728426 42.3023954,20.3980546 43.667469,19.0316104 C45.0325426,17.6651661 45.6236054,16.0592419 44.3429694,15.2421928 C43.9762204,15.167788 43.5972944,15.290662 43.3437918,15.566195 C44.0474788,14.4461011 43.877685,12.9867526 42.935677,12.0585185 C41.3454366,10.368072 38.319758,12.9178288 35.2800065,9.59328398 C34.3800524,8.48631885 32.9827402,7.90881901 31.5647547,8.05779506 Z" id="Shape" fill="#333A8C"></path>
                    <path d="M44.4555528,31.6817851 C46.0176473,33.8934526 53.1948384,44.1488282 54.8132246,49.2483418 C56.2205169,53.7843733 57.9655595,61.7858202 58.6269869,64.9413203 C58.1193833,65.0731539 57.5865689,65.0731539 57.0789653,64.9413203 C57.0789653,64.9413203 52.8570882,48.8398173 48.1567317,44.4446563 C45.0888343,41.4582008 43.4282293,35.3021581 44.4555528,31.6817851 Z" id="Shape" fill="#DE5D37"></path>
                    <path d="M56.1501523,69.012479 C56.4485041,68.3478601 56.8631403,67.741979 57.3744967,67.2234231 L57.0789653,64.8849721 C58.4549472,64.9796438 59.803032,64.464591 60.7660713,63.4762667 L60.7660713,67.0121173 C61.4555617,67.9228345 62.0188892,68.9226786 62.4407492,69.9844858 C62.4435,71.1029257 62.0032279,72.1768499 61.2164048,72.9709413 C60.4986857,73.6612069 58.3173826,73.2949435 57.4870801,72.9709413 C56.6567776,72.646939 56.0797877,70.6324903 56.0797877,70.6324903 C56.025093,70.0919149 56.0487932,69.5462626 56.1501523,69.012479 Z" id="Shape" fill="#D99788"></path>
                    <polygon id="Shape" fill="#A1632A" points="68.3513771 72.3651979 64.8612921 65.0258426 61.3852799 68.2799522"></polygon>
                    <path d="M56.1501523,70.6888384 L57.5574447,71.4777134 C57.8654108,71.1900695 58.0389434,70.7864564 58.0359241,70.3648362 C57.9374136,69.77318 56.1501523,70.6888384 56.1501523,70.6888384 Z" id="Shape" fill="url(#linearGradient-7)"></path>
                    <path d="M61.737103,68.5194321 L64.5516877,66.8712468 C64.5516877,66.8712468 65.1427505,66.8712468 65.1427505,67.9136888 C65.1654698,68.3467688 64.9347898,68.7536131 64.5516877,68.9561308 L62.4266763,70.2098786 C62.2954973,69.6109398 62.0622289,69.0390964 61.737103,68.5194321 Z" id="Shape" fill="#454645"></path>
                    <path d="M58.0640699,70.6747514 C57.9893773,71.4832381 57.794918,72.2760995 57.4870801,73.0272895 L57.5715176,73.0272895 L52.7445048,75.8447003 L51.9845669,74.2387762 L58.0640699,70.6747514 Z" id="Shape" fill="#454645"></path>
                    <path d="M32.4513489,62.7014787 C31.8462132,73.1118118 32.2965467,95.6088375 32.4513489,101.314095 C30.6634663,101.84303 28.7294381,101.393799 27.3569505,100.130782 C27.3569505,100.130782 26.906617,76.281399 27.3569505,65.2230614 C27.7509924,55.5875163 25.5696892,44.8250068 25.2600849,42.1484665 C25.1052827,40.9228927 24.9786264,39.7959284 24.866043,38.7253123 C24.6268033,33.5553633 25.5837621,27.7796711 28.9612638,23.3985972 C29.7634205,23.6662512 30.6077959,23.9902535 31.4803172,24.3283428 C29.8337851,26.8217514 28.1168884,30.1603833 28.2294718,33.3158834 C28.4687115,39.3874038 36.8702469,40.6974999 38.4041956,35.3162451 C38.9829806,33.0618946 39.9037329,30.9097318 41.1343428,28.9348095 C41.9083359,29.4638269 42.650776,30.0376791 43.3578647,30.6534302 C43.2231181,31.0427175 43.1241962,31.4435177 43.0623333,31.8508298 C42.3446142,36.4150354 43.4282293,44.7123103 45.8769181,47.3465895 C45.708043,48.8820784 45.4688033,50.7556566 45.2154906,52.0657527 C44.8073759,54.3760296 45.1169802,95.735621 45.2154906,105.413427 C43.647001,105.779446 41.9970418,105.467531 40.6699363,104.554117 L37.3909451,64.1383582 C37.3909451,64.1383582 33.1409221,50.7274825 32.4513489,62.7014787 Z" id="Shape" fill="#67A5EC"></path>
                    <path d="M31.8272646,13.048157 L33.6979462,14.9121794" id="Path-30" stroke="#333A8C" stroke-width="1.86999996"></path>
                    <path d="M37.4393094,14.9121794 L39.3099911,16.7762019" id="Path-31" stroke="#40418C" stroke-width="1.86999996"></path>
                </g>
            </g>
        </g>
    </g>
</svg>