<?xml version="1.0" encoding="UTF-8"?>
<svg width="67px" height="123px" viewBox="0 0 67 123" version="1.1" xmlns="http://www.w3.org/2000/svg" xmlns:xlink="http://www.w3.org/1999/xlink">
    <!-- Generator: Sketch 51.3 (57544) - http://www.bohemiancoding.com/sketch -->
    <title>Perso Petitgauche</title>
    <desc>Created with Sketch.</desc>
    <defs>
        <linearGradient x1="70.0728909%" y1="13.3586658%" x2="15.2914502%" y2="62.1381571%" id="linearGradient-1">
            <stop stop-color="#4A5992" stop-opacity="0" offset="0%"></stop>
            <stop stop-color="#000000" stop-opacity="0.6" offset="100%"></stop>
        </linearGradient>
        <linearGradient x1="-0.0356218193%" y1="50.3579914%" x2="100.265677%" y2="50.3579914%" id="linearGradient-2">
            <stop stop-color="#57C7F2" offset="0%"></stop>
            <stop stop-color="#2A306A" offset="100%"></stop>
        </linearGradient>
        <linearGradient x1="-0.132335311%" y1="50.0260402%" x2="100.14989%" y2="50.0260402%" id="linearGradient-3">
            <stop stop-color="#CEB051" offset="0%"></stop>
            <stop stop-color="#A1632A" offset="100%"></stop>
        </linearGradient>
        <linearGradient x1="-0.0224853384%" y1="50.075431%" x2="100.316796%" y2="50.075431%" id="linearGradient-4">
            <stop stop-color="#CEB051" offset="0%"></stop>
            <stop stop-color="#A1632A" offset="100%"></stop>
        </linearGradient>
        <linearGradient x1="50%" y1="5.92118946e-12%" x2="50%" y2="98.9583333%" id="linearGradient-5">
            <stop stop-color="#1571C4" offset="0%"></stop>
            <stop stop-color="#8CF5A7" offset="100%"></stop>
        </linearGradient>
    </defs>
    <g id="Symbols" stroke="none" stroke-width="1" fill="none" fill-rule="evenodd">
        <g id="Illustrations-/-Tertiaire-/-Compte" transform="translate(0.000000, -269.000000)" fill-rule="nonzero">
            <g id="Perso-Petitgauche">
                <g transform="translate(42.000000, 330.500000) scale(-1, 1) translate(-42.000000, -330.500000) translate(0.000000, 269.000000)">
                    <path d="M50.2918102,26.4088951 L41.9780561,11.9526065 C41.8975514,11.8216724 41.7794813,11.718141 41.6392953,11.6555595 C41.6392953,11.6555595 41.5687201,11.6555595 41.54049,11.6555595 L41.0182338,11.4575281 C40.8647255,11.3930877 40.6918311,11.3930877 40.5383227,11.4575281 L30.5166497,17.2711628 C30.5166497,17.2711628 29.7544379,17.8228215 30.4319595,18.9827194 L38.6751384,33.1278159 C39.000944,33.3412348 39.3880279,33.4406985 39.776111,33.4107178 C39.9157061,33.4099782 40.0524178,33.3708345 40.1713319,33.297557 L50.0518546,27.4980675 C50.2332977,27.3903087 50.362074,27.2120242 50.4075442,27.0056324 C50.4530143,26.7992406 50.4111132,26.5831937 50.2918102,26.4088951 Z" id="Shape" fill="#D9D9DB"></path>
                    <polygon id="Shape" fill="url(#linearGradient-1)" opacity="0.5" transform="translate(32.000000, 101.609323) scale(-1, 1) translate(-32.000000, -101.609323) " points="64 85.0728818 5.32921542 118.145764 0 115.038121 54 85.0728818"></polygon>
                    <polygon id="Shape" fill="url(#linearGradient-1)" opacity="0.5" transform="translate(48.000000, 99.609323) scale(-1, 1) translate(-48.000000, -99.609323) " points="76 85.0728818 25.3292154 114.145764 20 111.038121 67 85.0728818"></polygon>
                    <path d="M41.9780561,11.9526065 C41.8975514,11.8216724 41.7794813,11.718141 41.6392953,11.6555595 C41.6392953,11.6555595 41.5687201,11.6555595 41.54049,11.6555595 L41.2723044,11.5565438 L31.2506314,17.3701784 C31.2506314,17.3701784 30.4884196,17.9218372 31.1659412,19.0958802 C31.8434627,20.2699232 39.4091201,33.2409766 39.4091201,33.2409766 C39.5253114,33.3313976 39.6604332,33.3942663 39.804341,33.4248629 C39.9392347,33.422272 40.0709184,33.3831715 40.1854469,33.3117021 L50.0659697,27.5122126 C50.2440105,27.4090872 50.3729165,27.2382435 50.423417,27.0384751 C50.4739174,26.8387067 50.441727,26.6269651 50.3341553,26.4513304 L41.9780561,11.9526065 Z" id="Shape" fill="#FFFFFF"></path>
                    <path d="M48.8238468,25.814801 L41.7663306,13.5368573 C41.6752415,13.3897473 41.5352902,13.2795514 41.3711097,13.2256652 C41.2076045,13.1624388 41.0264736,13.1624388 40.8629685,13.2256652 L32.5068692,18.1623038 C32.3537429,18.2453686 32.2413576,18.3877866 32.1959951,18.5562529 C32.1506325,18.7247193 32.1762706,18.9044609 32.2669137,19.0534449 L39.3244299,31.3455337 C39.4175377,31.4937504 39.5641969,31.6001781 39.7337659,31.6425807 L39.9031463,31.6425807 C40.0190662,31.6446588 40.1326816,31.6100066 40.227792,31.5435651 L48.5980063,26.6210715 C48.85396,26.43957 48.948159,26.1032712 48.8238468,25.814801 Z" id="Shape" fill="url(#linearGradient-2)"></path>
                    <ellipse id="Oval" fill="#D9D9DB" cx="36.6568118" cy="14.9230767" rx="1" ry="1"></ellipse>
                    <path d="M41.074694,13.2256652 C41.0000767,13.2115061 40.9234707,13.2115061 40.8488535,13.2256652 L32.4927542,18.1623038 C32.3396278,18.2453686 32.2272426,18.3877866 32.18188,18.5562529 C32.1365175,18.7247193 32.1621555,18.9044609 32.2527987,19.0534449 L39.3103149,31.3455337 C39.4034227,31.4937504 39.5500819,31.6001781 39.7196509,31.6425807 L39.8890312,31.6425807 C40.0049512,31.6446588 40.1185665,31.6100066 40.213677,31.5435651 L41.0605789,31.0484867 L41.074694,13.2256652 Z" id="Shape" fill="#FFFFFF" opacity="0.2"></path>
                    <path d="M64.0398518,28.3750635 L54.5122049,25.5460442 C53.7762218,25.8761107 53.2080921,26.4949869 52.9411293,27.2574513 C52.6741666,28.0199157 52.7318709,28.8588504 53.1007017,29.5773967 L62.1766676,35.2354352 L64.0398518,28.3750635 Z" id="Shape" fill="#F1653C"></path>
                    <path d="M83.6032869,28.6862556 C83.4903666,27.7385341 83.3492163,27.2717459 83.3209862,27.0171342 C83.2699043,26.6843854 83.159965,26.3634452 82.9963405,26.0694127 C81.3166516,23.1413778 74.8801968,20.4113742 67.8226806,24.5275972 C64.1826897,26.4718125 61.0681608,29.2726069 58.7467147,32.6893179 C57.559784,33.925563 56.9144849,35.5855282 56.9541055,37.3006193 C57.0336745,38.5414732 57.5313443,39.7184755 58.3656088,40.6388621 L62.2472427,58.0090405 C67.9813586,61.9550042 75.8119393,60.5779611 79.8628033,54.9112644 C79.8897391,48.2480538 80.6422916,41.6076916 82.1070934,35.1081294 C83.3209862,31.1757926 83.631517,31.1616475 83.6032869,28.6862556 Z" id="Shape" fill="#F1653C"></path>
                    <path d="M83.6032869,28.6862556 C83.4903666,27.7385341 83.3492163,27.2717459 83.3209862,27.0171342 C83.2699043,26.6843854 83.159965,26.3634452 82.9963405,26.0694127 C82.0870888,24.7404199 80.7682438,23.746695 79.2417418,23.2403935 C74.6543563,23.4808601 65.4513551,26.5927813 62.0919774,33.439008 C59.4524663,38.7999995 61.499146,51.4598609 62.9388793,58.5041189 C73.3840034,64.1621575 79.8769183,54.9678448 79.8769183,54.9678448 C79.9038541,48.3046342 80.6564067,41.664272 82.1212085,35.1647098 C83.3209862,31.1757926 83.631517,31.1616475 83.6032869,28.6862556 Z" id="Shape" fill="#DE5D37"></path>
                    <path d="M68.8530779,21.3873858 L68.8530779,25.079256 C68.898631,26.5170292 70.0712801,27.6609221 71.506704,27.6678086 C71.8458704,27.6678086 72.1816797,27.6005037 72.4947563,27.4697773 C73.4985971,27.0661955 74.1575551,26.092442 74.1603301,25.0085305 L74.1603301,21.3873858 L68.8530779,21.3873858 Z" id="Shape" fill="#E6A99A"></path>
                    <ellipse id="Oval" fill="#FFC4B6" cx="71.506704" cy="13.494422" rx="8.79366525" ry="8.81239509"></ellipse>
                    <path d="M76.1646648,106.781333 L75.6847537,112.085744 C75.1488537,112.694692 74.3777033,113.043543 73.5674988,113.043543 C72.7572943,113.043543 71.9861438,112.694692 71.4502439,112.085744 L71.1255982,106.781333 L76.1646648,106.781333 Z" id="Shape" fill="#FFC4B6"></path>
                    <path d="M75.7976739,110.855121 L75.6847537,112.085744 C75.1488537,112.694692 74.3777033,113.043543 73.5674988,113.043543 C72.7572943,113.043543 71.9861438,112.694692 71.4502439,112.085744 L71.1679433,107.630039 C68.1332113,105.960917 65.2113995,105.649725 64.3221525,107.007655 C63.4329054,108.365584 65.2678597,111.604811 68.6836975,113.868026 C72.0995354,116.131242 75.7412138,116.697046 76.701036,115.18352 C76.8002753,115.027227 76.8718983,114.854966 76.9127615,114.674297 C76.9127615,114.674297 77.2656373,113.443673 75.7976739,110.855121 Z" id="Shape" fill="url(#linearGradient-3)"></path>
                    <path d="M71.478474,112.057454 L71.2949786,109.228435 C69.9681655,108.393874 68.7260426,108.096827 68.3872819,108.563615 C68.0485211,109.030403 68.9518832,110.374188 70.4621916,111.392635 C70.7860609,111.635132 71.1308968,111.848155 71.492589,112.029164 L71.478474,112.057454 Z" id="Shape" fill="#D3AF4A"></path>
                    <path d="M72.791172,112.93445 C71.7642494,113.182458 70.931127,113.93227 70.5751119,114.928909 C73.3981184,116.343418 75.9105942,116.442434 76.7292661,115.18352 C76.8285053,115.027227 76.9001284,114.854966 76.9409915,114.674297 C76.9409915,114.674297 77.2656373,113.443673 75.7976739,110.855121 L75.6847537,112.085744 C74.9401361,112.865295 73.8377058,113.188644 72.791172,112.93445 Z" id="Shape" fill="#A1632A"></path>
                    <path d="M68.1614413,113.146626 L67.6674152,118.465183 C67.1315153,119.07413 66.3603648,119.422982 65.5501603,119.422982 C64.7399558,119.422982 63.9688054,119.07413 63.4329054,118.465183 L63.0941447,113.146626 L68.1614413,113.146626 Z" id="Shape" fill="#FFC4B6"></path>
                    <path d="M76.9409915,113.952897 C76.9001284,114.133566 76.8285053,114.305827 76.7292661,114.46212 C75.7270988,115.989791 72.1277655,115.409842 68.7119276,113.146626 C66.1006466,111.420925 64.3503826,109.228435 64.110427,107.601749 C63.8140113,109.24258 65.6913106,111.845278 68.7119276,113.868026 C72.1277655,116.131242 75.7694439,116.697046 76.7292661,115.18352 C76.8285053,115.027227 76.9001284,114.854966 76.9409915,114.674297 C76.9849123,114.431091 76.9849123,114.181958 76.9409915,113.938752 L76.9409915,113.952897 Z" id="Shape" fill="#FFFFFF"></path>
                    <path d="M81.3166516,26.6210715 C79.7901944,24.1094128 77.0940372,22.5479599 74.1603301,22.4765583 L74.1603301,24.2164051 C75.6926527,24.9893068 76.895433,26.2900719 77.5479379,27.8799851 C76.1880947,30.0087716 73.7665422,31.2112446 71.2526335,31.0060514 C69.6557159,29.2478543 67.8275206,27.7155615 65.8183459,26.4513304 C65.3052337,26.2047927 64.7082294,26.2047927 64.1951172,26.4513304 C64.1951172,26.4513304 63.0517996,27.2434558 62.1202074,28.0355812 C61.6081236,28.3747698 61.2721867,28.9237721 61.2027303,29.5349614 C64.9290989,28.6579654 67.0745838,33.580459 67.6533002,35.3627411 C68.2320165,37.1450233 67.6533002,46.5090771 64.1668871,47.0465908 C62.2384389,47.4009007 60.2900173,46.5368316 59.2548558,44.8682459 L61.4709159,64.7986868 C61.1031966,69.5490184 61.1031966,74.3207575 61.4709159,79.0710891 C62.360163,89.3687193 63.0941447,111.675536 63.1364898,113.019321 C63.1295328,113.066213 63.1295328,113.113879 63.1364898,113.160772 C63.1364898,114.051913 64.2515773,114.759167 65.6489656,114.759167 C67.0463538,114.759167 68.1614413,114.051913 68.1614413,113.160772 C68.1614413,113.160772 68.1614413,113.160772 68.1614413,113.075901 C68.1614413,113.075901 69.2059537,99.6380594 69.9681655,90.1891349 C70.6598021,98.8883692 71.1679433,106.809623 71.1679433,106.809623 C71.2667485,107.630039 72.353606,108.224133 73.666304,108.224133 C74.979002,108.224133 76.1787798,107.516878 76.1787798,106.625737 C76.1845546,106.564578 76.1845546,106.50301 76.1787798,106.441851 C76.26347,104.560553 77.4350177,77.9111912 77.590283,74.8275602 C77.7737785,72.3663134 80.7097052,64.1480124 80.6109,58.6031346 C80.6109,56.8632877 80.6109,47.2870574 80.6109,47.2870574 C80.6109,47.2870574 84.4360738,31.0767769 81.3166516,26.6210715 Z" id="Shape" fill="#67A5EC"></path>
                    <path d="M64.519763,119.200728 C65.6211021,119.612367 66.8613574,119.322543 67.6674152,118.465183 L68.1614413,113.146626 L64.3503826,113.146626 L64.519763,119.200728 Z" id="Shape" fill="#C89285"></path>
                    <path d="M67.7803355,117.234559 L67.6674152,118.465183 C67.1315153,119.07413 66.3603648,119.422982 65.5501603,119.422982 C64.7399558,119.422982 63.9688054,119.07413 63.4329054,118.465183 L63.1506048,113.995332 C60.1017578,112.340356 57.1799461,112.015019 56.290699,113.372948 C55.401452,114.730877 57.2364062,117.984249 60.652244,120.247465 C64.0680819,122.51068 67.7097603,123.076484 68.6695825,121.562959 C68.7688218,121.406665 68.8404448,121.234404 68.881308,121.053735 C68.881308,121.053735 69.2624139,119.823112 67.7803355,117.234559 Z" id="Shape" fill="url(#linearGradient-4)"></path>
                    <path d="M81.3166516,26.6210715 C80.3913777,25.2465984 79.1400546,24.1238414 77.6749732,23.3535542 C76.5516223,23.1864409 75.4239286,23.6277164 74.7108164,24.5134521 C75.9719898,25.333784 76.9560787,26.517206 77.5338229,27.9082753 C76.1739797,30.0370618 73.7524272,31.2395348 71.2385184,31.0343416 C70.0635156,29.7247124 68.7528566,28.5440294 67.3286544,27.5122126 C65.2113995,27.6819537 64.3503826,30.0866201 64.3503826,30.0866201 L64.3503826,30.2705064 C65.8944939,31.6401447 67.028265,33.4129866 67.6250701,35.3910313 C68.1755564,37.0460076 67.6250701,45.3916145 64.8020636,46.8768496 C64.9008688,54.2322998 64.9008688,61.9413773 64.5056479,65.265475 C63.672861,72.5501997 64.2092322,80.8250811 64.110427,88.5058685 C64.0257368,95.2672246 64.3221525,110.911701 64.3786126,114.490411 C64.7946929,114.642287 65.2343789,114.718917 65.6771956,114.716732 C66.6863301,114.837385 67.6645322,114.319073 68.1332113,113.415383 C68.1332113,113.415383 68.3590518,110.586364 68.6413524,107.0218 C68.9801132,102.778271 69.4459093,96.8939106 69.8552452,91.815821 L69.9822805,90.2174251 C70.2786962,86.9216177 70.7586073,82.4093319 70.7586073,82.4093319 C70.7586073,82.4093319 71.4643589,76.1289091 71.8454648,75.1104621 C72.4966954,73.8931539 73.2573525,72.7379015 74.117985,71.6590586 C74.117985,71.6590586 72.7064818,84.9837394 72.2265707,88.6331743 C71.8172348,92.0138524 72.6359066,106.32869 72.7488269,108.167553 C72.9624142,108.220138 73.1793561,108.257947 73.3981184,108.280713 L75.0072321,108.040247 C75.6594997,107.864807 76.133042,107.299865 76.1928948,106.625737 C76.1986696,106.564578 76.1986696,106.50301 76.1928948,106.441851 C76.277585,104.560553 77.4491327,77.9111912 77.6043981,74.8275602 C77.7878935,72.3663134 80.7238203,64.1480124 80.625015,58.6031346 C80.625015,56.8632877 80.625015,47.2870574 80.625015,47.2870574 C80.625015,47.2870574 84.4360738,31.0767769 81.3166516,26.6210715 Z" id="Shape" fill="#4A8AD2"></path>
                    <path d="M60.3275983,30.5251181 C58.2043366,32.1278985 56.9552061,34.6367183 56.9541055,37.3006193 C56.9541055,41.8411953 58.2385735,51.6154569 58.040963,53.3128685 C57.8433526,55.0102801 55.401452,63.355887 55.401452,63.355887 C56.1185595,64.7754645 57.7051583,65.5267728 59.2548558,65.1806044 C59.2548558,65.1806044 63.0376845,57.5563974 64.3362675,54.4444762 C65.6348505,51.332555 67.0040087,41.3744071 67.0040087,41.3744071 L60.3275983,30.5251181 Z" id="Shape" fill="#F1653C"></path>
                    <path d="M67.0040087,41.3744071 L62.0919774,33.3824276 C62.0919774,33.3824276 60.1017578,37.9654389 61.2027303,48.40452 C61.3039487,51.2030756 60.9657693,54.0001909 60.200563,56.6935466 C59.0995905,60.2298207 57.6880872,64.2045928 57.3775565,65.1098789 C57.9868629,65.3220524 58.6455806,65.3466837 59.2689709,65.1806044 C59.2689709,65.1806044 63.0517996,57.5563974 64.3503826,54.4444762 C65.6489656,51.332555 67.0040087,41.3744071 67.0040087,41.3744071 Z" id="Shape" fill="#DE5D37"></path>
                    <path d="M55.401452,63.355887 L54.7662755,65.562522 L53.7782232,66.5385337 C53.3830023,66.9345964 50.7717213,68.7168785 50.9552167,69.6928902 C51.438293,71.1167538 52.4016531,72.3272704 53.679418,73.1160035 C55.1524715,72.9425961 56.5848254,72.5167594 57.9139277,71.8570899 C58.5212614,70.8425597 58.9956656,69.7538601 59.325431,68.6178629 C59.4948114,67.9813335 58.5773343,67.7974473 57.8433526,67.8257375 L59.325431,65.1806044 C57.7919515,65.2857791 56.3114044,64.5972993 55.401452,63.355887 Z" id="Shape" fill="#FFC4B6"></path>
                    <path d="M57.7445474,67.8257375 C57.55131,68.6657162 56.7978664,69.2555977 55.9378232,69.240247 L59.1419356,68.9432 C59.1419356,68.9432 59.8900323,67.7691571 57.7445474,67.8257375 Z" id="Shape" fill="#D8C7C7"></path>
                    <path d="M62.6142336,12.900328 C62.0801747,12.5839267 61.682693,12.0797137 61.499146,11.4858183 C61.0074541,10.1675782 61.3460085,8.68255263 62.360163,7.70907756 C63.1223747,6.7613561 65.9030361,6.42187379 66.3264871,5.65803858 C66.7499381,4.89420337 70.3775014,4.61130144 71.506704,4.68202692 C72.6359066,4.75275241 76.6304608,4.18694855 79.9757235,10.1278891 C79.9757235,10.1278891 80.4415196,10.7927086 81.5989523,12.1364927 C82.7563849,13.4802769 81.7683327,16.1537001 80.7097052,16.9458255 C79.736368,17.5296847 78.9709666,18.4055853 78.5218752,19.4495076 C77.9290438,20.8640173 78.2254595,22.2785269 74.1462151,22.4765583 C70.0669707,22.6745896 68.9942283,22.8443308 67.9214858,22.3209622 C66.6414849,21.6321607 66.1211,20.0614725 66.7358231,18.7422528 C66.9757786,18.1764489 67.2580793,17.5965 67.2580793,17.5965 C67.2580793,17.5965 68.4155119,17.6955157 68.8389629,15.7010571 C69.2624139,13.7065985 67.4274596,14.5553042 67.4274596,14.5553042 C67.4274596,14.5553042 67.1028139,12.9851985 66.0159564,12.9427632 C64.9290989,12.900328 63.3905604,13.6075828 62.6142336,12.900328 Z" id="Shape" fill="#333A8C"></path>
                    <path d="M50.3059252,23.7920522 C50.3059252,23.7920522 49.1767226,21.854174 48.894422,21.3166603 C48.6121213,20.7791467 46.4101763,19.7324095 46.4101763,19.7324095 L47.9063697,22.3209622 L49.317873,27.8799851 C49.317873,27.8799851 49.6425187,28.1204517 50.5458808,27.7102439 L53.1007017,29.5773967 C52.6597166,28.0693157 53.227611,26.4473692 54.5122049,25.5460442 L50.3059252,23.7920522 Z" id="Shape" fill="#FFC4B6"></path>
                    <path d="M71.1679433,106.795478 C71.2667485,107.615894 72.353606,108.209988 73.666304,108.209988 C74.979002,108.209988 76.1787798,107.502733 76.1787798,106.611592 C76.1845546,106.550433 76.1845546,106.488864 76.1787798,106.427706 C76.26347,104.546408 77.4350177,77.8970461 77.590283,74.8134151 C77.7314334,72.9321173 79.4816974,67.7408669 80.2580242,62.8183733 C78.5924504,67.3306591 72.1983406,72.7199408 71.5913942,75.676266 C70.9844478,78.6325911 69.9117054,90.1325545 69.9117054,90.1325545 C70.603342,98.8317889 71.1114831,106.753043 71.1114831,106.753043 L71.1679433,106.795478 Z" id="Shape" fill="#67A5EC"></path>
                    <path d="M81.6130673,12.1364927 C80.4556346,10.7219831 79.9898386,10.1278891 79.9898386,10.1278891 C77.5197079,5.75705425 74.7108164,4.90834847 72.9323223,4.73860731 L69.4741394,14.6401748 L68.895423,15.1635434 C68.9134423,15.3422596 68.9134423,15.5223408 68.895423,15.7010571 C68.4719721,17.6955157 67.3145394,17.5965 67.3145394,17.5965 C67.3145394,17.5965 66.1429917,21.8400289 69.6717498,22.6745896 C70.603342,22.6745896 71.94427,22.589719 74.2026752,22.4765583 C78.2819196,22.2643818 77.985504,20.7932918 78.5783353,19.4495076 C79.0274267,18.4055853 79.7928281,17.5296847 80.7661654,16.9458255 C81.7401026,16.1537001 82.8410751,13.5510024 81.6130673,12.1364927 Z" id="Shape" fill="#333A8C"></path>
                    <path d="M54.5122049,25.5460442 C53.0524646,25.0859636 51.6355841,24.4990722 50.2776952,23.7920522 C49.2614128,23.0989425 48.2592455,21.8824642 46.5936717,22.3775426 C44.9280978,22.872621 44.1517711,22.8160406 44.123541,23.2686837 C44.0953109,23.7213267 44.7022573,23.7071816 46.5936717,23.5657307 C47.5393789,23.5657307 48.3015906,26.7625225 50.9269867,26.0128324 L52.9313213,27.724389 C53.2912792,26.8901828 53.8311744,26.1462457 54.5122049,25.5460442 Z" id="Shape" fill="#FFC4B6"></path>
                    <path d="M63.4752505,118.465183 L63.2917551,115.636163 C61.8802519,114.815748 60.7087042,114.504556 60.3840584,114.971344 C60.0594127,115.438132 60.9486597,116.781916 62.4589682,117.800363 C62.789509,118.032867 63.1335849,118.245421 63.4893656,118.436893 L63.4752505,118.465183 Z" id="Shape" fill="#D3AF4A"></path>
                    <path d="M75.1907275,6.47845417 L66.9616636,1.76813706 C66.7930965,1.68244873 66.5938595,1.68244873 66.4252923,1.76813706 L58.1962284,6.47845417 C58.0290146,6.57412873 57.9258047,6.75228297 57.9258047,6.94524235 C57.9258047,7.13820174 58.0290146,7.31635597 58.1962284,7.41203054 L66.4252923,12.1223477 C66.5136687,12.1414757 66.6051016,12.1414757 66.693478,12.1223477 C66.78164,12.1433916 66.8735016,12.1433916 66.9616636,12.1223477 L75.1907275,7.41203054 C75.3662125,7.32285842 75.4767941,7.14241733 75.4767941,6.94524235 C75.4767941,6.74806738 75.3662125,6.56762629 75.1907275,6.47845417 Z" id="Shape" fill="#B29115"></path>
                    <path d="M69.1353786,1.34378416 C68.5810208,1.59473856 68.0516855,1.89786015 67.5544949,2.24907033 C67.0021096,2.63067587 66.5237862,3.11001811 66.1429917,3.66357998 C64.8816922,5.06180654 64.2937939,6.94295346 64.533878,8.81239509 C64.8161786,11.7970104 69.6717498,15.9698139 73.8497994,15.9698139 C78.0278491,15.9698139 81.7542176,13.3954063 81.7542176,10.2127596 C81.7542176,10.2127596 81.7542176,10.113744 81.7542176,9.9440028 C81.6540721,7.43997366 80.5980026,5.0701496 78.8041758,3.32409766 L78.1266543,2.786584 C76.6700196,1.75897178 75.0088016,1.05929158 73.2569681,0.735545015 C71.8533163,0.533464665 70.4213147,0.744790768 69.1353786,1.34378416 Z" id="Shape" fill="#DFB51A"></path>
                    <path d="M81.7401026,10.1561792 C81.7401026,10.1561792 81.7401026,10.0571636 81.7401026,9.88742241 C81.6399571,7.38339328 80.5838876,5.01356921 78.7900608,3.26751728 L78.1125392,2.73000361 C77.6223477,2.38277424 77.1082133,2.0708004 76.5740007,1.79642725 C74.3798278,1.90593516 72.3319116,2.9320742 70.9279877,4.62544654 C69.0136813,7.60484916 68.4978445,11.2750915 69.5164845,14.668465 C70.8357225,15.4524791 72.330993,15.8903394 73.8639145,15.9415237 C78.1972294,15.9132335 81.7401026,13.3388259 81.7401026,10.1561792 Z" id="Shape" fill="#B29115"></path>
                    <ellipse id="Oval" fill="url(#linearGradient-5)" opacity="0.3" style="mix-blend-mode: overlay;" transform="translate(75.256678, 3.647405) rotate(-57.580000) translate(-75.256678, -3.647405) " cx="74.9604406" cy="3.61911498" rx="1" ry="1"></ellipse>
                    <path d="M49.2755279,71.574188 L51.2516324,71.4185919 L51.8162337,71.4185919 L51.6045082,71.0932547 C51.3101121,70.6617707 51.0905912,70.1835348 50.9552167,69.6787451 L47.5111488,69.8626313 C46.8217581,68.9112626 45.755817,68.3047745 44.5873177,68.1990603 C43.4188184,68.0933461 42.2617232,68.4987159 41.4134548,69.3109726 L41.0464639,69.6787451 C40.3760452,70.3227176 39.94317,71.1753534 39.8184561,72.0975566 C40.6598822,71.1002428 42.0331874,70.7355445 43.2570311,71.1844 C44.4808748,71.6332556 45.2948385,72.8001542 45.2950887,74.1061603 C45.2897248,74.7370641 45.0981885,75.3522702 44.7446024,75.8742973 L44.2646913,76.3410855 L43.8977005,76.6947129 C46.266155,76.528577 48.144437,74.6281373 48.2874756,72.2531526 C48.3019935,72.0506673 48.3019935,71.8473989 48.2874756,71.6449135 L49.2755279,71.574188 Z" id="Shape" fill="#97979E"></path>
                    <path d="M41.0182338,69.6928902 C41.7761112,68.9614094 42.7890353,68.5553768 43.8412403,68.5612825 C45.1471129,68.5622754 46.3741436,69.1876073 47.1441579,70.2445489 L51.0540219,70.0323725 C51.0146066,69.9260104 50.9816119,69.8173684 50.9552167,69.7070353 L47.5111488,69.8909215 C46.8217581,68.9395528 45.755817,68.3330647 44.5873177,68.2273505 C43.4188184,68.1216363 42.2617232,68.5270061 41.4134548,69.3392628 L41.0464639,69.7070353 L41.0182338,69.6928902 Z" id="Shape" fill="#77777F"></path>
                    <polygon id="Shape" fill="#77777F" points="51.7880959 71.3761566 51.5762782 71.0508194 51.5762782 71.0508194"></polygon>
                    <polygon id="Shape" fill="#77777F" points="44.3637118 76.2279247 44.2366211 76.3693757 43.8694704 76.7230031 44.3495906 76.2562149"></polygon>
                    <path d="M47.8644366,71.7014939 C47.9182832,72.0148623 47.9513052,72.3314654 47.9632849,72.6492153 C47.9647507,73.6532642 47.5921206,74.6217257 46.9183174,75.3650739 C47.8665064,74.5703214 48.3889883,73.3770454 48.3304356,72.1399919 C48.3304356,72.0409762 48.3304356,71.7722194 48.3304356,71.6873488 L47.8644366,71.7014939 Z" id="Shape" fill="#77777F"></path>
                    <path d="M46.5513266,75.676266 C46.60525,75.6365198 46.6528594,75.5888297 46.6925384,75.534815 C46.6528594,75.5888297 46.60525,75.6365198 46.5513266,75.676266 Z" id="Shape" fill="#77777F"></path>
                    <path d="M58.4926441,67.8681727 C58.2535384,67.8395513 58.0118831,67.8395513 57.7727774,67.8681727 L59.2548558,65.2230397 C58.6394961,65.2564599 58.0239874,65.1600818 57.4481317,64.9401378 C57.1206345,65.9167385 56.7097791,66.8632454 56.2201238,67.7691571 C55.853133,68.1652198 54.7239304,68.9149099 54.6110101,69.3392628 C54.4980899,69.7636157 55.853133,71.6024782 55.853133,71.6024782 C56.4323233,72.0776291 57.2285655,72.1869356 57.9139277,71.8853801 C58.2747736,71.3371246 58.5596758,70.742314 58.7608297,70.1172431 L58.4926441,67.8681727 Z" id="Shape" fill="#E6A99A"></path>
                    <path d="M61.7814466,69.5655843 C61.839373,69.4518185 61.868459,69.3255107 61.8661368,69.1978118 C61.884174,68.9914339 61.8091452,68.7877904 61.661607,68.6426759 C61.5140688,68.4975614 61.3094913,68.426192 61.1039251,68.4481217 L60.9204297,68.4481217 L56.3330441,68.8583295 L55.9660533,69.226102 L56.6718049,70.6406116 L60.6663591,70.3152744 C60.8746589,70.3085993 61.0762038,70.2396325 61.2450754,70.1172431 L61.5979512,69.7494706 C61.669316,69.6921099 61.7271543,69.619658 61.7673316,69.5372941 L61.7814466,69.5655843 Z" id="Shape" fill="#97979E"></path>
                    <path d="M72.791172,106.781333 L72.791172,112.93445 C73.8153949,113.162019 74.8840943,112.840726 75.6141785,112.085744 L76.0940896,106.781333 L72.791172,106.781333 Z" id="Shape" fill="#C89285"></path>
                    <path d="M61.1039251,68.4481217 L60.9204297,68.4481217 L56.3330441,68.8583295 L55.9660533,69.226102 L60.5675539,68.8158942 L60.7510493,68.8158942 C60.9530384,68.8033365 61.1506878,68.87828 61.2937903,69.0216873 C61.4368928,69.1650945 61.511677,69.3631649 61.499146,69.5655843 C61.5246633,69.6868416 61.5246633,69.8120995 61.499146,69.9333568 C61.4591779,70.0162716 61.4068204,70.0925902 61.3438806,70.1596784 L61.6967565,69.7919059 C61.7681212,69.7345452 61.8259596,69.6620933 61.8661368,69.5797294 C61.9240632,69.4659636 61.9531492,69.3396558 61.950827,69.2119569 C61.9803115,68.9857918 61.8968744,68.7595665 61.7276989,68.6069843 C61.5585234,68.4544021 61.3252676,68.3949965 61.1039251,68.4481217 Z" id="Shape" fill="#77777F"></path>
                    <path d="M80.3285993,62.8608086 C79.326432,65.5483769 76.6586909,68.5188472 74.541436,71.1781253 C74.3014805,72.8472467 74.0191798,74.7426896 73.6945341,76.4825365 C72.9464374,80.4148733 72.8335171,101.844694 72.8194021,108.153407 C73.1057097,108.223654 73.3998046,108.256929 73.6945341,108.252423 C75.1060373,108.252423 76.2070099,107.545168 76.2070099,106.654027 C76.2127846,106.592868 76.2127846,106.5313 76.2070099,106.470141 C76.2917001,104.588843 77.4632478,77.9394814 77.6185131,74.8558504 C77.7737785,72.9745526 79.5240425,67.7125767 80.3285993,62.8608086 Z" id="Shape" fill="#4A8AD2"></path>
                    <path d="M67.6250701,118.465183 C66.8190123,119.322543 65.578757,119.612367 64.4774179,119.200728 C64.0086848,120.018157 63.8249326,120.968736 63.9551617,121.902441 C66.1429917,122.652131 67.9920609,122.595551 68.6695825,121.562959 C68.7688218,121.406665 68.8404448,121.234404 68.881308,121.053735 C68.881308,121.053735 69.2200688,119.823112 67.7379904,117.234559 L67.6250701,118.465183 Z" id="Shape" fill="#A1632A"></path>
                    <path d="M68.9236531,120.403061 C68.8827899,120.58373 68.8111669,120.755991 68.7119276,120.912284 C67.7097603,122.439955 64.124542,121.845861 60.6945891,119.59679 C58.0974232,117.871089 56.3330441,115.678599 56.0930886,114.051913 C55.8107879,115.692744 57.6739722,118.295442 60.6945891,120.31819 C64.124542,122.567261 67.7521054,123.14721 68.7119276,121.633684 C68.8111669,121.477391 68.8827899,121.305129 68.9236531,121.124461 C68.9680569,120.876545 68.9680569,120.622687 68.9236531,120.374771 L68.9236531,120.403061 Z" id="Shape" fill="#FFFFFF"></path>
                    <polygon id="Path-34" fill-opacity="0.5" fill="#D8D8D8" points="72.8542515 35.4977878 78.4219705 31.7611786 78.4219705 35.4977878 72.8542515 39.2343971"></polygon>
                </g>
            </g>
        </g>
    </g>
</svg>