<?xml version="1.0" encoding="UTF-8"?>
<svg width="389px" height="71px" viewBox="0 0 389 71" version="1.1" xmlns="http://www.w3.org/2000/svg" xmlns:xlink="http://www.w3.org/1999/xlink">
    <!-- Generator: Sketch 51.3 (57544) - http://www.bohemiancoding.com/sketch -->
    <title>Oval</title>
    <desc>Created with Sketch.</desc>
    <defs></defs>
    <g id="Design" stroke="none" stroke-width="1" fill="none" fill-rule="evenodd">
        <g id="3a-Tertiaire" transform="translate(-787.000000, -424.000000)" fill="#272C6C" fill-rule="nonzero">
            <g id="Cover">
                <g id="illu-cover" transform="translate(767.000000, 165.000000)">
                    <path d="M21.5044588,329.106796 C20.6735691,329.106796 20,328.435223 20,327.606796 C20,326.778369 20.6735691,326.106796 21.5044588,326.106796 C22.3353484,326.106796 23.0089176,326.778369 23.0089176,327.606796 C23.0089176,328.435223 22.3353484,329.106796 21.5044588,329.106796 Z M38.3310271,329.106796 C37.5001374,329.106796 36.8265683,328.435223 36.8265683,327.606796 C36.8265683,326.778369 37.5001374,326.106796 38.3310271,326.106796 C39.1619167,326.106796 39.8354859,326.778369 39.8354859,327.606796 C39.8354859,328.435223 39.1619167,329.106796 38.3310271,329.106796 Z M55.1575953,329.106796 C54.3267057,329.106796 53.6531365,328.435223 53.6531365,327.606796 C53.6531365,326.778369 54.3267057,326.106796 55.1575953,326.106796 C55.988485,326.106796 56.6620541,326.778369 56.6620541,327.606796 C56.6620541,328.435223 55.988485,329.106796 55.1575953,329.106796 Z M71.9841636,329.106796 C71.1532739,329.106796 70.4797048,328.435223 70.4797048,327.606796 C70.4797048,326.778369 71.1532739,326.106796 71.9841636,326.106796 C72.8150532,326.106796 73.4886224,326.778369 73.4886224,327.606796 C73.4886224,328.435223 72.8150532,329.106796 71.9841636,329.106796 Z M88.8107319,329.106796 C87.9798422,329.106796 87.3062731,328.435223 87.3062731,327.606796 C87.3062731,326.778369 87.9798422,326.106796 88.8107319,326.106796 C89.6416215,326.106796 90.3151907,326.778369 90.3151907,327.606796 C90.3151907,328.435223 89.6416215,329.106796 88.8107319,329.106796 Z M105.6373,329.106796 C104.80641,329.106796 104.132841,328.435223 104.132841,327.606796 C104.132841,326.778369 104.80641,326.106796 105.6373,326.106796 C106.46819,326.106796 107.141759,326.778369 107.141759,327.606796 C107.141759,328.435223 106.46819,329.106796 105.6373,329.106796 Z M122.463868,329.106796 C121.632979,329.106796 120.95941,328.435223 120.95941,327.606796 C120.95941,326.778369 121.632979,326.106796 122.463868,326.106796 C123.294758,326.106796 123.968327,326.778369 123.968327,327.606796 C123.968327,328.435223 123.294758,329.106796 122.463868,329.106796 Z M139.290437,329.106796 C138.459547,329.106796 137.785978,328.435223 137.785978,327.606796 C137.785978,326.778369 138.459547,326.106796 139.290437,326.106796 C140.121326,326.106796 140.794895,326.778369 140.794895,327.606796 C140.794895,328.435223 140.121326,329.106796 139.290437,329.106796 Z M156.117005,329.106796 C155.286115,329.106796 154.612546,328.435223 154.612546,327.606796 C154.612546,326.778369 155.286115,326.106796 156.117005,326.106796 C156.947895,326.106796 157.621464,326.778369 157.621464,327.606796 C157.621464,328.435223 156.947895,329.106796 156.117005,329.106796 Z M172.943573,329.106796 C172.112684,329.106796 171.439114,328.435223 171.439114,327.606796 C171.439114,326.778369 172.112684,326.106796 172.943573,326.106796 C173.774463,326.106796 174.448032,326.778369 174.448032,327.606796 C174.448032,328.435223 173.774463,329.106796 172.943573,329.106796 Z M189.770141,329.106796 C188.939252,329.106796 188.265683,328.435223 188.265683,327.606796 C188.265683,326.778369 188.939252,326.106796 189.770141,326.106796 C190.601031,326.106796 191.2746,326.778369 191.2746,327.606796 C191.2746,328.435223 190.601031,329.106796 189.770141,329.106796 Z M206.59671,329.106796 C205.76582,329.106796 205.092251,328.435223 205.092251,327.606796 C205.092251,326.778369 205.76582,326.106796 206.59671,326.106796 C207.427599,326.106796 208.101169,326.778369 208.101169,327.606796 C208.101169,328.435223 207.427599,329.106796 206.59671,329.106796 Z M21.5044588,312.330097 C20.6735691,312.330097 20,311.658524 20,310.830097 C20,310.00167 20.6735691,309.330097 21.5044588,309.330097 C22.3353484,309.330097 23.0089176,310.00167 23.0089176,310.830097 C23.0089176,311.658524 22.3353484,312.330097 21.5044588,312.330097 Z M38.3310271,312.330097 C37.5001374,312.330097 36.8265683,311.658524 36.8265683,310.830097 C36.8265683,310.00167 37.5001374,309.330097 38.3310271,309.330097 C39.1619167,309.330097 39.8354859,310.00167 39.8354859,310.830097 C39.8354859,311.658524 39.1619167,312.330097 38.3310271,312.330097 Z M55.1575953,312.330097 C54.3267057,312.330097 53.6531365,311.658524 53.6531365,310.830097 C53.6531365,310.00167 54.3267057,309.330097 55.1575953,309.330097 C55.988485,309.330097 56.6620541,310.00167 56.6620541,310.830097 C56.6620541,311.658524 55.988485,312.330097 55.1575953,312.330097 Z M71.9841636,312.330097 C71.1532739,312.330097 70.4797048,311.658524 70.4797048,310.830097 C70.4797048,310.00167 71.1532739,309.330097 71.9841636,309.330097 C72.8150532,309.330097 73.4886224,310.00167 73.4886224,310.830097 C73.4886224,311.658524 72.8150532,312.330097 71.9841636,312.330097 Z M88.8107319,312.330097 C87.9798422,312.330097 87.3062731,311.658524 87.3062731,310.830097 C87.3062731,310.00167 87.9798422,309.330097 88.8107319,309.330097 C89.6416215,309.330097 90.3151907,310.00167 90.3151907,310.830097 C90.3151907,311.658524 89.6416215,312.330097 88.8107319,312.330097 Z M105.6373,312.330097 C104.80641,312.330097 104.132841,311.658524 104.132841,310.830097 C104.132841,310.00167 104.80641,309.330097 105.6373,309.330097 C106.46819,309.330097 107.141759,310.00167 107.141759,310.830097 C107.141759,311.658524 106.46819,312.330097 105.6373,312.330097 Z M122.463868,312.330097 C121.632979,312.330097 120.95941,311.658524 120.95941,310.830097 C120.95941,310.00167 121.632979,309.330097 122.463868,309.330097 C123.294758,309.330097 123.968327,310.00167 123.968327,310.830097 C123.968327,311.658524 123.294758,312.330097 122.463868,312.330097 Z M139.290437,312.330097 C138.459547,312.330097 137.785978,311.658524 137.785978,310.830097 C137.785978,310.00167 138.459547,309.330097 139.290437,309.330097 C140.121326,309.330097 140.794895,310.00167 140.794895,310.830097 C140.794895,311.658524 140.121326,312.330097 139.290437,312.330097 Z M156.117005,312.330097 C155.286115,312.330097 154.612546,311.658524 154.612546,310.830097 C154.612546,310.00167 155.286115,309.330097 156.117005,309.330097 C156.947895,309.330097 157.621464,310.00167 157.621464,310.830097 C157.621464,311.658524 156.947895,312.330097 156.117005,312.330097 Z M172.943573,312.330097 C172.112684,312.330097 171.439114,311.658524 171.439114,310.830097 C171.439114,310.00167 172.112684,309.330097 172.943573,309.330097 C173.774463,309.330097 174.448032,310.00167 174.448032,310.830097 C174.448032,311.658524 173.774463,312.330097 172.943573,312.330097 Z M189.770141,312.330097 C188.939252,312.330097 188.265683,311.658524 188.265683,310.830097 C188.265683,310.00167 188.939252,309.330097 189.770141,309.330097 C190.601031,309.330097 191.2746,310.00167 191.2746,310.830097 C191.2746,311.658524 190.601031,312.330097 189.770141,312.330097 Z M206.59671,312.330097 C205.76582,312.330097 205.092251,311.658524 205.092251,310.830097 C205.092251,310.00167 205.76582,309.330097 206.59671,309.330097 C207.427599,309.330097 208.101169,310.00167 208.101169,310.830097 C208.101169,311.658524 207.427599,312.330097 206.59671,312.330097 Z M21.5044588,295.553398 C20.6735691,295.553398 20,294.881825 20,294.053398 C20,293.224971 20.6735691,292.553398 21.5044588,292.553398 C22.3353484,292.553398 23.0089176,293.224971 23.0089176,294.053398 C23.0089176,294.881825 22.3353484,295.553398 21.5044588,295.553398 Z M38.3310271,295.553398 C37.5001374,295.553398 36.8265683,294.881825 36.8265683,294.053398 C36.8265683,293.224971 37.5001374,292.553398 38.3310271,292.553398 C39.1619167,292.553398 39.8354859,293.224971 39.8354859,294.053398 C39.8354859,294.881825 39.1619167,295.553398 38.3310271,295.553398 Z M55.1575953,295.553398 C54.3267057,295.553398 53.6531365,294.881825 53.6531365,294.053398 C53.6531365,293.224971 54.3267057,292.553398 55.1575953,292.553398 C55.988485,292.553398 56.6620541,293.224971 56.6620541,294.053398 C56.6620541,294.881825 55.988485,295.553398 55.1575953,295.553398 Z M71.9841636,295.553398 C71.1532739,295.553398 70.4797048,294.881825 70.4797048,294.053398 C70.4797048,293.224971 71.1532739,292.553398 71.9841636,292.553398 C72.8150532,292.553398 73.4886224,293.224971 73.4886224,294.053398 C73.4886224,294.881825 72.8150532,295.553398 71.9841636,295.553398 Z M88.8107319,295.553398 C87.9798422,295.553398 87.3062731,294.881825 87.3062731,294.053398 C87.3062731,293.224971 87.9798422,292.553398 88.8107319,292.553398 C89.6416215,292.553398 90.3151907,293.224971 90.3151907,294.053398 C90.3151907,294.881825 89.6416215,295.553398 88.8107319,295.553398 Z M105.6373,295.553398 C104.80641,295.553398 104.132841,294.881825 104.132841,294.053398 C104.132841,293.224971 104.80641,292.553398 105.6373,292.553398 C106.46819,292.553398 107.141759,293.224971 107.141759,294.053398 C107.141759,294.881825 106.46819,295.553398 105.6373,295.553398 Z M122.463868,295.553398 C121.632979,295.553398 120.95941,294.881825 120.95941,294.053398 C120.95941,293.224971 121.632979,292.553398 122.463868,292.553398 C123.294758,292.553398 123.968327,293.224971 123.968327,294.053398 C123.968327,294.881825 123.294758,295.553398 122.463868,295.553398 Z M139.290437,295.553398 C138.459547,295.553398 137.785978,294.881825 137.785978,294.053398 C137.785978,293.224971 138.459547,292.553398 139.290437,292.553398 C140.121326,292.553398 140.794895,293.224971 140.794895,294.053398 C140.794895,294.881825 140.121326,295.553398 139.290437,295.553398 Z M156.117005,295.553398 C155.286115,295.553398 154.612546,294.881825 154.612546,294.053398 C154.612546,293.224971 155.286115,292.553398 156.117005,292.553398 C156.947895,292.553398 157.621464,293.224971 157.621464,294.053398 C157.621464,294.881825 156.947895,295.553398 156.117005,295.553398 Z M172.943573,295.553398 C172.112684,295.553398 171.439114,294.881825 171.439114,294.053398 C171.439114,293.224971 172.112684,292.553398 172.943573,292.553398 C173.774463,292.553398 174.448032,293.224971 174.448032,294.053398 C174.448032,294.881825 173.774463,295.553398 172.943573,295.553398 Z M189.770141,295.553398 C188.939252,295.553398 188.265683,294.881825 188.265683,294.053398 C188.265683,293.224971 188.939252,292.553398 189.770141,292.553398 C190.601031,292.553398 191.2746,293.224971 191.2746,294.053398 C191.2746,294.881825 190.601031,295.553398 189.770141,295.553398 Z M206.59671,295.553398 C205.76582,295.553398 205.092251,294.881825 205.092251,294.053398 C205.092251,293.224971 205.76582,292.553398 206.59671,292.553398 C207.427599,292.553398 208.101169,293.224971 208.101169,294.053398 C208.101169,294.881825 207.427599,295.553398 206.59671,295.553398 Z M21.5044588,278.776699 C20.6735691,278.776699 20,278.105126 20,277.276699 C20,276.448272 20.6735691,275.776699 21.5044588,275.776699 C22.3353484,275.776699 23.0089176,276.448272 23.0089176,277.276699 C23.0089176,278.105126 22.3353484,278.776699 21.5044588,278.776699 Z M38.3310271,278.776699 C37.5001374,278.776699 36.8265683,278.105126 36.8265683,277.276699 C36.8265683,276.448272 37.5001374,275.776699 38.3310271,275.776699 C39.1619167,275.776699 39.8354859,276.448272 39.8354859,277.276699 C39.8354859,278.105126 39.1619167,278.776699 38.3310271,278.776699 Z M55.1575953,278.776699 C54.3267057,278.776699 53.6531365,278.105126 53.6531365,277.276699 C53.6531365,276.448272 54.3267057,275.776699 55.1575953,275.776699 C55.988485,275.776699 56.6620541,276.448272 56.6620541,277.276699 C56.6620541,278.105126 55.988485,278.776699 55.1575953,278.776699 Z M71.9841636,278.776699 C71.1532739,278.776699 70.4797048,278.105126 70.4797048,277.276699 C70.4797048,276.448272 71.1532739,275.776699 71.9841636,275.776699 C72.8150532,275.776699 73.4886224,276.448272 73.4886224,277.276699 C73.4886224,278.105126 72.8150532,278.776699 71.9841636,278.776699 Z M88.8107319,278.776699 C87.9798422,278.776699 87.3062731,278.105126 87.3062731,277.276699 C87.3062731,276.448272 87.9798422,275.776699 88.8107319,275.776699 C89.6416215,275.776699 90.3151907,276.448272 90.3151907,277.276699 C90.3151907,278.105126 89.6416215,278.776699 88.8107319,278.776699 Z M105.6373,278.776699 C104.80641,278.776699 104.132841,278.105126 104.132841,277.276699 C104.132841,276.448272 104.80641,275.776699 105.6373,275.776699 C106.46819,275.776699 107.141759,276.448272 107.141759,277.276699 C107.141759,278.105126 106.46819,278.776699 105.6373,278.776699 Z M122.463868,278.776699 C121.632979,278.776699 120.95941,278.105126 120.95941,277.276699 C120.95941,276.448272 121.632979,275.776699 122.463868,275.776699 C123.294758,275.776699 123.968327,276.448272 123.968327,277.276699 C123.968327,278.105126 123.294758,278.776699 122.463868,278.776699 Z M139.290437,278.776699 C138.459547,278.776699 137.785978,278.105126 137.785978,277.276699 C137.785978,276.448272 138.459547,275.776699 139.290437,275.776699 C140.121326,275.776699 140.794895,276.448272 140.794895,277.276699 C140.794895,278.105126 140.121326,278.776699 139.290437,278.776699 Z M156.117005,278.776699 C155.286115,278.776699 154.612546,278.105126 154.612546,277.276699 C154.612546,276.448272 155.286115,275.776699 156.117005,275.776699 C156.947895,275.776699 157.621464,276.448272 157.621464,277.276699 C157.621464,278.105126 156.947895,278.776699 156.117005,278.776699 Z M172.943573,278.776699 C172.112684,278.776699 171.439114,278.105126 171.439114,277.276699 C171.439114,276.448272 172.112684,275.776699 172.943573,275.776699 C173.774463,275.776699 174.448032,276.448272 174.448032,277.276699 C174.448032,278.105126 173.774463,278.776699 172.943573,278.776699 Z M189.770141,278.776699 C188.939252,278.776699 188.265683,278.105126 188.265683,277.276699 C188.265683,276.448272 188.939252,275.776699 189.770141,275.776699 C190.601031,275.776699 191.2746,276.448272 191.2746,277.276699 C191.2746,278.105126 190.601031,278.776699 189.770141,278.776699 Z M206.59671,278.776699 C205.76582,278.776699 205.092251,278.105126 205.092251,277.276699 C205.092251,276.448272 205.76582,275.776699 206.59671,275.776699 C207.427599,275.776699 208.101169,276.448272 208.101169,277.276699 C208.101169,278.105126 207.427599,278.776699 206.59671,278.776699 Z M21.5044588,262 C20.6735691,262 20,261.328427 20,260.5 C20,259.671573 20.6735691,259 21.5044588,259 C22.3353484,259 23.0089176,259.671573 23.0089176,260.5 C23.0089176,261.328427 22.3353484,262 21.5044588,262 Z M38.3310271,262 C37.5001374,262 36.8265683,261.328427 36.8265683,260.5 C36.8265683,259.671573 37.5001374,259 38.3310271,259 C39.1619167,259 39.8354859,259.671573 39.8354859,260.5 C39.8354859,261.328427 39.1619167,262 38.3310271,262 Z M55.1575953,262 C54.3267057,262 53.6531365,261.328427 53.6531365,260.5 C53.6531365,259.671573 54.3267057,259 55.1575953,259 C55.988485,259 56.6620541,259.671573 56.6620541,260.5 C56.6620541,261.328427 55.988485,262 55.1575953,262 Z M71.9841636,262 C71.1532739,262 70.4797048,261.328427 70.4797048,260.5 C70.4797048,259.671573 71.1532739,259 71.9841636,259 C72.8150532,259 73.4886224,259.671573 73.4886224,260.5 C73.4886224,261.328427 72.8150532,262 71.9841636,262 Z M88.8107319,262 C87.9798422,262 87.3062731,261.328427 87.3062731,260.5 C87.3062731,259.671573 87.9798422,259 88.8107319,259 C89.6416215,259 90.3151907,259.671573 90.3151907,260.5 C90.3151907,261.328427 89.6416215,262 88.8107319,262 Z M105.6373,262 C104.80641,262 104.132841,261.328427 104.132841,260.5 C104.132841,259.671573 104.80641,259 105.6373,259 C106.46819,259 107.141759,259.671573 107.141759,260.5 C107.141759,261.328427 106.46819,262 105.6373,262 Z M122.463868,262 C121.632979,262 120.95941,261.328427 120.95941,260.5 C120.95941,259.671573 121.632979,259 122.463868,259 C123.294758,259 123.968327,259.671573 123.968327,260.5 C123.968327,261.328427 123.294758,262 122.463868,262 Z M139.290437,262 C138.459547,262 137.785978,261.328427 137.785978,260.5 C137.785978,259.671573 138.459547,259 139.290437,259 C140.121326,259 140.794895,259.671573 140.794895,260.5 C140.794895,261.328427 140.121326,262 139.290437,262 Z M156.117005,262 C155.286115,262 154.612546,261.328427 154.612546,260.5 C154.612546,259.671573 155.286115,259 156.117005,259 C156.947895,259 157.621464,259.671573 157.621464,260.5 C157.621464,261.328427 156.947895,262 156.117005,262 Z M172.943573,262 C172.112684,262 171.439114,261.328427 171.439114,260.5 C171.439114,259.671573 172.112684,259 172.943573,259 C173.774463,259 174.448032,259.671573 174.448032,260.5 C174.448032,261.328427 173.774463,262 172.943573,262 Z M189.770141,262 C188.939252,262 188.265683,261.328427 188.265683,260.5 C188.265683,259.671573 188.939252,259 189.770141,259 C190.601031,259 191.2746,259.671573 191.2746,260.5 C191.2746,261.328427 190.601031,262 189.770141,262 Z M206.59671,262 C205.76582,262 205.092251,261.328427 205.092251,260.5 C205.092251,259.671573 205.76582,259 206.59671,259 C207.427599,259 208.101169,259.671573 208.101169,260.5 C208.101169,261.328427 207.427599,262 206.59671,262 Z M221.504459,329.106796 C220.673569,329.106796 220,328.435223 220,327.606796 C220,326.778369 220.673569,326.106796 221.504459,326.106796 C222.335348,326.106796 223.008918,326.778369 223.008918,327.606796 C223.008918,328.435223 222.335348,329.106796 221.504459,329.106796 Z M238.331027,329.106796 C237.500137,329.106796 236.826568,328.435223 236.826568,327.606796 C236.826568,326.778369 237.500137,326.106796 238.331027,326.106796 C239.161917,326.106796 239.835486,326.778369 239.835486,327.606796 C239.835486,328.435223 239.161917,329.106796 238.331027,329.106796 Z M255.157595,329.106796 C254.326706,329.106796 253.653137,328.435223 253.653137,327.606796 C253.653137,326.778369 254.326706,326.106796 255.157595,326.106796 C255.988485,326.106796 256.662054,326.778369 256.662054,327.606796 C256.662054,328.435223 255.988485,329.106796 255.157595,329.106796 Z M271.984164,329.106796 C271.153274,329.106796 270.479705,328.435223 270.479705,327.606796 C270.479705,326.778369 271.153274,326.106796 271.984164,326.106796 C272.815053,326.106796 273.488622,326.778369 273.488622,327.606796 C273.488622,328.435223 272.815053,329.106796 271.984164,329.106796 Z M288.810732,329.106796 C287.979842,329.106796 287.306273,328.435223 287.306273,327.606796 C287.306273,326.778369 287.979842,326.106796 288.810732,326.106796 C289.641622,326.106796 290.315191,326.778369 290.315191,327.606796 C290.315191,328.435223 289.641622,329.106796 288.810732,329.106796 Z M305.6373,329.106796 C304.80641,329.106796 304.132841,328.435223 304.132841,327.606796 C304.132841,326.778369 304.80641,326.106796 305.6373,326.106796 C306.46819,326.106796 307.141759,326.778369 307.141759,327.606796 C307.141759,328.435223 306.46819,329.106796 305.6373,329.106796 Z M322.463868,329.106796 C321.632979,329.106796 320.95941,328.435223 320.95941,327.606796 C320.95941,326.778369 321.632979,326.106796 322.463868,326.106796 C323.294758,326.106796 323.968327,326.778369 323.968327,327.606796 C323.968327,328.435223 323.294758,329.106796 322.463868,329.106796 Z M339.290437,329.106796 C338.459547,329.106796 337.785978,328.435223 337.785978,327.606796 C337.785978,326.778369 338.459547,326.106796 339.290437,326.106796 C340.121326,326.106796 340.794895,326.778369 340.794895,327.606796 C340.794895,328.435223 340.121326,329.106796 339.290437,329.106796 Z M356.117005,329.106796 C355.286115,329.106796 354.612546,328.435223 354.612546,327.606796 C354.612546,326.778369 355.286115,326.106796 356.117005,326.106796 C356.947895,326.106796 357.621464,326.778369 357.621464,327.606796 C357.621464,328.435223 356.947895,329.106796 356.117005,329.106796 Z M372.943573,329.106796 C372.112684,329.106796 371.439114,328.435223 371.439114,327.606796 C371.439114,326.778369 372.112684,326.106796 372.943573,326.106796 C373.774463,326.106796 374.448032,326.778369 374.448032,327.606796 C374.448032,328.435223 373.774463,329.106796 372.943573,329.106796 Z M389.770141,329.106796 C388.939252,329.106796 388.265683,328.435223 388.265683,327.606796 C388.265683,326.778369 388.939252,326.106796 389.770141,326.106796 C390.601031,326.106796 391.2746,326.778369 391.2746,327.606796 C391.2746,328.435223 390.601031,329.106796 389.770141,329.106796 Z M406.59671,329.106796 C405.76582,329.106796 405.092251,328.435223 405.092251,327.606796 C405.092251,326.778369 405.76582,326.106796 406.59671,326.106796 C407.427599,326.106796 408.101169,326.778369 408.101169,327.606796 C408.101169,328.435223 407.427599,329.106796 406.59671,329.106796 Z M221.504459,312.330097 C220.673569,312.330097 220,311.658524 220,310.830097 C220,310.00167 220.673569,309.330097 221.504459,309.330097 C222.335348,309.330097 223.008918,310.00167 223.008918,310.830097 C223.008918,311.658524 222.335348,312.330097 221.504459,312.330097 Z M238.331027,312.330097 C237.500137,312.330097 236.826568,311.658524 236.826568,310.830097 C236.826568,310.00167 237.500137,309.330097 238.331027,309.330097 C239.161917,309.330097 239.835486,310.00167 239.835486,310.830097 C239.835486,311.658524 239.161917,312.330097 238.331027,312.330097 Z M255.157595,312.330097 C254.326706,312.330097 253.653137,311.658524 253.653137,310.830097 C253.653137,310.00167 254.326706,309.330097 255.157595,309.330097 C255.988485,309.330097 256.662054,310.00167 256.662054,310.830097 C256.662054,311.658524 255.988485,312.330097 255.157595,312.330097 Z M271.984164,312.330097 C271.153274,312.330097 270.479705,311.658524 270.479705,310.830097 C270.479705,310.00167 271.153274,309.330097 271.984164,309.330097 C272.815053,309.330097 273.488622,310.00167 273.488622,310.830097 C273.488622,311.658524 272.815053,312.330097 271.984164,312.330097 Z M288.810732,312.330097 C287.979842,312.330097 287.306273,311.658524 287.306273,310.830097 C287.306273,310.00167 287.979842,309.330097 288.810732,309.330097 C289.641622,309.330097 290.315191,310.00167 290.315191,310.830097 C290.315191,311.658524 289.641622,312.330097 288.810732,312.330097 Z M305.6373,312.330097 C304.80641,312.330097 304.132841,311.658524 304.132841,310.830097 C304.132841,310.00167 304.80641,309.330097 305.6373,309.330097 C306.46819,309.330097 307.141759,310.00167 307.141759,310.830097 C307.141759,311.658524 306.46819,312.330097 305.6373,312.330097 Z M322.463868,312.330097 C321.632979,312.330097 320.95941,311.658524 320.95941,310.830097 C320.95941,310.00167 321.632979,309.330097 322.463868,309.330097 C323.294758,309.330097 323.968327,310.00167 323.968327,310.830097 C323.968327,311.658524 323.294758,312.330097 322.463868,312.330097 Z M339.290437,312.330097 C338.459547,312.330097 337.785978,311.658524 337.785978,310.830097 C337.785978,310.00167 338.459547,309.330097 339.290437,309.330097 C340.121326,309.330097 340.794895,310.00167 340.794895,310.830097 C340.794895,311.658524 340.121326,312.330097 339.290437,312.330097 Z M356.117005,312.330097 C355.286115,312.330097 354.612546,311.658524 354.612546,310.830097 C354.612546,310.00167 355.286115,309.330097 356.117005,309.330097 C356.947895,309.330097 357.621464,310.00167 357.621464,310.830097 C357.621464,311.658524 356.947895,312.330097 356.117005,312.330097 Z M372.943573,312.330097 C372.112684,312.330097 371.439114,311.658524 371.439114,310.830097 C371.439114,310.00167 372.112684,309.330097 372.943573,309.330097 C373.774463,309.330097 374.448032,310.00167 374.448032,310.830097 C374.448032,311.658524 373.774463,312.330097 372.943573,312.330097 Z M389.770141,312.330097 C388.939252,312.330097 388.265683,311.658524 388.265683,310.830097 C388.265683,310.00167 388.939252,309.330097 389.770141,309.330097 C390.601031,309.330097 391.2746,310.00167 391.2746,310.830097 C391.2746,311.658524 390.601031,312.330097 389.770141,312.330097 Z M406.59671,312.330097 C405.76582,312.330097 405.092251,311.658524 405.092251,310.830097 C405.092251,310.00167 405.76582,309.330097 406.59671,309.330097 C407.427599,309.330097 408.101169,310.00167 408.101169,310.830097 C408.101169,311.658524 407.427599,312.330097 406.59671,312.330097 Z M221.504459,295.553398 C220.673569,295.553398 220,294.881825 220,294.053398 C220,293.224971 220.673569,292.553398 221.504459,292.553398 C222.335348,292.553398 223.008918,293.224971 223.008918,294.053398 C223.008918,294.881825 222.335348,295.553398 221.504459,295.553398 Z M238.331027,295.553398 C237.500137,295.553398 236.826568,294.881825 236.826568,294.053398 C236.826568,293.224971 237.500137,292.553398 238.331027,292.553398 C239.161917,292.553398 239.835486,293.224971 239.835486,294.053398 C239.835486,294.881825 239.161917,295.553398 238.331027,295.553398 Z M255.157595,295.553398 C254.326706,295.553398 253.653137,294.881825 253.653137,294.053398 C253.653137,293.224971 254.326706,292.553398 255.157595,292.553398 C255.988485,292.553398 256.662054,293.224971 256.662054,294.053398 C256.662054,294.881825 255.988485,295.553398 255.157595,295.553398 Z M271.984164,295.553398 C271.153274,295.553398 270.479705,294.881825 270.479705,294.053398 C270.479705,293.224971 271.153274,292.553398 271.984164,292.553398 C272.815053,292.553398 273.488622,293.224971 273.488622,294.053398 C273.488622,294.881825 272.815053,295.553398 271.984164,295.553398 Z M288.810732,295.553398 C287.979842,295.553398 287.306273,294.881825 287.306273,294.053398 C287.306273,293.224971 287.979842,292.553398 288.810732,292.553398 C289.641622,292.553398 290.315191,293.224971 290.315191,294.053398 C290.315191,294.881825 289.641622,295.553398 288.810732,295.553398 Z M305.6373,295.553398 C304.80641,295.553398 304.132841,294.881825 304.132841,294.053398 C304.132841,293.224971 304.80641,292.553398 305.6373,292.553398 C306.46819,292.553398 307.141759,293.224971 307.141759,294.053398 C307.141759,294.881825 306.46819,295.553398 305.6373,295.553398 Z M322.463868,295.553398 C321.632979,295.553398 320.95941,294.881825 320.95941,294.053398 C320.95941,293.224971 321.632979,292.553398 322.463868,292.553398 C323.294758,292.553398 323.968327,293.224971 323.968327,294.053398 C323.968327,294.881825 323.294758,295.553398 322.463868,295.553398 Z M339.290437,295.553398 C338.459547,295.553398 337.785978,294.881825 337.785978,294.053398 C337.785978,293.224971 338.459547,292.553398 339.290437,292.553398 C340.121326,292.553398 340.794895,293.224971 340.794895,294.053398 C340.794895,294.881825 340.121326,295.553398 339.290437,295.553398 Z M356.117005,295.553398 C355.286115,295.553398 354.612546,294.881825 354.612546,294.053398 C354.612546,293.224971 355.286115,292.553398 356.117005,292.553398 C356.947895,292.553398 357.621464,293.224971 357.621464,294.053398 C357.621464,294.881825 356.947895,295.553398 356.117005,295.553398 Z M372.943573,295.553398 C372.112684,295.553398 371.439114,294.881825 371.439114,294.053398 C371.439114,293.224971 372.112684,292.553398 372.943573,292.553398 C373.774463,292.553398 374.448032,293.224971 374.448032,294.053398 C374.448032,294.881825 373.774463,295.553398 372.943573,295.553398 Z M389.770141,295.553398 C388.939252,295.553398 388.265683,294.881825 388.265683,294.053398 C388.265683,293.224971 388.939252,292.553398 389.770141,292.553398 C390.601031,292.553398 391.2746,293.224971 391.2746,294.053398 C391.2746,294.881825 390.601031,295.553398 389.770141,295.553398 Z M406.59671,295.553398 C405.76582,295.553398 405.092251,294.881825 405.092251,294.053398 C405.092251,293.224971 405.76582,292.553398 406.59671,292.553398 C407.427599,292.553398 408.101169,293.224971 408.101169,294.053398 C408.101169,294.881825 407.427599,295.553398 406.59671,295.553398 Z M221.504459,278.776699 C220.673569,278.776699 220,278.105126 220,277.276699 C220,276.448272 220.673569,275.776699 221.504459,275.776699 C222.335348,275.776699 223.008918,276.448272 223.008918,277.276699 C223.008918,278.105126 222.335348,278.776699 221.504459,278.776699 Z M238.331027,278.776699 C237.500137,278.776699 236.826568,278.105126 236.826568,277.276699 C236.826568,276.448272 237.500137,275.776699 238.331027,275.776699 C239.161917,275.776699 239.835486,276.448272 239.835486,277.276699 C239.835486,278.105126 239.161917,278.776699 238.331027,278.776699 Z M255.157595,278.776699 C254.326706,278.776699 253.653137,278.105126 253.653137,277.276699 C253.653137,276.448272 254.326706,275.776699 255.157595,275.776699 C255.988485,275.776699 256.662054,276.448272 256.662054,277.276699 C256.662054,278.105126 255.988485,278.776699 255.157595,278.776699 Z M271.984164,278.776699 C271.153274,278.776699 270.479705,278.105126 270.479705,277.276699 C270.479705,276.448272 271.153274,275.776699 271.984164,275.776699 C272.815053,275.776699 273.488622,276.448272 273.488622,277.276699 C273.488622,278.105126 272.815053,278.776699 271.984164,278.776699 Z M288.810732,278.776699 C287.979842,278.776699 287.306273,278.105126 287.306273,277.276699 C287.306273,276.448272 287.979842,275.776699 288.810732,275.776699 C289.641622,275.776699 290.315191,276.448272 290.315191,277.276699 C290.315191,278.105126 289.641622,278.776699 288.810732,278.776699 Z M305.6373,278.776699 C304.80641,278.776699 304.132841,278.105126 304.132841,277.276699 C304.132841,276.448272 304.80641,275.776699 305.6373,275.776699 C306.46819,275.776699 307.141759,276.448272 307.141759,277.276699 C307.141759,278.105126 306.46819,278.776699 305.6373,278.776699 Z M322.463868,278.776699 C321.632979,278.776699 320.95941,278.105126 320.95941,277.276699 C320.95941,276.448272 321.632979,275.776699 322.463868,275.776699 C323.294758,275.776699 323.968327,276.448272 323.968327,277.276699 C323.968327,278.105126 323.294758,278.776699 322.463868,278.776699 Z M339.290437,278.776699 C338.459547,278.776699 337.785978,278.105126 337.785978,277.276699 C337.785978,276.448272 338.459547,275.776699 339.290437,275.776699 C340.121326,275.776699 340.794895,276.448272 340.794895,277.276699 C340.794895,278.105126 340.121326,278.776699 339.290437,278.776699 Z M356.117005,278.776699 C355.286115,278.776699 354.612546,278.105126 354.612546,277.276699 C354.612546,276.448272 355.286115,275.776699 356.117005,275.776699 C356.947895,275.776699 357.621464,276.448272 357.621464,277.276699 C357.621464,278.105126 356.947895,278.776699 356.117005,278.776699 Z M372.943573,278.776699 C372.112684,278.776699 371.439114,278.105126 371.439114,277.276699 C371.439114,276.448272 372.112684,275.776699 372.943573,275.776699 C373.774463,275.776699 374.448032,276.448272 374.448032,277.276699 C374.448032,278.105126 373.774463,278.776699 372.943573,278.776699 Z M389.770141,278.776699 C388.939252,278.776699 388.265683,278.105126 388.265683,277.276699 C388.265683,276.448272 388.939252,275.776699 389.770141,275.776699 C390.601031,275.776699 391.2746,276.448272 391.2746,277.276699 C391.2746,278.105126 390.601031,278.776699 389.770141,278.776699 Z M406.59671,278.776699 C405.76582,278.776699 405.092251,278.105126 405.092251,277.276699 C405.092251,276.448272 405.76582,275.776699 406.59671,275.776699 C407.427599,275.776699 408.101169,276.448272 408.101169,277.276699 C408.101169,278.105126 407.427599,278.776699 406.59671,278.776699 Z M221.504459,262 C220.673569,262 220,261.328427 220,260.5 C220,259.671573 220.673569,259 221.504459,259 C222.335348,259 223.008918,259.671573 223.008918,260.5 C223.008918,261.328427 222.335348,262 221.504459,262 Z M238.331027,262 C237.500137,262 236.826568,261.328427 236.826568,260.5 C236.826568,259.671573 237.500137,259 238.331027,259 C239.161917,259 239.835486,259.671573 239.835486,260.5 C239.835486,261.328427 239.161917,262 238.331027,262 Z M255.157595,262 C254.326706,262 253.653137,261.328427 253.653137,260.5 C253.653137,259.671573 254.326706,259 255.157595,259 C255.988485,259 256.662054,259.671573 256.662054,260.5 C256.662054,261.328427 255.988485,262 255.157595,262 Z M271.984164,262 C271.153274,262 270.479705,261.328427 270.479705,260.5 C270.479705,259.671573 271.153274,259 271.984164,259 C272.815053,259 273.488622,259.671573 273.488622,260.5 C273.488622,261.328427 272.815053,262 271.984164,262 Z M288.810732,262 C287.979842,262 287.306273,261.328427 287.306273,260.5 C287.306273,259.671573 287.979842,259 288.810732,259 C289.641622,259 290.315191,259.671573 290.315191,260.5 C290.315191,261.328427 289.641622,262 288.810732,262 Z M305.6373,262 C304.80641,262 304.132841,261.328427 304.132841,260.5 C304.132841,259.671573 304.80641,259 305.6373,259 C306.46819,259 307.141759,259.671573 307.141759,260.5 C307.141759,261.328427 306.46819,262 305.6373,262 Z M322.463868,262 C321.632979,262 320.95941,261.328427 320.95941,260.5 C320.95941,259.671573 321.632979,259 322.463868,259 C323.294758,259 323.968327,259.671573 323.968327,260.5 C323.968327,261.328427 323.294758,262 322.463868,262 Z M339.290437,262 C338.459547,262 337.785978,261.328427 337.785978,260.5 C337.785978,259.671573 338.459547,259 339.290437,259 C340.121326,259 340.794895,259.671573 340.794895,260.5 C340.794895,261.328427 340.121326,262 339.290437,262 Z M356.117005,262 C355.286115,262 354.612546,261.328427 354.612546,260.5 C354.612546,259.671573 355.286115,259 356.117005,259 C356.947895,259 357.621464,259.671573 357.621464,260.5 C357.621464,261.328427 356.947895,262 356.117005,262 Z M372.943573,262 C372.112684,262 371.439114,261.328427 371.439114,260.5 C371.439114,259.671573 372.112684,259 372.943573,259 C373.774463,259 374.448032,259.671573 374.448032,260.5 C374.448032,261.328427 373.774463,262 372.943573,262 Z M389.770141,262 C388.939252,262 388.265683,261.328427 388.265683,260.5 C388.265683,259.671573 388.939252,259 389.770141,259 C390.601031,259 391.2746,259.671573 391.2746,260.5 C391.2746,261.328427 390.601031,262 389.770141,262 Z M406.59671,262 C405.76582,262 405.092251,261.328427 405.092251,260.5 C405.092251,259.671573 405.76582,259 406.59671,259 C407.427599,259 408.101169,259.671573 408.101169,260.5 C408.101169,261.328427 407.427599,262 406.59671,262 Z" id="Oval"></path>
                </g>
            </g>
        </g>
    </g>
</svg>