<?xml version="1.0" encoding="UTF-8"?>
<svg width="389px" height="71px" viewBox="0 0 389 71" version="1.1" xmlns="http://www.w3.org/2000/svg" xmlns:xlink="http://www.w3.org/1999/xlink">
    <!-- Generator: Sketch 52 (66869) - http://www.bohemiancoding.com/sketch -->
    <title>Oval</title>
    <desc>Created with Sketch.</desc>
    <g id="Design" stroke="none" stroke-width="1" fill="none" fill-rule="evenodd">
        <g id="4b-Techniciens" transform="translate(-661.000000, -2208.000000)" fill="#272C6C" fill-rule="nonzero">
            <g id="Section-2" transform="translate(226.000000, 2037.000000)">
                <g id="illu-section2" transform="translate(138.000000, 171.000000)">
                    <path d="M298.504459,70.1067961 C297.673569,70.1067961 297,69.4352232 297,68.6067961 C297,67.778369 297.673569,67.1067961 298.504459,67.1067961 C299.335348,67.1067961 300.008918,67.778369 300.008918,68.6067961 C300.008918,69.4352232 299.335348,70.1067961 298.504459,70.1067961 Z M315.331027,70.1067961 C314.500137,70.1067961 313.826568,69.4352232 313.826568,68.6067961 C313.826568,67.778369 314.500137,67.1067961 315.331027,67.1067961 C316.161917,67.1067961 316.835486,67.778369 316.835486,68.6067961 C316.835486,69.4352232 316.161917,70.1067961 315.331027,70.1067961 Z M332.157595,70.1067961 C331.326706,70.1067961 330.653137,69.4352232 330.653137,68.6067961 C330.653137,67.778369 331.326706,67.1067961 332.157595,67.1067961 C332.988485,67.1067961 333.662054,67.778369 333.662054,68.6067961 C333.662054,69.4352232 332.988485,70.1067961 332.157595,70.1067961 Z M348.984164,70.1067961 C348.153274,70.1067961 347.479705,69.4352232 347.479705,68.6067961 C347.479705,67.778369 348.153274,67.1067961 348.984164,67.1067961 C349.815053,67.1067961 350.488622,67.778369 350.488622,68.6067961 C350.488622,69.4352232 349.815053,70.1067961 348.984164,70.1067961 Z M365.810732,70.1067961 C364.979842,70.1067961 364.306273,69.4352232 364.306273,68.6067961 C364.306273,67.778369 364.979842,67.1067961 365.810732,67.1067961 C366.641622,67.1067961 367.315191,67.778369 367.315191,68.6067961 C367.315191,69.4352232 366.641622,70.1067961 365.810732,70.1067961 Z M382.6373,70.1067961 C381.80641,70.1067961 381.132841,69.4352232 381.132841,68.6067961 C381.132841,67.778369 381.80641,67.1067961 382.6373,67.1067961 C383.46819,67.1067961 384.141759,67.778369 384.141759,68.6067961 C384.141759,69.4352232 383.46819,70.1067961 382.6373,70.1067961 Z M399.463868,70.1067961 C398.632979,70.1067961 397.95941,69.4352232 397.95941,68.6067961 C397.95941,67.778369 398.632979,67.1067961 399.463868,67.1067961 C400.294758,67.1067961 400.968327,67.778369 400.968327,68.6067961 C400.968327,69.4352232 400.294758,70.1067961 399.463868,70.1067961 Z M416.290437,70.1067961 C415.459547,70.1067961 414.785978,69.4352232 414.785978,68.6067961 C414.785978,67.778369 415.459547,67.1067961 416.290437,67.1067961 C417.121326,67.1067961 417.794895,67.778369 417.794895,68.6067961 C417.794895,69.4352232 417.121326,70.1067961 416.290437,70.1067961 Z M433.117005,70.1067961 C432.286115,70.1067961 431.612546,69.4352232 431.612546,68.6067961 C431.612546,67.778369 432.286115,67.1067961 433.117005,67.1067961 C433.947895,67.1067961 434.621464,67.778369 434.621464,68.6067961 C434.621464,69.4352232 433.947895,70.1067961 433.117005,70.1067961 Z M449.943573,70.1067961 C449.112684,70.1067961 448.439114,69.4352232 448.439114,68.6067961 C448.439114,67.778369 449.112684,67.1067961 449.943573,67.1067961 C450.774463,67.1067961 451.448032,67.778369 451.448032,68.6067961 C451.448032,69.4352232 450.774463,70.1067961 449.943573,70.1067961 Z M466.770141,70.1067961 C465.939252,70.1067961 465.265683,69.4352232 465.265683,68.6067961 C465.265683,67.778369 465.939252,67.1067961 466.770141,67.1067961 C467.601031,67.1067961 468.2746,67.778369 468.2746,68.6067961 C468.2746,69.4352232 467.601031,70.1067961 466.770141,70.1067961 Z M483.59671,70.1067961 C482.76582,70.1067961 482.092251,69.4352232 482.092251,68.6067961 C482.092251,67.778369 482.76582,67.1067961 483.59671,67.1067961 C484.427599,67.1067961 485.101169,67.778369 485.101169,68.6067961 C485.101169,69.4352232 484.427599,70.1067961 483.59671,70.1067961 Z M298.504459,53.3300971 C297.673569,53.3300971 297,52.6585242 297,51.8300971 C297,51.00167 297.673569,50.3300971 298.504459,50.3300971 C299.335348,50.3300971 300.008918,51.00167 300.008918,51.8300971 C300.008918,52.6585242 299.335348,53.3300971 298.504459,53.3300971 Z M315.331027,53.3300971 C314.500137,53.3300971 313.826568,52.6585242 313.826568,51.8300971 C313.826568,51.00167 314.500137,50.3300971 315.331027,50.3300971 C316.161917,50.3300971 316.835486,51.00167 316.835486,51.8300971 C316.835486,52.6585242 316.161917,53.3300971 315.331027,53.3300971 Z M332.157595,53.3300971 C331.326706,53.3300971 330.653137,52.6585242 330.653137,51.8300971 C330.653137,51.00167 331.326706,50.3300971 332.157595,50.3300971 C332.988485,50.3300971 333.662054,51.00167 333.662054,51.8300971 C333.662054,52.6585242 332.988485,53.3300971 332.157595,53.3300971 Z M348.984164,53.3300971 C348.153274,53.3300971 347.479705,52.6585242 347.479705,51.8300971 C347.479705,51.00167 348.153274,50.3300971 348.984164,50.3300971 C349.815053,50.3300971 350.488622,51.00167 350.488622,51.8300971 C350.488622,52.6585242 349.815053,53.3300971 348.984164,53.3300971 Z M365.810732,53.3300971 C364.979842,53.3300971 364.306273,52.6585242 364.306273,51.8300971 C364.306273,51.00167 364.979842,50.3300971 365.810732,50.3300971 C366.641622,50.3300971 367.315191,51.00167 367.315191,51.8300971 C367.315191,52.6585242 366.641622,53.3300971 365.810732,53.3300971 Z M382.6373,53.3300971 C381.80641,53.3300971 381.132841,52.6585242 381.132841,51.8300971 C381.132841,51.00167 381.80641,50.3300971 382.6373,50.3300971 C383.46819,50.3300971 384.141759,51.00167 384.141759,51.8300971 C384.141759,52.6585242 383.46819,53.3300971 382.6373,53.3300971 Z M399.463868,53.3300971 C398.632979,53.3300971 397.95941,52.6585242 397.95941,51.8300971 C397.95941,51.00167 398.632979,50.3300971 399.463868,50.3300971 C400.294758,50.3300971 400.968327,51.00167 400.968327,51.8300971 C400.968327,52.6585242 400.294758,53.3300971 399.463868,53.3300971 Z M416.290437,53.3300971 C415.459547,53.3300971 414.785978,52.6585242 414.785978,51.8300971 C414.785978,51.00167 415.459547,50.3300971 416.290437,50.3300971 C417.121326,50.3300971 417.794895,51.00167 417.794895,51.8300971 C417.794895,52.6585242 417.121326,53.3300971 416.290437,53.3300971 Z M433.117005,53.3300971 C432.286115,53.3300971 431.612546,52.6585242 431.612546,51.8300971 C431.612546,51.00167 432.286115,50.3300971 433.117005,50.3300971 C433.947895,50.3300971 434.621464,51.00167 434.621464,51.8300971 C434.621464,52.6585242 433.947895,53.3300971 433.117005,53.3300971 Z M449.943573,53.3300971 C449.112684,53.3300971 448.439114,52.6585242 448.439114,51.8300971 C448.439114,51.00167 449.112684,50.3300971 449.943573,50.3300971 C450.774463,50.3300971 451.448032,51.00167 451.448032,51.8300971 C451.448032,52.6585242 450.774463,53.3300971 449.943573,53.3300971 Z M466.770141,53.3300971 C465.939252,53.3300971 465.265683,52.6585242 465.265683,51.8300971 C465.265683,51.00167 465.939252,50.3300971 466.770141,50.3300971 C467.601031,50.3300971 468.2746,51.00167 468.2746,51.8300971 C468.2746,52.6585242 467.601031,53.3300971 466.770141,53.3300971 Z M483.59671,53.3300971 C482.76582,53.3300971 482.092251,52.6585242 482.092251,51.8300971 C482.092251,51.00167 482.76582,50.3300971 483.59671,50.3300971 C484.427599,50.3300971 485.101169,51.00167 485.101169,51.8300971 C485.101169,52.6585242 484.427599,53.3300971 483.59671,53.3300971 Z M298.504459,36.5533981 C297.673569,36.5533981 297,35.8818252 297,35.0533981 C297,34.2249709 297.673569,33.5533981 298.504459,33.5533981 C299.335348,33.5533981 300.008918,34.2249709 300.008918,35.0533981 C300.008918,35.8818252 299.335348,36.5533981 298.504459,36.5533981 Z M315.331027,36.5533981 C314.500137,36.5533981 313.826568,35.8818252 313.826568,35.0533981 C313.826568,34.2249709 314.500137,33.5533981 315.331027,33.5533981 C316.161917,33.5533981 316.835486,34.2249709 316.835486,35.0533981 C316.835486,35.8818252 316.161917,36.5533981 315.331027,36.5533981 Z M332.157595,36.5533981 C331.326706,36.5533981 330.653137,35.8818252 330.653137,35.0533981 C330.653137,34.2249709 331.326706,33.5533981 332.157595,33.5533981 C332.988485,33.5533981 333.662054,34.2249709 333.662054,35.0533981 C333.662054,35.8818252 332.988485,36.5533981 332.157595,36.5533981 Z M348.984164,36.5533981 C348.153274,36.5533981 347.479705,35.8818252 347.479705,35.0533981 C347.479705,34.2249709 348.153274,33.5533981 348.984164,33.5533981 C349.815053,33.5533981 350.488622,34.2249709 350.488622,35.0533981 C350.488622,35.8818252 349.815053,36.5533981 348.984164,36.5533981 Z M365.810732,36.5533981 C364.979842,36.5533981 364.306273,35.8818252 364.306273,35.0533981 C364.306273,34.2249709 364.979842,33.5533981 365.810732,33.5533981 C366.641622,33.5533981 367.315191,34.2249709 367.315191,35.0533981 C367.315191,35.8818252 366.641622,36.5533981 365.810732,36.5533981 Z M382.6373,36.5533981 C381.80641,36.5533981 381.132841,35.8818252 381.132841,35.0533981 C381.132841,34.2249709 381.80641,33.5533981 382.6373,33.5533981 C383.46819,33.5533981 384.141759,34.2249709 384.141759,35.0533981 C384.141759,35.8818252 383.46819,36.5533981 382.6373,36.5533981 Z M399.463868,36.5533981 C398.632979,36.5533981 397.95941,35.8818252 397.95941,35.0533981 C397.95941,34.2249709 398.632979,33.5533981 399.463868,33.5533981 C400.294758,33.5533981 400.968327,34.2249709 400.968327,35.0533981 C400.968327,35.8818252 400.294758,36.5533981 399.463868,36.5533981 Z M416.290437,36.5533981 C415.459547,36.5533981 414.785978,35.8818252 414.785978,35.0533981 C414.785978,34.2249709 415.459547,33.5533981 416.290437,33.5533981 C417.121326,33.5533981 417.794895,34.2249709 417.794895,35.0533981 C417.794895,35.8818252 417.121326,36.5533981 416.290437,36.5533981 Z M433.117005,36.5533981 C432.286115,36.5533981 431.612546,35.8818252 431.612546,35.0533981 C431.612546,34.2249709 432.286115,33.5533981 433.117005,33.5533981 C433.947895,33.5533981 434.621464,34.2249709 434.621464,35.0533981 C434.621464,35.8818252 433.947895,36.5533981 433.117005,36.5533981 Z M449.943573,36.5533981 C449.112684,36.5533981 448.439114,35.8818252 448.439114,35.0533981 C448.439114,34.2249709 449.112684,33.5533981 449.943573,33.5533981 C450.774463,33.5533981 451.448032,34.2249709 451.448032,35.0533981 C451.448032,35.8818252 450.774463,36.5533981 449.943573,36.5533981 Z M466.770141,36.5533981 C465.939252,36.5533981 465.265683,35.8818252 465.265683,35.0533981 C465.265683,34.2249709 465.939252,33.5533981 466.770141,33.5533981 C467.601031,33.5533981 468.2746,34.2249709 468.2746,35.0533981 C468.2746,35.8818252 467.601031,36.5533981 466.770141,36.5533981 Z M483.59671,36.5533981 C482.76582,36.5533981 482.092251,35.8818252 482.092251,35.0533981 C482.092251,34.2249709 482.76582,33.5533981 483.59671,33.5533981 C484.427599,33.5533981 485.101169,34.2249709 485.101169,35.0533981 C485.101169,35.8818252 484.427599,36.5533981 483.59671,36.5533981 Z M298.504459,19.776699 C297.673569,19.776699 297,19.1051262 297,18.276699 C297,17.4482719 297.673569,16.776699 298.504459,16.776699 C299.335348,16.776699 300.008918,17.4482719 300.008918,18.276699 C300.008918,19.1051262 299.335348,19.776699 298.504459,19.776699 Z M315.331027,19.776699 C314.500137,19.776699 313.826568,19.1051262 313.826568,18.276699 C313.826568,17.4482719 314.500137,16.776699 315.331027,16.776699 C316.161917,16.776699 316.835486,17.4482719 316.835486,18.276699 C316.835486,19.1051262 316.161917,19.776699 315.331027,19.776699 Z M332.157595,19.776699 C331.326706,19.776699 330.653137,19.1051262 330.653137,18.276699 C330.653137,17.4482719 331.326706,16.776699 332.157595,16.776699 C332.988485,16.776699 333.662054,17.4482719 333.662054,18.276699 C333.662054,19.1051262 332.988485,19.776699 332.157595,19.776699 Z M348.984164,19.776699 C348.153274,19.776699 347.479705,19.1051262 347.479705,18.276699 C347.479705,17.4482719 348.153274,16.776699 348.984164,16.776699 C349.815053,16.776699 350.488622,17.4482719 350.488622,18.276699 C350.488622,19.1051262 349.815053,19.776699 348.984164,19.776699 Z M365.810732,19.776699 C364.979842,19.776699 364.306273,19.1051262 364.306273,18.276699 C364.306273,17.4482719 364.979842,16.776699 365.810732,16.776699 C366.641622,16.776699 367.315191,17.4482719 367.315191,18.276699 C367.315191,19.1051262 366.641622,19.776699 365.810732,19.776699 Z M382.6373,19.776699 C381.80641,19.776699 381.132841,19.1051262 381.132841,18.276699 C381.132841,17.4482719 381.80641,16.776699 382.6373,16.776699 C383.46819,16.776699 384.141759,17.4482719 384.141759,18.276699 C384.141759,19.1051262 383.46819,19.776699 382.6373,19.776699 Z M399.463868,19.776699 C398.632979,19.776699 397.95941,19.1051262 397.95941,18.276699 C397.95941,17.4482719 398.632979,16.776699 399.463868,16.776699 C400.294758,16.776699 400.968327,17.4482719 400.968327,18.276699 C400.968327,19.1051262 400.294758,19.776699 399.463868,19.776699 Z M416.290437,19.776699 C415.459547,19.776699 414.785978,19.1051262 414.785978,18.276699 C414.785978,17.4482719 415.459547,16.776699 416.290437,16.776699 C417.121326,16.776699 417.794895,17.4482719 417.794895,18.276699 C417.794895,19.1051262 417.121326,19.776699 416.290437,19.776699 Z M433.117005,19.776699 C432.286115,19.776699 431.612546,19.1051262 431.612546,18.276699 C431.612546,17.4482719 432.286115,16.776699 433.117005,16.776699 C433.947895,16.776699 434.621464,17.4482719 434.621464,18.276699 C434.621464,19.1051262 433.947895,19.776699 433.117005,19.776699 Z M449.943573,19.776699 C449.112684,19.776699 448.439114,19.1051262 448.439114,18.276699 C448.439114,17.4482719 449.112684,16.776699 449.943573,16.776699 C450.774463,16.776699 451.448032,17.4482719 451.448032,18.276699 C451.448032,19.1051262 450.774463,19.776699 449.943573,19.776699 Z M466.770141,19.776699 C465.939252,19.776699 465.265683,19.1051262 465.265683,18.276699 C465.265683,17.4482719 465.939252,16.776699 466.770141,16.776699 C467.601031,16.776699 468.2746,17.4482719 468.2746,18.276699 C468.2746,19.1051262 467.601031,19.776699 466.770141,19.776699 Z M483.59671,19.776699 C482.76582,19.776699 482.092251,19.1051262 482.092251,18.276699 C482.092251,17.4482719 482.76582,16.776699 483.59671,16.776699 C484.427599,16.776699 485.101169,17.4482719 485.101169,18.276699 C485.101169,19.1051262 484.427599,19.776699 483.59671,19.776699 Z M298.504459,3 C297.673569,3 297,2.32842712 297,1.5 C297,0.671572875 297.673569,0 298.504459,0 C299.335348,0 300.008918,0.671572875 300.008918,1.5 C300.008918,2.32842712 299.335348,3 298.504459,3 Z M315.331027,3 C314.500137,3 313.826568,2.32842712 313.826568,1.5 C313.826568,0.671572875 314.500137,0 315.331027,0 C316.161917,0 316.835486,0.671572875 316.835486,1.5 C316.835486,2.32842712 316.161917,3 315.331027,3 Z M332.157595,3 C331.326706,3 330.653137,2.32842712 330.653137,1.5 C330.653137,0.671572875 331.326706,0 332.157595,0 C332.988485,0 333.662054,0.671572875 333.662054,1.5 C333.662054,2.32842712 332.988485,3 332.157595,3 Z M348.984164,3 C348.153274,3 347.479705,2.32842712 347.479705,1.5 C347.479705,0.671572875 348.153274,0 348.984164,0 C349.815053,0 350.488622,0.671572875 350.488622,1.5 C350.488622,2.32842712 349.815053,3 348.984164,3 Z M365.810732,3 C364.979842,3 364.306273,2.32842712 364.306273,1.5 C364.306273,0.671572875 364.979842,0 365.810732,0 C366.641622,0 367.315191,0.671572875 367.315191,1.5 C367.315191,2.32842712 366.641622,3 365.810732,3 Z M382.6373,3 C381.80641,3 381.132841,2.32842712 381.132841,1.5 C381.132841,0.671572875 381.80641,0 382.6373,0 C383.46819,0 384.141759,0.671572875 384.141759,1.5 C384.141759,2.32842712 383.46819,3 382.6373,3 Z M399.463868,3 C398.632979,3 397.95941,2.32842712 397.95941,1.5 C397.95941,0.671572875 398.632979,0 399.463868,0 C400.294758,0 400.968327,0.671572875 400.968327,1.5 C400.968327,2.32842712 400.294758,3 399.463868,3 Z M416.290437,3 C415.459547,3 414.785978,2.32842712 414.785978,1.5 C414.785978,0.671572875 415.459547,0 416.290437,0 C417.121326,0 417.794895,0.671572875 417.794895,1.5 C417.794895,2.32842712 417.121326,3 416.290437,3 Z M433.117005,3 C432.286115,3 431.612546,2.32842712 431.612546,1.5 C431.612546,0.671572875 432.286115,0 433.117005,0 C433.947895,0 434.621464,0.671572875 434.621464,1.5 C434.621464,2.32842712 433.947895,3 433.117005,3 Z M449.943573,3 C449.112684,3 448.439114,2.32842712 448.439114,1.5 C448.439114,0.671572875 449.112684,0 449.943573,0 C450.774463,0 451.448032,0.671572875 451.448032,1.5 C451.448032,2.32842712 450.774463,3 449.943573,3 Z M466.770141,3 C465.939252,3 465.265683,2.32842712 465.265683,1.5 C465.265683,0.671572875 465.939252,0 466.770141,0 C467.601031,0 468.2746,0.671572875 468.2746,1.5 C468.2746,2.32842712 467.601031,3 466.770141,3 Z M483.59671,3 C482.76582,3 482.092251,2.32842712 482.092251,1.5 C482.092251,0.671572875 482.76582,0 483.59671,0 C484.427599,0 485.101169,0.671572875 485.101169,1.5 C485.101169,2.32842712 484.427599,3 483.59671,3 Z M498.504459,70.1067961 C497.673569,70.1067961 497,69.4352232 497,68.6067961 C497,67.778369 497.673569,67.1067961 498.504459,67.1067961 C499.335348,67.1067961 500.008918,67.778369 500.008918,68.6067961 C500.008918,69.4352232 499.335348,70.1067961 498.504459,70.1067961 Z M515.331027,70.1067961 C514.500137,70.1067961 513.826568,69.4352232 513.826568,68.6067961 C513.826568,67.778369 514.500137,67.1067961 515.331027,67.1067961 C516.161917,67.1067961 516.835486,67.778369 516.835486,68.6067961 C516.835486,69.4352232 516.161917,70.1067961 515.331027,70.1067961 Z M532.157595,70.1067961 C531.326706,70.1067961 530.653137,69.4352232 530.653137,68.6067961 C530.653137,67.778369 531.326706,67.1067961 532.157595,67.1067961 C532.988485,67.1067961 533.662054,67.778369 533.662054,68.6067961 C533.662054,69.4352232 532.988485,70.1067961 532.157595,70.1067961 Z M548.984164,70.1067961 C548.153274,70.1067961 547.479705,69.4352232 547.479705,68.6067961 C547.479705,67.778369 548.153274,67.1067961 548.984164,67.1067961 C549.815053,67.1067961 550.488622,67.778369 550.488622,68.6067961 C550.488622,69.4352232 549.815053,70.1067961 548.984164,70.1067961 Z M565.810732,70.1067961 C564.979842,70.1067961 564.306273,69.4352232 564.306273,68.6067961 C564.306273,67.778369 564.979842,67.1067961 565.810732,67.1067961 C566.641622,67.1067961 567.315191,67.778369 567.315191,68.6067961 C567.315191,69.4352232 566.641622,70.1067961 565.810732,70.1067961 Z M582.6373,70.1067961 C581.80641,70.1067961 581.132841,69.4352232 581.132841,68.6067961 C581.132841,67.778369 581.80641,67.1067961 582.6373,67.1067961 C583.46819,67.1067961 584.141759,67.778369 584.141759,68.6067961 C584.141759,69.4352232 583.46819,70.1067961 582.6373,70.1067961 Z M599.463868,70.1067961 C598.632979,70.1067961 597.95941,69.4352232 597.95941,68.6067961 C597.95941,67.778369 598.632979,67.1067961 599.463868,67.1067961 C600.294758,67.1067961 600.968327,67.778369 600.968327,68.6067961 C600.968327,69.4352232 600.294758,70.1067961 599.463868,70.1067961 Z M616.290437,70.1067961 C615.459547,70.1067961 614.785978,69.4352232 614.785978,68.6067961 C614.785978,67.778369 615.459547,67.1067961 616.290437,67.1067961 C617.121326,67.1067961 617.794895,67.778369 617.794895,68.6067961 C617.794895,69.4352232 617.121326,70.1067961 616.290437,70.1067961 Z M633.117005,70.1067961 C632.286115,70.1067961 631.612546,69.4352232 631.612546,68.6067961 C631.612546,67.778369 632.286115,67.1067961 633.117005,67.1067961 C633.947895,67.1067961 634.621464,67.778369 634.621464,68.6067961 C634.621464,69.4352232 633.947895,70.1067961 633.117005,70.1067961 Z M649.943573,70.1067961 C649.112684,70.1067961 648.439114,69.4352232 648.439114,68.6067961 C648.439114,67.778369 649.112684,67.1067961 649.943573,67.1067961 C650.774463,67.1067961 651.448032,67.778369 651.448032,68.6067961 C651.448032,69.4352232 650.774463,70.1067961 649.943573,70.1067961 Z M666.770141,70.1067961 C665.939252,70.1067961 665.265683,69.4352232 665.265683,68.6067961 C665.265683,67.778369 665.939252,67.1067961 666.770141,67.1067961 C667.601031,67.1067961 668.2746,67.778369 668.2746,68.6067961 C668.2746,69.4352232 667.601031,70.1067961 666.770141,70.1067961 Z M683.59671,70.1067961 C682.76582,70.1067961 682.092251,69.4352232 682.092251,68.6067961 C682.092251,67.778369 682.76582,67.1067961 683.59671,67.1067961 C684.427599,67.1067961 685.101169,67.778369 685.101169,68.6067961 C685.101169,69.4352232 684.427599,70.1067961 683.59671,70.1067961 Z M498.504459,53.3300971 C497.673569,53.3300971 497,52.6585242 497,51.8300971 C497,51.00167 497.673569,50.3300971 498.504459,50.3300971 C499.335348,50.3300971 500.008918,51.00167 500.008918,51.8300971 C500.008918,52.6585242 499.335348,53.3300971 498.504459,53.3300971 Z M515.331027,53.3300971 C514.500137,53.3300971 513.826568,52.6585242 513.826568,51.8300971 C513.826568,51.00167 514.500137,50.3300971 515.331027,50.3300971 C516.161917,50.3300971 516.835486,51.00167 516.835486,51.8300971 C516.835486,52.6585242 516.161917,53.3300971 515.331027,53.3300971 Z M532.157595,53.3300971 C531.326706,53.3300971 530.653137,52.6585242 530.653137,51.8300971 C530.653137,51.00167 531.326706,50.3300971 532.157595,50.3300971 C532.988485,50.3300971 533.662054,51.00167 533.662054,51.8300971 C533.662054,52.6585242 532.988485,53.3300971 532.157595,53.3300971 Z M548.984164,53.3300971 C548.153274,53.3300971 547.479705,52.6585242 547.479705,51.8300971 C547.479705,51.00167 548.153274,50.3300971 548.984164,50.3300971 C549.815053,50.3300971 550.488622,51.00167 550.488622,51.8300971 C550.488622,52.6585242 549.815053,53.3300971 548.984164,53.3300971 Z M565.810732,53.3300971 C564.979842,53.3300971 564.306273,52.6585242 564.306273,51.8300971 C564.306273,51.00167 564.979842,50.3300971 565.810732,50.3300971 C566.641622,50.3300971 567.315191,51.00167 567.315191,51.8300971 C567.315191,52.6585242 566.641622,53.3300971 565.810732,53.3300971 Z M582.6373,53.3300971 C581.80641,53.3300971 581.132841,52.6585242 581.132841,51.8300971 C581.132841,51.00167 581.80641,50.3300971 582.6373,50.3300971 C583.46819,50.3300971 584.141759,51.00167 584.141759,51.8300971 C584.141759,52.6585242 583.46819,53.3300971 582.6373,53.3300971 Z M599.463868,53.3300971 C598.632979,53.3300971 597.95941,52.6585242 597.95941,51.8300971 C597.95941,51.00167 598.632979,50.3300971 599.463868,50.3300971 C600.294758,50.3300971 600.968327,51.00167 600.968327,51.8300971 C600.968327,52.6585242 600.294758,53.3300971 599.463868,53.3300971 Z M616.290437,53.3300971 C615.459547,53.3300971 614.785978,52.6585242 614.785978,51.8300971 C614.785978,51.00167 615.459547,50.3300971 616.290437,50.3300971 C617.121326,50.3300971 617.794895,51.00167 617.794895,51.8300971 C617.794895,52.6585242 617.121326,53.3300971 616.290437,53.3300971 Z M633.117005,53.3300971 C632.286115,53.3300971 631.612546,52.6585242 631.612546,51.8300971 C631.612546,51.00167 632.286115,50.3300971 633.117005,50.3300971 C633.947895,50.3300971 634.621464,51.00167 634.621464,51.8300971 C634.621464,52.6585242 633.947895,53.3300971 633.117005,53.3300971 Z M649.943573,53.3300971 C649.112684,53.3300971 648.439114,52.6585242 648.439114,51.8300971 C648.439114,51.00167 649.112684,50.3300971 649.943573,50.3300971 C650.774463,50.3300971 651.448032,51.00167 651.448032,51.8300971 C651.448032,52.6585242 650.774463,53.3300971 649.943573,53.3300971 Z M666.770141,53.3300971 C665.939252,53.3300971 665.265683,52.6585242 665.265683,51.8300971 C665.265683,51.00167 665.939252,50.3300971 666.770141,50.3300971 C667.601031,50.3300971 668.2746,51.00167 668.2746,51.8300971 C668.2746,52.6585242 667.601031,53.3300971 666.770141,53.3300971 Z M683.59671,53.3300971 C682.76582,53.3300971 682.092251,52.6585242 682.092251,51.8300971 C682.092251,51.00167 682.76582,50.3300971 683.59671,50.3300971 C684.427599,50.3300971 685.101169,51.00167 685.101169,51.8300971 C685.101169,52.6585242 684.427599,53.3300971 683.59671,53.3300971 Z M498.504459,36.5533981 C497.673569,36.5533981 497,35.8818252 497,35.0533981 C497,34.2249709 497.673569,33.5533981 498.504459,33.5533981 C499.335348,33.5533981 500.008918,34.2249709 500.008918,35.0533981 C500.008918,35.8818252 499.335348,36.5533981 498.504459,36.5533981 Z M515.331027,36.5533981 C514.500137,36.5533981 513.826568,35.8818252 513.826568,35.0533981 C513.826568,34.2249709 514.500137,33.5533981 515.331027,33.5533981 C516.161917,33.5533981 516.835486,34.2249709 516.835486,35.0533981 C516.835486,35.8818252 516.161917,36.5533981 515.331027,36.5533981 Z M532.157595,36.5533981 C531.326706,36.5533981 530.653137,35.8818252 530.653137,35.0533981 C530.653137,34.2249709 531.326706,33.5533981 532.157595,33.5533981 C532.988485,33.5533981 533.662054,34.2249709 533.662054,35.0533981 C533.662054,35.8818252 532.988485,36.5533981 532.157595,36.5533981 Z M548.984164,36.5533981 C548.153274,36.5533981 547.479705,35.8818252 547.479705,35.0533981 C547.479705,34.2249709 548.153274,33.5533981 548.984164,33.5533981 C549.815053,33.5533981 550.488622,34.2249709 550.488622,35.0533981 C550.488622,35.8818252 549.815053,36.5533981 548.984164,36.5533981 Z M565.810732,36.5533981 C564.979842,36.5533981 564.306273,35.8818252 564.306273,35.0533981 C564.306273,34.2249709 564.979842,33.5533981 565.810732,33.5533981 C566.641622,33.5533981 567.315191,34.2249709 567.315191,35.0533981 C567.315191,35.8818252 566.641622,36.5533981 565.810732,36.5533981 Z M582.6373,36.5533981 C581.80641,36.5533981 581.132841,35.8818252 581.132841,35.0533981 C581.132841,34.2249709 581.80641,33.5533981 582.6373,33.5533981 C583.46819,33.5533981 584.141759,34.2249709 584.141759,35.0533981 C584.141759,35.8818252 583.46819,36.5533981 582.6373,36.5533981 Z M599.463868,36.5533981 C598.632979,36.5533981 597.95941,35.8818252 597.95941,35.0533981 C597.95941,34.2249709 598.632979,33.5533981 599.463868,33.5533981 C600.294758,33.5533981 600.968327,34.2249709 600.968327,35.0533981 C600.968327,35.8818252 600.294758,36.5533981 599.463868,36.5533981 Z M616.290437,36.5533981 C615.459547,36.5533981 614.785978,35.8818252 614.785978,35.0533981 C614.785978,34.2249709 615.459547,33.5533981 616.290437,33.5533981 C617.121326,33.5533981 617.794895,34.2249709 617.794895,35.0533981 C617.794895,35.8818252 617.121326,36.5533981 616.290437,36.5533981 Z M633.117005,36.5533981 C632.286115,36.5533981 631.612546,35.8818252 631.612546,35.0533981 C631.612546,34.2249709 632.286115,33.5533981 633.117005,33.5533981 C633.947895,33.5533981 634.621464,34.2249709 634.621464,35.0533981 C634.621464,35.8818252 633.947895,36.5533981 633.117005,36.5533981 Z M649.943573,36.5533981 C649.112684,36.5533981 648.439114,35.8818252 648.439114,35.0533981 C648.439114,34.2249709 649.112684,33.5533981 649.943573,33.5533981 C650.774463,33.5533981 651.448032,34.2249709 651.448032,35.0533981 C651.448032,35.8818252 650.774463,36.5533981 649.943573,36.5533981 Z M666.770141,36.5533981 C665.939252,36.5533981 665.265683,35.8818252 665.265683,35.0533981 C665.265683,34.2249709 665.939252,33.5533981 666.770141,33.5533981 C667.601031,33.5533981 668.2746,34.2249709 668.2746,35.0533981 C668.2746,35.8818252 667.601031,36.5533981 666.770141,36.5533981 Z M683.59671,36.5533981 C682.76582,36.5533981 682.092251,35.8818252 682.092251,35.0533981 C682.092251,34.2249709 682.76582,33.5533981 683.59671,33.5533981 C684.427599,33.5533981 685.101169,34.2249709 685.101169,35.0533981 C685.101169,35.8818252 684.427599,36.5533981 683.59671,36.5533981 Z M498.504459,19.776699 C497.673569,19.776699 497,19.1051262 497,18.276699 C497,17.4482719 497.673569,16.776699 498.504459,16.776699 C499.335348,16.776699 500.008918,17.4482719 500.008918,18.276699 C500.008918,19.1051262 499.335348,19.776699 498.504459,19.776699 Z M515.331027,19.776699 C514.500137,19.776699 513.826568,19.1051262 513.826568,18.276699 C513.826568,17.4482719 514.500137,16.776699 515.331027,16.776699 C516.161917,16.776699 516.835486,17.4482719 516.835486,18.276699 C516.835486,19.1051262 516.161917,19.776699 515.331027,19.776699 Z M532.157595,19.776699 C531.326706,19.776699 530.653137,19.1051262 530.653137,18.276699 C530.653137,17.4482719 531.326706,16.776699 532.157595,16.776699 C532.988485,16.776699 533.662054,17.4482719 533.662054,18.276699 C533.662054,19.1051262 532.988485,19.776699 532.157595,19.776699 Z M548.984164,19.776699 C548.153274,19.776699 547.479705,19.1051262 547.479705,18.276699 C547.479705,17.4482719 548.153274,16.776699 548.984164,16.776699 C549.815053,16.776699 550.488622,17.4482719 550.488622,18.276699 C550.488622,19.1051262 549.815053,19.776699 548.984164,19.776699 Z M565.810732,19.776699 C564.979842,19.776699 564.306273,19.1051262 564.306273,18.276699 C564.306273,17.4482719 564.979842,16.776699 565.810732,16.776699 C566.641622,16.776699 567.315191,17.4482719 567.315191,18.276699 C567.315191,19.1051262 566.641622,19.776699 565.810732,19.776699 Z M582.6373,19.776699 C581.80641,19.776699 581.132841,19.1051262 581.132841,18.276699 C581.132841,17.4482719 581.80641,16.776699 582.6373,16.776699 C583.46819,16.776699 584.141759,17.4482719 584.141759,18.276699 C584.141759,19.1051262 583.46819,19.776699 582.6373,19.776699 Z M599.463868,19.776699 C598.632979,19.776699 597.95941,19.1051262 597.95941,18.276699 C597.95941,17.4482719 598.632979,16.776699 599.463868,16.776699 C600.294758,16.776699 600.968327,17.4482719 600.968327,18.276699 C600.968327,19.1051262 600.294758,19.776699 599.463868,19.776699 Z M616.290437,19.776699 C615.459547,19.776699 614.785978,19.1051262 614.785978,18.276699 C614.785978,17.4482719 615.459547,16.776699 616.290437,16.776699 C617.121326,16.776699 617.794895,17.4482719 617.794895,18.276699 C617.794895,19.1051262 617.121326,19.776699 616.290437,19.776699 Z M633.117005,19.776699 C632.286115,19.776699 631.612546,19.1051262 631.612546,18.276699 C631.612546,17.4482719 632.286115,16.776699 633.117005,16.776699 C633.947895,16.776699 634.621464,17.4482719 634.621464,18.276699 C634.621464,19.1051262 633.947895,19.776699 633.117005,19.776699 Z M649.943573,19.776699 C649.112684,19.776699 648.439114,19.1051262 648.439114,18.276699 C648.439114,17.4482719 649.112684,16.776699 649.943573,16.776699 C650.774463,16.776699 651.448032,17.4482719 651.448032,18.276699 C651.448032,19.1051262 650.774463,19.776699 649.943573,19.776699 Z M666.770141,19.776699 C665.939252,19.776699 665.265683,19.1051262 665.265683,18.276699 C665.265683,17.4482719 665.939252,16.776699 666.770141,16.776699 C667.601031,16.776699 668.2746,17.4482719 668.2746,18.276699 C668.2746,19.1051262 667.601031,19.776699 666.770141,19.776699 Z M683.59671,19.776699 C682.76582,19.776699 682.092251,19.1051262 682.092251,18.276699 C682.092251,17.4482719 682.76582,16.776699 683.59671,16.776699 C684.427599,16.776699 685.101169,17.4482719 685.101169,18.276699 C685.101169,19.1051262 684.427599,19.776699 683.59671,19.776699 Z M498.504459,3 C497.673569,3 497,2.32842712 497,1.5 C497,0.671572875 497.673569,0 498.504459,0 C499.335348,0 500.008918,0.671572875 500.008918,1.5 C500.008918,2.32842712 499.335348,3 498.504459,3 Z M515.331027,3 C514.500137,3 513.826568,2.32842712 513.826568,1.5 C513.826568,0.671572875 514.500137,0 515.331027,0 C516.161917,0 516.835486,0.671572875 516.835486,1.5 C516.835486,2.32842712 516.161917,3 515.331027,3 Z M532.157595,3 C531.326706,3 530.653137,2.32842712 530.653137,1.5 C530.653137,0.671572875 531.326706,0 532.157595,0 C532.988485,0 533.662054,0.671572875 533.662054,1.5 C533.662054,2.32842712 532.988485,3 532.157595,3 Z M548.984164,3 C548.153274,3 547.479705,2.32842712 547.479705,1.5 C547.479705,0.671572875 548.153274,0 548.984164,0 C549.815053,0 550.488622,0.671572875 550.488622,1.5 C550.488622,2.32842712 549.815053,3 548.984164,3 Z M565.810732,3 C564.979842,3 564.306273,2.32842712 564.306273,1.5 C564.306273,0.671572875 564.979842,0 565.810732,0 C566.641622,0 567.315191,0.671572875 567.315191,1.5 C567.315191,2.32842712 566.641622,3 565.810732,3 Z M582.6373,3 C581.80641,3 581.132841,2.32842712 581.132841,1.5 C581.132841,0.671572875 581.80641,0 582.6373,0 C583.46819,0 584.141759,0.671572875 584.141759,1.5 C584.141759,2.32842712 583.46819,3 582.6373,3 Z M599.463868,3 C598.632979,3 597.95941,2.32842712 597.95941,1.5 C597.95941,0.671572875 598.632979,0 599.463868,0 C600.294758,0 600.968327,0.671572875 600.968327,1.5 C600.968327,2.32842712 600.294758,3 599.463868,3 Z M616.290437,3 C615.459547,3 614.785978,2.32842712 614.785978,1.5 C614.785978,0.671572875 615.459547,0 616.290437,0 C617.121326,0 617.794895,0.671572875 617.794895,1.5 C617.794895,2.32842712 617.121326,3 616.290437,3 Z M633.117005,3 C632.286115,3 631.612546,2.32842712 631.612546,1.5 C631.612546,0.671572875 632.286115,0 633.117005,0 C633.947895,0 634.621464,0.671572875 634.621464,1.5 C634.621464,2.32842712 633.947895,3 633.117005,3 Z M649.943573,3 C649.112684,3 648.439114,2.32842712 648.439114,1.5 C648.439114,0.671572875 649.112684,0 649.943573,0 C650.774463,0 651.448032,0.671572875 651.448032,1.5 C651.448032,2.32842712 650.774463,3 649.943573,3 Z M666.770141,3 C665.939252,3 665.265683,2.32842712 665.265683,1.5 C665.265683,0.671572875 665.939252,0 666.770141,0 C667.601031,0 668.2746,0.671572875 668.2746,1.5 C668.2746,2.32842712 667.601031,3 666.770141,3 Z M683.59671,3 C682.76582,3 682.092251,2.32842712 682.092251,1.5 C682.092251,0.671572875 682.76582,0 683.59671,0 C684.427599,0 685.101169,0.671572875 685.101169,1.5 C685.101169,2.32842712 684.427599,3 683.59671,3 Z" id="Oval"></path>
                </g>
            </g>
        </g>
    </g>
</svg>