<?xml version="1.0" encoding="UTF-8"?>
<svg width="76px" height="147px" viewBox="0 0 76 147" version="1.1" xmlns="http://www.w3.org/2000/svg" xmlns:xlink="http://www.w3.org/1999/xlink">
    <!-- Generator: Sketch 52 (66869) - http://www.bohemiancoding.com/sketch -->
    <title>technicien</title>
    <desc>Created with Sketch.</desc>
    <defs>
        <linearGradient x1="69.6778551%" y1="80.4444157%" x2="0%" y2="0%" id="linearGradient-1">
            <stop stop-color="#000000" stop-opacity="0" offset="0%"></stop>
            <stop stop-color="#000000" offset="100%"></stop>
        </linearGradient>
        <linearGradient x1="0.0130187943%" y1="49.9453173%" x2="100.044319%" y2="49.9453173%" id="linearGradient-2">
            <stop stop-color="#CEB051" offset="0%"></stop>
            <stop stop-color="#A1632A" offset="100%"></stop>
        </linearGradient>
        <linearGradient x1="-0.0238673179%" y1="49.9843966%" x2="100.006007%" y2="49.9843966%" id="linearGradient-3">
            <stop stop-color="#CEB051" offset="0%"></stop>
            <stop stop-color="#A1632A" offset="100%"></stop>
        </linearGradient>
        <linearGradient x1="50%" y1="0.354609929%" x2="50%" y2="100.35461%" id="linearGradient-4">
            <stop stop-color="#1571C4" offset="0%"></stop>
            <stop stop-color="#8CF5A7" offset="100%"></stop>
        </linearGradient>
        <linearGradient x1="-0.157592418%" y1="50.0457084%" x2="100.03206%" y2="50.0457084%" id="linearGradient-5">
            <stop stop-color="#0094CD" offset="0%"></stop>
            <stop stop-color="#2A306A" offset="100%"></stop>
        </linearGradient>
    </defs>
    <g id="Design" stroke="none" stroke-width="1" fill="none" fill-rule="evenodd">
        <g id="4b-Techniciens" transform="translate(-373.000000, -2454.000000)" fill-rule="nonzero">
            <g id="Section-2" transform="translate(226.000000, 2037.000000)">
                <g id="illu-section2" transform="translate(138.000000, 171.000000)">
                    <g id="technicien" transform="translate(43.000000, 321.000000) scale(-1, 1) translate(-43.000000, -321.000000) translate(0.000000, 246.000000)">
                        <path d="M41.6255766,30.3802614 L31.9291737,26.2052821 C29.097342,28.7183583 28.097342,31.0516917 28.9291737,33.2052821 C28.9291737,33.2052821 32.491318,34.7534797 39.6156066,37.8498749 L41.6255766,30.3802614 Z" id="Shape" fill="#F1653C"></path>
                        <path d="M60.9291737,28.2052821 C59.0862661,25.0114866 53.4974513,21.7397638 45.8073583,26.1933052 C41.1661548,28.8748389 39.6415637,31.3146619 37.9291737,34.2052821 C36.6273859,35.5494202 37.0355082,42.189276 37.9291737,43.2052821 L39.6364894,62.7207083 C51.5240262,69.9080551 58.8747736,59.3439621 58.8747736,59.3439621 C59.0836017,46.3231033 59.9291737,38.2105093 59.9291737,38.2052821 C61.2917767,33.8458296 61.1007868,28.5332842 60.9291737,28.2052821 Z" id="Shape" fill="#F1653C"></path>
                        <path d="M56.9291737,24.2052821 C51.9329626,24.461413 43.2126697,28.3939401 39.5425167,35.8583264 C36.671131,41.6970656 38.8951498,55.5229072 40.4665809,63.1911528 C51.8738132,69.4271562 58.885215,59.3491893 58.885215,59.3491893 C59.0940431,46.3283305 61.3441653,37.8237391 61.3441653,37.8185119 C62.9291737,24.461413 58.881716,24.9527662 56.9291737,24.2052821 Z" id="Shape" fill="#DE5D37"></path>
                        <path d="M46.9037056,22.7538331 L46.9037056,26.7839744 C46.9516162,28.3493607 48.2317899,29.5941002 49.7959741,29.5961872 C50.1643694,29.5944673 50.5291708,29.5235444 50.8714385,29.3871008 C51.9721554,28.9481329 52.6941569,27.8813968 52.6934633,26.6951127 L52.6934638,22.7486059 L46.9037056,22.7538331 Z" id="Shape" fill="#FFC4B6"></path>
                        <path d="M47.9291737,25.2052821 C53.2344709,25.2052821 59.4020644,19.4826961 59.4020644,14.1708342 C59.4020644,8.85897236 55.1012713,4.55285748 49.7959741,4.55285748 C44.4906769,4.55285748 40.9291737,8.85897236 40.9291737,14.1708342 C40.9291737,19.4826961 42.6238765,25.2052821 47.9291737,25.2052821 Z" id="Oval" fill="#FFC4B6"></path>
                        <path d="M62.0048197,126.207807 L53.5890493,121.341319 L46.1338878,124.869653 L80.2146258,144.570824 C82.0510946,143.121116 83.6780287,141.423563 85.0489952,139.526613 L62.0048197,126.207807 Z" id="Shape" fill="url(#linearGradient-1)" opacity="0.3" transform="translate(65.591442, 132.956072) rotate(1.000000) translate(-65.591442, -132.956072) "></path>
                        <path d="M54.1340468,132.899604 L45.7130556,128.033116 L38.2578942,131.56145 L68.8562985,149.556451 C71.3641131,148.554339 73.7741304,147.322467 76.0556456,145.87653 L54.1340468,132.899604 Z" id="Shape" fill="url(#linearGradient-1)" opacity="0.3" transform="translate(57.156770, 138.794784) rotate(1.000000) translate(-57.156770, -138.794784) "></path>
                        <path d="M54.8913785,115.917529 L54.3693084,121.709223 C54.3693084,121.709223 52.1661724,124.082355 49.7907534,121.709223 L49.4253043,115.917529 L54.8913785,115.917529 Z" id="Shape" fill="#FFC4B6"></path>
                        <path d="M54.4789431,120.37107 L54.3536463,121.709223 C54.3536463,121.709223 52.1505103,124.082355 49.7750913,121.709223 L49.4670699,116.842736 C46.1519246,115.028911 42.9568554,114.683919 41.9805842,116.168432 C40.8790163,117.835897 43.0247245,121.186507 46.7523052,123.6485 C50.4798859,126.110493 54.4058533,126.784797 55.5022006,125.08597 C55.6060264,124.925701 55.6819342,124.748953 55.7266907,124.563253 C55.7266907,124.563253 56.0921398,123.193737 54.4789431,120.37107 Z" id="Shape" fill="url(#linearGradient-2)"></path>
                        <path d="M49.7646499,121.683088 L49.5714839,118.588608 C48.1149083,117.684309 46.7575259,117.354998 46.3972975,117.856806 C46.0370691,118.358613 47.0081196,119.832673 48.6578612,120.993102 C49.0154739,121.250595 49.3905278,121.482893 49.780312,121.688315 L49.7646499,121.683088 Z" id="Shape" fill="#D3AF4A"></path>
                        <path d="M51.2055634,122.634431 C49.6706772,122.87488 48.9711033,124.343713 48.783158,124.80893 C51.8163855,126.267308 54.6042399,126.455486 55.5022006,125.08597 C55.6060264,124.925701 55.6819342,124.748953 55.7266907,124.563253 C55.7266907,124.563253 56.0816984,123.219873 54.4685017,120.381524 L54.3432049,121.719678 C54.3432049,121.719678 52.9649397,123.204192 51.2055634,122.634431 Z" id="Shape" fill="#A1632A"></path>
                        <path d="M46.1414832,122.869653 L45.619413,128.661348 C45.619413,128.661348 43.4162771,131.034479 41.040858,128.661348 L40.6754089,122.869653 L46.1414832,122.869653 Z" id="Shape" fill="#FFC4B6"></path>
                        <path d="M55.72147,123.747816 C55.6795283,123.944217 55.60355,124.131744 55.4969799,124.301895 C54.3954119,125.96936 50.4798859,125.347328 46.7418638,122.864426 C43.8965816,120.982648 41.9858049,118.593835 41.7195492,116.821828 C41.4010864,118.614744 43.4476013,121.474001 46.7418638,123.6485 C50.4798859,126.11572 54.3954119,126.784797 55.4969799,125.08597 C55.6008057,124.925701 55.6767135,124.748953 55.72147,124.563253 C55.7677367,124.293415 55.7677367,124.017655 55.72147,123.747816 Z" id="Shape" fill="#FFFFFF"></path>
                        <path d="M57.9291737,28.325987 C54.5357179,23.4699542 52.6830219,23.9613073 52.6830219,23.9613073 L52.6830219,25.8849027 C55.215062,26.898972 56.3792784,29.8889082 56.3792784,29.8889082 C54.1395975,33.7726891 49.5088355,33.2865631 49.5088355,33.2865631 C47.7619452,31.3774398 45.7693263,29.709303 43.5833395,28.325987 C42.8785449,27.839861 41.8030804,28.325987 41.8030804,28.325987 C41.8030804,28.325987 40.5605535,29.1884686 39.537296,30.0509502 C38.5140386,30.9134319 38.5349214,31.697506 38.5349214,31.697506 C42.6122891,30.7409355 44.9511633,36.104003 45.5828681,38.0380527 C46.214573,39.9721024 45.4993369,50.201657 41.7769769,50.7870991 C39.6734635,51.1785304 37.5458546,50.2359089 36.4205374,48.4139678 L38.8377221,70.1537316 C38.4395552,75.338393 38.4395552,80.5460109 38.8377221,85.7306723 C38.5349214,97.2052821 38.7907358,121.343322 38.8377221,122.770337 C38.8847084,124.197352 40.6597468,122.812154 40.6597468,122.869653 C40.6597468,123.831451 41.8866116,124.610298 43.400615,124.610298 C44.9146184,124.610298 48.120129,123.732135 48.120129,122.770337 C48.120129,121.808539 46.1443182,122.803382 46.1414832,122.770337 C46.1414832,122.770337 47.2743753,108.134286 48.120129,97.810642 C48.8719099,107.29794 49.4253043,115.93321 49.4253043,115.93321 C49.5401597,116.827055 50.7148175,117.532722 52.155731,117.532722 C53.5966446,117.532722 54.8965992,116.753875 54.8965992,115.792077 C54.9853511,113.533943 56.2539816,84.4656992 56.5045752,81.088953 C56.7081826,78.4126465 59.9189139,69.4480649 59.8092791,63.3897849 C59.8719275,61.4609624 59.8092791,50.980504 59.8092791,50.980504 C59.8092791,50.980504 61.3226295,33.1820199 57.9291737,28.325987 Z" id="Shape" fill="#67A5EC"></path>
                        <path d="M42.1476467,129.476785 C44.0427612,130.323585 45.5880888,128.661348 45.5880888,128.661348 L46.110159,122.869653 L41.9335979,122.869653 L42.1476467,129.476785 Z" id="Shape" fill="#DCA092"></path>
                        <path d="M45.7290478,127.323195 L45.6037509,128.661348 C45.6037509,128.661348 43.400615,131.034479 41.0251959,128.661348 L40.7171745,123.794861 C37.3968085,121.981036 34.2017393,121.636043 33.2306889,123.120557 C32.1291209,124.788021 34.2748291,128.138632 37.9971892,130.605852 C41.7195492,133.073072 45.6507372,133.710786 46.7523052,132.038094 C46.859802,131.87031 46.9358738,131.684324 46.9767954,131.489242 C46.9767954,131.489242 47.368348,130.151089 45.7290478,127.323195 Z" id="Shape" fill="url(#linearGradient-3)"></path>
                        <path d="M59.7988377,28.2052821 C56.6685018,24.1432976 58.140633,25.7596561 56.5411201,24.9178779 C54.1395975,24.8028803 53.2938439,26.1776237 53.2938439,26.1776237 C55.4082279,27.3746437 56.3949405,29.8889082 56.3949405,29.8889082 C54.1552596,33.7726891 49.5244976,33.2865631 49.5244976,33.2865631 C48.2434009,31.8602351 46.8115093,30.5772992 45.2539639,29.460281 C42.9516347,29.6327773 42.0119084,32.2672666 42.0119084,32.2672666 C43.9748921,33.9085953 45.1443292,36.7417167 45.5880888,38.0380527 C46.1884695,39.8518777 45.5880888,48.9575926 42.4556681,50.5832398 C42.5705235,58.6017052 42.5653028,67.0174349 42.142426,70.6712206 C41.2235826,78.6165058 41.8083011,87.6856306 41.7038871,96.0334072 C41.6099145,103.403705 41.9283772,120.465159 42.001467,124.369849 C42.4523701,124.537921 42.9299248,124.622925 43.4110564,124.620752 C44.7475559,124.620752 45.8595653,124.009174 46.0997176,123.204192 C46.0997176,123.204192 46.3398698,120.156757 46.6531119,116.231158 C47.018561,111.563303 47.5197483,105.170485 47.9687286,99.6401485 C48.0209356,98.9710718 48.0679219,98.3856297 48.1149083,97.8210963 C48.4490331,94.2823081 48.976324,89.3635494 48.976324,89.3635494 C48.976324,89.3635494 48.5586679,82.2127927 48.976324,81.0994074 C49.3939801,79.986022 57.1258387,70.342629 54.8861578,74.7659192 C52.646477,79.1892093 51.0489424,92.1653078 50.5581965,96.1065874 C50.1092161,99.7656003 51.0123975,115.410494 51.1272529,117.417724 C51.3620607,117.475882 51.6013005,117.514347 51.842489,117.532722 L53.6018653,117.271363 C54.3693084,116.962961 54.8861578,116.419336 54.8861578,115.802531 C54.9749097,113.544397 56.2435402,84.4761536 56.4941338,81.0994074 C56.6977412,78.4231008 59.9084725,69.4585192 59.7988377,63.4002393 C59.8614861,61.4714167 59.7988377,50.9909584 59.7988377,50.9909584 C59.7988377,50.9909584 62.9291737,32.2672666 59.7988377,28.2052821 Z" id="Shape" fill="#4A8AD2"></path>
                        <path d="M45.9291737,40.2052821 C45.9291737,54.2052821 43.5958404,63.5386154 38.9291737,68.2052821 C38.9291737,68.2052821 38.9291737,67.2052821 38.9291737,65.2052821 C42.262507,59.2052821 44.262507,53.5386154 44.9291737,48.2052821 C45.5958404,42.8719488 45.9291737,40.2052821 45.9291737,40.2052821 Z" id="Path-14" fill-opacity="0.4" fill="#000000"></path>
                        <path d="M55.9291737,61.2052821 C55.9291737,67.2052821 55.9291737,71.2052821 55.9291737,73.2052821" id="Path-3" stroke="#FFFFFF" stroke-width="0.5" opacity="0.5"></path>
                        <path d="M42.9291737,57.2052821 L41.9291737,124.205282" id="Path-4" stroke="#FFFFFF" stroke-width="0.5" opacity="0.5"></path>
                        <path d="M40.9291737,64.2052821 C50.262507,64.8719488 56.5958404,62.8719488 59.9291737,58.2052821 C59.9291737,58.2052821 59.9291737,57.2052821 59.9291737,55.2052821 C55.262507,59.9552821 49.262507,61.9552821 41.9291737,61.2052821 C41.9291737,61.2052821 41.5958404,62.2052821 40.9291737,64.2052821 Z" id="Path-5" fill="#675954"></path>
                        <path d="M37.5951952,32.732484 C35.2810025,34.4836269 36.4430975,40.3009655 36.4570823,43.2052821 C36.4570823,46.508848 35.9477794,50.508848 34.9291737,55.2052821 C31.5958404,63.8719488 29.9291737,68.2052821 29.9291737,68.2052821 C29.9291737,68.2052821 33.5700345,71.2409812 36.4570823,70.5614502 C36.4570823,70.5614502 40.5814363,62.2293551 41.9962463,58.8369274 C43.4110564,55.4444998 44.904177,44.5876858 44.904177,44.5876858 L37.5951952,32.732484 Z" id="Shape" fill="#F1653C"></path>
                        <path d="M44.8780735,44.5772315 L39.537296,35.8583264 C39.537296,35.8583264 38.5714663,41.2052821 38.5714663,52.2350227 C38.6809606,55.2920126 37.3120689,57.2640247 36.4727444,60.2052821 C35.2719831,64.0524728 32.2583506,68.9644641 32.9291737,69.2052821 C33.5999968,69.4461001 35.7830296,70.7305139 36.4727444,70.5509959 C36.4727444,70.5509959 40.6023191,62.2189008 42.0171292,58.8264731 C43.4319392,55.4340454 44.8780735,44.5772315 44.8780735,44.5772315 Z" id="Shape" fill="#DE5D37"></path>
                        <path d="M32.2283142,68.5385388 L31.5235196,70.9325787 L30.4532758,71.9780109 C30.0199576,72.4118653 27.164234,74.345915 27.320855,75.4227102 C27.4774761,76.4995054 29.4091355,79.0033157 30.2862134,79.144449 C31.1632912,79.2855824 34.5828505,78.0990168 34.9378582,77.7853871 C35.2928659,77.4717574 36.2378128,74.9156756 36.4153167,74.2361446 C36.5928205,73.5566136 35.5852252,73.3423 34.7968993,73.3788901 L36.4153167,70.5039514 C34.7806082,70.5839051 33.2125118,69.847828 32.2283142,68.5385388 Z" id="Shape" fill="#FFC4B6"></path>
                        <path d="M34.8386649,73.4259346 C34.6216209,74.3378223 33.7959372,74.9725749 32.8600191,74.9470385 L36.3526683,74.638636 C36.3526683,74.638636 37.1148906,73.3632087 34.8386649,73.4259346 Z" id="Shape" fill="#D8C7C7"></path>
                        <path d="M40.0906904,13.4390317 C39.5183989,13.1136537 39.0854867,12.5890516 38.874267,11.9649722 C38.2164586,9.93160645 38.9839017,8.88617419 39.8139932,7.85119625 C40.6440847,6.81621832 43.6825329,6.45031703 44.1471753,5.61919838 C44.6118177,4.78807974 48.5638886,4.4692229 49.7959741,4.57376613 C51.0280596,4.67830935 55.3873451,4.05105 59.0679395,10.5170485 C59.0679395,10.5170485 59.5900097,11.2331696 60.8377573,12.7020019 C62.0855049,14.1708342 61.0100404,17.0875902 59.8562654,17.9291632 C58.3266,19.0686844 57.9402681,19.6332178 57.4808464,20.6577414 C56.8282587,22.1161194 57.1519422,23.7365394 52.6934633,23.9613073 C48.2349844,24.1860753 47.070768,24.3637988 45.9065516,23.7835839 C43.8182711,22.7381516 44.3403412,20.5218352 44.6222591,19.8945759 C44.904177,19.2673165 45.1913155,18.6400571 45.1913155,18.6400571 C45.1913155,18.6400571 46.4547252,18.7446004 46.914147,16.5491926 C47.3735687,14.3537849 45.2957296,15.3051282 45.2957296,15.3051282 C45.2957296,15.3051282 44.9355012,13.5958465 43.7295192,13.5435749 C42.5235372,13.4913033 40.9051198,14.2858318 40.0906904,13.4390317 Z" id="Shape" fill="#131749"></path>
                        <path d="M26.6473846,25.3935495 C26.6473846,25.3935495 25.4152991,23.2765492 25.1594847,22.7015615 C24.8305805,21.9697589 22.4499407,20.9713711 22.4499407,20.9713711 L24.0735788,23.7835839 L25.5823615,29.8575453 C25.5823615,29.8575453 25.9425899,30.1189033 26.9293024,29.6745946 L29.7119362,31.697506 C29.7119362,31.697506 28.8139756,29.298239 31.2416017,27.3119177 L26.6473846,25.3935495 Z" id="Shape" fill="#FFC4B6"></path>
                        <path d="M49.4253043,115.93321 C49.5401597,116.827055 50.7148175,117.532722 52.155731,117.532722 C53.5966446,117.532722 54.8965992,116.753875 54.8965992,115.792077 C54.9017362,115.724221 54.9017362,115.656073 54.8965992,115.588218 C54.9853511,113.533943 56.2539816,84.4656992 56.5045752,81.088953 C56.6611963,79.0399058 58.5928557,73.2952556 59.4229472,68.0210498 C57.5957018,72.9554901 50.6260656,78.8360465 49.9682572,82.0559779 C49.3104488,85.2759092 48.1305704,97.8263235 48.1305704,97.8263235 C48.8823513,107.313621 49.4357457,115.948892 49.4357457,115.948892 L49.4253043,115.93321 Z" id="Shape" fill="#67A5EC"></path>
                        <polygon id="Path-15" fill="#3D638D" points="48.9291737 81.2052821 54.9291737 74.2052821 48.9291737 85.2052821"></polygon>
                        <path d="M60.8377573,12.6810933 C59.5691269,11.212261 59.0679395,10.4961399 59.0679395,10.4961399 C56.3636163,5.72896877 53.2938439,4.80376122 51.3621845,4.61558342 L47.5876174,15.4096715 L46.9611333,15.9846592 C46.9647679,16.1796492 46.945493,16.374391 46.9037056,16.5648741 C46.4442838,18.7446004 45.1808741,18.6557386 45.1808741,18.6557386 C45.1808741,18.6557386 43.9018023,23.2451862 47.7546799,24.1860753 C48.7674959,24.1860753 50.2240716,24.1076679 52.6934633,23.9769888 C57.1519422,23.7522209 56.8282587,22.1318009 57.4808464,20.6734229 C57.9402681,19.6279906 58.3266,19.1052745 59.8562654,17.9448447 C61.0100404,17.0666816 62.1690361,14.2231059 60.8377573,12.6810933 Z" id="Shape" fill="#131749"></path>
                        <path d="M31.2416017,27.3119177 C31.2416017,27.3119177 27.7437318,26.1514879 26.6473846,25.3935495 C25.5510373,24.6356111 24.45469,23.302685 22.6222239,23.7835839 C20.7897577,24.2644827 19.9648869,24.2697099 19.928342,24.761063 C19.928342,25.053784 20.5652676,25.2367347 22.6274446,25.0799199 C23.6715848,25.0015124 24.4964556,28.5716636 27.3521792,27.7614536 L29.5553152,29.6275502 C29.9430508,28.7423734 30.518447,27.9522312 31.2416017,27.3119177 Z" id="Shape" fill="#FFC4B6"></path>
                        <path d="M41.0251959,128.650894 L40.8268093,125.561641 C39.3702336,124.657342 38.0128513,124.322804 37.6578436,124.829839 C37.3028359,125.336873 38.2634449,126.805706 39.9131865,127.966135 C40.2733397,128.220974 40.6500661,128.451481 41.040858,128.656121 L41.0251959,128.650894 Z" id="Shape" fill="#D3AF4A"></path>
                        <g id="casquette" transform="translate(34.838665, 0.000000)">
                            <path d="M18.9876906,6.5078158 L10.0028637,1.37474342 C9.82061742,1.2752726 9.60039136,1.2752726 9.41814512,1.37474342 L0.433318207,6.5078158 C0.246284232,6.61462538 0.132225364,6.81497626 0.135738233,7.03053193 C0.133344737,7.24579883 0.24710277,7.44562128 0.433318207,7.55324806 L9.39726231,12.6601846 C9.57817486,12.7647638 9.80106831,12.7647638 9.98198086,12.6601846 L18.9668078,7.53233941 C19.1546771,7.42636821 19.2690467,7.22547143 19.2643877,7.00962329 C19.2668772,6.80523186 19.1617668,6.61460767 18.9876906,6.5078158 Z" id="Shape" fill="#B29115"></path>
                            <path d="M12.3678413,0.914753225 C11.7640286,1.18002504 11.1885628,1.50576691 10.6502306,1.88700522 C10.048087,2.29381826 9.51862191,2.7991996 9.08402024,3.38197335 C8.03987998,4.72012664 7.15758146,5.96419103 7.3246439,8.98549025 C7.63266528,12.2524661 12.9368978,16.8000964 17.4997907,16.8000964 C22.2610703,16.8000964 26.1243892,13.9878836 26.1243892,10.5275028 C26.1243892,10.5275028 26.1243892,10.4229596 26.1243892,10.2347818 C26.1272714,10.2227558 26.1272714,10.2102177 26.1243892,10.1981917 C26.0617408,9.0063989 25.6962917,5.54079096 22.9032165,2.96902761 L22.161877,2.38881271 C20.574002,1.25922819 18.7580625,0.491985595 16.8419823,0.141133355 C15.3073334,-0.0370402972 13.7539198,0.231559113 12.3678413,0.914753225 Z" id="Shape" fill="#DFB51A"></path>
                            <path d="M26.1348306,10.5170485 C26.1348306,10.5170485 26.1348306,10.4125053 26.1348306,10.2243275 C26.1377128,10.2123015 26.1377128,10.1997634 26.1348306,10.1877373 C26.0721822,8.99594458 25.7067331,5.53033664 22.9136579,2.95857329 L22.1723184,2.37835839 C21.6396347,1.99758575 21.0794839,1.65688614 20.4964732,1.35906193 C18.7214348,1.54201258 15.8918147,2.2006349 14.3203836,4.46399574 C12.409607,7.20825541 11.710033,10.8777226 12.7541732,15.4096715 C14.200327,16.2641307 15.8372664,16.7421621 17.5154528,16.8000964 C22.2715117,16.7896421 26.1348306,13.9878836 26.1348306,10.5170485 Z" id="Shape" fill="#B29115"></path>
                            <path d="M22,64 L24,62 C24,66.6666667 23.6666667,69.3333333 23,70 C22.3333333,70.6666667 22,68.6666667 22,64 Z" id="Path-27" stroke="#FFFFFF" opacity="0.3"></path>
                            <path d="M14.0905088,1.20528211 C17.4238421,1.20528211 19.7571755,1.87194878 21.0905088,3.20528211 C23.0905088,5.20528211 25.0905088,9.20528211 25.0905088,15.2052821" id="Path-16" stroke="#735D0D" opacity="0.5"></path>
                            <path d="M14.0905088,1.20528211 C17.4238421,1.20528211 19.7571755,1.87194878 21.0905088,3.20528211 C23.0905088,5.20528211 25.0905088,9.20528211 25.0905088,15.2052821" id="Path" stroke="#9D8013"></path>
                            <polygon id="Path-32" fill-opacity="0.5" fill="#D8D8D8" points="17.0905088 36.2052821 24.0905088 32.2052821 24.0905088 37.2052821 17.0905088 41.2052821"></polygon>
                            <polygon id="Path" fill="#D8D8D8" opacity="0.5" points="17.0905088 36.2052821 24.0905088 32.2052821 24.0905088 37.2052821 17.0905088 41.2052821"></polygon>
                            <ellipse id="Oval" fill="url(#linearGradient-4)" opacity="0.3" style="mix-blend-mode: overlay;" transform="translate(18.886764, 3.725040) rotate(-57.580000) translate(-18.886764, -3.725040) " cx="18.8867641" cy="3.72503985" rx="1" ry="1"></ellipse>
                        </g>
                        <path d="M25.4883889,77.5188019 L27.6445385,77.3463056 L28.2762434,77.294034 L28.0413118,76.9490413 C27.7233899,76.5000628 27.4849815,75.9996698 27.3365171,75.4697547 L23.5619501,75.6579325 C22.8112315,74.6164241 21.6466544,73.9516524 20.3690983,73.8353672 C19.0915422,73.719082 17.8263278,74.1626903 16.9003353,75.0515818 L16.503562,75.4540732 C15.7702068,76.1554572 15.2985913,77.0869438 15.1670624,78.0937896 C16.3247846,76.682251 18.391797,76.4439706 19.8396137,77.5551489 C21.2874304,78.6663272 21.5945834,80.7267449 20.5339434,82.2127927 L20.0118732,82.7355089 L19.6150999,83.1327731 C22.1919127,82.9294773 24.2322213,80.868861 24.4129244,78.2871946 C24.4124061,78.0612248 24.3931979,77.8356861 24.3554967,77.6128908 L25.4883889,77.5188019 Z" id="Shape" fill="#97979E"></path>
                        <path d="M16.5140034,75.4645275 C17.4385031,74.5734143 18.7037036,74.1277972 19.9818085,74.2431294 C21.2599134,74.3584617 22.4251489,75.0233939 23.1756182,76.065651 L27.4461519,75.8304288 C27.4018477,75.7185309 27.3669225,75.603135 27.3417378,75.4854361 L23.5671708,75.673614 C22.8164522,74.6321056 21.6518752,73.9673338 20.374319,73.8510487 C19.0967629,73.7347635 17.8315485,74.1783718 16.905556,75.0672632 L16.5087827,75.4697547 L16.5140034,75.4645275 Z" id="Shape" fill="#77777F"></path>
                        <path d="M28.2763457,77.2940339 L28.0413118,76.9490413 C28.1718862,77.1476734 28.2763457,77.2940339 28.2763457,77.2940339 Z" id="Shape" fill="#77777F"></path>
                        <polygon id="Shape" fill="#77777F" points="20.1687308 82.5996027 20.0224875 82.740736 19.6255413 83.1380002 20.1478389 82.6152841"></polygon>
                        <path d="M23.9326199,77.6547081 C23.9867697,78.000976 24.0216283,78.3499932 24.0370339,78.7001403 C24.0390854,79.7979488 23.6312993,80.8568945 22.8937003,81.6691679 L22.9198038,81.6430321 C23.9364356,80.7723489 24.4918891,79.4785492 24.4233658,78.1408341 C24.4233658,78.0310637 24.3816002,77.7383427 24.3711588,77.618118 L23.9326199,77.6547081 Z" id="Shape" fill="#77777F"></path>
                        <path d="M22.5595755,81.9827976 C22.6118052,81.9409803 22.653589,81.8939359 22.7058188,81.8468914 C22.653589,81.8939359 22.6118052,81.9409803 22.5595755,81.9827976 Z" id="Shape" fill="#77777F"></path>
                        <path d="M35.5904459,73.4782062 C35.3338592,73.4321993 35.072987,73.4146695 34.8125614,73.4259346 L36.4257581,70.5509959 C35.7499378,70.584659 35.074475,70.477875 34.4418916,70.2373662 C34.2435049,70.7600823 33.4395169,72.9711716 33.1001714,73.3423 C32.7608258,73.7134285 31.481754,74.5811372 31.3512364,75.0515818 C31.2207189,75.5220263 32.7138395,77.5135747 32.7138395,77.5135747 C32.7138395,77.5135747 33.4134134,78.2819674 34.9535203,77.8324316 C35.3525004,77.2327923 35.6653219,76.5799811 35.8828051,75.8931547 L35.5904459,73.4782062 Z" id="Shape" fill="#DCA092"></path>
                        <path d="M39.1875091,75.3338485 C39.2423646,75.2049215 39.2707712,75.0662679 39.2710403,74.9261299 C39.2835608,74.704405 39.2003086,74.4879853 39.0424733,74.3319551 C38.884638,74.1759249 38.6674429,74.0953333 38.4461695,74.1106927 C38.3783537,74.106882 38.3103779,74.106882 38.2425621,74.1106927 L33.2254682,74.5550014 L32.8339156,74.9470385 L33.596138,76.5726857 L37.9554236,76.2224659 C38.1843324,76.2157731 38.4053357,76.1371375 38.5871284,75.997698 L38.978681,75.610888 C39.0562303,75.5415841 39.119998,75.4582289 39.1666262,75.3652114 L39.1875091,75.3338485 Z" id="Shape" fill="#97979E"></path>
                        <path d="M51.2055634,115.917529 L51.2055634,122.634431 C52.9649397,123.204192 54.3379842,121.709223 54.3379842,121.709223 L54.8600543,115.917529 L51.2055634,115.917529 Z" id="Shape" fill="#DCA092"></path>
                        <path d="M38.4461695,74.1002384 C38.3783537,74.0964277 38.3103779,74.0964277 38.2425621,74.1002384 L33.2254682,74.5445471 L32.8339156,74.9365842 L37.8510095,74.4922755 C37.9170411,74.4871954 37.9833646,74.4871954 38.0493962,74.4922755 C38.2719863,74.4735492 38.4916793,74.5528527 38.651126,74.7094845 C38.8105726,74.8661163 38.8939481,75.0845309 38.8794877,75.3077127 C38.8808716,75.4468897 38.8505171,75.5845478 38.7907358,75.7102041 C38.7441075,75.8032215 38.6803398,75.8865767 38.6027905,75.9558807 L38.9943431,75.5690707 C39.0718924,75.4997668 39.1356601,75.4164116 39.1822884,75.3233941 C39.2371439,75.1944672 39.2655505,75.0558136 39.2658196,74.9156756 C39.2781863,74.6949207 39.1956233,74.4794172 39.0389758,74.3235749 C38.8823283,74.1677325 38.666568,74.086446 38.4461695,74.1002384 Z" id="Shape" fill="#77777F"></path>
                        <path d="M59.4020644,68.0158227 C58.3109379,70.9587145 55.3925658,74.2361446 53.0745745,77.0901747 C52.8187601,78.9196811 52.505518,80.9791827 52.1505103,82.8766422 C51.3413016,87.1733688 51.2212255,110.544007 51.2055634,117.433405 C51.5171282,117.505812 51.8358841,117.542637 52.155731,117.543176 C53.6697344,117.543176 54.9291737,117.543176 55.3038139,117.433405 C55.6784541,117.323635 56.9291737,116.205282 56.9291737,115.802531 C56.9291737,115.39978 57.67858,86.2533884 57.9291737,82.8766422 C58.1797674,79.499896 58.5615315,73.3004827 59.4020644,68.0158227 Z" id="Shape" fill="#4A8AD2"></path>
                        <path d="M45.6037509,128.650894 C45.6037509,128.650894 44.0375405,130.313131 42.1633088,129.466331 C41.6568143,130.354597 41.4568134,131.385233 41.5942523,132.398768 C43.9853335,133.22466 46.0109656,133.156707 46.7523052,132.02764 C46.859802,131.859856 46.9358738,131.67387 46.9767954,131.478788 C46.9767954,131.478788 47.3370238,130.140635 45.7238271,127.297059 L45.6037509,128.650894 Z" id="Shape" fill="#A1632A"></path>
                        <path d="M46.9820161,130.699941 C46.9400743,130.896342 46.8640961,131.083869 46.7575259,131.25402 C45.6559579,132.921484 41.740432,132.299452 38.0024099,129.816551 C35.1571277,127.94 33.246351,125.54596 32.9800952,123.773952 C32.6616324,125.566868 34.7081474,128.431353 38.0024099,130.605852 C41.740432,133.067845 45.6559579,133.710786 46.7575259,132.038094 C46.8650227,131.87031 46.9410945,131.684324 46.9820161,131.489242 C47.0285903,131.21943 47.0285903,130.943617 46.9820161,130.673805 L46.9820161,130.699941 Z" id="Shape" fill="#FFFFFF"></path>
                        <polyline id="Path-7" fill="#4A8AD2" points="44.9291737 60.2052821 44.9291737 65.2052821 46.9291737 65.2052821 46.9291737 60.2052821"></polyline>
                        <path d="M53.9291737,58.2052821 C54.5958404,59.5386154 54.9291737,61.2052821 54.9291737,63.2052821 C54.9291737,63.2052821 55.5958404,62.8719488 56.9291737,62.2052821 C56.9291737,60.2052821 56.5958404,58.5386154 55.9291737,57.2052821 C55.9291737,57.2052821 55.262507,57.5386154 53.9291737,58.2052821 Z" id="Path-8" fill="#4A8AD2"></path>
                        <path d="M47.6934638,70 L52.6934638,67 C52.6934638,72.3333333 52.0267971,75.3333333 50.6934638,76 C49.3601304,76.6666667 48.3601304,74.6666667 47.6934638,70 Z" id="Path-26" stroke="#FFFFFF" opacity="0.3"></path>
                        <g id="tablette" transform="translate(0.983346, 8.030469)">
                            <path d="M24.537296,18.6145021 L14.4381394,1.09770387 C14.3442063,0.935587609 14.2051162,0.80439864 14.0378857,0.720186666 L13.9160693,0.679530967 L13.2837844,0.441404731 C13.0985616,0.361977498 12.8889292,0.361977498 12.7037065,0.441404731 L0.522070129,7.49226451 C0.522070129,7.49226451 -0.406054544,8.16017956 0.423456882,9.57732107 L10.4414026,26.7107942 C10.8335613,26.9807953 11.3072134,27.106027 11.7813826,27.0650796 C11.9508523,27.0640149 12.117001,27.0179167 12.2628472,26.9314965 L24.2008508,19.9038686 C24.6472996,19.639278 24.7974315,19.0639242 24.537296,18.6145021 Z" id="Shape" fill="#D9D9DB"></path>
                            <path d="M14.4381394,1.09770387 C14.3442063,0.935587609 14.2051162,0.80439864 14.0378857,0.720186666 L13.9160693,0.679530967 L13.5854249,0.551755914 L1.40378857,7.59680774 C1.40378857,7.59680774 0.481464674,8.26472279 1.30517532,9.6818643 C2.12888597,11.0990058 11.2999179,26.8327613 11.2999179,26.8327613 C11.440652,26.9411566 11.6027887,27.0183658 11.7755818,27.0592716 C11.9432378,27.0582997 12.107541,27.0121576 12.2512457,26.9256886 L24.1892493,19.8980606 C24.6356981,19.6334701 24.78583,19.0581163 24.5256945,18.6086942 L14.4381394,1.09770387 Z" id="Shape" fill="#FFFFFF"></path>
                            <path d="M22.7564568,17.9001234 L14.1771044,3.01432968 C14.0694787,2.82897531 13.8916986,2.69495168 13.6840381,2.64262043 C13.4874866,2.59295398 13.2793326,2.6221316 13.1039602,2.72393183 L2.96419817,8.69451161 C2.58343362,8.9190226 2.45408738,9.40855638 2.67415921,9.79221548 L11.2535117,24.6722013 C11.3611373,24.8575556 11.5389175,24.9915793 11.7465779,25.0439105 C11.8137274,25.0558606 11.8824556,25.0558606 11.9496052,25.0439105 C12.092515,25.0452012 12.233014,25.0070185 12.3556597,24.9335593 L22.5012225,18.9629796 C22.8518382,18.7307554 22.9633124,18.2665502 22.7564568,17.9001234 Z" id="Shape" fill="url(#linearGradient-5)"></path>
                            <ellipse id="Oval" fill="#D9D9DB" cx="7.99347375" cy="4.69282924" rx="1" ry="1"></ellipse>
                        </g>
                    </g>
                </g>
            </g>
        </g>
    </g>
</svg>